<svg width="22" height="23" viewBox="0 0 22 23" fill="none" xmlns="http://www.w3.org/2000/svg">
<path d="M0.25 4.27083C0.25 3.33705 0.620944 2.44151 1.28123 1.78123C1.94151 1.12094 2.83705 0.75 3.77083 0.75H16.2292C17.1629 0.75 18.0585 1.12094 18.7188 1.78123C19.3791 2.44151 19.75 3.33705 19.75 4.27083V10.5238C18.398 9.65912 16.7911 9.28221 15.1956 9.45552C13.6001 9.62883 12.1116 10.342 10.9768 11.4768C9.84196 12.6116 9.12883 14.1001 8.95552 15.6956C8.78221 17.2911 9.15912 18.898 10.0238 20.25H3.77083C2.83705 20.25 1.94151 19.8791 1.28123 19.2188C0.620944 18.5585 0.25 17.6629 0.25 16.7292V4.27083ZM10.5417 7.52083C10.5417 7.96933 10.9057 8.33333 11.3542 8.33333H15.1458C15.3613 8.33333 15.568 8.24773 15.7204 8.09536C15.8727 7.94298 15.9583 7.73632 15.9583 7.52083C15.9583 7.30534 15.8727 7.09868 15.7204 6.94631C15.568 6.79394 15.3613 6.70833 15.1458 6.70833H11.3542C11.1387 6.70833 10.932 6.79394 10.7796 6.94631C10.6273 7.09868 10.5417 7.30534 10.5417 7.52083ZM8.67833 7.01167C8.75816 6.93728 8.82219 6.84758 8.8666 6.74792C8.911 6.64825 8.93488 6.54066 8.93681 6.43157C8.93873 6.32247 8.91866 6.21411 8.8778 6.11294C8.83694 6.01177 8.77611 5.91986 8.69896 5.84271C8.6218 5.76555 8.5299 5.70473 8.42873 5.66387C8.32756 5.623 8.2192 5.60293 8.1101 5.60486C8.00101 5.60678 7.89342 5.63066 7.79375 5.67507C7.69408 5.71948 7.60438 5.78351 7.53 5.86333L5.9375 7.45583L5.42833 6.94667C5.27431 6.80315 5.07059 6.72501 4.8601 6.72873C4.64961 6.73244 4.44877 6.81771 4.29991 6.96658C4.15105 7.11544 4.06577 7.31627 4.06206 7.52677C4.05835 7.73726 4.13648 7.94098 4.28 8.095L5.36333 9.17833C5.51568 9.33049 5.72219 9.41595 5.9375 9.41595C6.15281 9.41595 6.35932 9.33049 6.51167 9.17833L8.67833 7.01167ZM8.67833 11.8217C8.52599 11.6695 8.31948 11.584 8.10417 11.584C7.88885 11.584 7.68234 11.6695 7.53 11.8217L5.9375 13.4142L5.42833 12.905C5.27431 12.7615 5.07059 12.6833 4.8601 12.6871C4.64961 12.6908 4.44877 12.776 4.29991 12.9249C4.15105 13.0738 4.06577 13.2746 4.06206 13.4851C4.05835 13.6956 4.13648 13.8993 4.28 14.0533L5.36333 15.1367C5.51568 15.2888 5.72219 15.3743 5.9375 15.3743C6.15281 15.3743 6.35932 15.2888 6.51167 15.1367L8.67833 12.97C8.83049 12.8177 8.91595 12.6111 8.91595 12.3958C8.91595 12.1805 8.83049 11.974 8.67833 11.8217ZM21.9167 16.4583C21.9167 14.8781 21.2889 13.3626 20.1715 12.2452C19.0541 11.1278 17.5386 10.5 15.9583 10.5C14.3781 10.5 12.8626 11.1278 11.7452 12.2452C10.6278 13.3626 10 14.8781 10 16.4583C10 18.0386 10.6278 19.5541 11.7452 20.6715C12.8626 21.7889 14.3781 22.4167 15.9583 22.4167C17.5386 22.4167 19.0541 21.7889 20.1715 20.6715C21.2889 19.5541 21.9167 18.0386 21.9167 16.4583ZM16.5 17L16.5011 19.7116C16.5011 19.8552 16.444 19.993 16.3424 20.0946C16.2408 20.1962 16.1031 20.2532 15.9594 20.2532C15.8158 20.2532 15.678 20.1962 15.5764 20.0946C15.4748 19.993 15.4177 19.8552 15.4177 19.7116V17H12.704C12.5603 17 12.4226 16.9429 12.321 16.8413C12.2194 16.7398 12.1623 16.602 12.1623 16.4583C12.1623 16.3147 12.2194 16.1769 12.321 16.0753C12.4226 15.9737 12.5603 15.9167 12.704 15.9167H15.4167V13.2083C15.4167 13.0647 15.4737 12.9269 15.5753 12.8253C15.6769 12.7237 15.8147 12.6667 15.9583 12.6667C16.102 12.6667 16.2398 12.7237 16.3413 12.8253C16.4429 12.9269 16.5 13.0647 16.5 13.2083V15.9167H19.2051C19.3487 15.9167 19.4865 15.9737 19.5881 16.0753C19.6897 16.1769 19.7467 16.3147 19.7467 16.4583C19.7467 16.602 19.6897 16.7398 19.5881 16.8413C19.4865 16.9429 19.3487 17 19.2051 17H16.5Z" fill="#95C8EB"/>
</svg>
