<svg width="18" height="18" viewBox="0 0 18 18" fill="none" xmlns="http://www.w3.org/2000/svg">
<path fill-rule="evenodd" clip-rule="evenodd" d="M4.34467 1.01697C7.43853 0.674031 10.5608 0.674031 13.6547 1.01697C15.3677 1.20897 16.7497 2.55797 16.9507 4.27697C17.3177 7.41494 17.3177 10.585 16.9507 13.723C16.7497 15.442 15.3677 16.791 13.6547 16.983C10.5608 17.326 7.43853 17.326 4.34467 16.983C2.63167 16.791 1.24967 15.442 1.04867 13.723C0.681692 10.5853 0.681692 7.41561 1.04867 4.27797C1.15034 3.44284 1.53105 2.66651 2.12911 2.07481C2.72716 1.48311 3.50751 1.11071 4.34367 1.01797M8.99967 4.00697C9.19859 4.00697 9.38935 4.08599 9.53 4.22664C9.67066 4.36729 9.74967 4.55806 9.74967 4.75697V8.24997H13.2427C13.4416 8.24997 13.6324 8.32899 13.773 8.46964C13.9137 8.61029 13.9927 8.80106 13.9927 8.99997C13.9927 9.19888 13.9137 9.38965 13.773 9.5303C13.6324 9.67095 13.4416 9.74997 13.2427 9.74997H9.74967V13.243C9.74967 13.4419 9.67066 13.6326 9.53 13.7733C9.38935 13.914 9.19859 13.993 8.99967 13.993C8.80076 13.993 8.61 13.914 8.46934 13.7733C8.32869 13.6326 8.24967 13.4419 8.24967 13.243V9.74997H4.75667C4.55776 9.74997 4.367 9.67095 4.22634 9.5303C4.08569 9.38965 4.00667 9.19888 4.00667 8.99997C4.00667 8.80106 4.08569 8.61029 4.22634 8.46964C4.367 8.32899 4.55776 8.24997 4.75667 8.24997H8.24967V4.75697C8.24967 4.55806 8.32869 4.36729 8.46934 4.22664C8.61 4.08599 8.80076 4.00697 8.99967 4.00697Z" fill="#197BBD"/>
</svg>