<svg width="150" height="150" viewBox="0 0 150 150" fill="none" xmlns="http://www.w3.org/2000/svg">
<path d="M149.5 75C149.5 116.145 116.145 149.5 75 149.5C33.8548 149.5 0.5 116.145 0.5 75C0.5 33.8548 33.8548 0.5 75 0.5C116.145 0.5 149.5 33.8548 149.5 75Z" fill="#D4D9E9" stroke="#D4D9E9"/>
<path d="M120 147C120 148.657 118.657 150 117 150H33C31.3431 150 30 148.657 30 147V55.9966C30 54.3411 31.3527 53.027 32.979 52.7172C36.1124 52.1204 39.0208 50.5961 41.3084 48.3085C43.596 46.0209 45.1204 43.1124 45.7172 39.979C46.027 38.3527 47.3411 37 48.9966 37H100.994C102.653 37 103.969 38.3587 104.277 39.9891C104.48 41.0608 104.793 42.1114 105.213 43.1238C106.018 45.0648 107.2 46.8268 108.691 48.308C110.172 49.7991 111.934 50.9816 113.875 51.787C114.888 52.2071 115.939 52.5202 117.011 52.723C118.641 53.0315 120 54.3472 120 56.0067V147Z" fill="#F2F3F5"/>
<path d="M75 102C88.2548 102 99 91.2548 99 78C99 64.7452 88.2548 54 75 54C61.7452 54 51 64.7452 51 78C51 91.2548 61.7452 102 75 102Z" fill="#2B3674"/>
<g clip-path="url(#clip0_370_412)">
<path d="M67.08 82.9602C67.4619 82.8489 67.8724 82.8937 68.2212 83.085C68.5701 83.2763 68.8286 83.5983 68.94 83.9802C69.0514 84.3622 69.0065 84.7727 68.8152 85.1215C68.6239 85.4703 68.3019 85.7289 67.92 85.8402C67.17 86.0592 66.63 86.2902 66.2835 86.5002C66.6405 86.7147 67.2045 86.9547 67.9875 87.1782C69.72 87.6732 72.1995 88.0002 75 88.0002C77.8005 88.0002 80.28 87.6732 82.0125 87.1782C82.797 86.9547 83.3595 86.7147 83.7165 86.5002C83.3715 86.2902 82.8315 86.0592 82.0815 85.8402C81.7056 85.7239 81.3904 85.4646 81.204 85.1181C81.0175 84.7716 80.9746 84.3657 81.0846 83.9879C81.1946 83.6102 81.4487 83.2907 81.792 83.0985C82.1353 82.9062 82.5404 82.8566 82.92 82.9602C83.922 83.2527 84.84 83.6277 85.545 84.1092C86.1975 84.5577 87 85.3392 87 86.5002C87 87.6747 86.178 88.4622 85.515 88.9107C84.798 89.3937 83.8605 89.7702 82.836 90.0627C80.769 90.6552 78 91.0002 75 91.0002C72 91.0002 69.231 90.6552 67.164 90.0627C66.1395 89.7702 65.202 89.3937 64.485 88.9107C63.822 88.4607 63 87.6747 63 86.5002C63 85.3392 63.8025 84.5577 64.455 84.1092C65.16 83.6277 66.078 83.2527 67.08 82.9602ZM75 61.0002C77.9837 61.0002 80.8452 62.1855 82.955 64.2953C85.0647 66.4051 86.25 69.2666 86.25 72.2502C86.25 76.1022 84.15 79.2342 81.975 81.4602C81.1104 82.3361 80.1813 83.1459 79.1955 83.8827C78.3045 84.5517 76.2675 85.8057 76.2675 85.8057C75.8812 86.0253 75.4444 86.1408 75 86.1408C74.5556 86.1408 74.1188 86.0253 73.7325 85.8057C72.7212 85.2203 71.7436 84.5782 70.8045 83.8827C69.8183 83.1464 68.8892 82.3366 68.025 81.4602C65.85 79.2342 63.75 76.1022 63.75 72.2502C63.75 69.2666 64.9353 66.4051 67.045 64.2953C69.1548 62.1855 72.0163 61.0002 75 61.0002ZM75 69.2502C74.2044 69.2502 73.4413 69.5663 72.8787 70.1289C72.3161 70.6915 72 71.4546 72 72.2502C72 73.0459 72.3161 73.809 72.8787 74.3716C73.4413 74.9342 74.2044 75.2502 75 75.2502C75.7956 75.2502 76.5587 74.9342 77.1213 74.3716C77.6839 73.809 78 73.0459 78 72.2502C78 71.4546 77.6839 70.6915 77.1213 70.1289C76.5587 69.5663 75.7956 69.2502 75 69.2502Z" fill="white"/>
</g>
<path opacity="0.3" d="M88 108H62C60.3431 108 59 109.343 59 111C59 112.657 60.3431 114 62 114H88C89.6569 114 91 112.657 91 111C91 109.343 89.6569 108 88 108Z" fill="#2B3674"/>
<path opacity="0.15" d="M97 120H53C51.3431 120 50 121.343 50 123C50 124.657 51.3431 126 53 126H97C98.6569 126 100 124.657 100 123C100 121.343 98.6569 120 97 120Z" fill="#2B3674"/>
<defs>
<clipPath id="clip0_370_412">
<rect width="36" height="36" fill="white" transform="translate(57 58.0002)"/>
</clipPath>
</defs>
</svg>
