<svg width="170" height="138" viewBox="0 0 170 138" fill="none" xmlns="http://www.w3.org/2000/svg">
<path d="M159.541 0.399994H41.9406C36.5282 0.399994 32.1406 4.7876 32.1406 10.2V127.8C32.1406 133.212 36.5282 137.6 41.9406 137.6H159.541C164.953 137.6 169.341 133.212 169.341 127.8V10.2C169.341 4.7876 164.953 0.399994 159.541 0.399994Z" fill="#A3AED0" fill-opacity="0.47"/>
<path d="M41.9406 0.899994H159.541C164.677 0.899994 168.841 5.06375 168.841 10.2V127.8C168.841 132.936 164.677 137.1 159.541 137.1H41.9406C36.8044 137.1 32.6406 132.936 32.6406 127.8V10.2C32.6406 5.06375 36.8044 0.899994 41.9406 0.899994Z" stroke="#A3AED0" stroke-opacity="0.47"/>
<g filter="url(#filter0_d_1602_539)">
<path d="M11.5602 73.9H143.86C145.16 73.9 146.406 74.4162 147.325 75.3352C148.244 76.2541 148.76 77.5004 148.76 78.8V103.3C148.76 104.6 148.244 105.846 147.325 106.765C146.406 107.684 145.16 108.2 143.86 108.2H11.5602C10.2606 108.2 9.01426 107.684 8.09533 106.765C7.1764 105.846 6.66016 104.6 6.66016 103.3V78.8C6.66016 77.5004 7.1764 76.2541 8.09533 75.3352C9.01426 74.4162 10.2606 73.9 11.5602 73.9V73.9Z" fill="white"/>
</g>
<path opacity="0.3" d="M84.0802 81.74H58.6002C56.9764 81.74 55.6602 83.0563 55.6602 84.68C55.6602 86.3037 56.9764 87.62 58.6002 87.62H84.0802C85.7039 87.62 87.0201 86.3037 87.0201 84.68C87.0201 83.0563 85.7039 81.74 84.0802 81.74Z" fill="#2B3674"/>
<path opacity="0.15" d="M101.72 94.48H58.6002C56.9764 94.48 55.6602 95.7963 55.6602 97.42C55.6602 99.0437 56.9764 100.36 58.6002 100.36H101.72C103.344 100.36 104.66 99.0437 104.66 97.42C104.66 95.7963 103.344 94.48 101.72 94.48Z" fill="#2B3674"/>
<path d="M23.81 100.36C28.9518 100.36 33.12 96.1918 33.12 91.05C33.12 85.9082 28.9518 81.74 23.81 81.74C18.6682 81.74 14.5 85.9082 14.5 91.05C14.5 96.1918 18.6682 100.36 23.81 100.36Z" fill="#2B3674"/>
<path d="M22.1027 96.051C23.1947 96.051 23.6077 95.33 23.6077 94.476V89.597H22.8867V94.476C22.8867 94.952 22.6697 95.358 22.1027 95.358C22.0467 95.358 21.7317 95.344 21.6127 95.302L21.5427 95.974C21.7247 96.016 21.9697 96.051 22.1027 96.051ZM26.3228 94.49C27.2958 94.49 27.9538 93.853 27.9538 93.048C27.9538 92.341 27.4428 91.9 26.6308 91.697L26.0218 91.543C25.4128 91.389 25.3638 91.067 25.3638 90.913C25.3638 90.472 25.7698 90.199 26.2248 90.199C26.7218 90.199 27.0788 90.507 27.0788 90.962H27.7928C27.7928 90.087 27.1138 89.541 26.2458 89.541C25.3918 89.541 24.6428 90.08 24.6428 90.927C24.6428 91.326 24.8108 91.935 25.8398 92.194L26.4558 92.348C26.8478 92.453 27.2328 92.656 27.2328 93.083C27.2328 93.482 26.8968 93.832 26.3228 93.832C25.7208 93.832 25.3358 93.433 25.3218 93.02H24.6078C24.6078 93.797 25.2938 94.49 26.3228 94.49Z" fill="white"/>
<g filter="url(#filter1_d_1602_539)">
<path d="M143.86 29.8H11.5602C8.85396 29.8 6.66016 31.9938 6.66016 34.7V59.2C6.66016 61.9062 8.85396 64.1 11.5602 64.1H143.86C146.566 64.1 148.76 61.9062 148.76 59.2V34.7C148.76 31.9938 146.566 29.8 143.86 29.8Z" fill="white"/>
</g>
<path opacity="0.3" d="M82.1192 37.64H56.6392C55.0155 37.64 53.6992 38.9563 53.6992 40.58C53.6992 42.2037 55.0155 43.52 56.6392 43.52H82.1192C83.7429 43.52 85.0592 42.2037 85.0592 40.58C85.0592 38.9563 83.7429 37.64 82.1192 37.64Z" fill="#2B3674"/>
<path opacity="0.15" d="M99.7592 50.38H56.6392C55.0155 50.38 53.6992 51.6963 53.6992 53.32C53.6992 54.9437 55.0155 56.26 56.6392 56.26H99.7592C101.383 56.26 102.699 54.9437 102.699 53.32C102.699 51.6963 101.383 50.38 99.7592 50.38Z" fill="#2B3674"/>
<path d="M36.5502 56.26C41.692 56.26 45.8602 52.0918 45.8602 46.95C45.8602 41.8082 41.692 37.64 36.5502 37.64C31.4085 37.64 27.2402 41.8082 27.2402 46.95C27.2402 52.0918 31.4085 56.26 36.5502 56.26Z" fill="#2B3674"/>
<path d="M33.184 48.92C33.184 49.704 33.884 50.39 34.885 50.39C35.802 50.39 36.453 49.851 36.53 49.095C36.607 48.395 36.208 47.856 35.228 47.597L34.612 47.436C34.038 47.289 33.968 46.995 33.968 46.806C33.968 46.414 34.353 46.141 34.801 46.141C35.305 46.141 35.641 46.421 35.641 46.869H36.383C36.383 45.987 35.711 45.441 34.815 45.441C33.968 45.441 33.226 45.994 33.226 46.82C33.226 47.247 33.387 47.835 34.423 48.115L35.032 48.269C35.48 48.374 35.823 48.605 35.795 49.053C35.746 49.41 35.452 49.711 34.885 49.711C34.304 49.711 33.947 49.312 33.926 48.92H33.184ZM38.2255 46.19H39.3595C40.3045 46.19 40.7875 46.967 40.7875 47.919C40.7875 48.878 40.3045 49.634 39.3595 49.634H38.2255V46.19ZM39.3595 50.32C40.7315 50.32 41.5295 49.291 41.5295 47.919C41.5295 46.547 40.7315 45.497 39.3595 45.497H37.4835V50.32H39.3595Z" fill="white"/>
<defs>
<filter id="filter0_d_1602_539" x="0.660156" y="70.9" width="154.1" height="46.3" filterUnits="userSpaceOnUse" color-interpolation-filters="sRGB">
<feFlood flood-opacity="0" result="BackgroundImageFix"/>
<feColorMatrix in="SourceAlpha" type="matrix" values="0 0 0 0 0 0 0 0 0 0 0 0 0 0 0 0 0 0 127 0" result="hardAlpha"/>
<feOffset dy="3"/>
<feGaussianBlur stdDeviation="3"/>
<feColorMatrix type="matrix" values="0 0 0 0 0 0 0 0 0 0 0 0 0 0 0 0 0 0 0.161 0"/>
<feBlend mode="normal" in2="BackgroundImageFix" result="effect1_dropShadow_1602_539"/>
<feBlend mode="normal" in="SourceGraphic" in2="effect1_dropShadow_1602_539" result="shape"/>
</filter>
<filter id="filter1_d_1602_539" x="0.660156" y="26.8" width="154.1" height="46.3" filterUnits="userSpaceOnUse" color-interpolation-filters="sRGB">
<feFlood flood-opacity="0" result="BackgroundImageFix"/>
<feColorMatrix in="SourceAlpha" type="matrix" values="0 0 0 0 0 0 0 0 0 0 0 0 0 0 0 0 0 0 127 0" result="hardAlpha"/>
<feOffset dy="3"/>
<feGaussianBlur stdDeviation="3"/>
<feColorMatrix type="matrix" values="0 0 0 0 0 0 0 0 0 0 0 0 0 0 0 0 0 0 0.161 0"/>
<feBlend mode="normal" in2="BackgroundImageFix" result="effect1_dropShadow_1602_539"/>
<feBlend mode="normal" in="SourceGraphic" in2="effect1_dropShadow_1602_539" result="shape"/>
</filter>
</defs>
</svg>
