<svg width="27" height="27" viewBox="0 0 27 27" fill="none" xmlns="http://www.w3.org/2000/svg">
<path d="M3.75 7.27083C3.75 6.33705 4.12094 5.44151 4.78123 4.78123C5.44151 4.12094 6.33705 3.75 7.27083 3.75H19.7292C20.6629 3.75 21.5585 4.12094 22.2188 4.78123C22.8791 5.44151 23.25 6.33705 23.25 7.27083V13.5238C21.898 12.6591 20.2911 12.2822 18.6956 12.4555C17.1001 12.6288 15.6116 13.342 14.4768 14.4768C13.342 15.6116 12.6288 17.1001 12.4555 18.6956C12.2822 20.2911 12.6591 21.898 13.5238 23.25H7.27083C6.33705 23.25 5.44151 22.8791 4.78123 22.2188C4.12094 21.5585 3.75 20.6629 3.75 19.7292V7.27083ZM14.0417 10.5208C14.0417 10.9693 14.4057 11.3333 14.8542 11.3333H18.6458C18.8613 11.3333 19.068 11.2477 19.2204 11.0954C19.3727 10.943 19.4583 10.7363 19.4583 10.5208C19.4583 10.3053 19.3727 10.0987 19.2204 9.94631C19.068 9.79394 18.8613 9.70833 18.6458 9.70833H14.8542C14.6387 9.70833 14.432 9.79394 14.2796 9.94631C14.1273 10.0987 14.0417 10.3053 14.0417 10.5208ZM12.1783 10.0117C12.2582 9.93728 12.3222 9.84758 12.3666 9.74792C12.411 9.64825 12.4349 9.54066 12.4368 9.43157C12.4387 9.32247 12.4187 9.21411 12.3778 9.11294C12.3369 9.01177 12.2761 8.91986 12.199 8.84271C12.1218 8.76555 12.0299 8.70473 11.9287 8.66387C11.8276 8.623 11.7192 8.60293 11.6101 8.60486C11.501 8.60678 11.3934 8.63066 11.2937 8.67507C11.1941 8.71948 11.1044 8.78351 11.03 8.86333L9.4375 10.4558L8.92833 9.94667C8.77431 9.80315 8.57059 9.72501 8.3601 9.72873C8.14961 9.73244 7.94877 9.81771 7.79991 9.96658C7.65105 10.1154 7.56577 10.3163 7.56206 10.5268C7.55835 10.7373 7.63648 10.941 7.78 11.095L8.86333 12.1783C9.01568 12.3305 9.22219 12.416 9.4375 12.416C9.65281 12.416 9.85932 12.3305 10.0117 12.1783L12.1783 10.0117ZM12.1783 14.8217C12.026 14.6695 11.8195 14.584 11.6042 14.584C11.3889 14.584 11.1823 14.6695 11.03 14.8217L9.4375 16.4142L8.92833 15.905C8.77431 15.7615 8.57059 15.6833 8.3601 15.6871C8.14961 15.6908 7.94877 15.776 7.79991 15.9249C7.65105 16.0738 7.56577 16.2746 7.56206 16.4851C7.55835 16.6956 7.63648 16.8993 7.78 17.0533L8.86333 18.1367C9.01568 18.2888 9.22219 18.3743 9.4375 18.3743C9.65281 18.3743 9.85932 18.2888 10.0117 18.1367L12.1783 15.97C12.3305 15.8177 12.416 15.6111 12.416 15.3958C12.416 15.1805 12.3305 14.974 12.1783 14.8217ZM25.4167 19.4583C25.4167 17.8781 24.7889 16.3626 23.6715 15.2452C22.5541 14.1278 21.0386 13.5 19.4583 13.5C17.8781 13.5 16.3626 14.1278 15.2452 15.2452C14.1278 16.3626 13.5 17.8781 13.5 19.4583C13.5 21.0386 14.1278 22.5541 15.2452 23.6715C16.3626 24.7889 17.8781 25.4167 19.4583 25.4167C21.0386 25.4167 22.5541 24.7889 23.6715 23.6715C24.7889 22.5541 25.4167 21.0386 25.4167 19.4583ZM20 20L20.0011 22.7116C20.0011 22.8552 19.944 22.993 19.8424 23.0946C19.7408 23.1962 19.6031 23.2532 19.4594 23.2532C19.3158 23.2532 19.178 23.1962 19.0764 23.0946C18.9748 22.993 18.9177 22.8552 18.9177 22.7116V20H16.204C16.0603 20 15.9226 19.9429 15.821 19.8413C15.7194 19.7398 15.6623 19.602 15.6623 19.4583C15.6623 19.3147 15.7194 19.1769 15.821 19.0753C15.9226 18.9737 16.0603 18.9167 16.204 18.9167H18.9167V16.2083C18.9167 16.0647 18.9737 15.9269 19.0753 15.8253C19.1769 15.7237 19.3147 15.6667 19.4583 15.6667C19.602 15.6667 19.7398 15.7237 19.8413 15.8253C19.9429 15.9269 20 16.0647 20 16.2083V18.9167H22.7051C22.8487 18.9167 22.9865 18.9737 23.0881 19.0753C23.1897 19.1769 23.2467 19.3147 23.2467 19.4583C23.2467 19.602 23.1897 19.7398 23.0881 19.8413C22.9865 19.9429 22.8487 20 22.7051 20H20Z" fill="#95C8EB"/>
</svg>
