<svg width="50" height="49" viewBox="0 0 50 49" fill="none" xmlns="http://www.w3.org/2000/svg">
<path opacity="0.3" d="M36.3491 2.5721C33.0649 0.942356 29.3586 0.0214844 25.4428 0.0214844C11.9144 0.0214844 0.953125 10.9829 0.953125 24.5112C0.953125 34.9337 7.45891 43.8282 16.6262 47.3621C19.3649 48.4234 22.3377 49 25.4419 49C38.9702 49 49.9316 38.0387 49.9316 24.5103C49.9316 14.8995 44.3992 6.5906 36.3491 2.5721Z" fill="url(#paint0_linear_3021_51367)"/>
<path d="M34.7929 5.69924L17.8811 44.1066C10.0199 41.0763 4.44141 33.4484 4.44141 24.5119C4.44141 12.9115 13.8395 3.51172 25.4407 3.51172C28.7988 3.5109 31.977 4.30032 34.7929 5.69924Z" fill="url(#paint1_linear_3021_51367)"/>
<path d="M46.4419 24.511C46.4419 36.1114 37.0421 45.5103 25.4426 45.5103C22.7794 45.5103 20.2313 45.015 17.8828 44.1057L34.7947 5.69824C41.6989 9.14337 46.4419 16.2686 46.4419 24.511Z" fill="url(#paint2_linear_3021_51367)"/>
<path d="M32.3852 17.7746C32.4443 17.7368 32.5084 17.7105 32.5602 17.6588L33.6371 16.5819C34.0207 16.1974 34.0207 15.5732 33.6371 15.1887C33.2518 14.8043 32.6275 14.8043 32.2431 15.1887L31.1663 16.2656C31.0315 16.402 30.9608 16.5704 30.9206 16.7453C29.6851 16.0151 28.2961 15.5239 26.8101 15.3341V13.0883H27.2948C27.938 13.0883 28.4596 12.5658 28.4596 11.9218C28.4596 11.2778 27.938 10.7554 27.2948 10.7554H23.5901C22.9452 10.7554 22.4236 11.2778 22.4236 11.9218C22.4236 12.5658 22.9452 13.0883 23.5901 13.0883H24.0747V15.3341C22.7481 15.5025 21.4945 15.905 20.3618 16.5112C20.3231 16.3354 20.2525 16.1654 20.1162 16.029L19.0392 14.9521C18.654 14.5677 18.0297 14.5677 17.6452 14.9521C17.2616 15.3374 17.2616 15.9617 17.6452 16.3453L18.7222 17.4222C18.7591 17.4584 18.8043 17.474 18.8437 17.5035C16.2866 19.4824 14.6289 22.5727 14.6289 26.0498C14.6289 32.0119 19.4787 36.8616 25.4407 36.8616C31.4028 36.8616 36.2525 32.0119 36.2525 26.0498C36.2534 22.7312 34.7468 19.7592 32.3852 17.7746ZM25.4415 34.9641C20.526 34.9641 16.5273 30.9653 16.5273 26.0498C16.5273 21.136 20.5252 17.1355 25.4415 17.1355C30.3554 17.1355 34.3543 21.1351 34.3543 26.0498C34.3543 30.9645 30.3562 34.9641 25.4415 34.9641Z" fill="white"/>
<path d="M25.4414 20.0034V26.0394H31.4774C31.4774 22.7011 28.7674 20.0034 25.4414 20.0034Z" fill="white"/>
<defs>
<linearGradient id="paint0_linear_3021_51367" x1="0.952879" y1="24.5112" x2="49.9314" y2="24.5112" gradientUnits="userSpaceOnUse">
<stop stop-color="#734FF7"/>
<stop offset="1" stop-color="#8470F8"/>
</linearGradient>
<linearGradient id="paint1_linear_3021_51367" x1="4.44116" y1="23.8083" x2="34.7928" y2="23.8083" gradientUnits="userSpaceOnUse">
<stop stop-color="#734FF7"/>
<stop offset="1" stop-color="#8470F8"/>
</linearGradient>
<linearGradient id="paint2_linear_3021_51367" x1="26.6067" y1="25.0355" x2="45.7053" y2="34.4822" gradientUnits="userSpaceOnUse">
<stop stop-color="#734FF7"/>
<stop offset="1" stop-color="#8470F8"/>
</linearGradient>
</defs>
</svg>
