<svg width="91" height="88" viewBox="0 0 91 88" fill="none" xmlns="http://www.w3.org/2000/svg">
<g opacity="0.27">
<path opacity="0.0625" d="M65.8678 87.3269C101.419 87.3269 130.239 58.5067 130.239 22.9552C130.239 -12.5963 101.419 -41.4165 65.8678 -41.4165C30.3163 -41.4165 1.49609 -12.5963 1.49609 22.9552C1.49609 58.5067 30.3163 87.3269 65.8678 87.3269Z" fill="#F9F9FE"/>
<path opacity="0.125" d="M65.8684 86.6537C101.073 86.6537 129.612 58.1148 129.612 22.9103C129.612 -12.2941 101.073 -40.833 65.8684 -40.833C30.6639 -40.833 2.125 -12.2941 2.125 22.9103C2.125 58.1148 30.6639 86.6537 65.8684 86.6537Z" fill="#F3F2FD"/>
<path opacity="0.1875" d="M65.8689 85.9805C100.726 85.9805 128.984 57.723 128.984 22.8655C128.984 -11.9919 100.726 -40.2495 65.8689 -40.2495C31.0115 -40.2495 2.75391 -11.9919 2.75391 22.8655C2.75391 57.723 31.0115 85.9805 65.8689 85.9805Z" fill="#EDECFB"/>
<path opacity="0.25" d="M65.8656 85.3074C100.376 85.3074 128.352 57.3311 128.352 22.8207C128.352 -11.6898 100.376 -39.666 65.8656 -39.666C31.3552 -39.666 3.37891 -11.6898 3.37891 22.8207C3.37891 57.3311 31.3552 85.3074 65.8656 85.3074Z" fill="#E7E5FA"/>
<path opacity="0.3125" d="M65.8667 84.6353C100.03 84.6353 127.726 56.9401 127.726 22.7764C127.726 -11.3874 100.03 -39.0825 65.8667 -39.0825C31.703 -39.0825 4.00781 -11.3874 4.00781 22.7764C4.00781 56.9401 31.703 84.6353 65.8667 84.6353Z" fill="#E1DFF9"/>
<path opacity="0.375" d="M65.8673 83.9626C99.684 83.9626 127.098 56.5487 127.098 22.732C127.098 -11.0847 99.684 -38.4985 65.8673 -38.4985C32.0506 -38.4985 4.63672 -11.0847 4.63672 22.732C4.63672 56.5487 32.0506 83.9626 65.8673 83.9626Z" fill="#DBD8F8"/>
<path opacity="0.4375" d="M65.8679 83.2899C99.3375 83.2899 126.47 56.1574 126.47 22.6877C126.47 -10.782 99.3375 -37.9146 65.8679 -37.9146C32.3982 -37.9146 5.26562 -10.782 5.26562 22.6877C5.26562 56.1574 32.3982 83.2899 65.8679 83.2899Z" fill="#D5D2F7"/>
<path opacity="0.5" d="M65.8645 82.6168C98.9872 82.6168 125.838 55.7655 125.838 22.6429C125.838 -10.4798 98.9872 -37.3311 65.8645 -37.3311C32.7419 -37.3311 5.89062 -10.4798 5.89062 22.6429C5.89062 55.7655 32.7419 82.6168 65.8645 82.6168Z" fill="#D0CCF6"/>
<path opacity="0.5625" d="M65.8651 81.9441C98.6408 81.9441 125.211 55.3742 125.211 22.5985C125.211 -10.1771 98.6408 -36.7471 65.8651 -36.7471C33.0895 -36.7471 6.51953 -10.1771 6.51953 22.5985C6.51953 55.3742 33.0895 81.9441 65.8651 81.9441Z" fill="#CAC5F4"/>
<path opacity="0.625" d="M65.8657 81.271C98.2943 81.271 124.583 54.9823 124.583 22.5537C124.583 -9.87496 98.2943 -36.1636 65.8657 -36.1636C33.437 -36.1636 7.14844 -9.87496 7.14844 22.5537C7.14844 54.9823 33.437 81.271 65.8657 81.271Z" fill="#C4BFF3"/>
<path opacity="0.6875" d="M65.8663 80.5983C97.9479 80.5983 123.955 54.591 123.955 22.5094C123.955 -9.57228 97.9479 -35.5796 65.8663 -35.5796C33.7846 -35.5796 7.77734 -9.57228 7.77734 22.5094C7.77734 54.591 33.7846 80.5983 65.8663 80.5983Z" fill="#BEB8F2"/>
<path opacity="0.75" d="M65.8674 79.9256C97.6023 79.9256 123.328 54.1994 123.328 22.4645C123.328 -9.27036 97.6023 -34.9966 65.8674 -34.9966C34.1325 -34.9966 8.40625 -9.27036 8.40625 22.4645C8.40625 54.1994 34.1325 79.9256 65.8674 79.9256Z" fill="#B8B2F1"/>
<path opacity="0.8125" d="M65.8679 79.253C97.2558 79.253 122.701 53.8081 122.701 22.4202C122.701 -8.96769 97.2558 -34.4126 65.8679 -34.4126C34.4801 -34.4126 9.03516 -8.96769 9.03516 22.4202C9.03516 53.8081 34.4801 79.253 65.8679 79.253Z" fill="#B2ABF0"/>
<path opacity="0.875" d="M65.8646 78.5803C96.9055 78.5803 122.069 53.4167 122.069 22.3759C122.069 -8.66501 96.9055 -33.8286 65.8646 -33.8286C34.8237 -33.8286 9.66016 -8.66501 9.66016 22.3759C9.66016 53.4167 34.8237 78.5803 65.8646 78.5803Z" fill="#ACA5EE"/>
<path opacity="0.9375" d="M65.8652 77.9072C96.5591 77.9072 121.441 53.0249 121.441 22.331C121.441 -8.36283 96.5591 -33.2451 65.8652 -33.2451C35.1714 -33.2451 10.2891 -8.36283 10.2891 22.331C10.2891 53.0249 35.1714 77.9072 65.8652 77.9072Z" fill="#A69EED"/>
<path d="M65.8658 77.2345C96.2126 77.2345 120.814 52.6335 120.814 22.2867C120.814 -8.06016 96.2126 -32.6611 65.8658 -32.6611C35.5189 -32.6611 10.918 -8.06016 10.918 22.2867C10.918 52.6335 35.5189 77.2345 65.8658 77.2345Z" fill="#A098EC"/>
<path d="M65.8658 77.2345C96.2126 77.2345 120.814 52.6335 120.814 22.2867C120.814 -8.06016 96.2126 -32.6611 65.8658 -32.6611C35.5189 -32.6611 10.918 -8.06016 10.918 22.2867C10.918 52.6335 35.5189 77.2345 65.8658 77.2345Z" fill="#A098EC"/>
<path d="M65.8658 77.2345C96.2126 77.2345 120.814 52.6335 120.814 22.2867C120.814 -8.06016 96.2126 -32.6611 65.8658 -32.6611C35.5189 -32.6611 10.918 -8.06016 10.918 22.2867C10.918 52.6335 35.5189 77.2345 65.8658 77.2345Z" fill="#A098EC"/>
<path d="M65.8658 77.2345C96.2126 77.2345 120.814 52.6335 120.814 22.2867C120.814 -8.06016 96.2126 -32.6611 65.8658 -32.6611C35.5189 -32.6611 10.918 -8.06016 10.918 22.2867C10.918 52.6335 35.5189 77.2345 65.8658 77.2345Z" fill="#A098EC"/>
<path d="M65.8658 77.2345C96.2126 77.2345 120.814 52.6335 120.814 22.2867C120.814 -8.06016 96.2126 -32.6611 65.8658 -32.6611C35.5189 -32.6611 10.918 -8.06016 10.918 22.2867C10.918 52.6335 35.5189 77.2345 65.8658 77.2345Z" fill="#A098EC"/>
<path d="M65.8658 77.2345C96.2126 77.2345 120.814 52.6335 120.814 22.2867C120.814 -8.06016 96.2126 -32.6611 65.8658 -32.6611C35.5189 -32.6611 10.918 -8.06016 10.918 22.2867C10.918 52.6335 35.5189 77.2345 65.8658 77.2345Z" fill="#A098EC"/>
<path d="M65.8658 77.2345C96.2126 77.2345 120.814 52.6335 120.814 22.2867C120.814 -8.06016 96.2126 -32.6611 65.8658 -32.6611C35.5189 -32.6611 10.918 -8.06016 10.918 22.2867C10.918 52.6335 35.5189 77.2345 65.8658 77.2345Z" fill="#A098EC"/>
<path d="M65.8658 77.2345C96.2126 77.2345 120.814 52.6335 120.814 22.2867C120.814 -8.06016 96.2126 -32.6611 65.8658 -32.6611C35.5189 -32.6611 10.918 -8.06016 10.918 22.2867C10.918 52.6335 35.5189 77.2345 65.8658 77.2345Z" fill="#A098EC"/>
<path d="M65.8658 77.2345C96.2126 77.2345 120.814 52.6335 120.814 22.2867C120.814 -8.06016 96.2126 -32.6611 65.8658 -32.6611C35.5189 -32.6611 10.918 -8.06016 10.918 22.2867C10.918 52.6335 35.5189 77.2345 65.8658 77.2345Z" fill="#A098EC"/>
<path d="M65.8658 77.2345C96.2126 77.2345 120.814 52.6335 120.814 22.2867C120.814 -8.06016 96.2126 -32.6611 65.8658 -32.6611C35.5189 -32.6611 10.918 -8.06016 10.918 22.2867C10.918 52.6335 35.5189 77.2345 65.8658 77.2345Z" fill="#A098EC"/>
<path d="M65.8658 77.2345C96.2126 77.2345 120.814 52.6335 120.814 22.2867C120.814 -8.06016 96.2126 -32.6611 65.8658 -32.6611C35.5189 -32.6611 10.918 -8.06016 10.918 22.2867C10.918 52.6335 35.5189 77.2345 65.8658 77.2345Z" fill="#A098EC"/>
<path d="M65.8658 77.2345C96.2126 77.2345 120.814 52.6335 120.814 22.2867C120.814 -8.06016 96.2126 -32.6611 65.8658 -32.6611C35.5189 -32.6611 10.918 -8.06016 10.918 22.2867C10.918 52.6335 35.5189 77.2345 65.8658 77.2345Z" fill="#A098EC"/>
<path d="M65.8658 77.2345C96.2126 77.2345 120.814 52.6335 120.814 22.2867C120.814 -8.06016 96.2126 -32.6611 65.8658 -32.6611C35.5189 -32.6611 10.918 -8.06016 10.918 22.2867C10.918 52.6335 35.5189 77.2345 65.8658 77.2345Z" fill="#A098EC"/>
<path d="M65.8658 77.2345C96.2126 77.2345 120.814 52.6335 120.814 22.2867C120.814 -8.06016 96.2126 -32.6611 65.8658 -32.6611C35.5189 -32.6611 10.918 -8.06016 10.918 22.2867C10.918 52.6335 35.5189 77.2345 65.8658 77.2345Z" fill="#A098EC"/>
<path d="M65.8658 77.2345C96.2126 77.2345 120.814 52.6335 120.814 22.2867C120.814 -8.06016 96.2126 -32.6611 65.8658 -32.6611C35.5189 -32.6611 10.918 -8.06016 10.918 22.2867C10.918 52.6335 35.5189 77.2345 65.8658 77.2345Z" fill="#A098EC"/>
<path d="M65.8658 77.2345C96.2126 77.2345 120.814 52.6335 120.814 22.2867C120.814 -8.06016 96.2126 -32.6611 65.8658 -32.6611C35.5189 -32.6611 10.918 -8.06016 10.918 22.2867C10.918 52.6335 35.5189 77.2345 65.8658 77.2345Z" fill="#A098EC"/>
<path d="M65.8658 77.2345C96.2126 77.2345 120.814 52.6335 120.814 22.2867C120.814 -8.06016 96.2126 -32.6611 65.8658 -32.6611C35.5189 -32.6611 10.918 -8.06016 10.918 22.2867C10.918 52.6335 35.5189 77.2345 65.8658 77.2345Z" fill="#A098EC"/>
<path d="M65.8658 77.2345C96.2126 77.2345 120.814 52.6335 120.814 22.2867C120.814 -8.06016 96.2126 -32.6611 65.8658 -32.6611C35.5189 -32.6611 10.918 -8.06016 10.918 22.2867C10.918 52.6335 35.5189 77.2345 65.8658 77.2345Z" fill="#A69EED"/>
<path d="M65.8658 77.2345C96.2126 77.2345 120.814 52.6335 120.814 22.2867C120.814 -8.06016 96.2126 -32.6611 65.8658 -32.6611C35.5189 -32.6611 10.918 -8.06016 10.918 22.2867C10.918 52.6335 35.5189 77.2345 65.8658 77.2345Z" fill="#ACA5EE"/>
<path d="M65.8658 77.2345C96.2126 77.2345 120.814 52.6335 120.814 22.2867C120.814 -8.06016 96.2126 -32.6611 65.8658 -32.6611C35.5189 -32.6611 10.918 -8.06016 10.918 22.2867C10.918 52.6335 35.5189 77.2345 65.8658 77.2345Z" fill="#B2ABF0"/>
<path d="M65.8658 77.2345C96.2126 77.2345 120.814 52.6335 120.814 22.2867C120.814 -8.06016 96.2126 -32.6611 65.8658 -32.6611C35.5189 -32.6611 10.918 -8.06016 10.918 22.2867C10.918 52.6335 35.5189 77.2345 65.8658 77.2345Z" fill="#B8B2F1"/>
<path d="M65.8658 77.2345C96.2126 77.2345 120.814 52.6335 120.814 22.2867C120.814 -8.06016 96.2126 -32.6611 65.8658 -32.6611C35.5189 -32.6611 10.918 -8.06016 10.918 22.2867C10.918 52.6335 35.5189 77.2345 65.8658 77.2345Z" fill="#BEB8F2"/>
<path d="M65.8658 77.2345C96.2126 77.2345 120.814 52.6335 120.814 22.2867C120.814 -8.06016 96.2126 -32.6611 65.8658 -32.6611C35.5189 -32.6611 10.918 -8.06016 10.918 22.2867C10.918 52.6335 35.5189 77.2345 65.8658 77.2345Z" fill="#C4BFF3"/>
<path d="M65.8658 77.2345C96.2126 77.2345 120.814 52.6335 120.814 22.2867C120.814 -8.06016 96.2126 -32.6611 65.8658 -32.6611C35.5189 -32.6611 10.918 -8.06016 10.918 22.2867C10.918 52.6335 35.5189 77.2345 65.8658 77.2345Z" fill="#CAC5F4"/>
<path d="M65.8658 77.2345C96.2126 77.2345 120.814 52.6335 120.814 22.2867C120.814 -8.06016 96.2126 -32.6611 65.8658 -32.6611C35.5189 -32.6611 10.918 -8.06016 10.918 22.2867C10.918 52.6335 35.5189 77.2345 65.8658 77.2345Z" fill="#D0CCF6"/>
<path d="M65.8658 77.2345C96.2126 77.2345 120.814 52.6335 120.814 22.2867C120.814 -8.06016 96.2126 -32.6611 65.8658 -32.6611C35.5189 -32.6611 10.918 -8.06016 10.918 22.2867C10.918 52.6335 35.5189 77.2345 65.8658 77.2345Z" fill="#D5D2F7"/>
<path d="M65.8658 77.2345C96.2126 77.2345 120.814 52.6335 120.814 22.2867C120.814 -8.06016 96.2126 -32.6611 65.8658 -32.6611C35.5189 -32.6611 10.918 -8.06016 10.918 22.2867C10.918 52.6335 35.5189 77.2345 65.8658 77.2345Z" fill="#DBD8F8"/>
<path d="M65.8658 77.2345C96.2126 77.2345 120.814 52.6335 120.814 22.2867C120.814 -8.06016 96.2126 -32.6611 65.8658 -32.6611C35.5189 -32.6611 10.918 -8.06016 10.918 22.2867C10.918 52.6335 35.5189 77.2345 65.8658 77.2345Z" fill="#E1DFF9"/>
<path d="M65.8658 77.2345C96.2126 77.2345 120.814 52.6335 120.814 22.2867C120.814 -8.06016 96.2126 -32.6611 65.8658 -32.6611C35.5189 -32.6611 10.918 -8.06016 10.918 22.2867C10.918 52.6335 35.5189 77.2345 65.8658 77.2345Z" fill="#E7E5FA"/>
<path d="M65.8658 77.2345C96.2126 77.2345 120.814 52.6335 120.814 22.2867C120.814 -8.06016 96.2126 -32.6611 65.8658 -32.6611C35.5189 -32.6611 10.918 -8.06016 10.918 22.2867C10.918 52.6335 35.5189 77.2345 65.8658 77.2345Z" fill="#EDECFB"/>
<path d="M65.8658 77.2345C96.2126 77.2345 120.814 52.6335 120.814 22.2867C120.814 -8.06016 96.2126 -32.6611 65.8658 -32.6611C35.5189 -32.6611 10.918 -8.06016 10.918 22.2867C10.918 52.6335 35.5189 77.2345 65.8658 77.2345Z" fill="#F3F2FD"/>
<path d="M65.8658 77.2345C96.2126 77.2345 120.814 52.6335 120.814 22.2867C120.814 -8.06016 96.2126 -32.6611 65.8658 -32.6611C35.5189 -32.6611 10.918 -8.06016 10.918 22.2867C10.918 52.6335 35.5189 77.2345 65.8658 77.2345Z" fill="#F9F9FE"/>
<path d="M65.8658 77.2345C96.2126 77.2345 120.814 52.6335 120.814 22.2867C120.814 -8.06016 96.2126 -32.6611 65.8658 -32.6611C35.5189 -32.6611 10.918 -8.06016 10.918 22.2867C10.918 52.6335 35.5189 77.2345 65.8658 77.2345Z" fill="white"/>
</g>
<path d="M65.8658 77.2345C96.2126 77.2345 120.814 52.6335 120.814 22.2867C120.814 -8.06016 96.2126 -32.6611 65.8658 -32.6611C35.5189 -32.6611 10.918 -8.06016 10.918 22.2867C10.918 52.6335 35.5189 77.2345 65.8658 77.2345Z" fill="white"/>
<path d="M65.8146 73.9406C94.3037 73.9406 117.399 50.8457 117.399 22.3566C117.399 -6.13255 94.3037 -29.2275 65.8146 -29.2275C37.3255 -29.2275 14.2305 -6.13255 14.2305 22.3566C14.2305 50.8457 37.3255 73.9406 65.8146 73.9406Z" fill="url(#paint0_radial_3021_3038)"/>
<mask id="mask0_3021_3038" style="mask-type:luminance" maskUnits="userSpaceOnUse" x="14" y="-30" width="104" height="104">
<path d="M65.8146 73.9406C94.3037 73.9406 117.399 50.8457 117.399 22.3566C117.399 -6.13255 94.3037 -29.2275 65.8146 -29.2275C37.3255 -29.2275 14.2305 -6.13255 14.2305 22.3566C14.2305 50.8457 37.3255 73.9406 65.8146 73.9406Z" fill="white"/>
</mask>
<g mask="url(#mask0_3021_3038)">
<g opacity="0.37">
<path d="M16.5733 8.95994C10.223 9.61978 4.1734 10.4267 -1.442 11.3802C-1.48702 11.3882 -1.52754 11.3557 -1.54555 11.2971C-1.56306 11.2396 -1.55506 11.1671 -1.52454 11.1135C1.2809 6.17 4.19492 0.780723 7.20147 -4.94373C7.24649 -5.03077 7.33253 -5.05479 7.37806 -4.99226C10.3881 -0.900651 13.4897 3.6727 16.6663 8.61775C16.7014 8.67128 16.7104 8.75433 16.6904 8.82837C16.6698 8.90341 16.6243 8.95444 16.5733 8.95994ZM-1.18236 11.0005C4.27296 10.0575 10.1345 9.25609 16.2801 8.59525C13.2071 3.82079 10.2055 -0.602992 7.29001 -4.57304C4.37451 0.966818 1.54555 6.1915 -1.18236 11.0005Z" fill="white"/>
<path d="M16.5723 8.9598C16.5368 8.9633 16.5028 8.94428 16.4787 8.90626C13.3051 3.96371 10.2065 -0.606632 7.20046 -4.69424C7.16745 -4.73826 7.15893 -4.8148 7.17794 -4.88634C7.19745 -4.95938 7.24048 -5.01391 7.28901 -5.02691C13.3051 -6.67126 19.6894 -8.01645 26.3073 -9.06249C26.3603 -9.07049 26.4084 -9.02948 26.4294 -8.95594C26.4504 -8.8834 26.4409 -8.79285 26.4044 -8.72581C23.0942 -2.63217 19.8425 3.27586 16.6658 8.88776C16.6418 8.92928 16.6078 8.9558 16.5723 8.9598ZM7.56715 -4.73427C10.4882 -0.749214 13.4947 3.68657 16.5723 8.47104C19.6499 3.02623 22.798 -2.69671 26.0016 -8.59725C19.5948 -7.58673 13.4092 -6.29907 7.56715 -4.73427Z" fill="white"/>
<path d="M36.397 7.41957C29.5784 7.78626 22.9275 8.29953 16.5767 8.95987C16.5257 8.96488 16.4802 8.92384 16.4597 8.85281C16.4397 8.78277 16.4487 8.69824 16.4837 8.6362C19.6573 3.02381 22.9065 -2.88524 26.2147 -8.98138C26.2648 -9.07293 26.3593 -9.08793 26.4093 -9.0114C29.7195 -3.95479 33.0878 1.43599 36.4975 7.04888C36.535 7.10991 36.5445 7.20146 36.523 7.28201C36.5005 7.36305 36.4515 7.41657 36.397 7.41957ZM16.8699 8.53315C23.0341 7.88182 29.4784 7.37205 36.0818 7.00286C32.7801 1.57356 29.5184 -3.64314 26.3113 -8.54666C23.1046 -2.64462 19.9525 3.08284 16.8699 8.53315Z" fill="white"/>
<path d="M36.3977 7.41963C36.3597 7.42163 36.3232 7.39812 36.2977 7.3556C32.8894 1.74471 29.5232 -3.64307 26.2155 -8.69617C26.179 -8.7512 26.1699 -8.83776 26.1905 -8.9173C26.2115 -8.99734 26.2595 -9.05336 26.3125 -9.06236C32.9304 -10.1084 39.782 -10.8558 46.7335 -11.304C46.7891 -11.3075 46.8396 -11.258 46.8616 -11.178C46.8836 -11.0984 46.8736 -11.0024 46.8356 -10.9363C43.3593 -4.76865 39.9075 1.36201 36.4978 7.3451C36.4723 7.39012 36.4357 7.41713 36.3977 7.41963ZM26.6182 -8.69217C29.8283 -3.77764 33.0935 1.44804 36.3977 6.88384C39.7019 1.08135 43.0452 -4.8597 46.4129 -10.8378C39.6774 -10.3996 33.039 -9.68469 26.6182 -8.69217Z" fill="white"/>
<path d="M57.2168 6.75961C50.1982 6.83264 43.2126 7.05326 36.3946 7.41945C36.34 7.42245 36.2905 7.37442 36.269 7.29588C36.2475 7.21834 36.2575 7.1248 36.2945 7.06027C39.7028 1.07618 43.153 -5.05649 46.6283 -11.2267C46.6809 -11.3207 46.7799 -11.3267 46.8325 -11.2397C50.3087 -5.51473 53.81 0.395322 57.3199 6.37941C57.3584 6.44444 57.3684 6.5405 57.3464 6.62254C57.3234 6.70559 57.2728 6.75861 57.2168 6.75961ZM36.7097 6.96821C43.3226 6.60802 50.0911 6.38942 56.8926 6.31188C53.4919 0.516894 50.0991 -5.20557 46.7304 -10.7544C43.3612 -4.77784 40.0159 1.16372 36.7097 6.96821Z" fill="white"/>
<path d="M57.216 6.75956C57.1764 6.76006 57.1394 6.73405 57.1124 6.68802C53.6031 0.70594 50.1028 -5.2021 46.6275 -10.9235C46.589 -10.9861 46.5795 -11.0801 46.6015 -11.1622C46.6235 -11.2457 46.674 -11.3007 46.7295 -11.3047C53.6811 -11.753 60.7338 -11.9026 67.7519 -11.753C67.8079 -11.7515 67.8589 -11.6985 67.8814 -11.6149C67.9035 -11.5319 67.8935 -11.4373 67.8549 -11.3723C64.3456 -5.42772 60.8283 0.628398 57.3185 6.68552C57.2925 6.73254 57.255 6.75906 57.216 6.75956ZM47.0507 -10.879C50.4209 -5.32367 53.8147 0.404784 57.216 6.20277C60.6172 0.331747 64.0265 -5.53928 67.4282 -11.3083C60.6242 -11.4423 53.7917 -11.2997 47.0507 -10.879Z" fill="white"/>
<path d="M16.5733 24.7922C10.223 24.7831 4.1734 24.7736 -1.442 24.7611C-1.48702 24.7611 -1.52754 24.7216 -1.54555 24.6606C-1.56306 24.6001 -1.55506 24.529 -1.52454 24.48C1.2809 20.0202 4.19492 15.0771 7.20147 9.7624C7.24649 9.68286 7.33253 9.67087 7.37806 9.7379C10.3881 14.2367 13.4897 19.1808 16.6663 24.459C16.7014 24.517 16.7104 24.6011 16.6904 24.6731C16.6698 24.7451 16.6243 24.7922 16.5733 24.7922ZM-1.18236 24.4265C4.27296 24.415 10.1345 24.405 16.2801 24.3965C13.2071 19.2958 10.2055 14.5114 7.29001 10.1456C4.37451 15.2888 1.54555 20.0827 -1.18236 24.4265Z" fill="white"/>
<path d="M16.5723 24.7923C16.5368 24.7918 16.5028 24.7687 16.4787 24.7292C13.3051 19.452 10.2065 14.5095 7.20046 10.0126C7.16745 9.96362 7.15893 9.88708 7.17794 9.81755C7.19745 9.74751 7.24048 9.69848 7.28901 9.69198C13.3051 8.86505 19.6894 8.18771 26.3073 7.66144C26.3603 7.65694 26.4084 7.70245 26.4294 7.77699C26.4504 7.85153 26.4409 7.94107 26.4044 8.00511C23.0942 13.8391 19.8425 19.451 16.6658 24.7292C16.6418 24.7687 16.6078 24.7923 16.5723 24.7923ZM7.56715 10.0222C10.4882 14.4004 13.4947 19.1949 16.5723 24.3035C19.6499 19.1834 22.798 13.7491 26.0016 8.10316C19.5948 8.60492 13.4092 9.24475 7.56715 10.0222Z" fill="white"/>
<path d="M36.397 24.8111C29.5784 24.8066 22.9275 24.8001 16.5767 24.7921C16.5257 24.7916 16.4802 24.7451 16.4597 24.673C16.4397 24.601 16.4487 24.5165 16.4837 24.4589C19.6573 19.1817 22.9065 13.5703 26.2147 7.7353C26.2648 7.64825 26.3593 7.64075 26.4093 7.72029C29.7195 13.036 33.0878 18.6484 36.4975 24.4459C36.535 24.509 36.5445 24.602 36.523 24.681C36.5005 24.7596 36.4515 24.8111 36.397 24.8111ZM16.8699 24.3959C23.0341 24.3879 29.4784 24.3819 36.0818 24.3769C32.7801 18.7665 29.5184 13.3327 26.3113 8.17702C23.1046 13.8274 19.9525 19.2673 16.8699 24.3959Z" fill="white"/>
<path d="M36.3977 24.8112C36.3597 24.8112 36.3232 24.7857 36.2977 24.7421C32.8894 18.9452 29.5232 13.3338 26.2155 8.02002C26.179 7.96249 26.1699 7.87395 26.1905 7.79691C26.2115 7.71837 26.2595 7.66585 26.3125 7.66134C32.9304 7.13507 39.782 6.75888 46.7335 6.53326C46.7891 6.53126 46.8396 6.58229 46.8616 6.66333C46.8836 6.74387 46.8736 6.83942 46.8356 6.90445C43.3593 12.9611 39.9075 18.9442 36.4978 24.7421C36.4723 24.7857 36.4357 24.8112 36.3977 24.8112ZM26.6182 8.05554C29.8283 13.2192 33.0935 18.659 36.3977 24.2749C39.7019 18.653 43.0452 12.8575 46.4129 6.98898C39.6774 7.2071 33.039 7.56229 26.6182 8.05554Z" fill="white"/>
<path d="M57.2168 24.8193C50.1982 24.8183 43.2126 24.8153 36.3946 24.8108C36.34 24.8113 36.2905 24.7598 36.269 24.6803C36.2475 24.6012 36.2575 24.5087 36.2945 24.4451C39.7028 18.6476 43.153 12.6651 46.6283 6.60745C46.6809 6.5164 46.7799 6.5134 46.8325 6.60044C50.3087 12.4355 53.81 18.419 57.3199 24.4391C57.3584 24.5052 57.3684 24.6007 57.3464 24.6828C57.3234 24.7668 57.2728 24.8193 57.2168 24.8193ZM36.7097 24.3766C43.3226 24.3716 50.0911 24.3691 56.8926 24.3681C53.4919 18.5356 50.0991 12.7396 46.7304 7.08319C43.3612 12.9527 40.0159 18.7502 36.7097 24.3766Z" fill="white"/>
<path d="M57.216 24.8192C57.1764 24.8197 57.1394 24.7927 57.1124 24.7476C53.6031 18.7275 50.1028 12.745 46.6275 6.91095C46.589 6.84792 46.5795 6.75387 46.6015 6.67133C46.6235 6.58879 46.674 6.53476 46.7295 6.53326C53.6811 6.30814 60.7338 6.2326 67.7519 6.30813C67.8079 6.30914 67.8589 6.36167 67.8814 6.44471C67.9035 6.52725 67.8935 6.62279 67.8549 6.68733C64.3456 12.6699 60.8283 18.7265 57.3185 24.7476C57.2925 24.7932 57.255 24.8192 57.216 24.8192ZM47.0507 6.96949C50.4209 12.6304 53.8147 18.4289 57.216 24.2624C60.6172 18.4274 64.0265 12.5584 67.4282 6.75588C60.6242 6.68934 53.7917 6.76038 47.0507 6.96949Z" fill="white"/>
<path d="M78.2415 6.97921C71.2899 6.7596 64.2373 6.68607 57.2192 6.7596C57.1627 6.7606 57.1121 6.70757 57.0896 6.62503C57.0676 6.54349 57.0776 6.44744 57.1161 6.38191C60.6254 0.323784 64.1433 -5.73483 67.6526 -11.6824C67.7056 -11.7734 67.8061 -11.7704 67.8587 -11.6779C71.368 -5.58175 74.8688 0.550905 78.3441 6.60903C78.3821 6.67456 78.3921 6.7696 78.3701 6.84965C78.3476 6.93069 78.2971 6.98171 78.2415 6.97921ZM57.5434 6.30487C64.3469 6.23634 71.1799 6.30936 77.9204 6.52347C74.5501 0.650447 71.1564 -5.28961 67.7551 -11.1962C64.3539 -5.43218 60.9446 0.434845 57.5434 6.30487Z" fill="white"/>
<path d="M78.2408 6.97923C78.2017 6.97773 78.1647 6.95021 78.1387 6.90519C74.6624 0.848563 71.1611 -5.2826 67.6513 -11.3757C67.6128 -11.4423 67.6028 -11.5383 67.6248 -11.6194C67.6473 -11.7024 67.6978 -11.7534 67.7543 -11.7524C74.7735 -11.6028 81.7586 -11.1551 88.5771 -10.4077C88.6316 -10.4012 88.6811 -10.3452 88.7026 -10.2632C88.7242 -10.1821 88.7141 -10.0906 88.6771 -10.031C85.2689 -4.60624 81.8186 1.07819 78.3428 6.91219C78.3168 6.95572 78.2798 6.98073 78.2408 6.97923ZM68.0785 -11.2947C71.4793 -5.38514 74.872 0.556923 78.2408 6.42995C81.61 0.777036 84.9552 -4.73532 88.2619 -10.0065C81.649 -10.7134 74.8805 -11.1426 68.0785 -11.2947Z" fill="white"/>
<path d="M98.6627 8.07923C92.0448 7.56597 85.1932 7.19927 78.2412 6.97916C78.1856 6.97816 78.1351 6.92364 78.1131 6.84159C78.0911 6.76055 78.1011 6.6645 78.1391 6.60147C81.6159 0.765957 85.0677 -4.92146 88.4774 -10.3498C88.5289 -10.4303 88.6265 -10.4208 88.6775 -10.3268C92.0858 -4.15658 95.452 1.90155 98.7597 7.73656C98.7962 7.79959 98.8052 7.88964 98.7847 7.96317C98.7637 8.03821 98.7157 8.08373 98.6627 8.07923ZM78.5623 6.54444C85.2973 6.76706 91.9362 7.13175 98.357 7.63801C95.1469 1.97459 91.8817 -3.89594 88.5775 -9.87102C85.2733 -4.6093 81.9296 0.896532 78.5623 6.54444Z" fill="white"/>
<path d="M98.6635 8.07943C98.6265 8.07593 98.591 8.04941 98.5664 8.00538C95.2562 2.17088 91.888 -3.88624 88.4782 -10.0534C88.4407 -10.1205 88.4312 -10.2135 88.4527 -10.2905C88.4747 -10.3681 88.5238 -10.4141 88.5783 -10.4076C95.3963 -9.66021 102.048 -8.61418 108.398 -7.26898C108.449 -7.25848 108.495 -7.20195 108.515 -7.12542C108.535 -7.04988 108.526 -6.96733 108.491 -6.9178C105.317 -2.30993 102.068 2.70616 98.7605 8.0199C98.736 8.06092 98.7005 8.08243 98.6635 8.07943ZM88.8935 -9.93836C92.1952 -3.96328 95.4568 1.90475 98.664 7.56416C101.871 2.41751 105.023 -2.449 108.105 -6.93431C101.941 -8.21297 95.4964 -9.21448 88.8935 -9.93836Z" fill="white"/>
<path d="M78.2415 24.8166C71.2899 24.8191 64.2373 24.8201 57.2192 24.8191C57.1627 24.8191 57.1121 24.7666 57.0896 24.6835C57.0676 24.602 57.0776 24.5059 57.1161 24.4399C60.6254 18.4198 64.1433 12.3622 67.6526 6.37861C67.7056 6.28956 67.8061 6.29055 67.8587 6.3811C71.368 12.4392 74.8688 18.4963 78.3441 24.4424C78.3821 24.5079 78.3921 24.603 78.3701 24.683C78.3476 24.7651 78.2971 24.8161 78.2415 24.8166ZM57.5434 24.3684C64.3469 24.3674 71.1799 24.3684 77.9204 24.3709C74.5501 18.6044 71.1564 12.7349 67.7551 6.86485C64.3539 12.6638 60.9446 18.5324 57.5434 24.3684Z" fill="white"/>
<path d="M78.2408 24.8167C78.2017 24.8162 78.1647 24.7907 78.1387 24.7456C74.6624 18.7996 71.1611 12.7424 67.6513 6.68532C67.6128 6.61978 67.6028 6.52374 67.6248 6.4422C67.6473 6.35915 67.6978 6.30712 67.7543 6.30762C74.7735 6.38266 81.7586 6.60829 88.5771 6.98448C88.6316 6.98698 88.6811 7.04151 88.7026 7.12205C88.7242 7.20159 88.7141 7.29363 88.6771 7.35566C85.2689 12.9661 81.8186 18.8001 78.3428 24.7456C78.3168 24.7907 78.2798 24.8162 78.2408 24.8167ZM68.0785 6.76286C71.4793 12.6339 74.872 18.5024 78.2408 24.2669C81.61 18.5064 84.9552 12.8515 88.2619 7.4027C81.649 7.05152 74.8805 6.8384 68.0785 6.76286Z" fill="white"/>
<path d="M98.6627 24.8028C92.0448 24.8098 85.1932 24.8138 78.2412 24.8168C78.1856 24.8163 78.1351 24.7648 78.1131 24.6822C78.0911 24.6012 78.1011 24.5067 78.1391 24.4416C81.6159 18.4956 85.0677 12.6605 88.4774 7.04765C88.5289 6.9641 88.6265 6.96961 88.6775 7.05865C92.0858 13.0422 95.452 18.8767 98.7597 24.4511C98.7962 24.5121 98.8052 24.6007 98.7847 24.6767C98.7637 24.7543 98.7157 24.8023 98.6627 24.8028ZM78.5623 24.3716C85.2973 24.3741 91.9362 24.3791 98.357 24.3846C95.1469 18.9718 91.8817 13.3164 88.5775 7.5214C85.2733 12.9632 81.9296 18.6136 78.5623 24.3716Z" fill="white"/>
<path d="M98.6635 24.8027C98.6265 24.8027 98.591 24.7787 98.5664 24.7367C95.2562 19.1613 91.888 13.3268 88.4782 7.34419C88.4407 7.27966 88.4312 7.1866 88.4527 7.10806C88.4747 7.02952 88.5238 6.98151 88.5783 6.98451C95.3963 7.3607 102.048 7.88696 108.398 8.56331C108.449 8.56931 108.495 8.61934 108.515 8.69488C108.535 8.76892 108.526 8.85147 108.491 8.9055C105.317 13.848 102.068 19.1618 98.7605 24.7367C98.736 24.7782 98.7005 24.8027 98.6635 24.8027ZM88.8935 7.43623C92.1952 13.2292 95.4568 18.8796 98.664 24.2874C101.871 18.8896 105.023 13.736 108.105 8.92901C101.941 8.29368 95.4964 7.79592 88.8935 7.43623Z" fill="white"/>
<path d="M16.5733 40.625C10.223 39.9482 4.1734 39.1212 -1.442 38.1437C-1.48702 38.1352 -1.52754 38.0902 -1.54555 38.0252C-1.56306 37.9616 -1.55506 37.8916 -1.52454 37.8486C1.2809 33.872 4.19492 29.3752 7.20147 24.4692C7.24649 24.3946 7.33253 24.3941 7.37806 24.4692C10.3881 29.3762 13.4897 34.6909 16.6663 40.3023C16.7014 40.3629 16.7104 40.4489 16.6904 40.5184C16.6698 40.589 16.6243 40.6305 16.5733 40.625ZM-1.18236 37.8536C4.27296 38.7731 10.1345 39.5545 16.2801 40.1988C13.2071 34.7715 10.2055 29.6263 7.29001 24.8639C4.37451 29.6118 1.54555 33.9756 -1.18236 37.8536Z" fill="white"/>
<path d="M16.5723 40.6251C16.5368 40.6216 16.5028 40.5941 16.4787 40.5521C13.3051 34.9397 10.2065 29.625 7.20046 24.7194C7.16745 24.6664 7.15893 24.5879 7.17794 24.5213C7.19745 24.4538 7.24048 24.4113 7.28901 24.4103C13.3051 24.4003 19.6894 24.3918 26.3073 24.3853C26.3603 24.3853 26.4084 24.4343 26.4294 24.5108C26.4504 24.5869 26.4409 24.6759 26.4044 24.7369C23.0942 30.3123 19.8425 35.628 16.6658 40.5721C16.6418 40.6101 16.6078 40.6286 16.5723 40.6251ZM7.56715 24.7785C10.4882 29.5504 13.4947 34.7041 16.5723 40.1369C19.6499 35.3399 22.798 30.1947 26.0016 24.803C19.5948 24.7965 13.4092 24.7885 7.56715 24.7785Z" fill="white"/>
<path d="M36.397 42.2038C29.5784 41.8282 22.9275 41.3014 16.5767 40.625C16.5257 40.6195 16.4802 40.5685 16.4597 40.4935C16.4397 40.4204 16.4487 40.3364 16.4837 40.2824C19.6573 35.3398 22.9065 30.0256 26.2147 24.4512C26.2648 24.3682 26.3593 24.3672 26.4093 24.4522C29.7195 30.0276 33.0878 35.8621 36.4975 41.8447C36.535 41.9097 36.5445 42.0023 36.523 42.0808C36.5005 42.1588 36.4515 42.2069 36.397 42.2038ZM16.8699 40.2599C23.0341 40.8952 29.4784 41.3929 36.0818 41.7521C32.7801 35.9591 29.5184 30.3082 26.3113 24.8999C23.1046 30.2992 19.9525 35.4524 16.8699 40.2599Z" fill="white"/>
<path d="M36.3977 42.2038C36.3597 42.2018 36.3232 42.1738 36.2977 42.1288C32.8894 36.1452 29.5232 30.3106 26.2155 24.7358C26.179 24.6757 26.1699 24.5872 26.1905 24.5107C26.2115 24.4341 26.2595 24.3851 26.3125 24.3851C32.9304 24.3786 39.782 24.3741 46.7335 24.3716C46.7891 24.3711 46.8396 24.4236 46.8616 24.5057C46.8836 24.5867 46.8736 24.6818 46.8356 24.7458C43.3593 30.6919 39.9075 36.5273 36.4978 42.1402C36.4723 42.1828 36.4357 42.2058 36.3977 42.2038ZM26.6182 24.8033C29.8283 30.2166 33.0935 35.872 36.3977 41.668C39.7019 36.2257 43.0452 30.5748 46.4129 24.8163C39.6774 24.8143 33.039 24.8093 26.6182 24.8033Z" fill="white"/>
<path d="M57.2168 42.8806C50.1982 42.8056 43.2126 42.58 36.3946 42.2038C36.34 42.2003 36.2905 42.1477 36.269 42.0667C36.2475 41.9867 36.2575 41.8946 36.2945 41.8336C39.7028 36.2227 43.153 30.3887 46.6283 24.4426C46.6809 24.3526 46.7799 24.3511 46.8325 24.4426C50.3087 30.3887 53.81 36.4458 57.3199 42.5029C57.3584 42.569 57.3684 42.6645 57.3464 42.746C57.3234 42.8286 57.2728 42.8816 57.2168 42.8806ZM36.7097 41.7861C43.3226 42.1372 50.0911 42.3504 56.8926 42.4259C53.4919 36.5549 50.0991 30.6853 46.7304 24.9209C43.3612 30.6818 40.0159 36.3378 36.7097 41.7861Z" fill="white"/>
<path d="M57.216 42.8806C57.1764 42.8806 57.1394 42.8536 57.1124 42.8075C53.6031 36.7494 50.1028 30.6918 46.6275 24.7457C46.589 24.6817 46.5795 24.5866 46.6015 24.5061C46.6235 24.4246 46.674 24.3715 46.7295 24.372C53.6811 24.369 60.7338 24.368 67.7519 24.369C67.8079 24.3695 67.8589 24.4216 67.8814 24.5046C67.9035 24.5866 67.8935 24.6822 67.8549 24.7472C64.3456 30.7678 60.8283 36.8259 57.3185 42.8095C57.2925 42.8551 57.255 42.8806 57.216 42.8806ZM47.0507 24.8168C50.4209 30.5837 53.8147 36.4538 57.216 42.3233C60.6172 36.5243 64.0265 30.6558 67.4282 24.8193C60.6242 24.8203 53.7917 24.8193 47.0507 24.8168Z" fill="white"/>
<path d="M16.5733 56.4573C10.223 55.1126 4.1734 53.4678 -1.442 51.5253C-1.48702 51.5103 -1.52754 51.4563 -1.54555 51.3892C-1.56306 51.3227 -1.55506 51.2541 -1.52454 51.2166C1.2809 47.7233 4.19492 43.6727 7.20147 39.1759C7.24649 39.1089 7.33253 39.1209 7.37806 39.1999C10.3881 44.5147 13.4897 50.2001 16.6663 56.1452C16.7014 56.2092 16.7104 56.2957 16.6904 56.3638C16.6698 56.4318 16.6243 56.4683 16.5733 56.4573ZM-1.18236 51.2797C4.27296 53.1306 10.1345 54.7044 16.2801 56.0006C13.2071 50.2476 10.2055 44.7413 7.29001 39.5836C4.37451 43.9349 1.54555 47.8679 -1.18236 51.2797Z" fill="white"/>
<path d="M16.5723 56.4571C16.5368 56.4491 16.5028 56.4191 16.4787 56.3745C13.3051 50.4275 10.2065 44.741 7.20046 39.4263C7.16745 39.3683 7.15893 39.2887 7.17794 39.2247C7.19745 39.1602 7.24048 39.1231 7.28901 39.1296C13.3051 39.9361 19.6894 40.5964 26.3073 41.1097C26.3603 41.1132 26.4084 41.1667 26.4294 41.2452C26.4504 41.3223 26.4409 41.4108 26.4044 41.4688C23.0942 46.7846 19.8425 51.8037 16.6658 56.4145C16.6418 56.4486 16.6078 56.4646 16.5723 56.4571ZM7.56715 39.5348C10.4882 44.7005 13.4947 50.2124 16.5723 55.9693C19.6499 51.4965 22.798 46.6405 26.0016 41.5029C19.5948 40.9881 13.4092 40.3323 7.56715 39.5348Z" fill="white"/>
<path d="M36.397 59.5957C29.5784 58.8488 22.9275 57.8023 16.5767 56.4576C16.5257 56.4466 16.4802 56.3901 16.4597 56.3135C16.4397 56.2385 16.4487 56.1559 16.4837 56.1049C19.6573 51.498 22.9065 46.482 26.2147 41.1687C26.2648 41.0892 26.3593 41.0962 26.4093 41.1837C29.7195 47.0177 33.0878 53.0748 36.4975 59.2425C36.535 59.3085 36.5445 59.4031 36.523 59.4796C36.5005 59.5562 36.4515 59.6012 36.397 59.5957ZM16.8699 56.1224C23.0341 57.4016 29.4784 58.4031 36.0818 59.1269C32.7801 53.1519 29.5184 47.2839 26.3113 41.6249C23.1046 46.7711 19.9525 51.6376 16.8699 56.1224Z" fill="white"/>
<path d="M36.3977 59.5956C36.3597 59.5916 36.3232 59.5621 36.2977 59.5161C32.8894 53.3464 29.5232 47.2883 26.2155 41.4538C26.179 41.3898 26.1699 41.2997 26.1905 41.2257C26.2115 41.1511 26.2595 41.1061 26.3125 41.1101C32.9304 41.6234 39.782 41.9901 46.7335 42.2102C46.7891 42.2117 46.8396 42.2652 46.8616 42.3478C46.8836 42.4293 46.8736 42.5238 46.8356 42.5879C43.3593 48.4229 39.9075 54.1103 36.4978 59.5381C36.4723 59.5786 36.4357 59.5996 36.3977 59.5956ZM26.6182 41.5513C29.8283 47.2147 33.0935 53.0848 36.3977 59.0599C39.7019 53.7977 43.0452 48.2928 46.4129 42.6449C39.6774 42.4213 33.039 42.0566 26.6182 41.5513Z" fill="white"/>
<path d="M57.2168 60.9403C50.1982 60.7912 43.2126 60.343 36.3946 59.5956C36.34 59.5896 36.2905 59.5336 36.269 59.4516C36.2475 59.3705 36.2575 59.2785 36.2945 59.2199C39.7028 53.7951 43.153 48.1107 46.6283 42.2767C46.6809 42.1897 46.7799 42.1927 46.8325 42.2837C50.3087 48.3403 53.81 54.471 57.3199 60.5646C57.3584 60.6302 57.3684 60.7262 57.3464 60.8078C57.3234 60.8898 57.2728 60.9418 57.2168 60.9403ZM36.7097 59.1949C43.3226 59.9018 50.0911 60.331 56.8926 60.4826C53.4919 54.573 50.0991 48.632 46.7304 42.7589C43.3612 48.4119 40.0159 53.9242 36.7097 59.1949Z" fill="white"/>
<path d="M57.216 60.9402C57.1764 60.9392 57.1394 60.9121 57.1124 60.8671C53.6031 54.771 50.1028 48.6393 46.6275 42.5812C46.589 42.5142 46.5795 42.4196 46.6015 42.3391C46.6235 42.258 46.674 42.2075 46.7295 42.2095C53.6811 42.4291 60.7338 42.5027 67.7519 42.4291C67.8079 42.4286 67.8589 42.4807 67.8814 42.5637C67.9035 42.6453 67.8935 42.7413 67.8549 42.8078C64.3456 48.8655 60.8283 54.9241 57.3185 60.8712C57.2925 60.9162 57.255 60.9412 57.216 60.9402ZM47.0507 42.6653C50.4209 48.5378 53.8147 54.4778 57.216 60.3839C60.6172 54.6204 64.0265 48.7534 67.4282 42.8839C60.6242 42.9519 53.7917 42.8794 47.0507 42.6653Z" fill="white"/>
<path d="M16.5733 72.2901C10.223 70.277 4.1734 67.8157 -1.442 64.9072C-1.48702 64.8837 -1.52754 64.8237 -1.54555 64.7527C-1.56306 64.6831 -1.55506 64.6161 -1.52454 64.5836C1.2809 61.574 4.19492 57.9697 7.20147 53.8821C7.24649 53.8195 7.33253 53.8425 7.37806 53.9301C10.3881 59.652 13.4897 65.7086 16.6663 71.9869C16.7014 72.0554 16.7104 72.1425 16.6904 72.2075C16.6698 72.2745 16.6243 72.3061 16.5733 72.2901ZM-1.18236 64.7061C4.27296 67.4886 10.1345 69.8533 16.2801 71.8023C13.2071 65.7231 10.2055 59.8556 7.29001 54.3018C4.37451 58.2573 1.54555 61.7591 -1.18236 64.7061Z" fill="white"/>
<path d="M16.5723 72.2902C16.5368 72.2797 16.5028 72.2451 16.4787 72.1971C13.3051 65.9149 10.2065 59.8563 7.20046 54.1323C7.16745 54.0703 7.15893 53.9897 7.17794 53.9282C7.19745 53.8657 7.24048 53.8346 7.28901 53.8477C13.3051 55.4715 19.6894 56.7997 26.3073 57.8332C26.3603 57.8412 26.4084 57.8977 26.4294 57.9778C26.4504 58.0568 26.4409 58.1444 26.4044 58.1999C23.0942 63.2565 19.8425 67.9794 16.6658 72.2571C16.6418 72.2891 16.6078 72.3012 16.5723 72.2902ZM7.56715 54.2909C10.4882 59.8502 13.4947 65.7213 16.5723 71.8019C19.6499 67.6528 22.798 63.0854 26.0016 58.2019C19.5948 57.1794 13.4092 55.8752 7.56715 54.2909Z" fill="white"/>
<path d="M36.397 76.9882C29.5784 75.8701 22.9275 74.3038 16.5767 72.2898C16.5257 72.2743 16.4802 72.2127 16.4597 72.1337C16.4397 72.0552 16.4487 71.9746 16.4837 71.9271C19.6573 67.6549 22.9065 62.936 26.2147 57.8834C26.2648 57.8083 26.3593 57.8218 26.4093 57.9149C29.7195 64.0085 33.0878 70.2868 36.4975 76.64C36.535 76.7091 36.5445 76.8026 36.523 76.8787C36.5005 76.9542 36.4515 76.9977 36.397 76.9882ZM16.8699 71.9866C23.0341 73.9086 29.4784 75.4139 36.0818 76.502C32.7801 70.3443 29.5184 64.2597 26.3113 58.3481C23.1046 63.2431 19.9525 67.823 16.8699 71.9866Z" fill="white"/>
<path d="M36.3977 76.9884C36.3597 76.9819 36.3232 76.9509 36.2977 76.9023C32.8894 70.5461 29.5232 64.2638 26.2155 58.1687C26.179 58.1022 26.1699 58.0121 26.1905 57.9396C26.2115 57.8665 26.2595 57.825 26.3125 57.833C32.9304 58.866 39.782 59.6039 46.7335 60.0472C46.7891 60.0507 46.8396 60.1062 46.8616 60.1892C46.8836 60.2713 46.8736 60.3658 46.8356 60.4279C43.3593 66.1528 39.9075 71.6927 36.4978 76.9354C36.4723 76.9754 36.4357 76.9949 36.3977 76.9884ZM26.6182 58.2988C29.8283 64.2118 33.0935 70.297 36.3977 76.4526C39.7019 71.37 43.0452 66.0092 46.4129 60.4719C39.6774 60.0282 33.039 59.3043 26.6182 58.2988Z" fill="white"/>
<path d="M57.2168 79.0021C50.1982 78.7789 43.2126 78.1076 36.3946 76.989C36.34 76.9795 36.2905 76.921 36.269 76.8375C36.2475 76.7554 36.2575 76.6639 36.2945 76.6078C39.7028 71.3696 43.153 65.8338 46.6283 60.1123C46.6809 60.0243 46.7799 60.0313 46.8325 60.1248C50.3087 66.2925 53.81 72.4962 57.3199 78.6264C57.3584 78.6929 57.3684 78.789 57.3464 78.87C57.3234 78.9525 57.2728 79.0046 57.2168 79.0021ZM36.7097 76.6053C43.3226 77.6674 50.0911 78.3122 56.8926 78.5408C53.4919 72.5928 50.0991 66.5782 46.7304 60.5971C43.3612 66.1419 40.0159 71.5117 36.7097 76.6053Z" fill="white"/>
<path d="M57.216 79.0018C57.1764 79.0008 57.1394 78.9729 57.1124 78.9268C53.6031 72.7927 50.1028 66.585 46.6275 60.4148C46.589 60.3482 46.5795 60.2522 46.6015 60.1731C46.6235 60.0931 46.674 60.0436 46.7295 60.0476C53.6811 60.4908 60.7338 60.6384 67.7519 60.4903C67.8079 60.4898 67.8589 60.5413 67.8814 60.6234C67.9035 60.7054 67.8935 60.801 67.8549 60.867C64.3456 66.9632 60.8283 73.0228 57.3185 78.9333C57.2925 78.9779 57.255 79.0038 57.216 79.0018ZM47.0507 60.5133C50.4209 66.4919 53.8147 72.5035 57.216 78.4456C60.6172 72.7181 64.0265 66.8516 67.4282 60.9476C60.6242 61.0831 53.7917 60.9386 47.0507 60.5133Z" fill="white"/>
<path d="M16.5733 88.122C10.223 85.4401 4.1734 82.1624 -1.442 78.2889C-1.48702 78.2574 -1.52754 78.1904 -1.54555 78.1169C-1.56306 78.0438 -1.55506 77.9783 -1.52454 77.9508C1.2809 75.424 4.19492 72.2668 7.20147 68.5884C7.24649 68.5339 7.33253 68.5689 7.37806 68.6605C10.3881 74.7901 13.4897 81.2169 16.6663 87.8283C16.7014 87.9004 16.7104 87.9884 16.6904 88.0525C16.6698 88.1165 16.6243 88.1435 16.5733 88.122ZM-1.18236 78.1318C4.27296 81.8458 10.1345 85.0024 16.2801 87.6037C13.2071 81.1984 10.2055 74.9702 7.29001 69.0206C4.37451 72.58 1.54555 75.6511 -1.18236 78.1318Z" fill="white"/>
<path d="M16.5723 88.1221C16.5368 88.1076 16.5028 88.0701 16.4787 88.0201C13.3051 81.4031 10.2065 74.9723 7.20046 68.8387C7.16745 68.7716 7.15893 68.6906 7.17794 68.6316C7.19745 68.572 7.24048 68.5465 7.28901 68.566C13.3051 71.0068 19.6894 73.0038 26.3073 74.5571C26.3603 74.5691 26.4084 74.6297 26.4294 74.7117C26.4504 74.7923 26.4409 74.8793 26.4044 74.9313C23.0942 79.7288 19.8425 84.1551 16.6658 88.0986C16.6418 88.1281 16.6078 88.1371 16.5723 88.1221ZM7.56715 69.0473C10.4882 74.9999 13.4947 81.2296 16.5723 87.6339C19.6499 83.8089 22.798 79.5312 26.0016 74.9018C19.5948 73.371 13.4092 71.4195 7.56715 69.0473Z" fill="white"/>
<path d="M78.2415 42.6555C71.2899 42.8806 64.2373 42.9562 57.2192 42.8806C57.1627 42.8806 57.1121 42.8266 57.0896 42.744C57.0676 42.662 57.0776 42.5665 57.1161 42.5014C60.6254 36.5188 64.1433 30.4617 67.6526 24.4411C67.7056 24.3491 67.8061 24.3491 67.8587 24.4411C71.368 30.4612 74.8688 36.4443 78.3441 42.2778C78.3821 42.3413 78.3921 42.4349 78.3701 42.5174C78.3476 42.5995 78.2971 42.6535 78.2415 42.6555ZM57.5434 42.4329C64.3469 42.4994 71.1799 42.4284 77.9204 42.2193C74.5501 36.5578 71.1564 30.7594 67.7551 24.9253C64.3539 30.7609 60.9446 36.6304 57.5434 42.4329Z" fill="white"/>
<path d="M78.2408 42.6556C78.2017 42.6566 78.1647 42.6315 78.1387 42.587C74.6624 36.7515 71.1611 30.7679 67.6513 24.7473C67.6128 24.6823 67.6028 24.5863 67.6248 24.5047C67.6473 24.4217 67.6978 24.3691 67.7543 24.3691C74.7735 24.3701 81.7586 24.3731 88.5771 24.3776C88.6316 24.3776 88.6811 24.4292 88.7026 24.5087C88.7242 24.5868 88.7141 24.6798 88.6771 24.7433C85.2689 30.5408 81.8186 36.5244 78.3428 42.5825C78.3168 42.6266 78.2798 42.6541 78.2408 42.6556ZM68.0785 24.8194C71.4793 30.6524 74.872 36.4484 78.2408 42.1053C81.61 36.2368 84.9552 30.4383 88.2619 24.8119C81.649 24.8159 74.8805 24.8184 68.0785 24.8194Z" fill="white"/>
<path d="M98.6627 41.5274C92.0448 42.0537 85.1932 42.4299 78.2412 42.6555C78.1856 42.657 78.1351 42.6064 78.1131 42.5254C78.0911 42.4449 78.1011 42.3493 78.1391 42.2838C81.6159 36.2267 85.0677 30.2436 88.4774 24.4461C88.5289 24.3595 88.6265 24.3585 88.6775 24.4466C92.0858 30.2441 95.452 35.8555 98.7597 41.1692C98.7962 41.2267 98.8052 41.3153 98.7847 41.3923C98.7637 41.4698 98.7157 41.5229 98.6627 41.5274ZM78.5623 42.1992C85.2973 41.9811 91.9362 41.6259 98.357 41.1327C95.1469 35.9685 91.8817 30.5282 88.5775 24.9128C85.2733 30.5352 81.9296 36.3312 78.5623 42.1992Z" fill="white"/>
<path d="M98.6635 41.5273C98.6265 41.5308 98.591 41.5088 98.5664 41.4683C95.2562 36.152 91.888 30.5396 88.4782 24.7417C88.4407 24.6791 88.4312 24.5861 88.4527 24.507C88.4747 24.4275 88.5238 24.377 88.5783 24.3765C95.3963 24.3815 102.048 24.3875 108.398 24.396C108.449 24.396 108.495 24.4425 108.515 24.515C108.535 24.5866 108.526 24.6711 108.491 24.7281C105.317 30.0054 102.068 35.6172 98.7605 41.4523C98.736 41.4968 98.7005 41.5243 98.6635 41.5273ZM88.8935 24.8112C92.1952 30.4221 95.4568 35.8559 98.664 41.0115C101.871 35.3616 105.023 29.9213 108.105 24.7922C101.941 24.8002 95.4964 24.8067 88.8935 24.8112Z" fill="white"/>
<path d="M78.2415 60.4929C71.2899 60.9411 64.2373 61.0902 57.2192 60.9411C57.1627 60.9401 57.1121 60.8866 57.0896 60.8031C57.0676 60.721 57.0776 60.625 57.1161 60.5604C60.6254 54.6159 64.1433 48.5597 67.6526 42.5026C67.7056 42.4121 67.8061 42.4111 67.8587 42.5006C71.368 48.4832 74.8688 54.3913 78.3441 60.1127C78.3821 60.1747 78.3921 60.2688 78.3701 60.3513C78.3476 60.4339 78.2971 60.4894 78.2415 60.4929ZM57.5434 60.4969C64.3469 60.631 71.1799 60.4874 77.9204 60.0677C74.5501 54.5123 71.1564 48.7844 67.7551 42.9869C64.3539 48.8574 60.9446 54.7279 57.5434 60.4969Z" fill="white"/>
<path d="M78.2408 60.4929C78.2017 60.4954 78.1647 60.4714 78.1387 60.4288C74.6624 54.7044 71.1611 48.7943 67.6513 42.8103C67.6128 42.7447 67.6028 42.6492 67.6248 42.5671C67.6473 42.4836 67.6978 42.4306 67.7543 42.4301C74.7735 42.357 81.7586 42.1364 88.5771 41.7702C88.6316 41.7667 88.6811 41.8152 88.7026 41.8938C88.7242 41.9713 88.7141 42.0644 88.6771 42.1304C85.2689 48.114 81.8186 54.2466 78.3428 60.4163C78.3168 60.4618 78.2798 60.4904 78.2408 60.4929ZM68.0785 42.8773C71.4793 48.6718 74.872 54.3942 78.2408 59.9426C81.61 53.966 84.9552 48.0254 88.2619 42.2209C81.649 42.5811 74.8805 42.8002 68.0785 42.8773Z" fill="white"/>
<path d="M98.6627 58.251C92.0448 59.2976 85.1932 60.0444 78.2412 60.4927C78.1856 60.4962 78.1351 60.4472 78.1131 60.3666C78.0911 60.2871 78.1011 60.191 78.1391 60.124C81.6159 53.9568 85.0677 47.8262 88.4774 41.8441C88.5289 41.754 88.6265 41.7495 88.6775 41.8336C92.0858 47.4445 95.452 52.8318 98.7597 57.8849C98.7962 57.9399 98.8052 58.0269 98.7847 58.106C98.7637 58.1865 98.7157 58.243 98.6627 58.251ZM78.5623 60.0265C85.2973 59.5887 91.9362 58.8734 98.357 57.8809C95.1469 52.9673 91.8817 47.7411 88.5775 42.3063C85.2733 48.1083 81.9296 54.0489 78.5623 60.0265Z" fill="white"/>
<path d="M98.6635 58.2508C98.6265 58.2563 98.591 58.2373 98.5664 58.1998C95.2562 53.1437 91.888 47.7529 88.4782 42.1405C88.4407 42.0789 88.4312 41.9864 88.4527 41.9064C88.4747 41.8258 88.5238 41.7718 88.5783 41.7693C95.3963 41.4026 102.048 40.8893 108.398 40.2295C108.449 40.224 108.495 40.2655 108.515 40.3361C108.535 40.4061 108.526 40.4911 108.491 40.5522C105.317 46.1645 102.068 52.0736 98.7605 58.1692C98.736 58.2153 98.7005 58.2453 98.6635 58.2508ZM88.8935 42.1865C92.1952 47.6153 95.4568 52.832 98.664 57.735C101.871 51.8335 105.023 46.1065 108.105 40.6562C101.941 41.3075 95.4964 41.8178 88.8935 42.1865Z" fill="white"/>
<path d="M78.2415 78.3305C71.2899 79.0018 64.2373 79.225 57.2192 79.0013C57.1627 78.9998 57.1121 78.9458 57.0896 78.8618C57.0676 78.7792 57.0776 78.6837 57.1161 78.6196C60.6254 72.7131 64.1433 66.6575 67.6526 60.5644C67.7056 60.4713 67.8061 60.4693 67.8587 60.5593C71.368 66.5044 74.8688 72.3369 78.3441 77.9468C78.3821 78.0073 78.3921 78.1014 78.3701 78.1844C78.3476 78.268 78.2971 78.325 78.2415 78.3305ZM57.5434 78.5606C64.3469 78.7622 71.1799 78.5476 77.9204 77.9153C74.5501 72.465 71.1564 66.8086 67.7551 61.0461C64.3539 66.9537 60.9446 72.8257 57.5434 78.5606Z" fill="white"/>
<path d="M78.2408 78.3306C78.2017 78.3336 78.1647 78.3116 78.1387 78.2691C74.6624 72.6547 71.1611 66.8182 67.6513 60.8706C67.6128 60.8066 67.6028 60.7105 67.6248 60.628C67.6473 60.545 67.6978 60.4909 67.7543 60.4899C74.7735 60.3424 81.7586 59.8996 88.5771 59.1617C88.6316 59.1552 88.6811 59.2018 88.7026 59.2783C88.7242 59.3549 88.7141 59.4484 88.6771 59.5164C85.2689 65.6866 81.8186 71.9688 78.3428 78.2506C78.3168 78.2976 78.2798 78.3266 78.2408 78.3306ZM68.0785 60.9337C71.4793 66.6906 74.872 72.34 78.2408 77.7808C81.61 71.6962 84.9552 65.6121 88.2619 59.63C81.649 60.3454 74.8805 60.7796 68.0785 60.9337Z" fill="white"/>
<path d="M98.6627 74.9751C92.0448 76.5409 85.1932 77.6595 78.2412 78.3308C78.1856 78.3363 78.1351 78.2883 78.1131 78.2092C78.0911 78.1302 78.1011 78.0347 78.1391 77.9656C81.6159 71.6874 85.0677 65.4087 88.4774 59.241C88.5289 59.1484 88.6265 59.1369 88.6775 59.22C92.0858 64.6448 95.452 69.8089 98.7597 74.6009C98.7962 74.6529 98.8052 74.7395 98.7847 74.82C98.7637 74.9021 98.7157 74.9626 98.6627 74.9751ZM78.5623 77.8541C85.2973 77.1962 91.9362 76.1207 98.357 74.6289C95.1469 69.964 91.8817 64.9534 88.5775 59.6977C85.2733 65.6793 81.9296 71.7654 78.5623 77.8541Z" fill="white"/>
<path d="M98.6635 74.9751C98.6265 74.9831 98.591 74.9676 98.5664 74.931C95.2562 70.1336 91.888 64.9649 88.4782 59.5371C88.4407 59.4786 88.4312 59.387 88.4527 59.3055C88.4747 59.224 88.5238 59.1674 88.5783 59.1614C95.3963 58.423 102.048 57.39 108.398 56.0618C108.449 56.0513 108.495 56.0883 108.515 56.1559C108.535 56.2234 108.526 56.31 108.491 56.3745C105.317 62.3216 102.068 68.5287 98.7605 74.885C98.736 74.9335 98.7005 74.9656 98.6635 74.9751ZM88.8935 59.5611C92.1952 64.8078 95.4568 69.8074 98.664 74.4593C101.871 68.3051 105.023 62.2915 108.105 56.5195C101.941 57.8137 95.4964 58.8277 88.8935 59.5611Z" fill="white"/>
<path d="M98.6635 91.6988C98.6265 91.7099 98.591 91.6968 98.5664 91.6633C95.2562 87.125 91.888 82.1784 88.4782 76.9357C88.4407 76.8792 88.4312 76.7882 88.4527 76.7056C88.4747 76.6221 88.5238 76.5635 88.5783 76.5545C95.3963 75.445 102.048 73.8922 108.398 71.8956C108.449 71.8796 108.495 71.9121 108.515 71.9772C108.535 72.0432 108.526 72.1298 108.491 72.1978C105.317 78.48 102.068 84.9854 98.7605 91.6018C98.736 91.6513 98.7005 91.6863 98.6635 91.6988ZM88.8935 76.9367C92.1952 82.0008 95.4568 86.7833 98.664 91.1831C101.871 84.7773 105.023 78.4775 108.105 72.3834C101.941 74.3209 95.4964 75.8392 88.8935 76.9367Z" fill="white"/>
</g>
</g>
<path d="M45.6824 48.372C48.5488 48.372 50.8725 46.0483 50.8725 43.1819C50.8725 40.3154 48.5488 37.9917 45.6824 37.9917C42.8159 37.9917 40.4922 40.3154 40.4922 43.1819C40.4922 46.0483 42.8159 48.372 45.6824 48.372Z" fill="url(#paint1_radial_3021_3038)"/>
<path d="M45.6806 46.3822C47.448 46.3822 48.8808 44.9495 48.8808 43.1821C48.8808 41.4147 47.448 39.9819 45.6806 39.9819C43.9132 39.9819 42.4805 41.4147 42.4805 43.1821C42.4805 44.9495 43.9132 46.3822 45.6806 46.3822Z" fill="white"/>
<path d="M63.073 56.6323C65.9394 56.6323 68.2632 54.3086 68.2632 51.4421C68.2632 48.5757 65.9394 46.252 63.073 46.252C60.2065 46.252 57.8828 48.5757 57.8828 51.4421C57.8828 54.3086 60.2065 56.6323 63.073 56.6323Z" fill="url(#paint2_radial_3021_3038)"/>
<path d="M63.0712 54.6425C64.8386 54.6425 66.2714 53.2097 66.2714 51.4423C66.2714 49.6749 64.8386 48.2422 63.0712 48.2422C61.3038 48.2422 59.8711 49.6749 59.8711 51.4423C59.8711 53.2097 61.3038 54.6425 63.0712 54.6425Z" fill="white"/>
<path d="M78.6667 28.1899C81.5332 28.1899 83.8569 25.8662 83.8569 22.9997C83.8569 20.1333 81.5332 17.8096 78.6667 17.8096C75.8003 17.8096 73.4766 20.1333 73.4766 22.9997C73.4766 25.8662 75.8003 28.1899 78.6667 28.1899Z" fill="url(#paint3_radial_3021_3038)"/>
<path d="M78.665 26.2001C80.4324 26.2001 81.8651 24.7673 81.8651 23C81.8651 21.2326 80.4324 19.7998 78.665 19.7998C76.8976 19.7998 75.4648 21.2326 75.4648 23C75.4648 24.7673 76.8976 26.2001 78.665 26.2001Z" fill="white"/>
<defs>
<radialGradient id="paint0_radial_3021_3038" cx="0" cy="0" r="1" gradientUnits="userSpaceOnUse" gradientTransform="translate(65.8147 22.3568) scale(52.751 52.751)">
<stop stop-color="#9A38D7"/>
<stop offset="0.2928" stop-color="#9839D8"/>
<stop offset="0.4387" stop-color="#9039DA"/>
<stop offset="0.5521" stop-color="#833BDE"/>
<stop offset="0.6488" stop-color="#703CE5"/>
<stop offset="0.7338" stop-color="#583FED"/>
<stop offset="0.8112" stop-color="#3B41F6"/>
<stop offset="0.8146" stop-color="#3942F7"/>
<stop offset="1" stop-color="#8D7AF7"/>
</radialGradient>
<radialGradient id="paint1_radial_3021_3038" cx="0" cy="0" r="1" gradientUnits="userSpaceOnUse" gradientTransform="translate(45.6826 43.1825) scale(5.19027)">
<stop stop-color="white"/>
<stop offset="0.1242" stop-color="#F9F8FD" stop-opacity="0.8758"/>
<stop offset="0.3048" stop-color="#E8E5F8" stop-opacity="0.6952"/>
<stop offset="0.5198" stop-color="#CBC5EF" stop-opacity="0.4802"/>
<stop offset="0.7599" stop-color="#A499E2" stop-opacity="0.2401"/>
<stop offset="1" stop-color="#7666D4" stop-opacity="0"/>
</radialGradient>
<radialGradient id="paint2_radial_3021_3038" cx="0" cy="0" r="1" gradientUnits="userSpaceOnUse" gradientTransform="translate(63.0731 51.4417) scale(5.19053)">
<stop stop-color="white"/>
<stop offset="0.1242" stop-color="#F9F8FD" stop-opacity="0.8758"/>
<stop offset="0.3048" stop-color="#E8E5F8" stop-opacity="0.6952"/>
<stop offset="0.5198" stop-color="#CBC5EF" stop-opacity="0.4802"/>
<stop offset="0.7599" stop-color="#A499E2" stop-opacity="0.2401"/>
<stop offset="1" stop-color="#7666D4" stop-opacity="0"/>
</radialGradient>
<radialGradient id="paint3_radial_3021_3038" cx="0" cy="0" r="1" gradientUnits="userSpaceOnUse" gradientTransform="translate(78.6668 22.9995) scale(5.19027)">
<stop stop-color="white"/>
<stop offset="0.1242" stop-color="#F9F8FD" stop-opacity="0.8758"/>
<stop offset="0.3048" stop-color="#E8E5F8" stop-opacity="0.6952"/>
<stop offset="0.5198" stop-color="#CBC5EF" stop-opacity="0.4802"/>
<stop offset="0.7599" stop-color="#A499E2" stop-opacity="0.2401"/>
<stop offset="1" stop-color="#7666D4" stop-opacity="0"/>
</radialGradient>
</defs>
</svg>
