<svg width="24" height="25" viewBox="0 0 24 25" fill="none" xmlns="http://www.w3.org/2000/svg">
<path d="M7.33203 0.416748H16.6654C18.5219 0.416748 20.3024 1.18059 21.6151 2.54022C22.9279 3.89986 23.6654 5.74393 23.6654 7.66675V17.3334C23.6654 19.2562 22.9279 21.1003 21.6151 22.4599C20.3024 23.8196 18.5219 24.5834 16.6654 24.5834H7.33203C5.47552 24.5834 3.69504 23.8196 2.38228 22.4599C1.06953 21.1003 0.332031 19.2562 0.332031 17.3334L0.332031 7.66675C0.332031 5.74393 1.06953 3.89986 2.38228 2.54022C3.69504 1.18059 5.47552 0.416748 7.33203 0.416748ZM14.332 11.2917C14.0226 11.2917 13.7259 11.4191 13.5071 11.6457C13.2883 11.8723 13.1654 12.1796 13.1654 12.5001C13.1654 12.8206 13.2883 13.1279 13.5071 13.3545C13.7259 13.5811 14.0226 13.7084 14.332 13.7084H17.832C18.1414 13.7084 18.4382 13.5811 18.657 13.3545C18.8758 13.1279 18.9987 12.8206 18.9987 12.5001C18.9987 12.1796 18.8758 11.8723 18.657 11.6457C18.4382 11.4191 18.1414 11.2917 17.832 11.2917H14.332ZM11.9987 16.1251C11.6893 16.1251 11.3925 16.2524 11.1737 16.479C10.9549 16.7056 10.832 17.0129 10.832 17.3334C10.832 17.6539 10.9549 17.9612 11.1737 18.1878C11.3925 18.4144 11.6893 18.5417 11.9987 18.5417H17.832C18.1414 18.5417 18.4382 18.4144 18.657 18.1878C18.8758 17.9612 18.9987 17.6539 18.9987 17.3334C18.9987 17.0129 18.8758 16.7056 18.657 16.479C18.4382 16.2524 18.1414 16.1251 17.832 16.1251H11.9987ZM11.9987 6.45841C11.6893 6.45841 11.3925 6.58572 11.1737 6.81233C10.9549 7.03893 10.832 7.34628 10.832 7.66675C10.832 7.98722 10.9549 8.29456 11.1737 8.52117C11.3925 8.74777 11.6893 8.87508 11.9987 8.87508H17.832C18.1414 8.87508 18.4382 8.74777 18.657 8.52117C18.8758 8.29456 18.9987 7.98722 18.9987 7.66675C18.9987 7.34628 18.8758 7.03893 18.657 6.81233C18.4382 6.58572 18.1414 6.45841 17.832 6.45841H11.9987ZM7.13136 12.7937L6.30653 11.9394C6.19891 11.824 6.07017 11.732 5.92784 11.6686C5.7855 11.6053 5.63241 11.572 5.4775 11.5706C5.32259 11.5692 5.16896 11.5997 5.02558 11.6605C4.88221 11.7213 4.75195 11.811 4.6424 11.9244C4.53286 12.0379 4.44623 12.1728 4.38757 12.3213C4.32891 12.4698 4.29939 12.6289 4.30074 12.7894C4.30209 12.9498 4.33427 13.1084 4.39541 13.2558C4.45656 13.4032 4.54544 13.5365 4.65686 13.648L6.30653 15.3566C6.41488 15.4689 6.54355 15.5581 6.68518 15.6189C6.82681 15.6797 6.97863 15.711 7.13195 15.711C7.28527 15.711 7.43708 15.6797 7.57871 15.6189C7.72034 15.5581 7.84901 15.4689 7.95736 15.3566L11.2567 11.9394C11.4758 11.7128 11.599 11.4054 11.5992 11.0848C11.5994 10.7641 11.4766 10.4565 11.2579 10.2296C11.0391 10.0027 10.7423 9.87514 10.4327 9.87491C10.1231 9.87468 9.8261 10.0018 9.60703 10.2284L7.13136 12.7925V12.7937Z" fill="#1376B9"/>
</svg>
