<svg width="17" height="21" viewBox="0 0 17 21" fill="none" xmlns="http://www.w3.org/2000/svg">
<path d="M16.5238 19.9923C16.5028 19.5304 16.4399 19.0685 16.3979 18.6067C16.2509 17.41 16.041 16.2343 15.7471 15.0586C15.6211 14.6178 15.4741 14.1979 15.3272 13.757C15.0542 12.8962 14.4244 12.4134 13.6266 12.0985C12.9758 11.8465 12.304 11.6996 11.6532 11.4686C11.5062 11.4057 11.4642 11.4477 11.4433 11.5736C11.3173 12.0775 11.1913 12.5813 11.0444 13.0642C10.6665 14.4708 10.2676 15.8564 9.65875 17.1581C9.63775 17.242 9.61676 17.326 9.53278 17.347L9.51179 17.326C9.36483 16.5702 9.19687 15.8144 9.07091 15.0796C8.96594 14.4288 8.69301 13.778 8.94494 13.1062C9.02892 12.8753 8.90296 12.7703 8.71401 12.6443C8.3781 12.4134 8.12617 12.4134 7.81126 12.6443C7.53833 12.8333 7.53833 12.8123 7.60132 13.1482C7.64331 13.4001 7.72728 13.652 7.6643 13.925C7.49635 14.7857 7.34939 15.6465 7.18143 16.5072C7.11845 16.8012 7.05547 17.0741 6.99249 17.41C6.78254 17.0321 6.65658 16.6962 6.53061 16.3603C5.96377 14.9117 5.56488 13.4211 5.16599 11.9305C5.124 11.7626 5.145 11.5106 5.01903 11.4477C4.89307 11.4057 4.68313 11.5316 4.51517 11.5946C3.84336 11.8046 3.17155 11.9515 2.52073 12.2664C1.9119 12.5603 1.49201 13.0012 1.24008 13.631C0.946163 14.4078 0.736222 15.1846 0.568268 15.9824C0.27435 17.41 0.0434139 18.8376 0.00142556 20.2862C-0.0195686 20.7691 0.190373 21 0.694233 21H15.7471C16.062 21 16.3139 20.937 16.4609 20.6851C16.5238 20.4961 16.5238 20.2022 16.5238 20.0133V19.9923ZM4.45219 7.35379C4.66213 7.41677 4.72511 7.52174 4.7881 7.68969C5.18699 8.65543 5.69085 9.55818 6.50962 10.23C7.13945 10.7338 7.83225 11.0068 8.65103 10.8808C9.23886 10.7968 9.72173 10.5029 10.1626 10.104C10.9184 9.41122 11.4223 8.55045 11.7792 7.58472C11.8211 7.52174 11.8211 7.39577 11.9051 7.39577C12.241 7.39577 12.367 7.12285 12.5769 6.9549C12.9338 6.68197 12.9548 6.30408 12.8709 5.90519C12.8499 5.71624 12.7449 5.61127 12.5559 5.63226C12.388 5.65326 12.367 5.59028 12.409 5.46431C12.514 4.93946 12.5769 4.4146 12.5979 3.82676C12.5769 3.67981 12.5769 3.49086 12.5559 3.30191C12.493 2.88203 12.388 2.50413 11.9681 2.2732C11.8841 2.23121 11.8631 2.16823 11.8211 2.08425C11.4223 1.32846 10.8764 0.740621 10.0996 0.38372C9.57477 0.152784 9.04992 0.0478134 8.50407 0.00582506C7.05547 -0.0571575 5.8588 0.38372 5.06102 1.66437C5.01903 1.76934 4.93506 1.79033 4.85108 1.83232C4.53617 1.95828 4.28424 2.18922 4.13728 2.48314C3.94833 2.88203 3.84336 3.3229 3.82237 3.74279C3.80137 4.33063 3.88535 4.89747 4.01131 5.4853C4.03231 5.56928 4.03231 5.63226 3.90634 5.63226C3.78038 5.63226 3.6964 5.71624 3.67541 5.82121C3.46546 6.40905 3.86435 7.20683 4.45219 7.35379ZM5.35494 6.09414C5.33395 5.92618 5.37593 5.75823 5.56488 5.67425C5.64886 5.63226 5.73284 5.61127 5.81681 5.71624C5.87979 5.82121 5.98477 5.82121 6.06874 5.80022C6.19471 5.80022 6.25769 5.82121 6.2367 5.96817C6.2157 6.2201 6.38365 6.38805 6.5936 6.38805C6.82453 6.36706 6.97149 6.17811 6.9295 5.92618C6.90851 5.82121 6.9505 5.80022 7.03447 5.80022C7.13945 5.80022 7.26541 5.82121 7.37038 5.75823C7.43336 5.71624 7.45436 5.75823 7.47535 5.80022C7.68529 6.05215 7.68529 6.38805 7.47535 6.61899C7.07646 7.03887 6.55161 7.20683 5.98477 7.10186C5.64886 7.03887 5.41792 6.68197 5.35494 6.2411V6.09414ZM10.7504 8.21455C10.4145 8.82338 10.0366 9.39022 9.4698 9.81011C8.63003 10.4189 7.74828 10.3979 6.90851 9.68414C6.2367 9.0963 5.79582 8.34051 5.43892 7.52174V7.43776C6.02675 7.71069 6.61459 7.64771 7.16044 7.39577C7.68529 7.14384 8.06319 6.80794 8.06319 6.17811C8.08418 6.03115 8.16816 6.05215 8.25214 6.05215C8.33611 6.07314 8.44108 6.03115 8.46208 6.17811C8.60904 7.03887 9.28085 7.58472 10.1836 7.60572C10.3516 7.60572 10.4985 7.60572 10.6665 7.58472C10.8134 7.54273 10.9394 7.47975 11.1073 7.43776C11.0234 7.73168 10.8764 7.96262 10.7504 8.21455ZM10.2676 7.12285C9.88968 7.12285 9.53278 7.01788 9.21787 6.78694C9.02892 6.63998 8.90296 6.45104 8.88196 6.19911C8.88196 6.05215 8.96594 5.92618 9.02892 5.80022C9.07091 5.75823 9.1129 5.73724 9.19687 5.75823C9.4488 5.77922 9.63775 5.82121 9.63775 6.15712C9.61676 6.32507 9.86869 6.40905 10.0366 6.36706C10.2256 6.30408 10.3306 6.15712 10.2886 5.98917C10.2466 5.80022 10.3306 5.80022 10.4565 5.80022C10.5405 5.80022 10.6245 5.80022 10.7085 5.73724C10.8764 5.59028 11.0864 5.65326 11.1493 5.88419C11.3383 6.40905 10.8344 7.14384 10.2676 7.12285ZM5.52289 3.00799C5.58588 2.94501 5.62786 2.94501 5.66985 3.00799C6.44664 3.99472 7.53833 4.24665 8.71401 4.30963C9.19687 4.33063 9.65875 4.28864 10.1206 4.14168C10.3725 4.07869 10.4565 3.95273 10.3935 3.78478C10.3096 3.59583 10.1626 3.61682 9.99465 3.65881C9.1129 3.91074 8.25214 3.86875 7.39138 3.59583C7.34939 3.57483 7.32839 3.55384 7.2864 3.55384C7.74828 3.61682 8.18915 3.65881 8.65103 3.63782C9.42781 3.61682 10.1416 3.38589 10.7504 2.90302C10.9184 2.77706 10.9814 2.81904 11.0654 2.966C11.3173 3.38589 11.4223 3.82676 11.4852 4.28864C11.5272 4.70852 11.5482 5.1284 11.5272 5.61127C11.2543 5.17039 10.8554 5.23337 10.4565 5.23337H9.25986C9.00793 5.23337 8.83997 5.33835 8.71401 5.54829C8.63003 5.65326 8.56705 5.69525 8.44108 5.67425C8.3781 5.65326 8.31512 5.65326 8.25214 5.67425C8.0212 5.69525 7.85325 5.65326 7.72728 5.44332C7.64331 5.29636 7.47535 5.23337 7.2864 5.23337H5.79582C5.37593 5.23337 5.31295 5.27536 5.01903 5.54829C4.70412 4.7925 4.95605 3.55384 5.52289 3.00799Z" fill="#1376B9"/>
</svg>
