<svg width="23" height="28" viewBox="0 0 23 28" fill="none" xmlns="http://www.w3.org/2000/svg">
<path d="M2.21094 4C2.21094 3.46957 2.42165 2.96086 2.79672 2.58579C3.1718 2.21071 3.6805 2 4.21094 2H18.2109C18.7414 2 19.2501 2.21071 19.6252 2.58579C20.0002 2.96086 20.2109 3.46957 20.2109 4V22H2.21094V4ZM4.21094 26C3.6805 26 3.1718 25.7893 2.79672 25.4142C2.42165 25.0391 2.21094 24.5304 2.21094 24H20.4609C20.9251 24 21.3702 23.8156 21.6984 23.4874C22.0266 23.1592 22.2109 22.7141 22.2109 22.25V4C22.2109 2.93913 21.7895 1.92172 21.0394 1.17157C20.2892 0.421427 19.2718 0 18.2109 0H4.21094C3.15007 0 2.13266 0.421427 1.38251 1.17157C0.632365 1.92172 0.210938 2.93913 0.210938 4V24C0.210938 25.0609 0.632365 26.0783 1.38251 26.8284C2.13266 27.5786 3.15007 28 4.21094 28H21.2109C21.4762 28 21.7305 27.8946 21.918 27.7071C22.1056 27.5196 22.2109 27.2652 22.2109 27C22.2109 26.7348 22.1056 26.4804 21.918 26.2929C21.7305 26.1054 21.4762 26 21.2109 26H4.21094ZM14.7109 12C15.1088 12 15.4903 12.158 15.7716 12.4393C16.0529 12.7206 16.2109 13.1022 16.2109 13.5V14C16.2109 15.971 14.3509 18 11.2109 18C8.07094 18 6.21094 15.971 6.21094 14V13.5C6.21094 13.1022 6.36897 12.7206 6.65028 12.4393C6.93158 12.158 7.31311 12 7.71094 12H14.7109ZM11.2109 5.5C11.9403 5.5 12.6398 5.78973 13.1555 6.30546C13.6712 6.82118 13.9609 7.52065 13.9609 8.25C13.9609 8.97935 13.6712 9.67882 13.1555 10.1945C12.6398 10.7103 11.9403 11 11.2109 11C10.4816 11 9.78212 10.7103 9.26639 10.1945C8.75067 9.67882 8.46094 8.97935 8.46094 8.25C8.46094 7.52065 8.75067 6.82118 9.26639 6.30546C9.78212 5.78973 10.4816 5.5 11.2109 5.5Z" fill="#197BBD"/>
</svg>
