<svg width="103" height="84" viewBox="0 0 103 84" fill="none" xmlns="http://www.w3.org/2000/svg">
<g opacity="0.48">
<path d="M26.1892 27.0483C22.9922 28.5553 20.0052 30.2453 17.2812 32.0793L27.8792 36.1523L26.1892 27.0483ZM93.4402 46.1473L92.2742 45.6623C92.3532 46.9593 92.2482 48.3083 91.9472 49.6833C91.1872 53.1803 89.2352 56.5613 86.3672 59.6523L96.7542 63.9883L93.4402 46.1473Z" fill="url(#paint0_linear_3021_3018)"/>
<path d="M106.238 46.6452C106.248 46.5442 106.261 46.4432 106.275 46.3412C106.21 47.2612 106.095 48.1872 105.884 49.1342C101.993 67.0542 75.2451 82.5252 46.1521 83.6902C17.0581 84.8562 -3.36395 71.2722 0.541051 53.3522C2.27005 45.4412 8.4261 38.0132 17.2811 32.0802L27.8791 36.1532C28.8481 35.5502 29.8691 34.9612 30.9181 34.3982C31.1531 34.2672 31.3891 34.1622 31.6251 34.0312C32.4111 33.6252 33.2101 33.2322 34.0351 32.8512C34.3891 32.6952 34.742 32.5372 35.109 32.3802C35.738 32.1052 36.3921 31.8432 37.0481 31.5812C37.7681 31.3062 38.5011 31.0302 39.2481 30.7682C39.8631 30.5452 40.4921 30.3362 41.1341 30.1392C41.6581 29.9692 42.1961 29.8122 42.7331 29.6552C43.4931 29.4322 44.2651 29.2222 45.0391 29.0402C45.4841 28.9212 45.9161 28.8172 46.3611 28.7122C47.3711 28.4892 48.3791 28.2792 49.4141 28.0972C49.6231 28.0582 49.8461 28.0052 50.0681 27.9662C51.3001 27.7692 52.5571 27.5992 53.8151 27.4542C54.1561 27.4152 54.4961 27.3902 54.8361 27.3622C56.0151 27.2452 57.2071 27.1532 58.3861 27.1002C59.1991 27.0752 59.9841 27.0752 60.7711 27.0752C61.3861 27.0612 61.9891 27.0752 62.5781 27.0872C63.0761 27.1012 63.5601 27.1272 64.0331 27.1532C64.7931 27.1922 65.525 27.2452 66.26 27.3092C66.731 27.3492 67.229 27.3892 67.7001 27.4542C67.9881 27.4802 68.2631 27.5202 68.5521 27.5592C69.2331 27.6512 69.9021 27.7552 70.5571 27.8732C70.7921 27.9122 71.0281 27.9512 71.2641 27.9902C72.1281 28.1612 72.9671 28.3442 73.7791 28.5412C73.9361 28.5802 74.0811 28.6332 74.2251 28.6722C74.8931 28.8422 75.5611 29.0392 76.1901 29.2352C76.4241 29.3142 76.6611 29.3932 76.8971 29.4712C77.4991 29.6672 78.0761 29.8912 78.6521 30.1142C78.8231 30.1782 78.9931 30.2312 79.1501 30.3092C79.8701 30.5982 80.5511 30.9132 81.2191 31.2392C81.3641 31.3192 81.5081 31.3972 81.6641 31.4752C82.1761 31.7372 82.6731 32.0122 83.1581 32.3012C83.3411 32.4182 83.5241 32.5242 83.7071 32.6412C84.1921 32.9552 84.6641 33.2702 85.1231 33.5982C85.2271 33.6762 85.332 33.7422 85.437 33.8212C85.9741 34.2262 86.4711 34.6452 86.9561 35.0782C87.0741 35.1822 87.1801 35.3012 87.2971 35.3922C87.2711 35.4572 87.2441 35.5232 87.2051 35.5882C81.3761 30.1262 70.9881 26.8772 58.4001 27.3892C36.9961 28.2402 17.3471 39.6232 14.4781 52.7872C11.6091 65.9652 26.6211 75.9602 48.0111 75.1082C63.7181 74.4792 78.4931 68.1662 86.3661 59.6512L96.7531 63.9872C96.9641 63.7772 97.1731 63.5682 97.3691 63.3712C97.4871 63.2402 97.5921 63.1092 97.7101 62.9922C98.2471 62.4412 98.7581 61.8912 99.2431 61.3282C99.4131 61.1192 99.5831 60.9352 99.7531 60.7252C100.357 59.9922 100.945 59.2452 101.482 58.4852C101.495 58.4592 101.508 58.4332 101.534 58.4202C101.836 57.9882 102.111 57.5432 102.386 57.1092C102.478 56.9662 102.583 56.8222 102.675 56.6772C103.041 56.0622 103.382 55.4582 103.696 54.8432C103.71 54.8292 103.71 54.8182 103.71 54.8042C103.749 54.7392 103.774 54.6732 103.801 54.6202C104.076 54.0832 104.312 53.5592 104.534 53.0222C104.613 52.8382 104.692 52.6412 104.77 52.4592C104.862 52.2242 104.966 51.9872 105.045 51.7652C105.123 51.5562 105.176 51.3462 105.241 51.1362C105.293 50.9792 105.359 50.8222 105.398 50.6522C105.582 50.0762 105.738 49.5002 105.869 48.9232C105.869 48.8972 105.883 48.8712 105.883 48.8442C106.014 48.2422 106.106 47.6532 106.184 47.0632C106.212 46.9202 106.225 46.7762 106.238 46.6452Z" fill="url(#paint1_linear_3021_3018)"/>
</g>
<path d="M27.8762 36.1526L17.2792 32.0796L17.0172 31.9746L13.7031 14.1206L24.5621 18.3126L26.1871 27.0486L27.8762 36.1526Z" fill="url(#paint2_linear_3021_3018)"/>
<path opacity="0.48" d="M92.0625 43.7244C91.9585 43.1484 91.8005 42.5844 91.6305 42.0354C91.5775 41.8654 91.5135 41.7074 91.4605 41.5514C91.3025 41.1314 91.1325 40.7254 90.9365 40.3324C90.8715 40.1754 90.8055 40.0304 90.7265 39.8874C90.4645 39.3644 90.1635 38.8524 89.8355 38.3544C89.7965 38.2904 89.7435 38.2374 89.7045 38.1844C89.3905 37.7394 89.0625 37.3074 88.7085 36.8874C88.5915 36.7424 88.4605 36.6124 88.3295 36.4674C88.0155 36.1144 87.6745 35.7604 87.3205 35.4204C87.3075 35.4064 87.3075 35.4064 87.2945 35.3944C87.1775 35.3024 87.0715 35.1844 86.9535 35.0804C86.4695 34.6474 85.9725 34.2284 85.4345 33.8234C85.3295 33.7444 85.2235 33.6784 85.1205 33.6004C84.6615 33.2724 84.1895 32.9574 83.7045 32.6434C83.5215 32.5264 83.3385 32.4204 83.1555 32.3034C82.6705 32.0144 82.1735 31.7394 81.6615 31.4774C81.5055 31.3994 81.3605 31.3214 81.2165 31.2414C80.5485 30.9154 79.8665 30.6004 79.1475 30.3114C78.9905 30.2334 78.8205 30.1804 78.6495 30.1164C78.0735 29.8934 77.4965 29.6704 76.8945 29.4734C76.6585 29.3954 76.4215 29.3164 76.1875 29.2374C75.5585 29.0424 74.8905 28.8444 74.2225 28.6744C74.0775 28.6354 73.9335 28.5824 73.7765 28.5434C72.9645 28.3464 72.1265 28.1634 71.2615 27.9924C71.0255 27.9534 70.7895 27.9144 70.5545 27.8754C69.8995 27.7574 69.2305 27.6524 68.5495 27.5614C68.2615 27.5224 67.9865 27.4824 67.6975 27.4564C67.2255 27.3924 66.7275 27.3524 66.2575 27.3114C65.5235 27.2474 64.7905 27.1944 64.0305 27.1554C63.5575 27.1294 63.0735 27.1024 62.5755 27.0894C61.9865 27.0774 61.3845 27.0644 60.7685 27.0774C59.9815 27.0774 59.1965 27.0774 58.3835 27.1024C57.2045 27.1554 56.0125 27.2474 54.8335 27.3644C54.4925 27.3914 54.1525 27.4174 53.8125 27.4564C52.5545 27.6014 51.2975 27.7704 50.0655 27.9684C49.8425 28.0074 49.6205 28.0604 49.4115 28.0994C48.3765 28.2824 47.3685 28.4924 46.3585 28.7144C45.9135 28.8194 45.4815 28.9234 45.0365 29.0424C44.2635 29.2254 43.4905 29.4354 42.7305 29.6574C42.1935 29.8144 41.6565 29.9714 41.1315 30.1414C40.4895 30.3384 39.8605 30.5474 39.2455 30.7704C38.4985 31.0324 37.7655 31.3074 37.0455 31.5834C36.3895 31.8454 35.7345 32.1064 35.1065 32.3824C34.7395 32.5384 34.3855 32.6964 34.0325 32.8534C33.2075 33.2344 32.4085 33.6264 31.6225 34.0334C31.3865 34.1644 31.1505 34.2694 30.9155 34.4004C29.8665 34.9634 28.8455 35.5524 27.8765 36.1554L26.1875 27.0514L24.5625 18.3154C25.4925 17.7254 26.4615 17.1624 27.4705 16.6254C27.5095 16.5994 27.5625 16.5734 27.6015 16.5604C27.8375 16.4294 28.0735 16.3124 28.3085 16.1934C29.0955 15.7884 29.8945 15.3944 30.7055 15.0154C31.0725 14.8574 31.4265 14.7014 31.7925 14.5424C31.9635 14.4644 32.1465 14.3864 32.3165 14.3074C32.4865 14.2284 32.6575 14.1504 32.8405 14.0844C33.1275 13.9534 33.4295 13.8614 33.7315 13.7434C34.4525 13.4564 35.1845 13.1934 35.9315 12.9304C36.0885 12.8664 36.2455 12.8134 36.4035 12.7474C36.8755 12.5764 37.3335 12.4204 37.8055 12.2894C38.3425 12.1314 38.8795 11.9614 39.4155 11.8044C39.5075 11.7654 39.5995 11.7394 39.7035 11.7124C39.9395 11.6474 40.1755 11.5814 40.4105 11.5024C40.4505 11.4894 40.5025 11.4774 40.5425 11.4774C40.9355 11.3724 41.3285 11.2674 41.7215 11.1884C42.1665 11.0844 42.5985 10.9654 43.0445 10.8744C43.1225 10.8354 43.2015 10.8224 43.2795 10.8104C43.4245 10.7834 43.5685 10.7444 43.7245 10.7054C43.9605 10.6524 44.1965 10.6014 44.4315 10.5604C44.6155 10.5214 44.7985 10.4824 44.9685 10.4564C45.3355 10.3904 45.7155 10.3244 46.0825 10.2594C46.3055 10.2204 46.5275 10.1674 46.7375 10.1284C46.8155 10.1144 46.8935 10.1024 46.9725 10.0894C47.5485 9.99742 48.1245 9.90542 48.7015 9.82742C49.1855 9.76142 49.6565 9.70942 50.1295 9.64342C50.2465 9.64342 50.3775 9.62942 50.4955 9.61742C50.8365 9.57742 51.1765 9.55243 51.5175 9.51343C51.8045 9.48743 52.0935 9.46042 52.3695 9.43442C52.5645 9.40842 52.7745 9.39542 52.9715 9.38242C53.0635 9.36842 53.1425 9.35542 53.2335 9.35542C53.8495 9.31642 54.4525 9.29142 55.0675 9.26442C55.5005 9.25042 55.9325 9.22443 56.3515 9.22443C56.4305 9.21143 56.4955 9.21143 56.5615 9.21143H57.0065C57.1505 9.22443 57.2945 9.22443 57.4515 9.22443C58.0545 9.22443 58.6565 9.23843 59.2595 9.25043H60.0195C60.1505 9.26443 60.2685 9.26441 60.3995 9.27641C60.5035 9.29041 60.6085 9.30241 60.7135 9.30241C61.0935 9.32841 61.4595 9.34242 61.8265 9.36742C62.2065 9.40642 62.5725 9.43243 62.9395 9.47243C63.1485 9.48543 63.3845 9.49741 63.6075 9.51141C63.7125 9.52441 63.8175 9.53642 63.9355 9.55042C64.0795 9.56442 64.2365 9.58942 64.3805 9.60342C64.6555 9.64242 64.9435 9.68141 65.2325 9.72041C65.9135 9.81241 66.5815 9.91742 67.2365 10.0344C67.4455 10.0734 67.6685 10.0994 67.8785 10.1394C67.9045 10.1394 67.9175 10.1394 67.9435 10.1524C68.0355 10.1654 68.1405 10.1784 68.2445 10.2044C68.4025 10.2304 68.5725 10.2704 68.7295 10.3094C69.3325 10.4264 69.9345 10.5714 70.5375 10.7284C70.6555 10.7544 70.7865 10.7934 70.9045 10.8324C71.2315 10.9244 71.5725 11.0034 71.8995 11.0944C72.2265 11.1864 72.5415 11.2914 72.8695 11.3964C73.1045 11.4754 73.3405 11.5404 73.5765 11.6194C74.1795 11.8294 74.7555 12.0384 75.3325 12.2744C75.5025 12.3394 75.6725 12.3914 75.8295 12.4584C76.1835 12.6024 76.5375 12.7594 76.8775 12.9164C77.2185 13.0734 77.5595 13.2304 77.8865 13.4014C78.0435 13.4794 78.1885 13.5574 78.3315 13.6364C78.8555 13.8984 79.3535 14.1734 79.8385 14.4614C80.0225 14.5654 80.2045 14.6844 80.3885 14.8024C80.8735 15.1044 81.3445 15.4304 81.8035 15.7584C81.9075 15.8364 82.0125 15.9034 82.1175 15.9814C82.6545 16.3744 83.1525 16.8064 83.6375 17.2394C83.7545 17.3434 83.8725 17.4624 83.9915 17.5794C84.3585 17.9204 84.6985 18.2744 85.0125 18.6284C85.1435 18.7594 85.2485 18.8904 85.3925 19.0344C85.4055 19.0344 85.4055 19.0344 85.3925 19.0464C85.7465 19.4664 86.0735 19.8984 86.3875 20.3444C86.4275 20.3964 86.4665 20.4484 86.5065 20.5144C86.6765 20.7634 86.8325 21.0114 86.9905 21.2744C87.1345 21.5234 87.2775 21.7854 87.4095 22.0464C87.4875 22.1914 87.5535 22.3354 87.6195 22.4794C87.6835 22.6114 87.7505 22.7424 87.8025 22.8854C87.9205 23.1594 88.0375 23.4354 88.1295 23.7104C88.1955 23.8674 88.2485 24.0244 88.3005 24.1824C88.3925 24.4704 88.4715 24.7454 88.5495 25.0214C88.6145 25.2564 88.6665 25.4924 88.7055 25.7144C88.7585 25.9244 88.7975 26.1344 88.8245 26.3294L92.0625 43.7244Z" fill="url(#paint3_linear_3021_3018)"/>
<path opacity="0.48" d="M106.352 44.7984V44.9034C106.352 45.1514 106.339 45.4134 106.326 45.6624C106.312 45.8464 106.301 46.0294 106.287 46.2124C106.273 46.3574 106.248 46.5014 106.234 46.6454C106.221 46.7774 106.21 46.9204 106.182 47.0644C106.104 47.6544 106.011 48.2444 105.88 48.8454C105.88 48.8724 105.867 48.8984 105.867 48.9244C105.736 49.5014 105.58 50.0774 105.396 50.6534C105.357 50.8234 105.291 50.9804 105.239 51.1374C105.174 51.3474 105.12 51.5574 105.042 51.7664C104.963 51.9894 104.859 52.2254 104.768 52.4604C104.69 52.6434 104.61 52.8404 104.531 53.0234C104.308 53.5604 104.074 54.0844 103.799 54.6214C103.773 54.6744 103.747 54.7394 103.708 54.8054C103.708 54.8194 103.707 54.8304 103.693 54.8444C103.379 55.4594 103.038 56.0634 102.672 56.6784C102.58 56.8234 102.475 56.9674 102.383 57.1104C102.109 57.5444 101.833 57.9894 101.531 58.4214C101.506 58.4354 101.492 58.4604 101.479 58.4864C100.942 59.2464 100.353 59.9934 99.7505 60.7264C99.5805 60.9364 99.4105 61.1204 99.2405 61.3294C98.7555 61.8924 98.2445 62.4424 97.7075 62.9934C97.5895 63.1104 97.4845 63.2414 97.3665 63.3724C97.1705 63.5694 96.9615 63.7784 96.7505 63.9884L93.4375 46.1474C93.8035 45.7914 94.1295 45.4224 94.4755 45.0614C94.9795 44.5404 95.4545 44.0074 95.9135 43.4744C95.9895 43.3874 96.0635 43.2994 96.1415 43.2114C96.5445 42.7324 96.9585 42.2564 97.3295 41.7724C97.6175 41.4054 97.8925 41.0254 98.1545 40.6454C98.3245 40.4224 98.4825 40.1864 98.6265 39.9514C98.7705 39.7274 98.9285 39.5064 99.0715 39.2704C99.1365 39.2044 99.1755 39.1254 99.2155 39.0474C99.2715 38.9594 99.3175 38.8694 99.3715 38.7814C99.7135 38.2244 100.029 37.6664 100.318 37.0994C100.382 36.9764 100.442 36.8514 100.505 36.7284C100.747 36.2424 100.976 35.7544 101.185 35.2564C101.226 35.1614 101.267 35.0664 101.307 34.9704C101.356 34.8494 101.408 34.7304 101.456 34.6054C101.626 34.1734 101.783 33.7414 101.927 33.2954C101.98 33.1504 102.031 32.9814 102.071 32.8374C102.085 32.8234 102.086 32.8234 102.086 32.8104C102.27 32.2084 102.44 31.6054 102.57 31.0034C102.636 30.7014 102.7 30.3994 102.74 30.0994C102.779 29.8374 102.82 29.5754 102.859 29.3134C102.951 28.7104 103.003 28.1214 103.015 27.5324C103.029 27.3754 103.041 27.2184 103.041 27.0604V26.6274C103.041 26.2474 103.015 25.8814 103.002 25.5144C103.002 25.3964 103.002 25.2794 102.976 25.1604C102.976 25.0814 102.976 25.0034 102.963 24.9254C102.937 24.5714 102.884 24.2304 102.831 23.8904C102.806 23.6804 102.779 23.4844 102.74 23.2754L106.052 41.1154C106.157 41.6534 106.224 42.2174 106.276 42.7664C106.29 42.9104 106.302 43.0544 106.302 43.1994C106.314 43.3434 106.341 43.4864 106.341 43.6314C106.365 44.0244 106.365 44.4054 106.352 44.7984Z" fill="url(#paint4_linear_3021_3018)"/>
<path d="M103.039 26.6294V26.7084C103.039 26.9834 103.039 27.2584 103.013 27.5334C103 28.1224 102.949 28.7124 102.857 29.3144C102.818 29.5764 102.778 29.8384 102.739 30.1004C102.699 30.4014 102.635 30.7034 102.568 31.0044C102.437 31.6194 102.281 32.2344 102.084 32.8504C101.863 33.5624 101.596 34.2684 101.307 34.9714C101.278 35.0414 101.248 35.1164 101.219 35.1824C101.209 35.2074 101.196 35.2334 101.185 35.2574C100.975 35.7514 100.748 36.2414 100.504 36.7294C100.498 36.7424 100.492 36.7544 100.486 36.7684C100.46 36.8324 100.433 36.8994 100.394 36.9634C100.371 37.0104 100.34 37.0544 100.317 37.1004C100.023 37.6654 99.71 38.2274 99.371 38.7824C99.361 38.7964 99.3551 38.8104 99.3461 38.8254C99.3071 38.9034 99.268 38.9814 99.215 39.0484C99.176 39.1264 99.137 39.2044 99.071 39.2714C98.927 39.5064 98.769 39.7284 98.626 39.9524C98.482 40.1874 98.3241 40.4244 98.1541 40.6464C97.8921 41.0264 97.617 41.4064 97.329 41.7734C97.041 42.1524 96.726 42.5194 96.426 42.8864C96.338 42.9954 96.238 43.1044 96.142 43.2124C95.616 43.8374 95.0591 44.4524 94.4771 45.0624C94.4481 45.0914 94.424 45.1234 94.395 45.1524C94.081 45.4804 93.766 45.8204 93.439 46.1484L92.2731 45.6634L82.868 41.7334C84.702 39.7954 86.169 37.7244 87.204 35.5894C87.243 35.5244 87.269 35.4584 87.296 35.3934C87.899 34.1354 88.344 32.8514 88.632 31.5544C89.025 29.7474 89.077 28.0054 88.829 26.3274C88.802 26.1324 88.763 25.9224 88.71 25.7124C88.685 25.4774 88.6321 25.2414 88.5541 25.0194C88.3841 24.2854 88.1481 23.5784 87.8331 22.8964C87.7161 22.6094 87.5841 22.3204 87.4141 22.0444C87.2961 21.7824 87.1511 21.5214 86.9951 21.2724C86.5501 20.5004 86.0131 19.7524 85.3961 19.0444C85.4091 19.0324 85.4091 19.0324 85.3961 19.0324C84.8721 18.4034 84.2831 17.8004 83.6411 17.2374C81.7931 15.5474 79.528 14.1064 76.881 12.9144C76.541 12.7574 76.1881 12.6004 75.8331 12.4564C75.1131 12.1554 74.354 11.8664 73.58 11.6174C73.029 11.4214 72.4801 11.2514 71.9031 11.0934C71.4581 10.9624 71.0001 10.8314 70.5411 10.7274C69.9381 10.5704 69.336 10.4254 68.733 10.3084C68.47 10.2434 68.209 10.1914 67.947 10.1514C67.921 10.1384 67.908 10.1384 67.882 10.1384C66.756 9.91544 65.5901 9.73244 64.3851 9.60144C64.2401 9.57444 64.0831 9.56243 63.9401 9.54843C63.8221 9.53443 63.7171 9.52243 63.6121 9.50943C63.0221 9.44343 62.4331 9.39144 61.8311 9.36444C61.3591 9.32544 60.8881 9.28643 60.4031 9.27243C60.1671 9.25943 59.9191 9.24643 59.6691 9.24643C58.7921 9.20743 57.915 9.20742 57.011 9.20742C56.801 9.20742 56.578 9.22042 56.356 9.22042C55.937 9.22042 55.504 9.24643 55.072 9.26043C54.379 9.28643 53.6711 9.32543 52.9761 9.37843C52.7801 9.39143 52.57 9.40343 52.374 9.43043C51.626 9.48343 50.88 9.56244 50.134 9.64044C49.661 9.70544 49.1911 9.75743 48.7061 9.82443C48.1291 9.90243 47.5531 9.99444 46.9771 10.0864C46.8981 10.0994 46.8201 10.1114 46.7421 10.1254C46.1381 10.2294 45.562 10.3344 44.972 10.4534C44.802 10.4784 44.6181 10.5174 44.4351 10.5574C44.0561 10.6364 43.663 10.7154 43.283 10.8074C43.205 10.8204 43.126 10.8324 43.048 10.8714C42.602 10.9504 42.17 11.0554 41.725 11.1854C41.332 11.2644 40.939 11.3694 40.546 11.4744C40.258 11.5524 39.983 11.6304 39.707 11.7094C39.603 11.7354 39.5111 11.7624 39.4191 11.8014C38.8831 11.9454 38.346 12.1034 37.809 12.2864C37.336 12.4174 36.878 12.5734 36.407 12.7444C35.188 13.1494 33.9971 13.5954 32.8441 14.0804C32.6601 14.1454 32.4901 14.2244 32.3201 14.3034C31.7701 14.5264 31.233 14.7614 30.709 15.0114C29.596 15.5084 28.5091 16.0454 27.4741 16.6214C26.4651 17.1584 25.495 17.7224 24.566 18.3114L13.707 14.1204C24.934 6.50943 40.574 1.32143 56.947 0.66743C82.046 -0.34257 100.699 9.64044 102.834 23.8924C102.9 24.3114 102.953 24.7444 102.979 25.1634C103.005 25.2814 103.005 25.3984 103.005 25.5174C103.026 25.8834 103.039 26.2494 103.039 26.6294Z" fill="url(#paint5_linear_3021_3018)"/>
<path d="M96.7512 63.9884L86.3652 59.6524L86.1812 59.5734L82.8672 41.7324L92.2722 45.6624L93.4382 46.1474L96.7512 63.9884Z" fill="url(#paint6_linear_3021_3018)"/>
<defs>
<linearGradient id="paint0_linear_3021_3018" x1="17.2811" y1="45.5179" x2="96.7536" y2="45.5179" gradientUnits="userSpaceOnUse">
<stop stop-color="#7FD5F0"/>
<stop offset="1" stop-color="#7FD5F0"/>
</linearGradient>
<linearGradient id="paint1_linear_3021_3018" x1="0.0620513" y1="55.4142" x2="106.275" y2="55.4142" gradientUnits="userSpaceOnUse">
<stop stop-color="#7FD5F0"/>
<stop offset="1" stop-color="#00AADF"/>
</linearGradient>
<linearGradient id="paint2_linear_3021_3018" x1="13.7027" y1="25.1373" x2="27.8766" y2="25.1373" gradientUnits="userSpaceOnUse">
<stop stop-color="#7FD5F0"/>
<stop offset="1" stop-color="#269ABE"/>
</linearGradient>
<linearGradient id="paint3_linear_3021_3018" x1="24.5625" y1="26.4652" x2="92.0625" y2="26.4652" gradientUnits="userSpaceOnUse">
<stop stop-color="#7FD5F0"/>
<stop offset="1" stop-color="#3942F7"/>
</linearGradient>
<linearGradient id="paint4_linear_3021_3018" x1="93.4365" y1="43.6332" x2="106.361" y2="43.6332" gradientUnits="userSpaceOnUse">
<stop stop-color="#7FD5F0"/>
<stop offset="1" stop-color="#46CEF8"/>
</linearGradient>
<linearGradient id="paint5_linear_3021_3018" x1="13.7016" y1="23.3724" x2="103.039" y2="23.3724" gradientUnits="userSpaceOnUse">
<stop stop-color="#7FD5F0"/>
<stop offset="1" stop-color="#3942F7"/>
<stop offset="1" stop-color="#4CB3D4"/>
</linearGradient>
<linearGradient id="paint6_linear_3021_3018" x1="82.8669" y1="52.8607" x2="96.7516" y2="52.8607" gradientUnits="userSpaceOnUse">
<stop stop-color="#AEDAFF"/>
<stop offset="0.9999" stop-color="#7FD5F0"/>
<stop offset="1" stop-color="#3942F7"/>
</linearGradient>
</defs>
</svg>
