<svg width="34" height="34" viewBox="0 0 34 34" fill="none" xmlns="http://www.w3.org/2000/svg">
<g id="Icon" clip-path="url(#clip0_2_716)">
<g id="&#240;&#159;&#166;&#134; icon &#34;Laptop House&#34;">
<path id="Vector" d="M15.875 18.0231H12.375C12.1429 18.0231 11.9204 17.9309 11.7563 17.7668C11.5922 17.6027 11.5 17.3801 11.5 17.1481V13.6481C11.5 13.416 11.5922 13.1934 11.7563 13.0294C11.9204 12.8653 12.1429 12.7731 12.375 12.7731H15.875C16.1071 12.7731 16.3296 12.8653 16.4937 13.0294C16.6578 13.1934 16.75 13.416 16.75 13.6481V15.6781C17.3576 14.9737 18.2266 14.5231 19.2 14.5231H26.6889L27.0526 14.1113C27.1711 13.9636 27.2401 13.7824 27.25 13.5934C27.2376 13.3746 27.1451 13.1681 26.9902 13.0131L23.75 10.1481V4.89807C23.75 4.66601 23.6578 4.44345 23.4937 4.27935C23.3296 4.11526 23.1071 4.02307 22.875 4.02307H21.125C20.8929 4.02307 20.6704 4.11526 20.5063 4.27935C20.3422 4.44345 20.25 4.66601 20.25 4.89807V7.04729L15.4102 2.76088C15.1094 2.49182 14.5324 2.27307 14.1277 2.27307C13.723 2.27307 13.1472 2.49182 12.8442 2.76088L1.26141 13.0148C1.10556 13.1686 1.0124 13.3748 1 13.5934C1.00945 13.7806 1.07734 13.9602 1.19414 14.1069L2.22172 15.2723C2.37683 15.4288 2.58464 15.522 2.80469 15.5337C2.99049 15.5244 3.16888 15.4579 3.31547 15.3434L4.5 14.2978V23.2731C4.5 23.7372 4.68437 24.1823 5.01256 24.5105C5.34075 24.8387 5.78587 25.0231 6.25 25.0231H15.875V18.0231ZM35.4165 26.7731H33.375V18.0231C33.375 17.0567 32.6701 16.2731 31.8 16.2731H19.2C18.3299 16.2731 17.625 17.0567 17.625 18.0231V26.7731H15.5835C15.4288 26.7731 15.2803 26.8345 15.1709 26.944C15.0615 27.0534 15 27.2018 15 27.3566V27.9396C15.0022 28.5571 15.2482 29.1488 15.6845 29.5859C16.1208 30.0229 16.7121 30.2699 17.3297 30.2731H33.6703C34.2879 30.2699 34.8792 30.0229 35.3155 29.5859C35.7518 29.1488 35.9978 28.5571 36 27.9396V27.3566C36 27.2018 35.9385 27.0534 35.8291 26.944C35.7197 26.8345 35.5712 26.7731 35.4165 26.7731ZM30.75 26.7731H20.25V18.8981H30.75V26.7731Z" fill="#1376B9"/>
</g>
</g>
<defs>
<clipPath id="clip0_2_716">
<rect width="32.8417" height="32.8417" fill="white" transform="translate(0.526367 0.724243)"/>
</clipPath>
</defs>
</svg>
