<svg width="18" height="20" viewBox="0 0 18 20" fill="none" xmlns="http://www.w3.org/2000/svg">
<path fill-rule="evenodd" clip-rule="evenodd" d="M13.4109 0.768618L13.4119 1.51824C16.1665 1.73414 17.9862 3.6112 17.9891 6.48976L18 14.9155C18.0039 18.054 16.0323 19.985 12.8718 19.99L5.15189 20C2.0112 20.004 0.0148166 18.027 0.0108673 14.8796L6.64975e-06 6.55273C-0.00394267 3.65517 1.75153 1.78311 4.50618 1.53024L4.50519 0.780612C4.5042 0.340832 4.83002 0.00999727 5.26444 0.00999727C5.69887 0.00899777 6.02469 0.338833 6.02567 0.778613L6.02666 1.47826L11.8914 1.47027L11.8904 0.770617C11.8894 0.330837 12.2152 0.00100177 12.6497 2.26549e-06C13.0742 -0.000997235 13.4099 0.328838 13.4109 0.768618ZM1.52164 6.86163L16.4698 6.84164V6.49182C16.4273 4.34289 15.3492 3.21545 13.414 3.04754L13.415 3.81715C13.415 4.24694 13.0803 4.58777 12.6557 4.58777C12.2213 4.58877 11.8945 4.24894 11.8945 3.81915L11.8935 3.00956L6.02879 3.01755L6.02978 3.82615C6.02978 4.25693 5.70495 4.59676 5.27052 4.59676C4.8361 4.59776 4.50929 4.25893 4.50929 3.82815L4.5083 3.05853C2.58301 3.25144 1.51769 4.38287 1.52065 6.55079L1.52164 6.86163ZM12.2401 11.4043V11.4153C12.2499 11.8751 12.6251 12.2239 13.0803 12.2139C13.5246 12.2029 13.879 11.8221 13.8692 11.3623C13.8484 10.9225 13.492 10.5637 13.0487 10.5647C12.5945 10.5747 12.2391 10.9445 12.2401 11.4043ZM13.0554 15.8921C12.6013 15.8821 12.235 15.5033 12.234 15.0435C12.2241 14.5837 12.5884 14.2029 13.0426 14.1919H13.0525C13.5165 14.1919 13.8927 14.5708 13.8927 15.0405C13.8937 15.5103 13.5185 15.8911 13.0554 15.8921ZM8.17198 11.4204C8.19173 11.8802 8.5679 12.239 9.02207 12.219C9.46637 12.198 9.82082 11.8182 9.80108 11.3584C9.79022 10.9087 9.4249 10.5588 8.98061 10.5598C8.52643 10.5798 8.171 10.9606 8.17198 11.4204ZM9.02591 15.8473C8.57174 15.8673 8.19655 15.5084 8.17582 15.0487C8.17582 14.5889 8.53027 14.2091 8.98444 14.1881C9.42874 14.1871 9.79504 14.5369 9.80491 14.9857C9.82564 15.4465 9.47021 15.8263 9.02591 15.8473ZM4.10425 11.4553C4.12399 11.915 4.50017 12.2749 4.95434 12.2539C5.39864 12.2339 5.75309 11.8531 5.73235 11.3933C5.72248 10.9435 5.35717 10.5937 4.91188 10.5947C4.45771 10.6147 4.10326 10.9955 4.10425 11.4553ZM4.95863 15.8521C4.50446 15.8731 4.12927 15.5133 4.10854 15.0535C4.10755 14.5938 4.46299 14.2129 4.91716 14.193C5.36146 14.192 5.72776 14.5418 5.73763 14.9916C5.75836 15.4513 5.40391 15.8321 4.95863 15.8521Z" fill="#379BE0"/>
</svg>