<svg width="14" height="12" viewBox="0 0 14 12" fill="none" xmlns="http://www.w3.org/2000/svg">
<path opacity="0.7" fill-rule="evenodd" clip-rule="evenodd" d="M10.6523 2.35443C10.6777 2.39881 10.7221 2.43051 10.7792 2.43051C12.3025 2.43051 13.5465 3.67314 13.5465 5.19473V8.96065C13.5465 10.4822 12.3025 11.7249 10.7792 11.7249H3.61982C2.0902 11.7249 0.852539 10.4822 0.852539 8.96065V5.19473C0.852539 3.67314 2.0902 2.43051 3.61982 2.43051C3.6706 2.43051 3.72138 2.40515 3.74042 2.35443L3.7785 2.27835C3.80038 2.23231 3.82283 2.18501 3.84562 2.137C4.008 1.79499 4.18764 1.4166 4.29895 1.19422C4.59091 0.62363 5.08598 0.306633 5.70163 0.300293H8.69106C9.30672 0.306633 9.80813 0.62363 10.1001 1.19422C10.2001 1.39394 10.3524 1.71564 10.4992 2.02571C10.5295 2.08968 10.5595 2.15315 10.5888 2.21495L10.6523 2.35443ZM10.1889 4.78883C10.1889 5.10583 10.4428 5.35942 10.7602 5.35942C11.0775 5.35942 11.3377 5.10583 11.3377 4.78883C11.3377 4.47183 11.0775 4.21189 10.7602 4.21189C10.4428 4.21189 10.1889 4.47183 10.1889 4.78883ZM6.10144 5.77158C6.39975 5.4736 6.78691 5.3151 7.19947 5.3151C7.61202 5.3151 7.99919 5.4736 8.29115 5.76524C8.58311 6.05687 8.74178 6.44361 8.74178 6.85571C8.73544 7.70526 8.04996 8.39631 7.19947 8.39631C6.78691 8.39631 6.39975 8.23781 6.10779 7.94617C5.81582 7.65454 5.65715 7.2678 5.65715 6.85571V6.84937C5.6508 6.44995 5.80948 6.06321 6.10144 5.77158ZM8.95757 8.61828C8.50694 9.06842 7.88493 9.34738 7.19946 9.34738C6.53302 9.34738 5.91102 9.08744 5.43499 8.61828C4.96532 8.14279 4.70509 7.52147 4.70509 6.85578C4.69874 6.19643 4.95897 5.57511 5.42865 5.09962C5.90467 4.62412 6.53302 4.36418 7.19946 4.36418C7.86589 4.36418 8.49424 4.62412 8.96392 5.09328C9.4336 5.56877 9.69382 6.19643 9.69382 6.85578C9.68747 7.54683 9.40821 8.16815 8.95757 8.61828Z" fill="#030229"/>
</svg>
