<svg width="24" height="24" viewBox="0 0 24 24" fill="none" xmlns="http://www.w3.org/2000/svg">
<g id="icon / jam-icons / outline &#38; logos / check">
<path id="Vector" d="M10.4862 16.73C10.355 16.7303 10.2249 16.7046 10.1036 16.6545C9.98229 16.6044 9.87205 16.5308 9.77923 16.438L5.53723 12.195C5.44166 12.1028 5.3654 11.9925 5.31291 11.8706C5.26041 11.7486 5.23274 11.6174 5.23149 11.4846C5.23024 11.3519 5.25545 11.2202 5.30565 11.0972C5.35584 10.9743 5.43001 10.8626 5.52384 10.7686C5.61766 10.6747 5.72926 10.6004 5.85212 10.55C5.97498 10.4996 6.10664 10.4742 6.23942 10.4753C6.3722 10.4763 6.50344 10.5038 6.62548 10.5562C6.74752 10.6085 6.85792 10.6846 6.95023 10.78L10.4852 14.315L16.8502 7.95202C17.0377 7.76438 17.2921 7.65891 17.5574 7.65881C17.8226 7.65872 18.0771 7.76401 18.2647 7.95152C18.4524 8.13902 18.5578 8.39339 18.5579 8.65866C18.558 8.92393 18.4527 9.17838 18.2652 9.36602L11.1932 16.438C11.1004 16.5308 10.9902 16.6044 10.8688 16.6545C10.7475 16.7046 10.6175 16.7303 10.4862 16.73Z" fill="#25A249"/>
</g>
</svg>
