<svg width="21" height="18" viewBox="0 0 21 18" fill="none" xmlns="http://www.w3.org/2000/svg">
<path d="M17.9438 0H2.89751C1.71531 0 0.748047 0.9 0.748047 2V16C0.748047 17.1 1.71531 18 2.89751 18H17.9438C19.126 18 20.0932 17.1 20.0932 16V2C20.0932 0.9 19.126 0 17.9438 0ZM9.03424 13.29C8.61509 13.68 7.93801 13.68 7.51887 13.29L3.66057 9.7C3.24143 9.31 3.24143 8.68 3.66057 8.29C4.07972 7.9 4.7568 7.9 5.17595 8.29L8.27118 11.17L15.6653 4.29C16.0845 3.9 16.7616 3.9 17.1807 4.29C17.5999 4.68 17.5999 5.31 17.1807 5.7L9.03424 13.29Z" fill="#1377B9"/>
</svg>
