<svg width="17" height="14" viewBox="0 0 17 14" fill="none" xmlns="http://www.w3.org/2000/svg">
<path d="M3.74609 6.75265C3.74609 5.80065 3.98409 4.91865 4.45543 4.11131C4.92676 3.30398 5.56609 2.66465 6.37343 2.19331C7.18076 1.72198 8.05809 1.48865 9.00543 1.48865C9.71476 1.48865 10.3961 1.62865 11.0448 1.90398C11.6934 2.17931 12.2488 2.55731 12.7201 3.02398C13.1914 3.49065 13.5648 4.05065 13.8401 4.70398C14.1154 5.35731 14.2554 6.03398 14.2554 6.75265C14.2554 7.46198 14.1154 8.14331 13.8401 8.79198C13.5648 9.44065 13.1868 10.0006 12.7201 10.4673C12.2534 10.934 11.6934 11.3073 11.0448 11.5826C10.3961 11.858 9.71943 11.998 9.00543 11.998C8.29143 11.998 7.60543 11.858 6.95676 11.5826C6.30809 11.3073 5.74809 10.9293 5.27676 10.4626C4.80543 9.99598 4.43676 9.43598 4.15676 8.79198C3.87676 8.14798 3.74609 7.46665 3.74609 6.75265ZM4.90343 6.75265C4.90343 7.85865 5.30476 8.81998 6.11209 9.63665C6.91943 10.444 7.88076 10.8453 9.00543 10.8453C9.74276 10.8453 10.4288 10.6633 11.0541 10.2946C11.6794 9.92598 12.1834 9.43131 12.5521 8.80131C12.9208 8.17131 13.1074 7.48998 13.1074 6.75265C13.1074 6.01531 12.9208 5.32931 12.5521 4.69931C12.1834 4.06931 11.6841 3.56998 11.0541 3.20131C10.4241 2.83265 9.74276 2.65065 9.00543 2.65065C8.26809 2.65065 7.58209 2.83265 6.95676 3.20131C6.33143 3.56998 5.82743 4.06931 5.45409 4.69931C5.08076 5.32931 4.90343 6.01531 4.90343 6.75265ZM8.59943 6.75265V3.64465C8.59943 3.53731 8.63676 3.44398 8.71143 3.36931C8.78609 3.29465 8.87943 3.25731 8.98676 3.25731C9.09409 3.25731 9.18743 3.29465 9.26209 3.36931C9.33676 3.44398 9.37409 3.53731 9.37409 3.64465V6.64065L10.3774 8.43265C10.4334 8.53065 10.4428 8.63331 10.4148 8.73598C10.3868 8.83865 10.3261 8.91798 10.2328 8.97398C10.1736 9.00414 10.1077 9.01861 10.0414 9.01598C9.88743 9.01598 9.77076 8.95065 9.70076 8.82465L8.67409 7.00465C8.62508 6.92976 8.59912 6.84214 8.59943 6.75265Z" fill="#808080"/>
</svg>
