<svg width="32" height="32" viewBox="0 0 32 32" fill="none" xmlns="http://www.w3.org/2000/svg">
<circle cx="16" cy="16" r="16" fill="#FCB145"/>
<path d="M7.86719 16.0933C7.86719 14.5293 8.25819 13.0803 9.03252 11.754C9.80685 10.4276 10.8572 9.37731 12.1835 8.60298C13.5099 7.82865 14.9512 7.44531 16.5075 7.44531C17.6729 7.44531 18.7922 7.67531 19.8579 8.12765C20.9235 8.57998 21.8359 9.20098 22.6102 9.96765C23.3845 10.7343 23.9979 11.6543 24.4502 12.7276C24.9025 13.801 25.1325 14.9126 25.1325 16.0933C25.1325 17.2586 24.9025 18.378 24.4502 19.4436C23.9979 20.5093 23.3769 21.4293 22.6102 22.196C21.8435 22.9626 20.9235 23.576 19.8579 24.0283C18.7922 24.4806 17.6805 24.7106 16.5075 24.7106C15.3345 24.7106 14.2075 24.4806 13.1419 24.0283C12.0762 23.576 11.1562 22.955 10.3819 22.1883C9.60752 21.4216 9.00185 20.5016 8.54185 19.4436C8.08185 18.3856 7.86719 17.2663 7.86719 16.0933ZM9.76852 16.0933C9.76852 17.9103 10.4279 19.4896 11.7542 20.8313C13.0805 22.1576 14.6599 22.817 16.5075 22.817C17.7189 22.817 18.8459 22.518 19.8732 21.9123C20.9005 21.3066 21.7285 20.494 22.3342 19.459C22.9399 18.424 23.2465 17.3046 23.2465 16.0933C23.2465 14.882 22.9399 13.755 22.3342 12.72C21.7285 11.685 20.9082 10.8646 19.8732 10.259C18.8382 9.65331 17.7189 9.35431 16.5075 9.35431C15.2962 9.35431 14.1692 9.65331 13.1419 10.259C12.1145 10.8646 11.2865 11.685 10.6732 12.72C10.0599 13.755 9.76852 14.882 9.76852 16.0933ZM15.8405 16.0933V10.9873C15.8405 10.811 15.9019 10.6576 16.0245 10.535C16.1472 10.4123 16.3005 10.351 16.4769 10.351C16.6532 10.351 16.8065 10.4123 16.9292 10.535C17.0519 10.6576 17.1132 10.811 17.1132 10.9873V15.9093L18.7615 18.8533C18.8535 19.0143 18.8689 19.183 18.8229 19.3516C18.7769 19.5203 18.6772 19.6506 18.5239 19.7426C18.4267 19.7922 18.3185 19.816 18.2095 19.8116C17.9565 19.8116 17.7649 19.7043 17.6499 19.4973L15.9632 16.5073C15.8827 16.3843 15.84 16.2403 15.8405 16.0933Z" fill="white"/>
</svg>
