<svg width="38" height="32" viewBox="0 0 38 32" fill="none" xmlns="http://www.w3.org/2000/svg">
<g clip-path="url(#clip0_3036_51569)">
<path fill-rule="evenodd" clip-rule="evenodd" d="M16.5573 25.7859C16.662 25.7859 16.7558 25.7205 16.7917 25.6221C16.8278 25.5237 16.7985 25.4133 16.7186 25.3456C15.2703 24.1201 14.3501 22.2895 14.3501 20.2455C14.3501 17.1475 16.464 14.5392 19.3274 13.7859C19.4371 13.757 19.5135 13.6579 19.5135 13.5444V10.2227C19.5135 9.45151 19.2072 8.71191 18.6619 8.1666C18.1165 7.62128 17.3769 7.31494 16.6057 7.31494H11.7372C11.6035 7.31494 11.4936 7.42005 11.4877 7.55356C11.4683 7.99449 11.606 8.40378 11.8695 8.7197C12.1678 9.07746 12.5584 9.36881 13.0571 9.42802C13.0668 9.42922 13.0766 9.42982 13.0864 9.42982C13.1965 9.42982 13.2859 9.51911 13.2859 9.62913C13.2859 9.73915 13.1965 9.82856 13.0864 9.82856C13.0766 9.82856 13.0668 9.82916 13.0571 9.83024C12.3965 9.90862 11.7839 9.67443 11.31 9.27917C10.8173 8.86832 10.5451 8.23563 10.496 7.54685C10.4868 7.4161 10.3779 7.31494 10.2469 7.31494H5.11292C4.97928 7.31494 4.86938 7.42005 4.86351 7.55356C4.84409 7.99449 4.9818 8.40378 5.24523 8.7197C5.54354 9.07746 5.93413 9.36881 6.43282 9.42802C6.44253 9.42922 6.45236 9.42982 6.46219 9.42982C6.57221 9.42982 6.66162 9.51911 6.66162 9.62913C6.66162 9.73915 6.57221 9.82856 6.46219 9.82856C6.45236 9.82856 6.44253 9.82916 6.43282 9.83024C5.77221 9.90862 5.15966 9.67443 4.68577 9.27917C4.19306 8.86832 3.92088 8.23563 3.87175 7.54685C3.86252 7.4161 3.75369 7.31494 3.6227 7.31494H2.65011C1.87888 7.31494 1.13928 7.62128 0.593963 8.1666C0.0486445 8.71191 -0.257812 9.45151 -0.257812 10.2227C-0.257812 13.623 -0.257812 19.4777 -0.257812 22.878C-0.257812 23.6492 0.0486445 24.3888 0.593963 24.9342C1.13928 25.4796 1.87888 25.7859 2.65011 25.7859H16.5573Z" fill="#F2E1CC"/>
<path fill-rule="evenodd" clip-rule="evenodd" d="M16.8106 15.0706C14.4106 16.2325 12.7539 18.6918 12.7539 21.535C12.7539 23.1253 13.2721 24.5954 14.149 25.7859H16.5592C16.6639 25.7859 16.7576 25.7204 16.7936 25.622C16.8297 25.5237 16.8004 25.4133 16.7205 25.3456C15.2722 24.1201 14.352 22.2895 14.352 20.2454C14.352 18.1596 15.3103 16.2957 16.8106 15.0706Z" fill="#F0D1BE"/>
<path fill-rule="evenodd" clip-rule="evenodd" d="M12.6588 7.31494H11.7387C11.6051 7.31494 11.4952 7.42005 11.4893 7.55356C11.4699 7.99449 11.6076 8.40378 11.8711 8.7197C12.1694 9.07746 12.56 9.36881 13.0586 9.42802C13.0684 9.42922 13.0782 9.42982 13.088 9.42982C13.198 9.42982 13.2874 9.51911 13.2874 9.62913C13.2874 9.73915 13.198 9.82856 13.088 9.82856C13.0782 9.82856 13.0684 9.82916 13.0586 9.83024C12.6115 9.88333 12.1864 9.7932 11.8114 9.60684C12.3476 10.0083 13.0172 10.2332 13.7336 10.1518C14.0995 10.144 14.3952 9.84342 14.3952 9.4744C14.3952 9.10562 14.0999 8.80528 13.733 8.79713C13.3858 8.75171 13.1193 8.53406 12.9096 8.28249C12.7243 8.06041 12.6332 7.76977 12.6526 7.45852C12.653 7.45253 12.6532 7.44654 12.6531 7.44054C12.6526 7.398 12.6545 7.35617 12.6588 7.31494ZM6.23581 7.31494H5.1145C4.98086 7.31494 4.87096 7.42005 4.86509 7.55356C4.84567 7.99449 4.98338 8.40378 5.24681 8.7197C5.54512 9.07746 5.93571 9.36881 6.43441 9.42802C6.44411 9.42922 6.45394 9.42982 6.46377 9.42982C6.57379 9.42982 6.6632 9.51911 6.6632 9.62913C6.6632 9.73915 6.57379 9.82856 6.46377 9.82856C6.45394 9.82856 6.44411 9.82916 6.43441 9.83024C6.15935 9.86296 5.89256 9.84138 5.64076 9.77654C6.12831 10.0693 6.70263 10.2209 7.31063 10.1518C7.67653 10.144 7.9722 9.84342 7.9722 9.4744C7.9722 9.10562 7.67689 8.80528 7.31015 8.79713C6.96283 8.75171 6.69628 8.53406 6.48654 8.28249C6.30125 8.06041 6.21017 7.76977 6.22958 7.45852C6.23006 7.45253 6.23018 7.44654 6.23006 7.44054C6.22958 7.398 6.2315 7.35617 6.23581 7.31494Z" fill="#EBC7B0"/>
<path fill-rule="evenodd" clip-rule="evenodd" d="M3.49184 21.7698H13.067C13.2049 21.7698 13.3168 21.6579 13.3168 21.5201C13.3168 21.3824 13.2049 21.2704 13.067 21.2704H3.49184C3.35401 21.2704 3.24219 21.3824 3.24219 21.5201C3.24219 21.6579 3.35401 21.7698 3.49184 21.7698ZM3.49184 17.7825H14.6534C14.7912 17.7825 14.9031 17.6706 14.9031 17.5328C14.9031 17.3951 14.7912 17.2831 14.6534 17.2831H3.49184C3.35401 17.2831 3.24219 17.3951 3.24219 17.5328C3.24219 17.6706 3.35401 17.7825 3.49184 17.7825ZM4.94034 13.7953H15.7659C15.9036 13.7953 16.0156 13.6833 16.0156 13.5455C16.0156 13.4078 15.9036 13.2958 15.7659 13.2958H4.94034C4.80252 13.2958 4.6907 13.4078 4.6907 13.5455C4.6907 13.6833 4.80252 13.7953 4.94034 13.7953Z" fill="#4E3B56"/>
<path fill-rule="evenodd" clip-rule="evenodd" d="M14.4444 7.31495H15.8842C15.8678 6.62125 15.582 5.98904 15.1464 5.49634C14.6452 4.92969 13.9153 4.58763 13.1011 4.53993C13.1001 4.53981 13.0991 4.53981 13.098 4.53969C12.2592 4.50098 11.4871 4.82362 10.9203 5.35815C10.3455 5.90035 10.0058 6.67986 9.99534 7.53151C9.99534 7.53775 9.99545 7.54398 9.99581 7.55009C10.0483 8.39204 10.3893 9.16148 10.9902 9.66269C11.5631 10.1405 12.3048 10.4185 13.1029 10.3277C13.4803 10.3197 13.7852 10.0098 13.7852 9.62913C13.7852 9.24885 13.4807 8.93904 13.1023 8.93053C12.7442 8.88378 12.4694 8.65918 12.2531 8.39983C12.0619 8.1708 11.9681 7.87105 11.9881 7.55009C11.9884 7.54398 11.9886 7.53775 11.9886 7.53151C11.9848 7.22434 12.1058 6.94641 12.3014 6.73918C12.5061 6.52214 12.7768 6.35519 13.098 6.34032C13.0991 6.3402 13.1001 6.3402 13.1011 6.34008C13.4455 6.31995 13.7703 6.42086 14.01 6.63276C14.2125 6.81193 14.3727 7.0442 14.4444 7.31495ZM7.82017 7.31495H9.25993C9.24351 6.62125 8.95779 5.98904 8.52214 5.49634C8.02092 4.92969 7.29103 4.58763 6.47689 4.53993C6.47593 4.53981 6.47485 4.53981 6.47378 4.53969C5.63494 4.50098 4.86287 4.82362 4.2961 5.35815C3.7213 5.90035 3.38152 6.67986 3.37109 7.53151C3.37109 7.53775 3.37121 7.54398 3.37157 7.55009C3.42407 8.39204 3.76504 9.16148 4.36597 9.66269C4.93885 10.1405 5.68061 10.4185 6.47869 10.3277C6.8561 10.3197 7.161 10.0098 7.161 9.62913C7.161 9.24885 6.85646 8.93904 6.47821 8.93053C6.11998 8.88378 5.84516 8.65918 5.62883 8.39983C5.43779 8.1708 5.34383 7.87105 5.36384 7.55009C5.3642 7.54398 5.36432 7.53775 5.36432 7.53151C5.36061 7.22434 5.48154 6.94641 5.67713 6.73918C5.88184 6.52214 6.15258 6.35519 6.47378 6.34032C6.47485 6.3402 6.47593 6.3402 6.47689 6.34008C6.82122 6.31995 7.14602 6.42086 7.38572 6.63276C7.58826 6.81193 7.7485 7.0442 7.82017 7.31495Z" fill="#FEB33F"/>
<path fill-rule="evenodd" clip-rule="evenodd" d="M12.7587 21.2704C12.7555 21.358 12.7539 21.4464 12.7539 21.5351C12.7539 21.6136 12.7551 21.6917 12.7576 21.7699H13.0679C13.2057 21.7699 13.3177 21.6579 13.3177 21.5201C13.3177 21.3824 13.2057 21.2704 13.0679 21.2704H12.7587ZM14.1498 17.2831C14.0308 17.4446 13.9185 17.6112 13.8131 17.7826H14.6543C14.7921 17.7826 14.904 17.6706 14.904 17.5328C14.904 17.3951 14.7921 17.2831 14.6543 17.2831H14.1498Z" fill="#3A2D3F"/>
<path d="M21.0295 27.4234C24.9938 27.4234 28.2075 24.2097 28.2075 20.2455C28.2075 16.2812 24.9938 13.0675 21.0295 13.0675C17.0652 13.0675 13.8516 16.2812 13.8516 20.2455C13.8516 24.2097 17.0652 27.4234 21.0295 27.4234Z" fill="#FCC369"/>
<path d="M21.0297 26.0564C24.239 26.0564 26.8406 23.4547 26.8406 20.2454C26.8406 17.0362 24.239 14.4345 21.0297 14.4345C17.8204 14.4345 15.2188 17.0362 15.2188 20.2454C15.2188 23.4547 17.8204 26.0564 21.0297 26.0564Z" fill="#DAEEFF"/>
<path fill-rule="evenodd" clip-rule="evenodd" d="M22.7116 20.8653C22.6453 20.8084 22.3873 20.5887 22.1115 20.3798C22.035 20.3217 21.9575 20.265 21.8842 20.2124C21.8793 20.0977 21.861 19.7439 21.8473 19.5742C21.7906 18.8776 21.7027 18.0895 21.6909 17.9836C21.6831 17.6267 21.3897 17.3383 21.0295 17.3383C20.669 17.3383 20.3754 17.6275 20.3682 17.9863C20.3561 18.0921 20.2685 18.8788 20.2119 19.5742C20.1961 19.7688 20.1824 19.9548 20.177 20.1176C20.1673 20.4079 20.174 20.6204 20.1755 20.6599C20.1755 20.6609 20.1755 20.6618 20.1756 20.6629C20.1774 20.9659 20.3398 21.2454 20.6025 21.3971C20.6068 21.3995 20.611 21.4018 20.6154 21.4041C20.6154 21.4041 20.966 21.5799 21.3301 21.7333C21.6527 21.8693 21.9759 21.984 22.0534 22.0112C22.3617 22.1752 22.7527 22.0645 22.9313 21.7553C23.1094 21.4468 23.0104 21.0537 22.7116 20.8653Z" fill="#545EA1"/>
<path fill-rule="evenodd" clip-rule="evenodd" d="M20.7965 26.0518C20.8735 26.0549 20.9514 26.0565 21.0297 26.0565C21.1079 26.0565 21.1859 26.0549 21.2629 26.0518L21.2048 25.1525C21.2048 25.0559 21.1263 24.9775 21.0297 24.9775C20.9331 24.9775 20.8546 25.0559 20.8546 25.1525L20.7965 26.0518ZM24.9762 24.5092C25.086 24.4075 25.1918 24.3017 25.2935 24.192L24.6233 23.5915C24.555 23.5231 24.444 23.5231 24.3757 23.5915C24.3073 23.6599 24.3073 23.7707 24.3757 23.839L24.9762 24.5092ZM16.766 24.192C16.8678 24.3018 16.9735 24.4076 17.0833 24.5092L17.6837 23.839C17.752 23.7707 17.752 23.6599 17.6837 23.5915C17.6154 23.5231 17.5044 23.5231 17.4361 23.5915L16.766 24.192ZM26.8361 20.0122L25.9367 20.0705C25.8401 20.0705 25.7616 20.1488 25.7616 20.2454C25.7616 20.3422 25.8401 20.4205 25.9367 20.4205L26.8361 20.4788C26.8391 20.4016 26.8406 20.3237 26.8406 20.2454C26.8406 20.1673 26.8391 20.0894 26.8361 20.0122ZM15.2234 20.0122C15.2203 20.0894 15.2188 20.1673 15.2188 20.2454C15.2188 20.3237 15.2203 20.4016 15.2234 20.4788L16.1227 20.4205C16.2194 20.4205 16.2978 20.3422 16.2978 20.2454C16.2978 20.1488 16.2194 20.0705 16.1227 20.0705L15.2234 20.0122ZM24.9761 15.9818L24.3757 16.652C24.3073 16.7203 24.3073 16.8312 24.3757 16.8995C24.444 16.9678 24.555 16.9678 24.6233 16.8995L25.2935 16.299C25.1917 16.1892 25.0859 16.0834 24.9761 15.9818ZM17.0833 15.9818C16.9734 16.0835 16.8676 16.1894 16.766 16.299L17.4361 16.8995C17.5044 16.9678 17.6154 16.9678 17.6837 16.8995C17.752 16.8312 17.752 16.7203 17.6837 16.652L17.0833 15.9818ZM20.7965 14.4392L20.8546 15.3385C20.8546 15.4351 20.9331 15.5135 21.0297 15.5135C21.1263 15.5135 21.2048 15.4351 21.2048 15.3385L21.2629 14.4392C21.1859 14.4361 21.1079 14.4345 21.0297 14.4345C20.9514 14.4345 20.8735 14.4361 20.7965 14.4392Z" fill="#545EA1"/>
</g>
<defs>
<clipPath id="clip0_3036_51569">
<rect width="36.6035" height="32" fill="white" transform="translate(0.730469)"/>
</clipPath>
</defs>
</svg>
