<svg width="24" height="24" viewBox="0 0 24 24" fill="none" xmlns="http://www.w3.org/2000/svg">
<g clip-path="url(#clip0_4986_2069)">
<g clip-path="url(#clip1_4986_2069)">
<path d="M11.1164 9.473C11.3342 9.25573 11.6245 9.12642 11.9317 9.10982C12.2389 9.09321 12.5414 9.19048 12.7814 9.383L12.8824 9.473L15.7064 12.293C15.8876 12.4725 15.9934 12.7146 16.0021 12.9695C16.0107 13.2245 15.9216 13.4732 15.7529 13.6646C15.5842 13.856 15.3488 13.9757 15.0947 13.9992C14.8407 14.0227 14.5873 13.9482 14.3864 13.791L14.2924 13.708L12.9994 12.416V21C12.9991 21.2549 12.9015 21.5 12.7265 21.6854C12.5516 21.8707 12.3124 21.9822 12.058 21.9972C11.8035 22.0121 11.553 21.9293 11.3575 21.7657C11.1621 21.6021 11.0365 21.3701 11.0064 21.117L10.9994 21V12.416L9.70637 13.708C9.52666 13.8889 9.28462 13.9943 9.02977 14.0027C8.77491 14.0111 8.52649 13.9217 8.33529 13.753C8.14409 13.5843 8.02457 13.3489 8.00117 13.095C7.97776 12.8411 8.05224 12.5878 8.20937 12.387L8.29237 12.292L11.1164 9.473ZM11.4994 2C14.2834 2 16.6594 3.75 17.5854 6.212C18.9689 6.58982 20.1713 7.45072 20.9748 8.63872C21.7783 9.82672 22.1296 11.2632 21.9652 12.688C21.8007 14.1127 21.1314 15.4314 20.0785 16.4051C19.0255 17.3789 17.6586 17.9433 16.2254 17.996L15.9994 18H14.9994V16C15.5761 16.0001 16.1407 15.8339 16.6254 15.5213C17.1102 15.2087 17.4945 14.7631 17.7325 14.2377C17.9704 13.7123 18.0519 13.1294 17.9671 12.5589C17.8823 11.9884 17.6348 11.4545 17.2544 11.021L17.1194 10.877L14.2954 8.058C13.7102 7.47397 12.9245 7.1349 12.0981 7.10982C11.2717 7.08474 10.4669 7.37553 9.84737 7.923L9.70337 8.058L6.87937 10.878C6.47218 11.2848 6.19061 11.8001 6.06823 12.3625C5.94585 12.9249 5.98784 13.5106 6.18918 14.0498C6.39052 14.589 6.74272 15.0589 7.20376 15.4035C7.6648 15.748 8.21522 15.9527 8.78937 15.993L8.99937 16V18H6.99937C5.85008 18.0008 4.73562 17.6056 3.84356 16.8809C2.95151 16.1563 2.33632 15.1465 2.10154 14.0214C1.86676 12.8964 2.02673 11.7248 2.55452 10.7038C3.08231 9.6829 3.9457 8.87496 4.99937 8.416C5.02146 6.70669 5.71602 5.07489 6.93262 3.87401C8.14922 2.67313 9.78992 1.99986 11.4994 2Z" fill="#1376B9"/>
</g>
</g>
<defs>
<clipPath id="clip0_4986_2069">
<rect width="24" height="24" fill="white"/>
</clipPath>
<clipPath id="clip1_4986_2069">
<rect width="24" height="24" fill="white"/>
</clipPath>
</defs>
</svg>
