<svg xmlns="http://www.w3.org/2000/svg" width="19" height="19" viewBox="0 0 19 19" fill="none">
  <path d="M12.065 1.58325H8.98225C7.58575 1.58325 6.479 1.58325 5.61371 1.70042C4.72229 1.82075 4.00108 2.07409 3.43267 2.64488C2.86346 3.21567 2.61092 3.94004 2.49138 4.83463C2.375 5.70388 2.375 6.81459 2.375 8.21663V12.8384C2.375 14.0322 3.10333 15.055 4.13804 15.4841C4.085 14.7637 4.085 13.7543 4.085 12.9136V8.94734C4.085 7.93321 4.085 7.05842 4.17842 6.35858C4.27896 5.60809 4.50537 4.88925 5.08646 4.30579C5.66754 3.72234 6.384 3.49513 7.13133 3.39379C7.828 3.30038 8.69883 3.30038 9.70979 3.30038H12.1402C13.1504 3.30038 14.0196 3.30038 14.7171 3.39379C14.5081 2.86051 14.1433 2.40254 13.6702 2.07959C13.1972 1.75664 12.6378 1.58368 12.065 1.58325Z" fill="#197BBD"/>
  <path d="M5.22498 9.02254C5.22498 6.86446 5.22498 5.78542 5.89314 5.11488C6.56052 4.44434 7.63481 4.44434 9.78498 4.44434H12.065C14.2144 4.44434 15.2894 4.44434 15.9576 5.11488C16.625 5.78542 16.625 6.86446 16.625 9.02254V12.8384C16.625 14.9965 16.625 16.0755 15.9576 16.746C15.2894 17.4166 14.2144 17.4166 12.065 17.4166H9.78498C7.6356 17.4166 6.56052 17.4166 5.89314 16.746C5.22498 16.0755 5.22498 14.9965 5.22498 12.8384V9.02254Z" fill="#197BBD"/>
</svg>