<svg width="43" height="43" viewBox="0 0 43 43" fill="none" xmlns="http://www.w3.org/2000/svg">
<circle cx="21.5" cy="21.5" r="21.5" fill="#DDF1FF"/>
<path d="M25.24 12H21.346C19.582 12 18.184 12 17.091 12.148C15.965 12.3 15.054 12.62 14.336 13.341C13.617 14.062 13.298 14.977 13.147 16.107C13 17.205 13 18.608 13 20.379V26.217C13 27.725 13.92 29.017 15.227 29.559C15.16 28.649 15.16 27.374 15.16 26.312V21.302C15.16 20.021 15.16 18.916 15.278 18.032C15.405 17.084 15.691 16.176 16.425 15.439C17.159 14.702 18.064 14.415 19.008 14.287C19.888 14.169 20.988 14.169 22.265 14.169H25.335C26.611 14.169 27.709 14.169 28.59 14.287C28.326 13.6134 27.8652 13.0349 27.2676 12.627C26.6701 12.219 25.9635 12.0005 25.24 12Z" fill="#197BBD"/>
<path d="M16.6 21.397C16.6 18.671 16.6 17.308 17.444 16.461C18.287 15.614 19.644 15.614 22.36 15.614H25.24C27.955 15.614 29.313 15.614 30.157 16.461C31 17.308 31 18.671 31 21.397V26.217C31 28.943 31 30.306 30.157 31.153C29.313 32 27.955 32 25.24 32H22.36C19.645 32 18.287 32 17.444 31.153C16.6 30.306 16.6 28.943 16.6 26.217V21.397Z" fill="#197BBD"/>
</svg>
