<svg width="26" height="26" viewBox="0 0 26 26" fill="none" xmlns="http://www.w3.org/2000/svg">
<g id="Icon" clip-path="url(#clip0_1_58)">
<path id="Vector" d="M16.2502 1.08331H4.33354C3.14187 1.08331 2.16687 2.05831 2.16687 3.24998V17.3333C2.16687 17.9291 2.65437 18.4166 3.2502 18.4166C3.84604 18.4166 4.33354 17.9291 4.33354 17.3333V4.33331C4.33354 3.73748 4.82104 3.24998 5.41687 3.24998H16.2502C16.846 3.24998 17.3335 2.76248 17.3335 2.16665C17.3335 1.57081 16.846 1.08331 16.2502 1.08331ZM16.8894 6.05581L22.1219 11.2883C22.5227 11.6891 22.7502 12.2416 22.7502 12.8158V22.75C22.7502 23.9417 21.7752 24.9166 20.5835 24.9166H8.65604C7.46437 24.9166 6.5002 23.9417 6.5002 22.75L6.51104 7.58331C6.51104 6.39165 7.4752 5.41665 8.66687 5.41665H15.351C15.9252 5.41665 16.4777 5.64415 16.8894 6.05581ZM16.2502 13H21.1252L15.1669 7.04165V11.9166C15.1669 12.5125 15.6544 13 16.2502 13Z" />
</g>
<defs>
<clipPath id="clip0_1_58">
<rect width="26" height="26" fill="white"/>
</clipPath>
</defs>
</svg>
