<svg width="21" height="21" viewBox="0 0 21 21" fill="none" xmlns="http://www.w3.org/2000/svg">
<path fill-rule="evenodd" clip-rule="evenodd" d="M3.9375 1.3125C3.24131 1.3125 2.57363 1.58906 2.08134 2.08134C1.58906 2.57363 1.3125 3.24131 1.3125 3.9375V17.0625C1.3125 17.7587 1.58906 18.4264 2.08134 18.9187C2.57363 19.4109 3.24131 19.6875 3.9375 19.6875H8.20312C8.4642 19.6875 8.71458 19.5838 8.89918 19.3992C9.08379 19.2146 9.1875 18.9642 9.1875 18.7031C9.1875 18.4421 9.08379 18.1917 8.89918 18.0071C8.71458 17.8225 8.4642 17.7188 8.20312 17.7188H3.9375C3.76345 17.7188 3.59653 17.6496 3.47346 17.5265C3.35039 17.4035 3.28125 17.2365 3.28125 17.0625V3.9375C3.28125 3.76345 3.35039 3.59653 3.47346 3.47346C3.59653 3.35039 3.76345 3.28125 3.9375 3.28125H11.8125C11.9865 3.28125 12.1535 3.35039 12.2765 3.47346C12.3996 3.59653 12.4688 3.76345 12.4688 3.9375V10.8281C12.4688 11.0892 12.5725 11.3396 12.7571 11.5242C12.9417 11.7088 13.1921 11.8125 13.4531 11.8125C13.7142 11.8125 13.9646 11.7088 14.1492 11.5242C14.3338 11.3396 14.4375 11.0892 14.4375 10.8281V5.72775L17.3119 7.224C17.3503 7.24382 17.3844 7.27104 17.4123 7.30409C17.4402 7.33715 17.4613 7.37539 17.4743 7.41661C17.4874 7.45784 17.4922 7.50124 17.4884 7.54432C17.4846 7.58739 17.4723 7.6293 17.4523 7.66762L16.0453 10.374C15.9345 10.6044 15.9177 10.869 15.9985 11.1116C16.0793 11.3542 16.2513 11.5558 16.4781 11.6738C16.7049 11.7919 16.9688 11.817 17.2138 11.7439C17.4588 11.6708 17.6658 11.5052 17.7909 11.2822L19.1993 8.57587C19.4803 8.03545 19.5352 7.40551 19.3518 6.82462C19.1685 6.24373 18.7618 5.75948 18.2214 5.47837L14.3994 3.48863C14.2937 2.87927 13.9762 2.32683 13.5029 1.92871C13.0296 1.53059 12.431 1.31236 11.8125 1.3125H3.9375ZM11.8125 17.0625C11.8125 16.8014 11.9162 16.551 12.1008 16.3664C12.2854 16.1818 12.5358 16.0781 12.7969 16.0781H14.7656V14.1094C14.7656 13.8483 14.8693 13.5979 15.0539 13.4133C15.2385 13.2287 15.4889 13.125 15.75 13.125C16.0111 13.125 16.2615 13.2287 16.4461 13.4133C16.6307 13.5979 16.7344 13.8483 16.7344 14.1094V16.0781H18.7031C18.9642 16.0781 19.2146 16.1818 19.3992 16.3664C19.5838 16.551 19.6875 16.8014 19.6875 17.0625C19.6875 17.3236 19.5838 17.574 19.3992 17.7586C19.2146 17.9432 18.9642 18.0469 18.7031 18.0469H16.7344V20.0156C16.7344 20.2767 16.6307 20.5271 16.4461 20.7117C16.2615 20.8963 16.0111 21 15.75 21C15.4889 21 15.2385 20.8963 15.0539 20.7117C14.8693 20.5271 14.7656 20.2767 14.7656 20.0156V18.0469H12.7969C12.5358 18.0469 12.2854 17.9432 12.1008 17.7586C11.9162 17.574 11.8125 17.3236 11.8125 17.0625Z" fill="#A3AED0"/>
</svg>
