<svg width="24" height="24" viewBox="0 0 15 15" fill="none" xmlns="http://www.w3.org/2000/svg">
<path d="M7.5 15C11.6421 15 15 11.6421 15 7.5C15 3.35786 11.6421 0 7.5 0C3.35786 0 0 3.35786 0 7.5C0 11.6421 3.35786 15 7.5 15Z" fill="url(#paint0_linear_3021_51446)"/>
<g clip-path="url(#clip0_3021_51446)">
<path fill-rule="evenodd" clip-rule="evenodd" d="M7.49949 8.47257L9.93003 10.9031C10.059 11.0321 10.2339 11.1045 10.4163 11.1045C10.5987 11.1045 10.7736 11.0321 10.9026 10.9031C11.0316 10.7741 11.104 10.5992 11.104 10.4168C11.104 10.2344 11.0316 10.0595 10.9026 9.93053L8.47116 7.49999L10.9022 5.06945C10.966 5.00559 11.0166 4.92978 11.0512 4.84635C11.0857 4.76293 11.1034 4.67351 11.1034 4.58322C11.1034 4.49293 11.0856 4.40353 11.051 4.32012C11.0165 4.23671 10.9658 4.16092 10.9019 4.09709C10.8381 4.03326 10.7623 3.98264 10.6788 3.9481C10.5954 3.91357 10.506 3.89581 10.4157 3.89583C10.3254 3.89585 10.236 3.91365 10.1526 3.94823C10.0692 3.9828 9.99341 4.03346 9.92958 4.09732L7.49949 6.52786L5.06895 4.09732C5.00556 4.03163 4.92973 3.97922 4.84586 3.94315C4.762 3.90708 4.6718 3.88807 4.58051 3.88724C4.48923 3.8864 4.39869 3.90375 4.31418 3.93828C4.22968 3.97281 4.15289 4.02382 4.08831 4.08834C4.02373 4.15286 3.97265 4.2296 3.93804 4.31407C3.90343 4.39855 3.88599 4.48907 3.88674 4.58035C3.88749 4.67164 3.90641 4.76186 3.94241 4.84576C3.9784 4.92965 4.03074 5.00554 4.09637 5.06899L6.52783 7.49999L4.09683 9.93099C4.03119 9.99444 3.97886 10.0703 3.94286 10.1542C3.90687 10.2381 3.88795 10.3283 3.8872 10.4196C3.88645 10.5109 3.90389 10.6014 3.9385 10.6859C3.9731 10.7704 4.02419 10.8471 4.08877 10.9116C4.15335 10.9762 4.23014 11.0272 4.31464 11.0617C4.39915 11.0962 4.48969 11.1136 4.58097 11.1127C4.67226 11.1119 4.76246 11.0929 4.84632 11.0568C4.93018 11.0208 5.00602 10.9683 5.06941 10.9027L7.49949 8.47257Z" fill="white"/>
</g>
<defs>
<linearGradient id="paint0_linear_3021_51446" x1="7.5" y1="1.49012e-08" x2="7" y2="15" gradientUnits="userSpaceOnUse">
<stop stop-color="#EE3D4A"/>
<stop offset="1" stop-color="#BF2630"/>
</linearGradient>
<clipPath id="clip0_3021_51446">
<rect width="11" height="11" fill="white" transform="translate(2 2)"/>
</clipPath>
</defs>
</svg>