<svg width="26" height="26" viewBox="0 0 26 26" fill="none" xmlns="http://www.w3.org/2000/svg">
<circle cx="13" cy="13" r="11.5" fill="white" stroke="#FD8F97" stroke-width="3"/>
<g clip-path="url(#clip0_1031_63258)">
<path d="M5.92984 20.0698C4.97473 19.1474 4.21291 18.0439 3.68882 16.8239C3.16473 15.6038 2.88887 14.2916 2.87733 12.9638C2.86579 11.6361 3.11881 10.3193 3.62162 9.09029C4.12443 7.86133 4.86696 6.74481 5.80589 5.80589C6.74481 4.86696 7.86133 4.12443 9.09029 3.62162C10.3193 3.11881 11.6361 2.86579 12.9638 2.87733C14.2916 2.88887 15.6038 3.16473 16.8239 3.68882C18.0439 4.21291 19.1474 4.97473 20.0698 5.92984C21.8914 7.81586 22.8994 10.3419 22.8766 12.9638C22.8538 15.5858 21.8021 18.0939 19.948 19.948C18.0939 21.8021 15.5858 22.8538 12.9638 22.8766C10.3419 22.8994 7.81586 21.8914 5.92984 20.0698ZM14.3998 12.9998L17.2298 10.1698L15.8198 8.75984L12.9998 11.5898L10.1698 8.75984L8.75984 10.1698L11.5898 12.9998L8.75984 15.8298L10.1698 17.2398L12.9998 14.4098L15.8298 17.2398L17.2398 15.8298L14.4098 12.9998H14.3998Z" fill="#F44F5A"/>
</g>
<defs>
<clipPath id="clip0_1031_63258">
<rect width="20" height="20" fill="white" transform="translate(3 3)"/>
</clipPath>
</defs>
</svg>
