<svg width="60" height="60" viewBox="0 0 60 60" fill="none" xmlns="http://www.w3.org/2000/svg">
<path d="M27.2689 12.33C30.4175 7.42794 37.5825 7.42794 40.7311 12.33L42.8546 15.6362C44.2088 17.7445 46.3052 19.2676 48.7288 19.904L52.5293 20.9019C58.1645 22.3816 60.3786 29.1959 56.6894 33.7053L54.2013 36.7465C52.6146 38.686 51.8139 41.1504 51.9576 43.652L52.1829 47.5749C52.517 53.3915 46.7204 57.603 41.2917 55.4878L37.6304 54.0613C35.2956 53.1516 32.7044 53.1516 30.3696 54.0613L26.7083 55.4878C21.2796 57.603 15.483 53.3915 15.8171 47.5749L16.0424 43.652C16.1861 41.1504 15.3854 38.686 13.7987 36.7465L11.3106 33.7053C7.62142 29.1959 9.83552 22.3816 15.4707 20.9019L19.2712 19.904C21.6948 19.2676 23.7912 17.7445 25.1454 15.6362L27.2689 12.33Z" fill="#FFD967" stroke="#E5B01A" stroke-width="2"/>
<path d="M34.801 27.1922C34.801 27.463 34.6167 27.6902 34.368 27.7523L37.4952 34.9229L42.7811 31.3464C42.6424 31.2411 42.5527 31.0734 42.5527 30.8845C42.5527 30.5658 42.8078 30.3075 43.1226 30.3075C43.4374 30.3075 43.6926 30.5658 43.6926 30.8845C43.6926 31.2031 43.4374 31.4614 43.1226 31.4614C43.0906 31.4614 43.0593 31.4587 43.0287 31.4536L40.8163 39.4229H27.5318L25.3852 31.6903C25.3701 31.6915 25.3549 31.6922 25.3395 31.6922C25.0247 31.6922 24.7695 31.4339 24.7695 31.1152C24.7695 30.7966 25.0247 30.5383 25.3395 30.5383C25.6543 30.5383 25.9095 30.7966 25.9095 31.1152C25.9095 31.257 25.859 31.3868 25.7752 31.4872L30.853 34.9229L33.9953 27.7176C33.7981 27.6268 33.6611 27.4257 33.6611 27.1922C33.6611 26.8735 33.9163 26.6152 34.2311 26.6152C34.5459 26.6152 34.801 26.8735 34.801 27.1922Z" fill="white"/>
<path d="M27.2774 40.9229C27.2774 40.668 27.4816 40.4614 27.7334 40.4614H40.5008C40.7526 40.4614 40.9567 40.668 40.9567 40.9229C40.9567 41.1778 40.7526 41.3845 40.5008 41.3845H27.7334C27.4816 41.3845 27.2774 41.1778 27.2774 40.9229Z" fill="white"/>
</svg>
