<svg xmlns="http://www.w3.org/2000/svg" width="21" height="21" viewBox="0 0 21 21" fill="none">
  <path d="M18.6473 6.01868L14.9814 2.35352C14.8595 2.23161 14.7148 2.13491 14.5555 2.06893C14.3963 2.00295 14.2256 1.96899 14.0532 1.96899C13.8808 1.96899 13.7101 2.00295 13.5508 2.06893C13.3916 2.13491 13.2469 2.23161 13.125 2.35352L3.00973 12.4688C2.88733 12.5902 2.79028 12.7348 2.72423 12.8941C2.65818 13.0533 2.62446 13.2241 2.62501 13.3966V17.0625C2.62501 17.4106 2.76329 17.7445 3.00943 17.9906C3.25557 18.2368 3.58941 18.375 3.93751 18.375H17.7188C17.8928 18.375 18.0597 18.3059 18.1828 18.1828C18.3059 18.0598 18.375 17.8928 18.375 17.7188C18.375 17.5447 18.3059 17.3778 18.1828 17.2548C18.0597 17.1317 17.8928 17.0625 17.7188 17.0625H9.45985L18.6473 7.87505C18.7693 7.75316 18.866 7.60846 18.9319 7.4492C18.9979 7.28994 19.0319 7.11925 19.0319 6.94686C19.0319 6.77448 18.9979 6.60378 18.9319 6.44452C18.866 6.28526 18.7693 6.14056 18.6473 6.01868ZM11.1563 6.17782L12.5254 7.54692L5.57813 14.4941L4.20903 13.125L11.1563 6.17782ZM3.93751 17.0625V14.7091L6.29098 17.0625H3.93751ZM7.87501 16.791L6.50672 15.4219L13.4531 8.47469L14.8222 9.8438L7.87501 16.791ZM15.75 8.91602L12.0849 5.25005L14.0536 3.2813L17.7188 6.94727L15.75 8.91602Z" fill="#CA2020"/>
</svg>