<svg width="43" height="43" viewBox="0 0 43 43" fill="none" xmlns="http://www.w3.org/2000/svg">
<g id="Icon">
<circle id="Shadow" cx="21.5" cy="21.5" r="21.5" fill="#DDF1FF"/>
<g id="Delete">
<path id="Delete_2" fill-rule="evenodd" clip-rule="evenodd" d="M29.1264 15.3376C29.4668 15.3376 29.7502 15.6203 29.7502 15.9799V16.3124C29.7502 16.6633 29.4668 16.9546 29.1264 16.9546H14.6246C14.2834 16.9546 14 16.6633 14 16.3124V15.9799C14 15.6203 14.2834 15.3376 14.6246 15.3376H17.1759C17.6942 15.3376 18.1452 14.9693 18.2618 14.4495L18.3954 13.8528C18.603 13.0399 19.2864 12.5 20.0684 12.5H23.6818C24.4553 12.5 25.1463 13.0399 25.3463 13.8099L25.4893 14.4486C25.605 14.9693 26.056 15.3376 26.5751 15.3376H29.1264ZM27.8301 27.4922C28.0965 25.0098 28.5628 19.1123 28.5628 19.0528C28.5798 18.8726 28.5211 18.7019 28.4045 18.5646C28.2794 18.4359 28.1211 18.3598 27.9467 18.3598H15.8098C15.6345 18.3598 15.4677 18.4359 15.352 18.5646C15.2345 18.7019 15.1767 18.8726 15.1852 19.0528C15.1867 19.0637 15.2035 19.2715 15.2314 19.6188C15.3557 21.1616 15.7019 25.4588 15.9255 27.4922C16.0838 28.9902 17.0667 29.9317 18.4904 29.9658C19.5891 29.9912 20.7209 30 21.8782 30C22.9684 30 24.0755 29.9912 25.2082 29.9658C26.6813 29.9405 27.6633 29.0156 27.8301 27.4922Z" fill="#197BBD"/>
</g>
</g>
</svg>
