<svg width="10" height="12" viewBox="0 0 10 12" fill="none" xmlns="http://www.w3.org/2000/svg">
<g id="Delete">
<path id="Delete_2" fill-rule="evenodd" clip-rule="evenodd" d="M9.60395 1.80165C9.82008 1.80165 10 1.98109 10 2.20942V2.42053C10 2.64331 9.82008 2.8283 9.60395 2.8283H0.396585C0.179922 2.8283 0 2.64331 0 2.42053V2.20942C0 1.98109 0.179922 1.80165 0.396585 1.80165H2.01643C2.34547 1.80165 2.63183 1.56776 2.70586 1.23777L2.79069 0.85888C2.92252 0.342774 3.35639 0 3.85293 0H6.14707C6.63821 0 7.07694 0.342774 7.20391 0.831658L7.29468 1.23721C7.36816 1.56776 7.65453 1.80165 7.98411 1.80165H9.60395ZM8.78103 9.51876C8.95014 7.94266 9.24623 4.19826 9.24623 4.16048C9.25704 4.04604 9.21976 3.9377 9.14573 3.85048C9.06631 3.76882 8.96581 3.72048 8.85505 3.72048H1.14919C1.03789 3.72048 0.931987 3.76882 0.858505 3.85048C0.783943 3.9377 0.747202 4.04604 0.752605 4.16048C0.753598 4.16742 0.764222 4.29932 0.781985 4.51983C0.860892 5.49941 1.08066 8.22773 1.22267 9.51876C1.32317 10.4699 1.94722 11.0676 2.85116 11.0893C3.54869 11.1054 4.2673 11.111 5.00212 11.111C5.69425 11.111 6.39719 11.1054 7.11634 11.0893C8.05161 11.0732 8.67513 10.486 8.78103 9.51876Z" fill="#E71D36"/>
</g>
</svg>
