<svg width="18" height="18" viewBox="0 0 12 12" fill="none" xmlns="http://www.w3.org/2000/svg">
<path d="M1.57786 3.49325H10.3843C10.9717 3.49489 11.5411 3.67348 12 4V3.57433C12 3.10305 11.7898 2.65106 11.4157 2.31781C11.0416 1.98456 10.5342 1.79734 10.0051 1.79734H7.05442L6.69791 0.925737C6.59663 0.653868 6.40099 0.417698 6.13922 0.25132C5.87745 0.0849411 5.5631 -0.00303886 5.24154 8.01546e-05H1.99505C1.73115 6.48607e-05 1.46987 0.0466909 1.22634 0.137258C0.982805 0.227825 0.761868 0.360533 0.576322 0.527695C0.390776 0.694857 0.244308 0.89315 0.145403 1.11109C0.0464972 1.32903 -0.0028805 1.56228 0.0001298 1.79734V3.96622C0.454227 3.65979 1.00818 3.49373 1.57786 3.49325Z" fill="url(#paint0_linear_1024_11444)"/>
<path d="M10.3843 5.00093H1.57786C1.22767 4.99213 0.884057 5.09315 0.599273 5.28862C0.314489 5.48409 0.104112 5.76332 0.0001298 6.08386V10.0667C-0.0028805 10.3196 0.0464972 10.5705 0.145403 10.8049C0.244308 11.0393 0.390776 11.2526 0.576322 11.4325C0.761868 11.6123 0.982805 11.755 1.22634 11.8524C1.46987 11.9499 1.73115 12 1.99505 12H10.0051C10.5342 12 11.0416 11.7986 11.4157 11.4401C11.7898 11.0817 12 10.5955 12 10.0885V6.33824C11.9563 5.96122 11.7655 5.61395 11.4659 5.36597C11.1663 5.118 10.78 4.98761 10.3843 5.00093Z" fill="url(#paint1_linear_1024_11444)"/>
<defs>
<linearGradient id="paint0_linear_1024_11444" x1="6" y1="-1.31348e-07" x2="7.5581" y2="17.838" gradientUnits="userSpaceOnUse">
<stop stop-color="white"/>
<stop offset="1" stop-color="#A8A7AD"/>
</linearGradient>
<linearGradient id="paint1_linear_1024_11444" x1="6" y1="5" x2="10.6983" y2="35.7365" gradientUnits="userSpaceOnUse">
<stop stop-color="white"/>
<stop offset="1" stop-color="#A8A7AD"/>
</linearGradient>
</defs>
</svg>
