<svg width="24" height="24" viewBox="0 0 24 24" fill="none" xmlns="http://www.w3.org/2000/svg">
<g clip-path="url(#clip0_3036_51597)">
<path d="M6 10C4.9 10 4 10.9 4 12C4 13.1 4.9 14 6 14C7.1 14 8 13.1 8 12C8 10.9 7.1 10 6 10ZM18 10C16.9 10 16 10.9 16 12C16 13.1 16.9 14 18 14C19.1 14 20 13.1 20 12C20 10.9 19.1 10 18 10ZM12 10C10.9 10 10 10.9 10 12C10 13.1 10.9 14 12 14C13.1 14 14 13.1 14 12C14 10.9 13.1 10 12 10Z" fill="#1377B9"/>
</g>
<path d="M21.5986 11.9453C21.6707 11.8956 21.7298 11.8291 21.7705 11.7515C21.8113 11.674 21.8326 11.5876 21.8326 11.5C21.8326 11.4124 21.8113 11.3261 21.7705 11.2485C21.7298 11.171 21.6707 11.1045 21.5986 11.0548L14.5569 6.17977C14.4757 6.12334 14.3806 6.09025 14.2819 6.08409C14.1831 6.07793 14.0846 6.09894 13.997 6.14484C13.9094 6.19073 13.8361 6.25976 13.785 6.34442C13.7338 6.42907 13.7069 6.52612 13.707 6.62502L13.707 16.375C13.7074 16.4737 13.7347 16.5704 13.786 16.6547C13.8372 16.739 13.9105 16.8078 13.9979 16.8535C14.0853 16.8993 14.1835 16.9204 14.282 16.9146C14.3805 16.9087 14.4756 16.8761 14.5569 16.8203L21.5986 11.9453Z" fill="#1376B9"/>
<defs>
<clipPath id="clip0_3036_51597">
<rect width="24" height="24" fill="white"/>
</clipPath>
</defs>
</svg>
