<svg width="17" height="18" viewBox="0 0 17 18" fill="none" xmlns="http://www.w3.org/2000/svg">
<g id="bxs:up-arrow">
<path id="Vector" d="M14.875 4.04165L2.125 4.04165C1.99591 4.04206 1.86938 4.07766 1.75902 4.14463C1.64866 4.2116 1.55866 4.3074 1.4987 4.42171C1.43873 4.53603 1.41108 4.66453 1.41872 4.7934C1.42636 4.92226 1.469 5.0466 1.54204 5.15303L7.91704 14.3614C8.18125 14.7432 8.81733 14.7432 9.08225 14.3614L15.4572 5.15303C15.531 5.04682 15.5743 4.92242 15.5824 4.79334C15.5904 4.66426 15.5629 4.53545 15.5029 4.42089C15.4429 4.30633 15.3526 4.21041 15.2419 4.14355C15.1312 4.07669 15.0043 4.04145 14.875 4.04165Z" fill="#4D9ED5"/>
</g>
</svg>
