<svg width="22" height="18" viewBox="0 0 22 18" fill="none" xmlns="http://www.w3.org/2000/svg">
<path d="M2.5 10.5C2.5 8.05 4.26 6.03 6.58 5.59L5.09 7.09L6.5 8.5L10.5 4.49L6.5 0.5L5.09 1.91L6.67 3.49V3.55C4.97001 3.75453 3.40375 4.57445 2.26699 5.85491C1.13023 7.13537 0.501669 8.78775 0.5 10.5C0.5 14.37 3.63 17.5 7.5 17.5H10.5V15.5H7.5C4.74 15.5 2.5 13.26 2.5 10.5ZM12.5 10.5V17.5H21.5V10.5H12.5ZM19.5 15.5H14.5V12.5H19.5V15.5ZM12.5 1.5H21.5V8.5H12.5V1.5Z" fill="#1678BA" fill-opacity="0.7"/>
</svg>
