<svg xmlns="http://www.w3.org/2000/svg" width="11" height="11" viewBox="0 0 11 11" fill="none">
  <path d="M3.1943 3.6807C3.1298 3.6162 3.09356 3.52872 3.09356 3.4375C3.09356 3.34628 3.1298 3.2588 3.1943 3.1943C3.2588 3.1298 3.34628 3.09356 3.4375 3.09356C3.52872 3.09356 3.6162 3.1298 3.6807 3.1943L5.15625 4.67027V1.03125C5.15625 0.940082 5.19247 0.852648 5.25693 0.788182C5.3214 0.723716 5.40883 0.6875 5.5 0.6875C5.59117 0.6875 5.6786 0.723716 5.74307 0.788182C5.80753 0.852648 5.84375 0.940082 5.84375 1.03125V4.67027L7.3193 3.1943C7.3838 3.1298 7.47128 3.09356 7.5625 3.09356C7.65372 3.09356 7.7412 3.1298 7.8057 3.1943C7.8702 3.2588 7.90644 3.34628 7.90644 3.4375C7.90644 3.52872 7.8702 3.6162 7.8057 3.6807L5.7432 5.7432C5.71128 5.77516 5.67337 5.80052 5.63164 5.81782C5.58991 5.83512 5.54517 5.84402 5.5 5.84402C5.45483 5.84402 5.41009 5.83512 5.36836 5.81782C5.32663 5.80052 5.28872 5.77516 5.2568 5.7432L3.1943 3.6807ZM10.3125 5.84375V8.59375C10.3125 8.77609 10.2401 8.95095 10.1111 9.07989C9.9822 9.20882 9.80734 9.28125 9.625 9.28125H1.375C1.19266 9.28125 1.0178 9.20882 0.888864 9.07989C0.759933 8.95095 0.6875 8.77609 0.6875 8.59375V5.84375C0.6875 5.66141 0.759933 5.48655 0.888864 5.35761C1.0178 5.22868 1.19266 5.15625 1.375 5.15625H3.62656C3.64914 5.15623 3.6715 5.16066 3.69236 5.16929C3.71323 5.17792 3.73219 5.19057 3.74816 5.20652L4.76953 6.23047C4.86534 6.32661 4.97918 6.40289 5.10453 6.45494C5.22988 6.50699 5.36427 6.53378 5.5 6.53378C5.63573 6.53378 5.77012 6.50699 5.89547 6.45494C6.02082 6.40289 6.13466 6.32661 6.23047 6.23047L7.25313 5.20781C7.28486 5.17543 7.3281 5.1569 7.37344 5.15625H9.625C9.80734 5.15625 9.9822 5.22868 10.1111 5.35761C10.2401 5.48655 10.3125 5.66141 10.3125 5.84375ZM8.59375 7.21875C8.59375 7.11677 8.56351 7.01708 8.50685 6.93228C8.45019 6.84749 8.36966 6.7814 8.27545 6.74237C8.18123 6.70335 8.07755 6.69314 7.97753 6.71303C7.87751 6.73293 7.78563 6.78204 7.71352 6.85415C7.64141 6.92626 7.5923 7.01814 7.57241 7.11816C7.55251 7.21818 7.56272 7.32185 7.60175 7.41607C7.64078 7.51029 7.70687 7.59082 7.79166 7.64748C7.87645 7.70413 7.97614 7.73438 8.07812 7.73438C8.21488 7.73438 8.34603 7.68005 8.44273 7.58335C8.53942 7.48665 8.59375 7.3555 8.59375 7.21875Z" fill="#197BBD"/>
</svg>