<svg xmlns="http://www.w3.org/2000/svg" xmlns:xlink="http://www.w3.org/1999/xlink" width="26px" height="26px" viewBox="0 0 26 26" version="1.1">
<g id="surface1">
<path style=" stroke:none;fill-rule:nonzero;fill:rgb(7.450981%,46.666667%,72.549021%);fill-opacity:1;" d="M 11.960938 6.761719 C 12.578125 7.132812 12.578125 7.132812 13 7.800781 C 13.085938 8.589844 13.0625 9.351562 13 10.140625 C 13.417969 10.191406 13.832031 10.238281 14.25 10.285156 C 14.484375 10.3125 14.714844 10.339844 14.957031 10.367188 C 15.636719 10.441406 15.636719 10.441406 16.378906 10.140625 C 16.378906 9.96875 16.378906 9.796875 16.378906 9.621094 C 16.636719 9.535156 16.894531 9.449219 17.160156 9.359375 C 17.289062 9.746094 17.289062 9.746094 17.421875 10.140625 C 18.0625 10.269531 18.0625 10.269531 18.71875 10.398438 C 18.890625 11.171875 19.0625 11.945312 19.238281 12.738281 C 19.839844 12.738281 20.441406 12.738281 21.058594 12.738281 C 21.160156 13.171875 21.246094 13.605469 21.320312 14.039062 C 20.882812 14.476562 20.328125 14.359375 19.726562 14.382812 C 19.457031 14.394531 19.1875 14.402344 18.910156 14.414062 C 18.628906 14.425781 18.34375 14.4375 18.054688 14.445312 C 17.628906 14.464844 17.628906 14.464844 17.191406 14.480469 C 16.488281 14.507812 15.785156 14.535156 15.078125 14.558594 C 15.238281 14.5625 15.394531 14.566406 15.554688 14.570312 C 17.226562 14.671875 17.226562 14.671875 18.03125 15.292969 C 18.679688 16.546875 18.992188 17.839844 19.320312 19.207031 C 19.429688 19.621094 19.429688 19.621094 19.539062 20.046875 C 19.902344 21.515625 20.167969 22.707031 19.761719 24.179688 C 19.238281 24.699219 19.238281 24.699219 18.347656 24.78125 C 17.421875 24.699219 17.421875 24.699219 16.996094 24.378906 C 16.574219 23.832031 16.441406 23.394531 16.28125 22.726562 C 16.195312 22.378906 16.195312 22.378906 16.109375 22.027344 C 16.027344 21.667969 16.027344 21.667969 15.941406 21.304688 C 15.882812 21.0625 15.824219 20.824219 15.765625 20.574219 C 15.339844 18.8125 15.339844 18.8125 15.339844 18.199219 C 15.082031 18.285156 14.824219 18.371094 14.558594 18.460938 C 14.730469 18.632812 14.902344 18.804688 15.078125 18.980469 C 14.984375 19.53125 14.984375 19.53125 14.820312 20.019531 C 14.390625 20.019531 13.960938 20.019531 13.519531 20.019531 C 13.652344 20.308594 13.78125 20.597656 13.917969 20.894531 C 14.089844 21.273438 14.257812 21.65625 14.429688 22.035156 C 14.515625 22.226562 14.605469 22.414062 14.691406 22.609375 C 14.773438 22.792969 14.855469 22.976562 14.941406 23.167969 C 15.019531 23.335938 15.09375 23.507812 15.171875 23.679688 C 15.339844 24.179688 15.339844 24.179688 15.339844 25.21875 C 14.996094 25.21875 14.652344 25.21875 14.300781 25.21875 C 13.996094 24.5 13.691406 23.78125 13.390625 23.058594 C 13.304688 22.855469 13.214844 22.648438 13.125 22.441406 C 13.042969 22.242188 12.960938 22.046875 12.878906 21.84375 C 12.765625 21.570312 12.765625 21.570312 12.648438 21.292969 C 12.480469 20.800781 12.480469 20.800781 12.480469 20.019531 C 11.277344 20.105469 10.078125 20.191406 8.839844 20.28125 C 8.152344 21.910156 7.46875 23.539062 6.761719 25.21875 C 6.417969 25.21875 6.074219 25.21875 5.71875 25.21875 C 5.871094 24.058594 6.175781 23.105469 6.644531 22.035156 C 7.117188 21.0625 7.117188 21.0625 7.28125 20.019531 C 7.035156 19.851562 7.035156 19.851562 6.785156 19.679688 C 6.09375 19.121094 6.035156 18.769531 5.863281 17.910156 C 5.808594 17.644531 5.753906 17.378906 5.699219 17.105469 C 5.648438 16.828125 5.59375 16.550781 5.542969 16.265625 C 5.484375 16 5.429688 15.730469 5.375 15.453125 C 5.007812 13.601562 4.796875 11.765625 4.679688 9.878906 C 5.167969 9.71875 5.167969 9.71875 5.71875 9.621094 C 6.378906 10.277344 6.402344 10.703125 6.574219 11.613281 C 6.632812 11.910156 6.6875 12.207031 6.746094 12.511719 C 6.804688 12.824219 6.863281 13.132812 6.921875 13.453125 C 6.980469 13.761719 7.042969 14.070312 7.101562 14.386719 C 7.363281 15.765625 7.574219 17.050781 7.539062 18.460938 C 8.226562 18.375 8.914062 18.289062 9.621094 18.199219 C 9.421875 18.101562 9.222656 18.007812 9.019531 17.90625 C 8.148438 17.300781 7.9375 16.839844 7.539062 15.859375 C 7.226562 13.226562 7.355469 10.078125 8.921875 7.832031 C 9.863281 6.851562 10.625 6.625 11.960938 6.761719 Z M 12.480469 12.480469 C 12.394531 13.253906 12.308594 14.023438 12.21875 14.820312 C 12.648438 14.820312 13.078125 14.820312 13.519531 14.820312 C 13.519531 14.5625 13.519531 14.304688 13.519531 14.039062 C 13.601562 13.605469 13.6875 13.171875 13.78125 12.738281 C 13.351562 12.652344 12.921875 12.570312 12.480469 12.480469 Z M 18.199219 12.21875 C 17.683594 12.476562 17.683594 12.476562 17.160156 12.738281 C 17.675781 12.738281 18.191406 12.738281 18.71875 12.738281 C 18.546875 12.570312 18.375 12.398438 18.199219 12.21875 Z M 18.199219 12.21875 "/>
<path style=" stroke:none;fill-rule:nonzero;fill:rgb(7.450981%,46.666667%,72.549021%);fill-opacity:1;" d="M 14.820312 1.300781 C 15.632812 1.765625 16.003906 2.144531 16.476562 2.941406 C 16.699219 3.886719 16.632812 4.523438 16.378906 5.460938 C 15.710938 6.390625 15.15625 6.820312 14.039062 7.019531 C 12.9375 7.019531 12.546875 6.917969 11.699219 6.238281 C 11.550781 6.136719 11.398438 6.035156 11.246094 5.929688 C 10.707031 5.152344 10.628906 4.300781 10.660156 3.378906 C 11.480469 1.433594 12.820312 0.980469 14.820312 1.300781 Z M 14.820312 1.300781 "/>
</g>
</svg>