<svg width="25" height="20" viewBox="0 0 25 20" fill="none" xmlns="http://www.w3.org/2000/svg">
<path d="M9.99998 17.5C9.54165 17.5 9.14942 17.3369 8.82331 17.0108C8.4972 16.6847 8.33387 16.2922 8.33331 15.8333C8.33331 15.375 8.49665 14.9828 8.82331 14.6567C9.14998 14.3306 9.5422 14.1672 9.99998 14.1667C10.4583 14.1667 10.8508 14.33 11.1775 14.6567C11.5041 14.9833 11.6672 15.3756 11.6666 15.8333C11.6666 16.2917 11.5036 16.6842 11.1775 17.0108C10.8514 17.3375 10.4589 17.5006 9.99998 17.5ZM9.99998 12.5C9.54165 12.5 9.14942 12.3369 8.82331 12.0108C8.4972 11.6847 8.33387 11.2922 8.33331 10.8333V4.16667C8.33331 3.70833 8.49665 3.31611 8.82331 2.99C9.14998 2.66389 9.5422 2.50056 9.99998 2.5C10.4583 2.5 10.8508 2.66333 11.1775 2.99C11.5041 3.31667 11.6672 3.70889 11.6666 4.16667V10.8333C11.6666 11.2917 11.5036 11.6842 11.1775 12.0108C10.8514 12.3375 10.4589 12.5006 9.99998 12.5Z" fill="#FF0825"/>
<path d="M15 17.5C14.5416 17.5 14.1494 17.3369 13.8233 17.0108C13.4972 16.6847 13.3339 16.2922 13.3333 15.8333C13.3333 15.375 13.4966 14.9828 13.8233 14.6567C14.15 14.3306 14.5422 14.1672 15 14.1667C15.4583 14.1667 15.8508 14.33 16.1775 14.6567C16.5041 14.9833 16.6672 15.3756 16.6666 15.8333C16.6666 16.2917 16.5036 16.6842 16.1775 17.0108C15.8514 17.3375 15.4589 17.5006 15 17.5ZM15 12.5C14.5416 12.5 14.1494 12.3369 13.8233 12.0108C13.4972 11.6847 13.3339 11.2922 13.3333 10.8333V4.16667C13.3333 3.70833 13.4966 3.31611 13.8233 2.99C14.15 2.66389 14.5422 2.50056 15 2.5C15.4583 2.5 15.8508 2.66333 16.1775 2.99C16.5041 3.31667 16.6672 3.70889 16.6666 4.16667V10.8333C16.6666 11.2917 16.5036 11.6842 16.1775 12.0108C15.8514 12.3375 15.4589 12.5006 15 12.5Z" fill="#FF0825"/>
</svg>
