<svg width="16" height="20" viewBox="0 0 16 20" fill="none" xmlns="http://www.w3.org/2000/svg">
<path fill-rule="evenodd" clip-rule="evenodd" d="M11 0C11.3511 8.91844e-06 11.6959 0.0924258 12 0.267962C12.304 0.443498 12.5565 0.695969 12.732 1H14C14.5304 1 15.0391 1.21071 15.4142 1.58579C15.7893 1.96086 16 2.46957 16 3V15C16 16.3261 15.4732 17.5979 14.5355 18.5355C13.5979 19.4732 12.3261 20 11 20H2C1.46957 20 0.960859 19.7893 0.585786 19.4142C0.210714 19.0391 0 18.5304 0 18V3C0 2.46957 0.210714 1.96086 0.585786 1.58579C0.960859 1.21071 1.46957 1 2 1H3.268C3.44353 0.695969 3.696 0.443498 4.00003 0.267962C4.30406 0.0924258 4.64894 8.91844e-06 5 0H11ZM10.824 7.379L6.582 11.622L5.167 10.207C4.9784 10.0248 4.7258 9.92405 4.4636 9.92633C4.2014 9.9286 3.95059 10.0338 3.76518 10.2192C3.57977 10.4046 3.4746 10.6554 3.47233 10.9176C3.47005 11.1798 3.57084 11.4324 3.753 11.621L5.803 13.672C5.90515 13.7742 6.02644 13.8553 6.15993 13.9106C6.29342 13.9659 6.4365 13.9944 6.581 13.9944C6.7255 13.9944 6.86858 13.9659 7.00207 13.9106C7.13556 13.8553 7.25685 13.7742 7.359 13.672L12.239 8.793C12.3318 8.70009 12.4055 8.5898 12.4557 8.46843C12.5059 8.34707 12.5317 8.217 12.5317 8.08565C12.5317 7.9543 12.5057 7.82424 12.4554 7.70291C12.4051 7.58158 12.3314 7.47134 12.2385 7.3785C12.1456 7.28566 12.0353 7.21202 11.9139 7.1618C11.7926 7.11158 11.6625 7.08575 11.5311 7.0858C11.3998 7.08584 11.2697 7.11176 11.1484 7.16207C11.0271 7.21238 10.9168 7.28609 10.824 7.379ZM10.5 2H5.5C5.38297 1.99996 5.26964 2.04097 5.17974 2.11589C5.08984 2.19081 5.02907 2.29489 5.008 2.41L5 2.5V3.5C4.99996 3.61703 5.04097 3.73036 5.11589 3.82026C5.19081 3.91016 5.29489 3.97094 5.41 3.992L5.5 4H10.5C10.617 4.00004 10.7304 3.95903 10.8203 3.88411C10.9102 3.80919 10.9709 3.70511 10.992 3.59L11 3.5V2.5C11 2.38297 10.959 2.26964 10.8841 2.17974C10.8092 2.08984 10.7051 2.02906 10.59 2.008L10.5 2Z" fill="#61CD95"/>
</svg>
