<svg width="20" height="25" viewBox="0 0 20 25" fill="none" xmlns="http://www.w3.org/2000/svg">
<path d="M18.727 13.4084C16.8953 8.64835 10.3737 8.39169 11.9487 1.47335C12.0653 0.960021 11.517 0.563355 11.0737 0.831688C6.83866 3.32835 3.79366 8.33335 6.34866 14.89C6.55866 15.4267 5.92866 15.9284 5.47366 15.5784C3.36199 13.98 3.14033 11.6817 3.32699 10.0367C3.39699 9.43002 2.60366 9.13835 2.26533 9.64002C1.47199 10.8534 0.666992 12.8134 0.666992 15.765C1.11033 22.2984 6.62866 24.305 8.61199 24.5617C11.447 24.9234 14.5153 24.3984 16.7203 22.38C19.147 20.1284 20.0337 16.535 18.727 13.4084ZM7.90033 19.2767C9.58033 18.8684 10.4437 17.655 10.677 16.5817C11.062 14.9134 9.55699 13.28 10.572 10.6434C10.957 12.825 14.387 14.19 14.387 16.57C14.4803 19.5217 11.2837 22.0534 7.90033 19.2767Z" fill="#FF2323"/>
</svg>
