<svg width="48" height="48" viewBox="0 0 48 48" fill="none" xmlns="http://www.w3.org/2000/svg">
<path fill-rule="evenodd" clip-rule="evenodd" d="M24 6C24.6 6 25.2 6.2 25.6 6.8L33.6 16.8C33.7576 17.0101 33.8722 17.2492 33.9374 17.5036C34.0026 17.7581 34.017 18.0228 33.9799 18.2828C33.9428 18.5428 33.8548 18.793 33.7209 19.019C33.5871 19.245 33.4101 19.4424 33.2 19.6C32.9899 19.7576 32.7508 19.8722 32.4964 19.9374C32.2419 20.0026 31.9772 20.017 31.7172 19.9799C31.4572 19.9428 31.207 19.8548 30.981 19.7209C30.755 19.5871 30.5576 19.4101 30.4 19.2L26 14V28C26 28.5304 25.7893 29.0391 25.4142 29.4142C25.0391 29.7893 24.5304 30 24 30C23.4696 30 22.9609 29.7893 22.5858 29.4142C22.2107 29.0391 22 28.5304 22 28V13.8L17.6 19.2C17.4424 19.4101 17.245 19.5871 17.019 19.7209C16.793 19.8548 16.5428 19.9428 16.2828 19.9799C16.0228 20.017 15.7581 20.0026 15.5036 19.9374C15.2492 19.8722 15.0101 19.7576 14.8 19.6C14.5899 19.4424 14.4129 19.245 14.2791 19.019C14.1452 18.793 14.0572 18.5428 14.0201 18.2828C13.983 18.0228 13.9974 17.7581 14.0626 17.5036C14.1278 17.2492 14.2424 17.0101 14.4 16.8L22.4 6.8C22.8 6.2 23.4 6 24 6ZM18 28V26H10C8.93913 26 7.92172 26.4214 7.17157 27.1716C6.42143 27.9217 6 28.9391 6 30V38C6 40.2 7.8 42 10 42H38C39.0609 42 40.0783 41.5786 40.8284 40.8284C41.5786 40.0783 42 39.0609 42 38V30C42 28.9391 41.5786 27.9217 40.8284 27.1716C40.0783 26.4214 39.0609 26 38 26H30V28C30 29.5913 29.3679 31.1174 28.2426 32.2426C27.1174 33.3679 25.5913 34 24 34C22.4087 34 20.8826 33.3679 19.7574 32.2426C18.6321 31.1174 18 29.5913 18 28ZM34 32C33.4696 32 32.9609 32.2107 32.5858 32.5858C32.2107 32.9609 32 33.4696 32 34C32 34.5304 32.2107 35.0391 32.5858 35.4142C32.9609 35.7893 33.4696 36 34 36C34.5304 36 35.0391 35.7893 35.4142 35.4142C35.7893 35.0391 36 34.5304 36 34C36 33.4696 35.7893 32.9609 35.4142 32.5858C35.0391 32.2107 34.5304 32 34 32Z" fill="#1376B9"/>
</svg>
