<svg width="18" height="18" viewBox="0 0 15 13" fill="none" xmlns="http://www.w3.org/2000/svg">
<path d="M3.52655 7.11808C3.76489 6.89938 4.07659 6.77804 4.40006 6.77804C4.72353 6.77804 5.03523 6.89938 5.27357 7.11808L7.04496 8.74321L10.6203 5.36294C10.8613 5.14311 11.1757 5.02124 11.5019 5.02124C11.8281 5.02124 12.1425 5.14311 12.3835 5.36294L15 7.71125V2.13705C15.0011 1.85679 14.9468 1.57908 14.8403 1.31985C14.7338 1.06062 14.5771 0.824967 14.3793 0.626417C14.1815 0.427867 13.9465 0.270325 13.6876 0.162828C13.4288 0.0553323 13.1513 -2.04135e-06 12.8711 0H2.12894C1.84868 -2.04135e-06 1.57118 0.0553323 1.31235 0.162828C1.05353 0.270325 0.818478 0.427867 0.620682 0.626417C0.422887 0.824967 0.266241 1.06062 0.159732 1.31985C0.0532227 1.57908 -0.00105418 1.85679 1.55084e-05 2.13705V9.89706C1.55084e-05 10.0027 1.55084e-05 10.1002 1.55084e-05 10.2058L3.52655 7.11808ZM6.49242 1.72264C6.8283 1.72264 7.15665 1.82224 7.43592 2.00885C7.7152 2.19546 7.93287 2.46069 8.06141 2.77101C8.18995 3.08132 8.22358 3.42279 8.15805 3.75222C8.09252 4.08165 7.93078 4.38425 7.69327 4.62176C7.45577 4.85926 7.15316 5.02101 6.82373 5.08653C6.4943 5.15206 6.15284 5.11843 5.84252 4.98989C5.5322 4.86136 5.26697 4.64369 5.08036 4.36441C4.89376 4.08513 4.79416 3.75679 4.79416 3.4209C4.79629 2.97115 4.9759 2.54043 5.29393 2.22241C5.61195 1.90439 6.04267 1.72478 6.49242 1.72264Z" fill="url(#paint0_linear_1024_11432)"/>
<path d="M6.49247 4.14363C6.6355 4.14363 6.77532 4.10122 6.89425 4.02175C7.01318 3.94229 7.10587 3.82934 7.16061 3.6972C7.21534 3.56506 7.22966 3.41965 7.20176 3.27936C7.17386 3.13908 7.10498 3.01022 7.00384 2.90908C6.9027 2.80794 6.77384 2.73907 6.63356 2.71116C6.49327 2.68326 6.34787 2.69758 6.21572 2.75231C6.08358 2.80705 5.97063 2.89974 5.89117 3.01867C5.8117 3.1376 5.76929 3.27742 5.76929 3.42045C5.76929 3.61225 5.84548 3.79619 5.9811 3.93182C6.11673 4.06744 6.30067 4.14363 6.49247 4.14363Z" fill="url(#paint1_linear_1024_11432)"/>
<path d="M14.5774 8.66206L11.7334 6.11061C11.6735 6.05579 11.5952 6.02539 11.514 6.02539C11.4328 6.02539 11.3545 6.05579 11.2946 6.11061L7.37806 9.80778C7.28867 9.89417 7.16922 9.94245 7.04491 9.94245C6.9206 9.94245 6.80115 9.89417 6.71176 9.80778L4.60721 7.8495C4.54863 7.79524 4.47173 7.7651 4.39188 7.7651C4.31204 7.7651 4.23513 7.79524 4.17655 7.8495L0.674392 10.9372C0.58391 11.0151 0.468725 11.0583 0.349365 11.0591C0.543103 11.3566 0.808135 11.6008 1.12035 11.7697C1.43256 11.9386 1.78205 12.0267 2.13701 12.0261H12.871C13.1506 12.0261 13.4274 11.971 13.6857 11.864C13.944 11.757 14.1787 11.6002 14.3764 11.4025C14.5741 11.2049 14.7309 10.9702 14.8379 10.7119C14.9449 10.4536 14.9999 10.1767 14.9999 9.89717V8.7677C14.9262 8.7847 14.8494 8.78399 14.776 8.76563C14.7025 8.74727 14.6345 8.71178 14.5774 8.66206Z" fill="url(#paint2_linear_1024_11432)"/>
<defs>
<linearGradient id="paint0_linear_1024_11432" x1="7.5" y1="-3.3513e-07" x2="15.4245" y2="44.4473" gradientUnits="userSpaceOnUse">
<stop stop-color="white"/>
<stop offset="1" stop-color="#A8A7AD"/>
</linearGradient>
<linearGradient id="paint1_linear_1024_11432" x1="6.49247" y1="2.69727" x2="8.08612" y2="8.77896" gradientUnits="userSpaceOnUse">
<stop stop-color="white"/>
<stop offset="1" stop-color="#A8A7AD"/>
</linearGradient>
<linearGradient id="paint2_linear_1024_11432" x1="7.67465" y1="6.02539" x2="10.5357" y2="32.6826" gradientUnits="userSpaceOnUse">
<stop stop-color="white"/>
<stop offset="1" stop-color="#A8A7AD"/>
</linearGradient>
</defs>
</svg>
