<svg xmlns="http://www.w3.org/2000/svg" width="20" height="20" viewBox="0 0 20 20" fill="none">
  <g clip-path="url(#clip0_245_245)">
    <path fill-rule="evenodd" clip-rule="evenodd" d="M14.1702 1.04424C14.4245 -0.121472 16.0845 -0.128615 16.3516 1.03424L16.3631 1.08853L16.3874 1.19138C16.5288 1.79444 16.8444 2.34257 17.295 2.76754C17.7457 3.19251 18.3113 3.47554 18.9216 3.58138C20.1388 3.79424 20.1388 5.54138 18.9216 5.75281C18.3079 5.85941 17.7393 6.14506 17.2873 6.57386C16.8354 7.00265 16.5203 7.55546 16.3816 8.16281L16.3516 8.29996C16.0859 9.46424 14.4245 9.4571 14.1702 8.28996L14.1431 8.17281C14.0096 7.56376 13.6979 7.00823 13.2476 6.57699C12.7973 6.14576 12.2288 5.85835 11.6145 5.75138C10.4002 5.53996 10.4002 3.79424 11.6145 3.58424C12.227 3.47782 12.7941 3.19198 13.244 2.76295C13.6939 2.33392 14.0063 1.78099 14.1416 1.17424L14.1602 1.08853L14.1702 1.04424ZM1.57878 0.244242C1.39538 0.244054 1.21373 0.280017 1.04423 0.350074C0.874728 0.420131 0.720697 0.522909 0.590942 0.652532C0.461186 0.782154 0.358251 0.93608 0.28802 1.10551C0.21779 1.27494 0.181641 1.45655 0.181641 1.63996V7.57138C0.181641 8.34281 0.807356 8.9671 1.57878 8.9671H7.51164C8.28307 8.9671 8.90736 8.34281 8.90736 7.57138V1.63996C8.90755 1.45655 8.87158 1.2749 8.80152 1.1054C8.73147 0.9359 8.62869 0.781869 8.49907 0.652113C8.36944 0.522358 8.21552 0.419423 8.04609 0.349192C7.87666 0.278962 7.69505 0.242813 7.51164 0.242813L1.57878 0.244242ZM0.181641 12.4871C0.181641 11.7157 0.807356 11.0914 1.57878 11.0914H7.51164C8.28307 11.0914 8.90736 11.7157 8.90736 12.4871V18.42C8.90736 19.1914 8.28307 19.8171 7.51164 19.8171H1.57878C1.39526 19.8173 1.21349 19.7813 1.0439 19.7111C0.874304 19.641 0.72021 19.5381 0.590436 19.4083C0.460662 19.2785 0.357756 19.1244 0.28761 18.9548C0.217463 18.7852 0.181453 18.6035 0.181641 18.42V12.4871ZM11.0316 12.4871C11.0316 11.7157 11.6559 11.0914 12.4274 11.0914H18.3602C19.1316 11.0914 19.7574 11.7157 19.7574 12.4871V18.42C19.7574 19.1914 19.1316 19.8171 18.3602 19.8171H12.4288C12.2454 19.8171 12.0638 19.781 11.8943 19.7107C11.7249 19.6405 11.571 19.5376 11.4414 19.4078C11.3117 19.278 11.209 19.124 11.1389 18.9545C11.0688 18.785 11.0329 18.6034 11.0331 18.42V12.4885L11.0316 12.4871Z" fill="#83D9FF"/>
  </g>
  <defs>
    <clipPath id="clip0_245_245">
      <rect width="20" height="20" fill="white"/>
    </clipPath>
  </defs>
</svg>