<svg width="35" height="34" viewBox="0 0 35 34" fill="none" xmlns="http://www.w3.org/2000/svg">
<rect width="34.3736" height="34" rx="17" fill="white"/>
<path d="M22.9439 11.4004C20.9596 9.99151 18.5093 10.649 17.1864 12.2614C15.8636 10.649 13.4132 9.98369 11.4289 11.4004C10.3766 12.1518 9.71519 13.4198 9.67009 14.7582C9.56486 17.7952 12.1505 20.2294 16.0966 23.963L16.1717 24.0334C16.743 24.5735 17.6224 24.5735 18.1936 24.0256L18.2763 23.9473C22.2224 20.2216 24.8005 17.7874 24.7028 14.7504C24.6577 13.4198 23.9962 12.1518 22.9439 11.4004ZM17.2616 22.7967L17.1864 22.875L17.1113 22.7967C13.5335 19.4232 11.1734 17.1925 11.1734 14.9304C11.1734 13.365 12.3008 12.1909 13.8041 12.1909C14.9616 12.1909 16.089 12.9658 16.4874 14.0381H17.893C18.2838 12.9658 19.4113 12.1909 20.5688 12.1909C22.0721 12.1909 23.1995 13.365 23.1995 14.9304C23.1995 17.1925 20.8394 19.4232 17.2616 22.7967Z" fill="#197BBD"/>
</svg>
