<svg width="100" height="100" viewBox="0 0 308 205" fill="none" xmlns="http://www.w3.org/2000/svg">
<rect x="3" y="3" width="302" height="199" rx="15" fill="#CCEAFF" stroke="#197BBD" stroke-width="6"/>
<path opacity="0.3" d="M101.625 152.375H201.375V52.625H101.625V152.375ZM130.125 110.623L145.373 129.005L166.748 101.431L194.25 138.125H108.75L130.125 110.623Z" fill="#3B8CC2"/>
<path d="M201.375 38.375H101.625C93.7875 38.375 87.375 44.7875 87.375 52.625V152.375C87.375 160.213 93.7875 166.625 101.625 166.625H201.375C209.213 166.625 215.625 160.213 215.625 152.375V52.625C215.625 44.7875 209.213 38.375 201.375 38.375ZM201.375 152.375H101.625V52.625H201.375V152.375ZM166.748 101.502L145.373 129.005L130.125 110.623L108.75 138.125H194.25L166.748 101.502Z" fill="#3B8CC2"/>
</svg>
