<svg width="20" height="28" viewBox="0 0 34 34" fill="none" xmlns="http://www.w3.org/2000/svg">
<g id="Icon">
<path id="Vector" d="M26.3839 29.375H25.3571V6.21875C25.3571 5.54564 24.8055 5 24.125 5H6.875C6.1945 5 5.64286 5.54564 5.64286 6.21875V29.375H4.61607C4.27585 29.375 4 29.6478 4 29.9844V31H27V29.9844C27 29.6478 26.7242 29.375 26.3839 29.375ZM10.5714 8.85938C10.5714 8.52285 10.8473 8.25 11.1875 8.25H13.2411C13.5813 8.25 13.8571 8.52285 13.8571 8.85938V10.8906C13.8571 11.2272 13.5813 11.5 13.2411 11.5H11.1875C10.8473 11.5 10.5714 11.2272 10.5714 10.8906V8.85938ZM10.5714 13.7344C10.5714 13.3978 10.8473 13.125 11.1875 13.125H13.2411C13.5813 13.125 13.8571 13.3978 13.8571 13.7344V15.7656C13.8571 16.1022 13.5813 16.375 13.2411 16.375H11.1875C10.8473 16.375 10.5714 16.1022 10.5714 15.7656V13.7344ZM13.2411 21.25H11.1875C10.8473 21.25 10.5714 20.9772 10.5714 20.6406V18.6094C10.5714 18.2728 10.8473 18 11.1875 18H13.2411C13.5813 18 13.8571 18.2728 13.8571 18.6094V20.6406C13.8571 20.9772 13.5813 21.25 13.2411 21.25ZM17.1429 29.375H13.8571V25.1094C13.8571 24.7728 14.133 24.5 14.4732 24.5H16.5268C16.867 24.5 17.1429 24.7728 17.1429 25.1094V29.375ZM20.4286 20.6406C20.4286 20.9772 20.1527 21.25 19.8125 21.25H17.7589C17.4187 21.25 17.1429 20.9772 17.1429 20.6406V18.6094C17.1429 18.2728 17.4187 18 17.7589 18H19.8125C20.1527 18 20.4286 18.2728 20.4286 18.6094V20.6406ZM20.4286 15.7656C20.4286 16.1022 20.1527 16.375 19.8125 16.375H17.7589C17.4187 16.375 17.1429 16.1022 17.1429 15.7656V13.7344C17.1429 13.3978 17.4187 13.125 17.7589 13.125H19.8125C20.1527 13.125 20.4286 13.3978 20.4286 13.7344V15.7656ZM20.4286 10.8906C20.4286 11.2272 20.1527 11.5 19.8125 11.5H17.7589C17.4187 11.5 17.1429 11.2272 17.1429 10.8906V8.85938C17.1429 8.52285 17.4187 8.25 17.7589 8.25H19.8125C20.1527 8.25 20.4286 8.52285 20.4286 8.85938V10.8906Z" fill="#1376B9"/>
</g>
</svg>
