<svg xmlns="http://www.w3.org/2000/svg" xmlns:xlink="http://www.w3.org/1999/xlink" width="28px" height="28px" viewBox="0 0 28 28" version="1.1">
<g id="surface1">
<path style=" stroke:none;fill-rule:nonzero;fill:rgb(7.45098%,46.666667%,72.54902%);fill-opacity:1;" d="M 15.121094 5.039062 C 15.730469 5.355469 16.332031 5.683594 16.929688 6.027344 C 17.097656 6.121094 17.265625 6.214844 17.4375 6.3125 C 17.789062 6.515625 18.136719 6.71875 18.488281 6.917969 C 19.019531 7.226562 19.550781 7.527344 20.082031 7.832031 C 20.757812 8.214844 21.425781 8.609375 22.089844 9.007812 C 22.914062 9.511719 22.914062 9.511719 23.636719 9.832031 C 24.175781 10.105469 24.175781 10.105469 24.921875 10.921875 C 25.160156 12.300781 25.117188 13.65625 25.058594 15.050781 C 25.050781 15.433594 25.046875 15.816406 25.039062 16.199219 C 24.980469 18.980469 24.980469 18.980469 24.640625 19.320312 C 23.957031 19.371094 23.957031 19.371094 23.238281 19.320312 C 22.558594 18.636719 22.601562 18.421875 22.5625 17.480469 C 22.554688 17.230469 22.542969 16.980469 22.53125 16.71875 C 22.523438 16.457031 22.515625 16.195312 22.503906 15.925781 C 22.496094 15.660156 22.484375 15.394531 22.472656 15.125 C 22.445312 14.46875 22.421875 13.816406 22.398438 13.160156 C 21.144531 13.308594 20.285156 13.617188 19.207031 14.273438 C 18.789062 14.519531 18.789062 14.519531 18.363281 14.773438 C 17.789062 15.121094 17.210938 15.472656 16.636719 15.824219 C 16.21875 16.070312 16.21875 16.070312 15.792969 16.320312 C 15.417969 16.550781 15.417969 16.550781 15.035156 16.78125 C 14.074219 17.160156 13.585938 17.078125 12.601562 16.800781 C 11.796875 16.429688 11.796875 16.429688 10.972656 15.964844 C 10.519531 15.710938 10.519531 15.710938 10.058594 15.449219 C 9.59375 15.183594 9.59375 15.183594 9.117188 14.910156 C 8.808594 14.734375 8.496094 14.5625 8.179688 14.382812 C 7.3125 13.890625 6.453125 13.390625 5.601562 12.878906 C 5.382812 12.75 5.167969 12.621094 4.945312 12.488281 C 4.398438 12.140625 4.398438 12.140625 3.640625 11.480469 C 3.507812 10.796875 3.507812 10.796875 3.640625 10.078125 C 4.207031 9.585938 4.207031 9.585938 5 9.144531 C 5.289062 8.980469 5.582031 8.816406 5.878906 8.644531 C 6.183594 8.476562 6.492188 8.308594 6.808594 8.136719 C 7.25 7.886719 7.25 7.886719 7.699219 7.632812 C 8.292969 7.300781 8.886719 6.96875 9.480469 6.644531 C 10.066406 6.324219 10.640625 5.988281 11.210938 5.640625 C 11.609375 5.40625 11.609375 5.40625 12.015625 5.160156 C 12.367188 4.945312 12.367188 4.945312 12.726562 4.722656 C 13.71875 4.382812 14.171875 4.617188 15.121094 5.039062 Z M 15.121094 5.039062 "/>
<path style=" stroke:none;fill-rule:nonzero;fill:rgb(7.45098%,46.666667%,72.54902%);fill-opacity:1;" d="M 7 15.960938 C 8.789062 16.109375 10.023438 16.96875 11.5 17.902344 C 12.386719 18.433594 12.957031 18.753906 14 18.777344 C 15.335938 18.304688 16.488281 17.566406 17.6875 16.816406 C 19.136719 15.953125 19.136719 15.953125 20.140625 15.988281 C 20.71875 16.238281 20.71875 16.238281 21 16.800781 C 21.195312 18.796875 21.195312 18.796875 20.457031 19.710938 C 19.410156 20.675781 18.183594 21.371094 16.957031 22.085938 C 16.722656 22.226562 16.492188 22.371094 16.25 22.519531 C 14.554688 23.507812 14.554688 23.507812 13.421875 23.554688 C 12.273438 23.117188 11.25 22.542969 10.203125 21.910156 C 9.996094 21.789062 9.785156 21.667969 9.574219 21.542969 C 6.640625 19.800781 6.640625 19.800781 6.285156 18.441406 C 6.347656 17.398438 6.410156 16.847656 7 15.960938 Z M 7 15.960938 "/>
</g>
</svg>
