<svg width="24" height="24" viewBox="0 0 24 24" fill="none" xmlns="http://www.w3.org/2000/svg">
<g id="bxs:up-arrow">
<path id="Vector" d="M19 21L19 3.00004C18.9994 2.81779 18.9492 2.63916 18.8546 2.48336C18.7601 2.32756 18.6248 2.20049 18.4635 2.11584C18.3021 2.03119 18.1207 1.99215 17.9387 2.00293C17.7568 2.01372 17.5813 2.07391 17.431 2.17704L4.43101 11.177C3.89201 11.55 3.89201 12.448 4.43101 12.822L17.431 21.822C17.581 21.9262 17.7566 21.9873 17.9388 21.9987C18.121 22.01 18.3029 21.9713 18.4646 21.8865C18.6263 21.8018 18.7618 21.6744 18.8562 21.5181C18.9505 21.3618 19.0003 21.1826 19 21Z" fill="#4D9ED5"/>
</g>
</svg>
