<svg width="24" height="24" viewBox="0 0 24 24" fill="none" xmlns="http://www.w3.org/2000/svg">
<path d="M20 14L21.2929 12.7071C21.6834 12.3166 21.6834 11.6834 21.2929 11.2929L20 10" stroke="#333333" stroke-width="1.5" stroke-linecap="round" stroke-linejoin="round"/>
<path d="M20.75 12.125H12.8553M5.94737 4.25C3.7673 4.25 2 6.01288 2 8.1875V16.0625C2 18.2371 3.7673 20 5.94737 20M5.94737 4.25C8.12744 4.25 9.89474 6.01288 9.89474 8.1875V16.0625C9.89474 18.2371 8.12744 20 5.94737 20M5.94737 4.25H13.8421C16.0222 4.25 17.7895 6.01288 17.7895 8.1875M5.94737 20H13.8421C16.0222 20 17.7895 18.2371 17.7895 16.0625" stroke="#333333" stroke-width="1.5" stroke-linecap="round"/>
</svg>
