<svg width="16" height="16" viewBox="0 0 16 16" fill="none" xmlns="http://www.w3.org/2000/svg">
<path d="M15.1928 12.9392L12.7295 1.22752C12.6976 1.07436 12.6358 0.929009 12.5476 0.799811C12.4594 0.670613 12.3465 0.560116 12.2155 0.474666C12.0844 0.389217 11.9378 0.330501 11.784 0.30189C11.6302 0.273279 11.4723 0.275338 11.3193 0.307948L7.84512 1.05459C7.53781 1.12188 7.26951 1.30777 7.09855 1.57185C6.9276 1.83593 6.86782 2.15683 6.93223 2.46474L9.39555 14.1765C9.45044 14.4437 9.59566 14.6838 9.80678 14.8566C10.0179 15.0293 10.2821 15.1241 10.5548 15.125C10.6392 15.1249 10.7232 15.1159 10.8057 15.0983L14.2799 14.3516C14.5876 14.2842 14.8561 14.0979 15.0271 13.8334C15.1981 13.5688 15.2576 13.2475 15.1928 12.9392ZM8.09375 2.22205V2.21537L11.5672 1.47318L11.8143 2.65103L8.3409 3.39842L8.09375 2.22205ZM8.83594 5.73853L8.5873 4.55846L12.0622 3.81182L12.3101 4.99189L8.83594 5.73853ZM14.0312 13.1908L10.5578 13.933L10.3107 12.7552L13.7841 12.0078L14.0312 13.1842V13.1908ZM5.71875 0.874979H2.15625C1.84131 0.874979 1.53926 1.00009 1.31656 1.22279C1.09386 1.44549 0.96875 1.74753 0.96875 2.06248V13.9375C0.96875 14.2524 1.09386 14.5545 1.31656 14.7772C1.53926 14.9999 1.84131 15.125 2.15625 15.125H5.71875C6.03369 15.125 6.33574 14.9999 6.55844 14.7772C6.78114 14.5545 6.90625 14.2524 6.90625 13.9375V2.06248C6.90625 1.74753 6.78114 1.44549 6.55844 1.22279C6.33574 1.00009 6.03369 0.874979 5.71875 0.874979ZM2.15625 2.06248H5.71875V3.24998H2.15625V2.06248ZM5.71875 13.9375H2.15625V12.75H5.71875V13.9375Z" fill="#2F9E3C"/>
</svg>
