<svg width="19" height="20" viewBox="0 0 19 20" fill="none" xmlns="http://www.w3.org/2000/svg">
<path fill-rule="evenodd" clip-rule="evenodd" d="M0.782344 2.39124C0.656722 2.24457 0.575784 2.06495 0.549121 1.87369C0.522459 1.68242 0.551191 1.48751 0.631912 1.31208C0.712632 1.13664 0.841957 0.98802 1.00456 0.883834C1.16716 0.779648 1.35623 0.724263 1.54934 0.724243H14.0273C14.6183 0.724243 15.2035 0.840639 15.7494 1.06679C16.2954 1.29293 16.7915 1.6244 17.2093 2.04226C17.6272 2.46013 17.9587 2.9562 18.1848 3.50217C18.4109 4.04813 18.5273 4.63329 18.5273 5.22424C18.5273 5.81519 18.4109 6.40035 18.1848 6.94632C17.9587 7.49228 17.6272 7.98836 17.2093 8.40622C16.7915 8.82409 16.2954 9.15556 15.7494 9.3817C15.2035 9.60785 14.6183 9.72424 14.0273 9.72424H1.54934C1.35623 9.72422 1.16716 9.66884 1.00456 9.56465C0.841957 9.46047 0.712632 9.31185 0.631912 9.13641C0.551191 8.96097 0.522459 8.76607 0.549121 8.5748C0.575784 8.38353 0.656722 8.20392 0.782344 8.05724L1.53634 7.17724C2.00246 6.6335 2.25868 5.94093 2.25868 5.22474C2.25868 4.50855 2.00246 3.81599 1.53634 3.27224L0.782344 2.39124ZM0.527344 15.2242C0.527344 14.0308 1.00145 12.8862 1.84536 12.0423C2.68928 11.1983 3.83387 10.7242 5.02734 10.7242H17.5053C17.6985 10.7243 17.8875 10.7796 18.0501 10.8838C18.2127 10.988 18.3421 11.1366 18.4228 11.3121C18.5035 11.4875 18.5322 11.6824 18.5056 11.8737C18.4789 12.065 18.398 12.2446 18.2723 12.3912L17.5173 13.2712C17.0512 13.815 16.795 14.5076 16.795 15.2237C16.795 15.9399 17.0512 16.6325 17.5173 17.1762L18.2723 18.0562C18.3983 18.2029 18.4795 18.3826 18.5063 18.574C18.5332 18.7655 18.5045 18.9606 18.4237 19.1362C18.343 19.3118 18.2135 19.4606 18.0507 19.5648C17.8879 19.6691 17.6986 19.7244 17.5053 19.7242H5.02734C3.83387 19.7242 2.68928 19.2501 1.84536 18.4062C1.00145 17.5623 0.527344 16.4177 0.527344 15.2242Z" fill="#1376B9"/>
</svg>
