<svg width="19" height="20" viewBox="0 0 19 20" fill="none" xmlns="http://www.w3.org/2000/svg">
<path fill-rule="evenodd" clip-rule="evenodd" d="M0.782344 2.39112C0.656722 2.24445 0.575784 2.06483 0.549121 1.87356C0.522459 1.6823 0.551191 1.48739 0.631912 1.31195C0.712632 1.13652 0.841957 0.987898 1.00456 0.883712C1.16716 0.779526 1.35623 0.724141 1.54934 0.724121H14.0273C14.6183 0.724121 15.2035 0.840517 15.7494 1.06666C16.2954 1.29281 16.7915 1.62428 17.2093 2.04214C17.6272 2.46 17.9587 2.95608 18.1848 3.50205C18.4109 4.04801 18.5273 4.63317 18.5273 5.22412C18.5273 5.81507 18.4109 6.40023 18.1848 6.9462C17.9587 7.49216 17.6272 7.98824 17.2093 8.4061C16.7915 8.82397 16.2954 9.15543 15.7494 9.38158C15.2035 9.60773 14.6183 9.72412 14.0273 9.72412H1.54934C1.35623 9.7241 1.16716 9.66872 1.00456 9.56453C0.841957 9.46034 0.712632 9.31173 0.631912 9.13629C0.551191 8.96085 0.522459 8.76595 0.549121 8.57468C0.575784 8.38341 0.656722 8.2038 0.782344 8.05712L1.53634 7.17712C2.00246 6.63337 2.25868 5.94081 2.25868 5.22462C2.25868 4.50843 2.00246 3.81587 1.53634 3.27212L0.782344 2.39112ZM0.527344 15.2241C0.527344 14.0306 1.00145 12.8861 1.84536 12.0421C2.68928 11.1982 3.83387 10.7241 5.02734 10.7241H17.5053C17.6985 10.7241 17.8875 10.7795 18.0501 10.8837C18.2127 10.9879 18.3421 11.1365 18.4228 11.312C18.5035 11.4874 18.5322 11.6823 18.5056 11.8736C18.4789 12.0648 18.398 12.2444 18.2723 12.3911L17.5173 13.2711C17.0512 13.8149 16.795 14.5074 16.795 15.2236C16.795 15.9398 17.0512 16.6324 17.5173 17.1761L18.2723 18.0561C18.3983 18.2028 18.4795 18.3825 18.5063 18.5739C18.5332 18.7653 18.5045 18.9605 18.4237 19.1361C18.343 19.3117 18.2135 19.4605 18.0507 19.5647C17.8879 19.6689 17.6986 19.7243 17.5053 19.7241H5.02734C3.83387 19.7241 2.68928 19.25 1.84536 18.4061C1.00145 17.5622 0.527344 16.4176 0.527344 15.2241Z" fill="#1376B9"/>
</svg>
