<svg width="59" height="73" viewBox="0 0 59 73" fill="none" xmlns="http://www.w3.org/2000/svg">
<path d="M46.1042 8.41961L19.1493 19.4495C7.44091 24.2405 3.31712 34.0767 8.10814 45.785L19.1248 72.7077C23.929 84.4483 33.7652 88.572 45.4735 83.781L72.3963 72.7643C84.1046 67.9733 88.2284 58.1371 83.4374 46.4288L72.4075 19.4739C67.6487 7.75238 57.8125 3.62859 46.1042 8.41961ZM50.1185 65.5829C51.433 66.134 52.0648 67.6779 51.5137 68.9924C51.2287 69.6724 50.7097 70.1476 50.0985 70.3977C49.4874 70.6478 48.7841 70.6727 48.1042 70.3876L40.3078 67.119L37.0391 74.9154C36.7409 75.5632 36.2351 76.0706 35.6239 76.3206C35.0128 76.5707 34.3095 76.5956 33.6296 76.3106C32.315 75.7595 31.6833 74.2155 32.2344 72.901L35.503 65.1046L27.7066 61.836C26.3921 61.2849 25.7603 59.7409 26.3114 58.4264C26.8625 57.1119 28.4065 56.4801 29.721 57.0312L37.5174 60.2999L40.786 52.5035C41.3371 51.1889 42.8811 50.5572 44.1956 51.1083C45.5101 51.6594 46.1419 53.2033 45.5908 54.5178L42.3221 62.3142L50.1185 65.5829ZM36.7653 37.8138L22.2907 43.7367C20.9719 44.2764 19.4307 43.6302 18.8911 42.3114C18.3514 40.9926 18.9975 39.4515 20.3163 38.9118L34.7909 32.9889C36.1097 32.4492 37.6509 33.0954 38.1905 34.4142C38.7302 35.733 38.0841 37.2741 36.7653 37.8138ZM73.7227 59.3038L59.2481 65.2267C57.9293 65.7664 56.3881 65.1203 55.8485 63.8015C55.3088 62.4827 55.955 60.9415 57.2738 60.4019L71.7484 54.4789C73.0671 53.9393 74.6083 54.5854 75.1479 55.9042C75.6876 57.223 75.0415 58.7641 73.7227 59.3038ZM68.7869 47.2416L54.3123 53.1646C52.9935 53.7042 51.4523 53.0581 50.9127 51.7393C50.373 50.4205 51.0192 48.8794 52.338 48.3397L66.8126 42.4168C68.1314 41.8771 69.6725 42.5232 70.2121 43.842C70.7518 45.1608 70.1057 46.702 68.7869 47.2416ZM60.8896 27.9422L56.1291 29.8901L58.1034 34.715C58.643 36.0338 57.9969 37.575 56.6781 38.1146C55.3593 38.6543 53.8182 38.0081 53.2785 36.6893L51.3042 31.8645L46.415 33.8651C45.0962 34.4048 43.555 33.7586 43.0154 32.4398C42.4758 31.121 43.1219 29.5799 44.4407 29.0402L49.3299 27.0396L47.3556 22.2147C46.8159 20.8959 47.462 19.3548 48.7808 18.8151C50.0996 18.2755 51.6408 18.9216 52.1804 20.2404L54.1547 25.0653L58.9153 23.1173C60.2341 22.5776 61.7752 23.2238 62.3149 24.5426C62.8545 25.8614 62.2084 27.4025 60.8896 27.9422Z" fill="#FCAEB7" fill-opacity="0.12"/>
</svg>
