<svg width="40" height="39" viewBox="0 0 40 39" fill="none" xmlns="http://www.w3.org/2000/svg">
<path d="M35.4375 6.98937C35.3823 6.96695 35.3215 6.96106 35.2628 6.97246C35.2042 6.98385 35.1503 7.01201 35.1081 7.05335L7.23312 34.2315C7.1908 34.2726 7.16196 34.3251 7.15026 34.3822C7.13855 34.4394 7.1445 34.4986 7.16736 34.5525C7.19022 34.6063 7.22895 34.6523 7.27866 34.6847C7.32836 34.717 7.38679 34.7343 7.44656 34.7342H35.3216C35.4017 34.7341 35.4785 34.7031 35.5351 34.6478C35.5918 34.5926 35.6237 34.5177 35.6237 34.4396V7.26146C35.6239 7.20321 35.6062 7.14624 35.5731 7.09779C35.5399 7.04935 35.4927 7.01161 35.4375 6.98937ZM30.7347 29.6712C30.7346 29.7493 30.7027 29.8242 30.6461 29.8795C30.5894 29.9347 30.5126 29.9658 30.4325 29.9659H19.2544C19.1946 29.9659 19.1362 29.9487 19.0865 29.9163C19.0368 29.8839 18.998 29.8379 18.9752 29.7841C18.9523 29.7303 18.9464 29.671 18.9581 29.6139C18.9698 29.5567 18.9986 29.5043 19.0409 29.4631L30.2187 18.5644C30.261 18.5233 30.3148 18.4954 30.3734 18.484C30.4319 18.4727 30.4926 18.4785 30.5478 18.5008C30.6029 18.5231 30.6501 18.5607 30.6833 18.6091C30.7165 18.6575 30.7343 18.7143 30.7344 18.7725L30.7347 29.6712Z" fill="url(#paint0_linear_1023_7872)"/>
<path d="M17.9428 32.9036C17.9428 32.7473 17.8792 32.5975 17.7658 32.487C17.6525 32.3765 17.4988 32.3145 17.3386 32.3145C17.1783 32.3145 17.0247 32.3765 16.9113 32.487C16.798 32.5975 16.7344 32.7473 16.7344 32.9036V34.7344H17.9428V32.9036Z" fill="url(#paint1_linear_1023_7872)"/>
<path d="M20.4975 32.1755C20.4939 32.0216 20.4287 31.8751 20.3158 31.7675C20.2028 31.6599 20.0512 31.5996 19.8933 31.5996C19.7354 31.5996 19.5837 31.6599 19.4708 31.7675C19.3579 31.8751 19.2927 32.0216 19.2891 32.1755V34.7349H20.4975V32.1755Z" fill="url(#paint2_linear_1023_7872)"/>
<path d="M15.3881 32.1751C15.3881 32.0188 15.3245 31.869 15.2112 31.7585C15.0978 31.648 14.9442 31.5859 14.7839 31.5859C14.6237 31.5859 14.47 31.648 14.3567 31.7585C14.2433 31.869 14.1797 32.0188 14.1797 32.1751V34.7344H15.3881V32.1751Z" fill="url(#paint3_linear_1023_7872)"/>
<path d="M12.8334 34.7344V32.9036C12.8334 32.7473 12.7698 32.5975 12.6565 32.487C12.5432 32.3765 12.3895 32.3145 12.2292 32.3145C12.069 32.3145 11.9153 32.3765 11.802 32.487C11.6887 32.5975 11.625 32.7473 11.625 32.9036V34.7344H12.8334Z" fill="url(#paint4_linear_1023_7872)"/>
<path d="M23.0483 32.9036C23.0483 32.7473 22.9846 32.5975 22.8713 32.487C22.758 32.3765 22.6043 32.3145 22.4441 32.3145C22.2838 32.3145 22.1301 32.3765 22.0168 32.487C21.9035 32.5975 21.8398 32.7473 21.8398 32.9036V34.7344H23.0483V32.9036Z" fill="url(#paint5_linear_1023_7872)"/>
<path d="M30.7123 32.1751C30.7123 32.0188 30.6487 31.869 30.5354 31.7585C30.4221 31.648 30.2684 31.5859 30.1081 31.5859C29.9479 31.5859 29.7942 31.648 29.6809 31.7585C29.5676 31.869 29.5039 32.0188 29.5039 32.1751V34.7344H30.7123V32.1751Z" fill="url(#paint6_linear_1023_7872)"/>
<path d="M25.6031 32.1751C25.6031 32.0188 25.5395 31.869 25.4261 31.7585C25.3128 31.648 25.1591 31.5859 24.9989 31.5859C24.8387 31.5859 24.685 31.648 24.5717 31.7585C24.4583 31.869 24.3947 32.0188 24.3947 32.1751V34.7344H25.6031V32.1751Z" fill="url(#paint7_linear_1023_7872)"/>
<path d="M33.2631 32.9036C33.2631 32.7473 33.1995 32.5975 33.0862 32.487C32.9728 32.3765 32.8192 32.3145 32.6589 32.3145C32.4987 32.3145 32.345 32.3765 32.2317 32.487C32.1183 32.5975 32.0547 32.7473 32.0547 32.9036V34.7344H33.2631V32.9036Z" fill="url(#paint8_linear_1023_7872)"/>
<path d="M28.1577 32.9036C28.1577 32.7473 28.094 32.5975 27.9807 32.487C27.8674 32.3765 27.7137 32.3145 27.5534 32.3145C27.3932 32.3145 27.2395 32.3765 27.1262 32.487C27.0129 32.5975 26.9492 32.7473 26.9492 32.9036V34.7344H28.1577V32.9036Z" fill="url(#paint9_linear_1023_7872)"/>
<defs>
<linearGradient id="paint0_linear_1023_7872" x1="29.3415" y1="32.6108" x2="13.2777" y2="7.74186" gradientUnits="userSpaceOnUse">
<stop stop-color="#DC2237"/>
<stop offset="1" stop-color="#CF5966"/>
</linearGradient>
<linearGradient id="paint1_linear_1023_7872" x1="16.7347" y1="33.5245" x2="17.9428" y2="33.5245" gradientUnits="userSpaceOnUse">
<stop stop-color="#FBE9D7"/>
<stop offset="1" stop-color="#F6D5F7"/>
</linearGradient>
<linearGradient id="paint2_linear_1023_7872" x1="19.2891" y1="33.1605" x2="20.4975" y2="33.1605" gradientUnits="userSpaceOnUse">
<stop stop-color="#FBE9D7"/>
<stop offset="1" stop-color="#F6D5F7"/>
</linearGradient>
<linearGradient id="paint3_linear_1023_7872" x1="14.18" y1="33.1601" x2="15.3881" y2="33.1601" gradientUnits="userSpaceOnUse">
<stop stop-color="#FBE9D7"/>
<stop offset="1" stop-color="#F6D5F7"/>
</linearGradient>
<linearGradient id="paint4_linear_1023_7872" x1="11.625" y1="33.5245" x2="12.8334" y2="33.5245" gradientUnits="userSpaceOnUse">
<stop stop-color="#FBE9D7"/>
<stop offset="1" stop-color="#F6D5F7"/>
</linearGradient>
<linearGradient id="paint5_linear_1023_7872" x1="21.8398" y1="33.5245" x2="23.0483" y2="33.5245" gradientUnits="userSpaceOnUse">
<stop stop-color="#FBE9D7"/>
<stop offset="1" stop-color="#F6D5F7"/>
</linearGradient>
<linearGradient id="paint6_linear_1023_7872" x1="29.5039" y1="33.1601" x2="30.7123" y2="33.1601" gradientUnits="userSpaceOnUse">
<stop stop-color="#FBE9D7"/>
<stop offset="1" stop-color="#F6D5F7"/>
</linearGradient>
<linearGradient id="paint7_linear_1023_7872" x1="24.3947" y1="33.1601" x2="25.6031" y2="33.1601" gradientUnits="userSpaceOnUse">
<stop stop-color="#FBE9D7"/>
<stop offset="1" stop-color="#F6D5F7"/>
</linearGradient>
<linearGradient id="paint8_linear_1023_7872" x1="32.0547" y1="33.5245" x2="33.2631" y2="33.5245" gradientUnits="userSpaceOnUse">
<stop stop-color="#FBE9D7"/>
<stop offset="1" stop-color="#F6D5F7"/>
</linearGradient>
<linearGradient id="paint9_linear_1023_7872" x1="26.9502" y1="33.5245" x2="28.1586" y2="33.5245" gradientUnits="userSpaceOnUse">
<stop stop-color="#FBE9D7"/>
<stop offset="1" stop-color="#F6D5F7"/>
</linearGradient>
</defs>
</svg>
