<svg width="32" height="32" viewBox="0 0 32 32" fill="none" xmlns="http://www.w3.org/2000/svg">
<circle cx="16" cy="16" r="16" fill="#81C2FF"/>
<path d="M22.5312 6.4375L23.6762 8.59375L26.125 8.89131L24.3281 10.5107L24.6875 12.9062L22.5312 11.5586L20.375 12.9062L20.7344 10.5107L18.9375 8.89131L21.4531 8.59375L22.5312 6.4375Z" fill="white"/>
<path d="M22.3277 14.5225L20.9347 14.1646C20.685 15.1264 20.1559 15.9927 19.4141 16.654C18.6723 17.3152 17.7511 17.7418 16.767 17.8798C15.7829 18.0177 14.78 17.8609 13.8849 17.4292C12.9899 16.9974 12.2429 16.3101 11.7383 15.454C11.2338 14.5978 10.9942 13.6114 11.05 12.6192C11.1058 11.6271 11.4545 10.6737 12.0519 9.87955C12.6492 9.08542 13.4686 8.48617 14.4064 8.15749C15.3442 7.82882 16.3584 7.78547 17.3208 8.03293L17.6795 6.64071C16.2765 6.27577 14.7915 6.39323 13.4633 6.97422C12.1351 7.55521 11.0409 8.56596 10.3566 9.84397C9.67223 11.122 9.43754 12.593 9.69024 14.0205C9.94294 15.448 10.6683 16.7491 11.7498 17.7145V26.5623L16.0623 23.6873L20.3748 26.5623V17.7274C21.3294 16.8766 22.0092 15.761 22.3277 14.5225ZM18.9373 23.8763L16.0623 21.9594L13.1873 23.8763V18.692C14.0793 19.1401 15.0636 19.3738 16.0618 19.3746C17.06 19.3753 18.0446 19.1431 18.9373 18.6963V23.8763Z" fill="white"/>
</svg>
