<svg xmlns="http://www.w3.org/2000/svg" width="26" height="26" viewBox="0 0 26 26" fill="none">
  <path d="M23.0064 4.04653H14.9897V2H13.4953L2 4.05164V21.9535L13.4278 24H14.9897V21.9611H22.4916C22.9165 21.9407 23.3888 21.9739 23.7536 21.7079C24.046 21.25 23.971 20.677 23.996 20.1602V5.03908C24.0485 4.45582 23.5762 3.98768 23.0064 4.04653ZM10.3366 16.4765C9.91927 16.6991 9.29451 16.4663 8.79972 16.5021C8.46736 14.8086 8.07999 13.1254 7.78265 11.4242C7.49025 13.0768 7.1104 14.7139 6.77555 16.3563C6.29576 16.3307 5.81348 16.3 5.33115 16.2667C4.91629 14.0155 4.42902 11.7797 4.04166 9.52348C4.46899 9.50303 4.8988 9.48513 5.32613 9.46978C5.58351 11.0993 5.87591 12.7212 6.10085 14.3533C6.4532 12.6802 6.81302 11.0072 7.16291 9.33421C7.63772 9.30606 8.11252 9.28561 8.58733 9.26001C8.91969 10.9868 9.25953 12.7109 9.61939 14.43C9.90178 12.6547 10.2141 10.8844 10.5165 9.11164C11.0163 9.09374 11.5161 9.06559 12.0134 9.03489C11.4487 11.5137 10.9538 14.013 10.3366 16.4765ZM22.8066 20.7462H14.9897V19.1395H21.487V18.1163H14.9897V16.8372H21.487V15.814H14.9897V14.5348H21.487V13.5116H14.9897V12.2325H21.487V11.2093H14.9897V9.93022H21.487V8.90698H14.9897V7.62791H21.487V6.60467H14.9897V5.25386H22.8066V20.7462Z" fill="#197BBD"/>
</svg>