<svg xmlns="http://www.w3.org/2000/svg" width="25" height="24" viewBox="0 0 25 24" fill="none">
  <path d="M7 13V13.5H7.5H17.5H18V13V11V10.5H17.5H7.5H7V11V13ZM15.7528 19.853C14.7215 20.2801 13.6162 20.5 12.5 20.5C10.2457 20.5 8.08365 19.6045 6.48959 18.0104C4.89553 16.4163 4 14.2543 4 12C4 9.74566 4.89553 7.58365 6.48959 5.98959C8.08365 4.39553 10.2457 3.5 12.5 3.5C13.6162 3.5 14.7215 3.71986 15.7528 4.14702C16.7841 4.57419 17.7211 5.20029 18.5104 5.98959C19.2997 6.77889 19.9258 7.71592 20.353 8.74719C20.7801 9.77846 21 10.8838 21 12C21 13.1162 20.7801 14.2215 20.353 15.2528C19.9258 16.2841 19.2997 17.2211 18.5104 18.0104C17.7211 18.7997 16.7841 19.4258 15.7528 19.853Z" fill="#197BBD" stroke="#197BBD"/>
</svg>