<svg width="23" height="23" viewBox="0 0 23 23" fill="none" xmlns="http://www.w3.org/2000/svg">
<path d="M11.271 22.544C5.056 22.544 0 17.488 0 11.272C0 5.05603 5.057 0 11.271 0C17.488 0 22.544 5.05703 22.544 11.272C22.545 17.488 17.488 22.544 11.271 22.544ZM11.271 1.62402C5.951 1.62402 1.62299 5.95206 1.62299 11.2711C1.62299 16.5911 5.951 20.919 11.271 20.919C16.591 20.919 20.919 16.5911 20.919 11.2711C20.92 5.95206 16.592 1.62402 11.271 1.62402Z" fill="url(#paint0_linear_4320_3455)"/>
<path d="M12.6931 14.8269C12.4981 14.8269 12.3 14.7529 12.15 14.6019C11.851 14.3019 11.851 13.8169 12.15 13.5169L14.3961 11.2709L12.15 9.02487C11.851 8.72587 11.851 8.23984 12.15 7.93984C12.451 7.63984 12.935 7.63984 13.236 7.93984L16.5681 11.2709L13.236 14.6019C13.086 14.7529 12.8911 14.8269 12.6931 14.8269Z" fill="#9DA2E1"/>
<path d="M13.6923 11.4891H7.42426C7.00026 11.4891 6.65625 11.1451 6.65625 10.7211C6.65625 10.2971 7.00026 9.9541 7.42426 9.9541H13.6923C14.1183 9.9541 14.4603 10.2971 14.4603 10.7211C14.4603 11.1451 14.1183 11.4891 13.6923 11.4891Z" fill="#9DA2E1"/>
<defs>
<linearGradient id="paint0_linear_4320_3455" x1="4.371" y1="2.3631" x2="18.1727" y2="20.1798" gradientUnits="userSpaceOnUse">
<stop stop-color="#ADB2F9"/>
<stop offset="1" stop-color="#9DA2E1"/>
</linearGradient>
</defs>
</svg>
