<svg width="20" height="21" viewBox="0 0 20 21" fill="none" xmlns="http://www.w3.org/2000/svg">
<path d="M10 4.29314C11.1131 5.09894 12.2449 6.06172 13.3416 7.15837C14.4383 8.25506 15.4011 9.3869 16.2069 10.5001M10 4.29314C8.8869 5.09894 7.75509 6.06172 6.65843 7.15838C5.56175 8.25507 4.59895 9.3869 3.79314 10.5001M10 4.29314C13.5699 1.70879 16.9472 0.739078 18.3541 2.14594C19.7609 3.55281 18.7912 6.93014 16.2069 10.5001M16.2069 10.5001C18.7912 14.0699 19.7608 17.4472 18.354 18.8541C17.3109 19.8971 15.1848 19.6338 12.7 18.3747M16.2069 10.5001C15.4011 11.6132 14.4383 12.745 13.3417 13.8416C12.245 14.9383 11.1131 15.9011 10 16.7069M3.79314 10.5001C4.59893 11.6132 5.5617 12.745 6.65834 13.8416C7.75503 14.9383 8.8869 15.9011 10 16.7069M3.79314 10.5001C1.20885 14.0699 0.239168 17.4472 1.64602 18.8541C3.05287 20.2609 6.43014 19.2912 10 16.7069M3.79314 10.5001C1.20878 6.93014 0.239068 3.5528 1.64593 2.14593C2.689 1.10286 4.81521 1.36619 7.3 2.62538" stroke="#197BBD" stroke-width="2" stroke-linecap="round"/>
<path d="M10 12.5C11.1046 12.5 12 11.6046 12 10.5C12 9.39543 11.1046 8.5 10 8.5C8.89543 8.5 8 9.39543 8 10.5C8 11.6046 8.89543 12.5 10 12.5Z" stroke="#197BBD" stroke-width="2"/>
</svg>
