<svg width="25" height="25" viewBox="0 0 25 25" fill="none" xmlns="http://www.w3.org/2000/svg">
<path d="M18 0.75C18.9565 0.749947 19.8769 1.11541 20.5728 1.7716C21.2688 2.4278 21.6876 3.32513 21.7438 4.28L21.75 4.5V17H22.6875C23.4963 17 24.1625 17.615 24.2425 18.4025L24.25 18.5625V20.75C24.2501 21.7065 23.8846 22.6269 23.2284 23.3228C22.5722 24.0188 21.6749 24.4376 20.72 24.4938L20.5 24.5H8C7.04349 24.5001 6.12311 24.1346 5.42717 23.4784C4.73124 22.8222 4.31237 21.9249 4.25625 20.97L4.25 20.75V8.25H2.0625C1.67568 8.25018 1.30254 8.10686 1.01529 7.84778C0.728046 7.58871 0.547111 7.23229 0.5075 6.8475L0.5 6.6875V4.5C0.499947 3.54349 0.865406 2.62311 1.5216 1.92717C2.1778 1.23124 3.07513 0.812366 4.03 0.75625L4.25 0.75H18ZM21.75 19.5H10.5V20.75C10.5 21.1875 10.425 21.6087 10.2875 22H20.5C20.8315 22 21.1495 21.8683 21.3839 21.6339C21.6183 21.3995 21.75 21.0815 21.75 20.75V19.5ZM13 12H10.5C10.1814 12.0004 9.87496 12.1223 9.64329 12.3411C9.41162 12.5598 9.27221 12.8587 9.25353 13.1767C9.23486 13.4948 9.33834 13.808 9.54283 14.0523C9.74732 14.2966 10.0374 14.4536 10.3538 14.4913L10.5 14.5H13C13.3186 14.4996 13.625 14.3777 13.8567 14.1589C14.0884 13.9402 14.2278 13.6413 14.2465 13.3233C14.2651 13.0052 14.1617 12.692 13.9572 12.4477C13.7527 12.2034 13.4626 12.0464 13.1462 12.0087L13 12ZM15.5 7H10.5C10.1685 7 9.85054 7.1317 9.61612 7.36612C9.3817 7.60054 9.25 7.91848 9.25 8.25C9.25 8.58152 9.3817 8.89946 9.61612 9.13388C9.85054 9.3683 10.1685 9.5 10.5 9.5H15.5C15.8315 9.5 16.1495 9.3683 16.3839 9.13388C16.6183 8.89946 16.75 8.58152 16.75 8.25C16.75 7.91848 16.6183 7.60054 16.3839 7.36612C16.1495 7.1317 15.8315 7 15.5 7ZM4.25 3.25C3.91848 3.25 3.60054 3.3817 3.36612 3.61612C3.1317 3.85054 3 4.16848 3 4.5V5.75H4.25V3.25Z" fill="#197BBD"/>
</svg>
