<svg width="104" height="104" viewBox="0 0 104 104" fill="none" xmlns="http://www.w3.org/2000/svg">
<circle cx="52" cy="52" r="52" fill=""/>
<path d="M39.8692 60.71C39.2712 60.71 38.8682 60.7685 38.6602 60.827V64.6555C38.9072 64.714 39.2159 64.7302 39.6417 64.7302C41.1984 64.7302 42.1572 63.9437 42.1572 62.6145C42.1572 61.425 41.3317 60.71 39.8692 60.71ZM51.2019 60.749C50.5519 60.749 50.1294 60.8075 49.8792 60.866V69.3485C50.1294 69.407 50.5324 69.407 50.8964 69.407C53.5517 69.4265 55.2807 67.964 55.2807 64.87C55.3002 62.1725 53.7239 60.749 51.2019 60.749Z" fill="#B30B00"/>
<path d="M58.5 19.5H32.5C30.7761 19.5 29.1228 20.1848 27.9038 21.4038C26.6848 22.6228 26 24.2761 26 26V78C26 79.7239 26.6848 81.3772 27.9038 82.5962C29.1228 83.8152 30.7761 84.5 32.5 84.5H71.5C73.2239 84.5 74.8772 83.8152 76.0962 82.5962C77.3152 81.3772 78 79.7239 78 78V39L58.5 19.5ZM43.8685 65.6175C42.8643 66.56 41.3822 66.9825 39.6565 66.9825C39.3219 66.9861 38.9874 66.9666 38.6555 66.924V71.5585H35.75V58.7665C37.0612 58.5709 38.3861 58.4818 39.7118 58.5C41.522 58.5 42.809 58.8445 43.6768 59.5368C44.5023 60.1933 45.0612 61.269 45.0612 62.5365C45.058 63.8105 44.6355 64.8863 43.8685 65.6175ZM56.2413 70.0213C54.8763 71.1555 52.7995 71.695 50.2612 71.695C48.7402 71.695 47.6645 71.5975 46.9333 71.5V58.7698C48.245 58.5783 49.5695 58.4881 50.895 58.5C53.3552 58.5 54.9543 58.942 56.2023 59.8845C57.551 60.8855 58.396 62.4813 58.396 64.7725C58.396 67.2523 57.4893 68.965 56.2413 70.0213ZM68.25 61.0025H63.271V63.9632H67.925V66.3488H63.271V71.5617H60.3265V58.5975H68.25V61.0025ZM58.5 42.25H55.25V26L71.5 42.25H58.5Z" fill="#B30B00"/>
</svg>
