<svg width="31" height="31" viewBox="0 0 31 31" fill="none" xmlns="http://www.w3.org/2000/svg">
<path d="M4.87395 9.36432C5.53593 8.21668 7.03684 7.6012 9.13645 7.6012C9.36314 7.6012 9.59564 7.6083 9.83589 7.62316C12.4606 7.78074 15.5044 8.79018 18.4074 10.4661C21.3104 12.1421 23.7071 14.2733 25.1557 16.4672C26.2026 18.0534 26.6424 19.502 26.4577 20.6664C26.8898 20.6664 27.3218 20.6664 27.7539 20.6664C27.914 19.2204 27.4077 17.5341 26.2329 15.7555C24.6758 13.3976 22.1261 11.1216 19.0526 9.34689C15.9797 7.57278 12.7337 6.50264 9.91274 6.33278C6.93157 6.15518 4.74607 7.00122 3.75472 8.71784C3.58034 9.02139 3.46216 9.34882 3.37109 9.68724C3.82189 9.68724 4.31853 9.68724 4.72928 9.68724C4.77449 9.57809 4.81518 9.46637 4.87395 9.36432Z" fill="#3D7587"/>
<path d="M16.793 2.16406C16.793 2.6549 16.793 3.07792 16.793 3.56035C19.3459 4.8404 21.3138 9.7836 21.3138 15.4999C21.3138 21.2161 19.3459 26.16 16.793 27.4394C16.793 27.9218 16.793 28.3449 16.793 28.8357C20.1384 27.7055 22.6055 22.2592 22.6055 15.4992C22.6055 8.73929 20.1384 3.29427 16.793 2.16406Z" fill="#3D7587"/>
<path d="M27.2463 8.71842C27.1798 8.60347 27.0945 8.50272 27.0177 8.39551C26.3673 8.39551 25.8436 8.39551 25.1758 8.39551C25.5794 8.65772 25.9049 8.97805 26.1277 9.36426C26.862 10.6353 26.5165 12.4707 25.1557 14.5316C23.7071 16.7255 21.3105 18.8574 18.4074 20.5327C15.5044 22.2086 12.4606 23.2187 9.83594 23.3756C7.37402 23.5248 5.60831 22.9054 4.87464 21.6344C4.51169 21.0054 4.41416 20.2382 4.57175 19.374C4.16164 19.374 3.68696 19.374 3.26846 19.374C3.11346 20.4532 3.27039 21.4394 3.75541 22.2803C4.65958 23.8464 6.55898 24.6886 9.14748 24.6886C9.39677 24.6886 9.65187 24.6808 9.91343 24.6647C12.7344 24.4955 15.9804 23.4253 19.0533 21.6506C22.1261 19.8758 24.6765 17.6006 26.2336 15.242C27.8773 12.7529 28.237 10.435 27.2463 8.71842Z" fill="#3D7587"/>
<path d="M26.4566 20.6667C26.401 21.0161 26.2958 21.3422 26.1265 21.6354C25.3929 22.9064 23.6285 23.5245 21.1653 23.3766C18.5406 23.219 15.4968 22.2096 12.5938 20.5336C9.69073 18.8577 7.29404 16.7264 5.84544 14.5325C4.59382 12.6364 4.21277 10.9378 4.7288 9.6875C4.31805 9.6875 3.8214 9.6875 3.37061 9.6875C2.94565 11.2646 3.41323 13.1924 4.76755 15.2436C6.32465 17.6015 8.8744 19.8775 11.9479 21.6522C15.0208 23.4263 18.2668 24.4965 21.0878 24.6663C21.3493 24.6818 21.6044 24.6902 21.8537 24.6902C24.4416 24.6902 26.341 23.8474 27.2458 22.2819C27.5293 21.7911 27.6895 21.2466 27.7534 20.6673C27.3207 20.6667 26.8886 20.6667 26.4566 20.6667Z" fill="#3D7587"/>
<path d="M15.4987 27.7708C12.3483 27.7708 9.6862 22.1514 9.6862 15.5C9.6862 8.84856 12.3483 3.22917 15.4987 3.22917C15.9417 3.22917 16.3732 3.35123 16.7904 3.56048C16.7904 3.07804 16.7904 2.65502 16.7904 2.16419C16.3719 2.0221 15.9417 1.9375 15.4987 1.9375C11.5152 1.9375 8.39453 7.89467 8.39453 15.5C8.39453 23.1053 11.5152 29.0625 15.4987 29.0625C15.9417 29.0625 16.3719 28.9779 16.7904 28.8365C16.7904 28.3456 16.7904 27.9226 16.7904 27.4402C16.3732 27.6488 15.9417 27.7708 15.4987 27.7708Z" fill="#3D7587"/>
<path d="M5.84379 16.4678C7.2924 14.2739 9.68908 12.142 12.5921 10.4667C15.4951 8.79077 18.5389 7.78069 21.1636 7.62375C21.4032 7.60954 21.6364 7.60179 21.863 7.60179C23.2561 7.60179 24.3779 7.87886 25.1736 8.39617C25.8414 8.39617 26.3651 8.39617 27.0155 8.39617C25.9421 6.90365 23.8645 6.16611 21.0868 6.33402C18.2657 6.50323 15.0198 7.57338 11.9469 9.34813C8.87404 11.1229 6.32365 13.3981 4.76654 15.7567C3.92696 17.0264 3.42708 18.2509 3.26562 19.3747C3.68412 19.3747 4.15881 19.3747 4.56892 19.3747C4.72973 18.4925 5.15598 17.5089 5.84379 16.4678Z" fill="#3D7587"/>
<path d="M12.918 15.4995C12.918 16.9152 14.0747 18.0635 15.5013 18.0635C16.9279 18.0635 18.0846 16.9158 18.0846 15.4995C18.0846 14.0832 16.9279 12.9355 15.5013 12.9355H15.5C14.074 12.9362 12.918 14.0838 12.918 15.4995Z" fill="url(#paint0_linear_1023_7861)"/>
<defs>
<linearGradient id="paint0_linear_1023_7861" x1="13.5871" y1="13.4412" x2="17.1056" y2="17.2245" gradientUnits="userSpaceOnUse">
<stop stop-color="#FFCF54"/>
<stop offset="0.261" stop-color="#FDCB4D"/>
<stop offset="0.639" stop-color="#F7C13A"/>
<stop offset="1" stop-color="#F0B421"/>
</linearGradient>
</defs>
</svg>
