<svg width="24" height="24" viewBox="0 0 24 24" fill="none" xmlns="http://www.w3.org/2000/svg">
<g id="icon / jam-icons / outline &#38; logos / pie-chart-alt">
<path id="Vector" d="M21.95 13C21.449 18.0529 17.185 22 12 22C6.477 22 2 17.523 2 12C2 6.81495 5.947 2.55095 11 2.04995V4.06195C8.98271 4.31863 7.13885 5.33382 5.84319 6.90117C4.54752 8.46852 3.89728 10.4704 4.02462 12.5C4.15196 14.5295 5.04733 16.4345 6.52874 17.8276C8.01016 19.2207 9.96645 19.9974 12 20C13.9486 19.9999 15.8302 19.2888 17.2917 17.9999C18.7533 16.7111 19.6942 14.9333 19.938 13H21.951H21.95ZM21.95 11H19.938C19.7154 9.23756 18.9129 7.59929 17.6568 6.34319C16.4007 5.08709 14.7624 4.28454 13 4.06195V2.04895C15.2951 2.28019 17.4398 3.29756 19.0709 4.92877C20.7019 6.55999 21.719 8.70479 21.95 11Z" fill="#001D6C"/>
</g>
</svg>
