<svg width="104" height="104" viewBox="0 0 104 104" fill="none" xmlns="http://www.w3.org/2000/svg">
<circle cx="52" cy="52" r="52" fill=""/>
<path d="M66.874 25.625H78.374C79.1365 25.625 79.8677 25.9279 80.4069 26.4671C80.9461 27.0062 81.249 27.7375 81.249 28.5V74.5C81.249 75.2625 80.9461 75.9938 80.4069 76.5329C79.8677 77.0721 79.1365 77.375 78.374 77.375H66.874V25.625ZM26.2186 25.2714L62.3573 20.1108C62.5611 20.0815 62.7687 20.0964 62.9661 20.1543C63.1636 20.2123 63.3464 20.3119 63.502 20.4466C63.6576 20.5812 63.7825 20.7477 63.8683 20.9348C63.954 21.1219 63.9986 21.3252 63.999 21.531V81.469C63.9985 81.6745 63.954 81.8776 63.8685 82.0644C63.7829 82.2513 63.6582 82.4176 63.5029 82.5522C63.3476 82.6868 63.1653 82.7866 62.9681 82.8447C62.771 82.9028 62.5637 82.918 62.3602 82.8893L26.2157 77.7286C25.5304 77.631 24.9033 77.2894 24.4496 76.7665C23.9959 76.2437 23.7461 75.5746 23.7461 74.8824V28.1176C23.7461 27.4254 23.9959 26.7564 24.4496 26.2335C24.9033 25.7106 25.5332 25.369 26.2186 25.2714ZM32.374 40V63H38.124V57.25H55.374V40H32.374ZM38.124 45.75H49.624V51.5H38.124V45.75Z" fill="#F23D02"/>
</svg>
