<svg xmlns="http://www.w3.org/2000/svg" width="11" height="11" viewBox="0 0 11 11" fill="none">
  <path d="M2.75 2.40625C2.75 2.13275 2.85865 1.87044 3.05205 1.67705C3.24544 1.48365 3.50775 1.375 3.78125 1.375H7.21875C7.49225 1.375 7.75456 1.48365 7.94795 1.67705C8.14135 1.87044 8.25 2.13275 8.25 2.40625V2.75H8.9375C9.30217 2.75 9.65191 2.89487 9.90977 3.15273C10.1676 3.41059 10.3125 3.76033 10.3125 4.125V7.21875C10.3125 7.49225 10.2039 7.75456 10.0105 7.94795C9.81706 8.14135 9.55475 8.25 9.28125 8.25H8.25V8.59375C8.25 8.86725 8.14135 9.12956 7.94795 9.32295C7.75456 9.51635 7.49225 9.625 7.21875 9.625H3.78125C3.50775 9.625 3.24544 9.51635 3.05205 9.32295C2.85865 9.12956 2.75 8.86725 2.75 8.59375V8.25H1.71875C1.44525 8.25 1.18294 8.14135 0.989546 7.94795C0.796149 7.75456 0.6875 7.49225 0.6875 7.21875V4.125C0.6875 3.76033 0.832366 3.41059 1.09023 3.15273C1.34809 2.89487 1.69783 2.75 2.0625 2.75H2.75V2.40625ZM7.5625 2.40625C7.5625 2.31508 7.52628 2.22765 7.46182 2.16318C7.39735 2.09872 7.30992 2.0625 7.21875 2.0625H3.78125C3.69008 2.0625 3.60265 2.09872 3.53818 2.16318C3.47372 2.22765 3.4375 2.31508 3.4375 2.40625V2.75H7.5625V2.40625ZM3.4375 7.21875V8.59375C3.4375 8.68492 3.47372 8.77235 3.53818 8.83682C3.60265 8.90128 3.69008 8.9375 3.78125 8.9375H7.21875C7.30992 8.9375 7.39735 8.90128 7.46182 8.83682C7.52628 8.77235 7.5625 8.68492 7.5625 8.59375V7.21875C7.5625 7.12758 7.52628 7.04015 7.46182 6.97568C7.39735 6.91122 7.30992 6.875 7.21875 6.875H3.78125C3.69008 6.875 3.60265 6.91122 3.53818 6.97568C3.47372 7.04015 3.4375 7.12758 3.4375 7.21875Z" fill="#2B3674"/>
</svg>