<svg width="23" height="23" viewBox="0 0 23 23" fill="none" xmlns="http://www.w3.org/2000/svg">
<path d="M0.75 4.27083C0.75 3.33705 1.12094 2.44151 1.78123 1.78123C2.44151 1.12094 3.33705 0.75 4.27083 0.75H16.7292C17.6629 0.75 18.5585 1.12094 19.2188 1.78123C19.8791 2.44151 20.25 3.33705 20.25 4.27083V10.5238C18.898 9.65912 17.2911 9.28221 15.6956 9.45552C14.1001 9.62883 12.6116 10.342 11.4768 11.4768C10.342 12.6116 9.62883 14.1001 9.45552 15.6956C9.28221 17.2911 9.65912 18.898 10.5238 20.25H4.27083C3.33705 20.25 2.44151 19.8791 1.78123 19.2188C1.12094 18.5585 0.75 17.6629 0.75 16.7292V4.27083ZM11.0417 7.52083C11.0417 7.96933 11.4057 8.33333 11.8542 8.33333H15.6458C15.8613 8.33333 16.068 8.24773 16.2204 8.09536C16.3727 7.94298 16.4583 7.73632 16.4583 7.52083C16.4583 7.30534 16.3727 7.09868 16.2204 6.94631C16.068 6.79394 15.8613 6.70833 15.6458 6.70833H11.8542C11.6387 6.70833 11.432 6.79394 11.2796 6.94631C11.1273 7.09868 11.0417 7.30534 11.0417 7.52083ZM9.17833 7.01167C9.25816 6.93728 9.32219 6.84758 9.3666 6.74792C9.411 6.64825 9.43488 6.54066 9.43681 6.43157C9.43873 6.32247 9.41866 6.21411 9.3778 6.11294C9.33694 6.01177 9.27611 5.91986 9.19896 5.84271C9.1218 5.76555 9.0299 5.70473 8.92873 5.66387C8.82756 5.623 8.7192 5.60293 8.6101 5.60486C8.50101 5.60678 8.39342 5.63066 8.29375 5.67507C8.19408 5.71948 8.10438 5.78351 8.03 5.86333L6.4375 7.45583L5.92833 6.94667C5.77431 6.80315 5.57059 6.72501 5.3601 6.72873C5.14961 6.73244 4.94877 6.81771 4.79991 6.96658C4.65105 7.11544 4.56577 7.31627 4.56206 7.52677C4.55835 7.73726 4.63648 7.94098 4.78 8.095L5.86333 9.17833C6.01568 9.33049 6.22219 9.41595 6.4375 9.41595C6.65281 9.41595 6.85932 9.33049 7.01167 9.17833L9.17833 7.01167ZM9.17833 11.8217C9.02599 11.6695 8.81948 11.584 8.60417 11.584C8.38885 11.584 8.18234 11.6695 8.03 11.8217L6.4375 13.4142L5.92833 12.905C5.77431 12.7615 5.57059 12.6833 5.3601 12.6871C5.14961 12.6908 4.94877 12.776 4.79991 12.9249C4.65105 13.0738 4.56577 13.2746 4.56206 13.4851C4.55835 13.6956 4.63648 13.8993 4.78 14.0533L5.86333 15.1367C6.01568 15.2888 6.22219 15.3743 6.4375 15.3743C6.65281 15.3743 6.85932 15.2888 7.01167 15.1367L9.17833 12.97C9.33049 12.8177 9.41595 12.6111 9.41595 12.3958C9.41595 12.1805 9.33049 11.974 9.17833 11.8217ZM22.4167 16.4583C22.4167 14.8781 21.7889 13.3626 20.6715 12.2452C19.5541 11.1278 18.0386 10.5 16.4583 10.5C14.8781 10.5 13.3626 11.1278 12.2452 12.2452C11.1278 13.3626 10.5 14.8781 10.5 16.4583C10.5 18.0386 11.1278 19.5541 12.2452 20.6715C13.3626 21.7889 14.8781 22.4167 16.4583 22.4167C18.0386 22.4167 19.5541 21.7889 20.6715 20.6715C21.7889 19.5541 22.4167 18.0386 22.4167 16.4583ZM17 17L17.0011 19.7116C17.0011 19.8552 16.944 19.993 16.8424 20.0946C16.7408 20.1962 16.6031 20.2532 16.4594 20.2532C16.3158 20.2532 16.178 20.1962 16.0764 20.0946C15.9748 19.993 15.9177 19.8552 15.9177 19.7116V17H13.204C13.0603 17 12.9226 16.9429 12.821 16.8413C12.7194 16.7398 12.6623 16.602 12.6623 16.4583C12.6623 16.3147 12.7194 16.1769 12.821 16.0753C12.9226 15.9737 13.0603 15.9167 13.204 15.9167H15.9167V13.2083C15.9167 13.0647 15.9737 12.9269 16.0753 12.8253C16.1769 12.7237 16.3147 12.6667 16.4583 12.6667C16.602 12.6667 16.7398 12.7237 16.8413 12.8253C16.9429 12.9269 17 13.0647 17 13.2083V15.9167H19.7051C19.8487 15.9167 19.9865 15.9737 20.0881 16.0753C20.1897 16.1769 20.2467 16.3147 20.2467 16.4583C20.2467 16.602 20.1897 16.7398 20.0881 16.8413C19.9865 16.9429 19.8487 17 19.7051 17H17Z" fill="#A3AED0"/>
</svg>
