<svg width="33" height="33" viewBox="0 0 33 33" fill="none" xmlns="http://www.w3.org/2000/svg">
<path d="M22 23.375V22H17.875V17.875H22V20.625H24.75V23.375H23.375V26.125H20.625V28.875H17.875V24.75H20.625V23.375H22ZM28.875 28.875H23.375V26.125H26.125V23.375H28.875V28.875ZM4.125 4.125H15.125V15.125H4.125V4.125ZM6.875 6.875V12.375H12.375V6.875H6.875ZM17.875 4.125H28.875V15.125H17.875V4.125ZM20.625 6.875V12.375H26.125V6.875H20.625ZM4.125 17.875H15.125V28.875H4.125V17.875ZM6.875 20.625V26.125H12.375V20.625H6.875ZM24.75 17.875H28.875V20.625H24.75V17.875ZM8.25 8.25H11V11H8.25V8.25ZM8.25 22H11V24.75H8.25V22ZM22 8.25H24.75V11H22V8.25Z" fill="black"/>
</svg>
