<svg width="44" height="43" viewBox="0 0 44 43" fill="none" xmlns="http://www.w3.org/2000/svg">
<circle cx="22" cy="21.5" r="21.5" fill="#DDF1FF"/>
<path d="M17 23V23.5H17.5H27.5H28V23V21V20.5H27.5H17.5H17V21V23ZM25.7528 29.853C24.7215 30.2801 23.6162 30.5 22.5 30.5C20.2457 30.5 18.0837 29.6045 16.4896 28.0104C14.8955 26.4163 14 24.2543 14 22C14 19.7457 14.8955 17.5837 16.4896 15.9896C18.0837 14.3955 20.2457 13.5 22.5 13.5C23.6162 13.5 24.7215 13.7199 25.7528 14.147C26.7841 14.5742 27.7211 15.2003 28.5104 15.9896C29.2997 16.7789 29.9258 17.7159 30.353 18.7472C30.7801 19.7785 31 20.8838 31 22C31 23.1162 30.7801 24.2215 30.353 25.2528C29.9258 26.2841 29.2997 27.2211 28.5104 28.0104C27.7211 28.7997 26.7841 29.4258 25.7528 29.853Z" fill="#197BBD" stroke="#197BBD"/>
</svg>
