<svg width="32" height="32" viewBox="0 0 32 32" fill="none" xmlns="http://www.w3.org/2000/svg">
<circle cx="16" cy="16" r="16" fill="#00CCFF"/>
<g clip-path="url(#clip0_1023_8842)">
<path d="M12.6665 12.667C12.6665 12.004 12.9738 11.3681 13.5208 10.8992C14.0678 10.4304 14.8096 10.167 15.5832 10.167H16.4165C17.1901 10.167 17.9319 10.4304 18.4789 10.8992C19.0259 11.3681 19.3332 12.004 19.3332 12.667C19.3639 13.208 19.2179 13.7444 18.9173 14.1953C18.6167 14.6462 18.1777 14.9872 17.6665 15.167C17.1553 15.4067 16.7163 15.8614 16.4157 16.4626C16.1151 17.0638 15.9692 17.7789 15.9998 18.5003" stroke="white" stroke-width="2" stroke-linecap="round" stroke-linejoin="round"/>
<path d="M16 21.833V21.8413" stroke="white" stroke-width="2" stroke-linecap="round" stroke-linejoin="round"/>
</g>
<defs>
<clipPath id="clip0_1023_8842">
<rect width="20" height="20" fill="white" transform="translate(6 6)"/>
</clipPath>
</defs>
</svg>
