<svg width="44" height="43" viewBox="0 0 44 43" fill="none" xmlns="http://www.w3.org/2000/svg">
<circle cx="22" cy="21.5" r="21.5" fill="#DDF1FF"/>
<path fill-rule="evenodd" clip-rule="evenodd" d="M17.8447 14.017C20.9385 13.674 24.0608 13.674 27.1547 14.017C28.8677 14.209 30.2497 15.558 30.4507 17.277C30.8177 20.4149 30.8177 23.585 30.4507 26.723C30.2497 28.442 28.8677 29.791 27.1547 29.983C24.0608 30.326 20.9385 30.326 17.8447 29.983C16.1317 29.791 14.7497 28.442 14.5487 26.723C14.1817 23.5853 14.1817 20.4156 14.5487 17.278C14.6503 16.4428 15.0311 15.6665 15.6291 15.0748C16.2272 14.4831 17.0075 14.1107 17.8437 14.018M22.4997 17.007C22.6986 17.007 22.8894 17.086 23.03 17.2266C23.1707 17.3673 23.2497 17.5581 23.2497 17.757V21.25H26.7427C26.9416 21.25 27.1324 21.329 27.273 21.4696C27.4137 21.6103 27.4927 21.8011 27.4927 22C27.4927 22.1989 27.4137 22.3896 27.273 22.5303C27.1324 22.671 26.9416 22.75 26.7427 22.75H23.2497V26.243C23.2497 26.4419 23.1707 26.6326 23.03 26.7733C22.8894 26.914 22.6986 26.993 22.4997 26.993C22.3008 26.993 22.11 26.914 21.9693 26.7733C21.8287 26.6326 21.7497 26.4419 21.7497 26.243V22.75H18.2567C18.0578 22.75 17.867 22.671 17.7263 22.5303C17.5857 22.3896 17.5067 22.1989 17.5067 22C17.5067 21.8011 17.5857 21.6103 17.7263 21.4696C17.867 21.329 18.0578 21.25 18.2567 21.25H21.7497V17.757C21.7497 17.5581 21.8287 17.3673 21.9693 17.2266C22.11 17.086 22.3008 17.007 22.4997 17.007Z" fill="#197BBD"/>
</svg>
