<svg width="15" height="19" viewBox="0 0 15 19" fill="none" xmlns="http://www.w3.org/2000/svg">
<mask id="mask0_4725_1943" style="mask-type:luminance" maskUnits="userSpaceOnUse" x="0" y="0" width="15" height="19">
<path d="M1.375 18.25H13.625C13.8571 18.25 14.0796 18.1578 14.2437 17.9937C14.4078 17.8296 14.5 17.6071 14.5 17.375V5.125H10.125V0.75H1.375C1.14294 0.75 0.920376 0.842187 0.756282 1.00628C0.592187 1.17038 0.5 1.39294 0.5 1.625V17.375C0.5 17.6071 0.592187 17.8296 0.756282 17.9937C0.920376 18.1578 1.14294 18.25 1.375 18.25Z" fill="white" stroke="white" stroke-linecap="round" stroke-linejoin="round"/>
<path d="M10.125 0.75L14.5 5.125" stroke="white" stroke-linecap="round" stroke-linejoin="round"/>
<path d="M7.5 12.5625V11.25C8.46688 11.25 9.25 10.3684 9.25 9.28125C9.25 8.19406 8.46688 7.3125 7.5 7.3125C6.53313 7.3125 5.75 8.19406 5.75 9.28125" stroke="black" stroke-linecap="round" stroke-linejoin="round"/>
<path fill-rule="evenodd" clip-rule="evenodd" d="M7.5 16.0625C7.79008 16.0625 8.06828 15.9473 8.2734 15.7421C8.47852 15.537 8.59375 15.2588 8.59375 14.9688C8.59375 14.6787 8.47852 14.4005 8.2734 14.1954C8.06828 13.9902 7.79008 13.875 7.5 13.875C7.20992 13.875 6.93172 13.9902 6.7266 14.1954C6.52148 14.4005 6.40625 14.6787 6.40625 14.9688C6.40625 15.2588 6.52148 15.537 6.7266 15.7421C6.93172 15.9473 7.20992 16.0625 7.5 16.0625Z" fill="black"/>
</mask>
<g mask="url(#mask0_4725_1943)">
<path d="M-3 -1H18V20H-3V-1Z" fill="#1376B9"/>
</g>
</svg>
