<svg width="17" height="17" viewBox="0 0 17 17" fill="none" xmlns="http://www.w3.org/2000/svg">
<path d="M10.082 10.875C10.3063 10.875 10.5011 10.7927 10.6663 10.628C10.8315 10.4634 10.9138 10.2686 10.9133 10.0438C10.9133 9.81948 10.8309 9.625 10.6663 9.46033C10.5016 9.29567 10.3069 9.21307 10.082 9.21254C9.85773 9.21254 9.66324 9.29514 9.49857 9.46033C9.33391 9.62553 9.25131 9.82001 9.25078 10.0438C9.25078 10.2681 9.33338 10.4628 9.49857 10.628C9.66377 10.7932 9.85825 10.8756 10.082 10.875ZM9.48828 8.34171H10.6758C10.6758 7.95907 10.7154 7.67882 10.7945 7.50096C10.8737 7.3231 11.0584 7.08876 11.3487 6.79796C11.7445 6.40212 12.0084 6.08229 12.1404 5.83846C12.2723 5.59462 12.3383 5.30751 12.3383 4.97712C12.3383 4.38337 12.1303 3.89861 11.7144 3.52283C11.2986 3.14705 10.7544 2.9589 10.082 2.95837C9.54106 2.95837 9.06949 3.11011 8.66732 3.41358C8.26516 3.71705 7.98464 4.11948 7.82578 4.62087L8.89453 5.05629C9.01328 4.72643 9.17505 4.47917 9.37982 4.3145C9.5846 4.14983 9.81867 4.06723 10.082 4.06671C10.3987 4.06671 10.656 4.1559 10.8539 4.33429C11.0518 4.51268 11.1508 4.75335 11.1508 5.05629C11.1508 5.24101 11.098 5.41597 10.9924 5.58117C10.8869 5.74636 10.7022 5.95404 10.4383 6.20421C10.0029 6.58685 9.73581 6.88715 9.63711 7.10512C9.53842 7.3231 9.48881 7.73529 9.48828 8.34171ZM5.33203 13.25C4.89661 13.25 4.524 13.0951 4.2142 12.7853C3.90439 12.4755 3.74923 12.1027 3.7487 11.6667V2.16671C3.7487 1.73129 3.90386 1.35868 4.2142 1.04887C4.52453 0.739068 4.89714 0.583902 5.33203 0.583374H14.832C15.2674 0.583374 15.6403 0.738541 15.9507 1.04887C16.261 1.35921 16.4159 1.73182 16.4154 2.16671V11.6667C16.4154 12.1021 16.2605 12.475 15.9507 12.7853C15.6409 13.0957 15.268 13.2506 14.832 13.25H5.33203ZM2.16536 16.4167C1.72995 16.4167 1.35734 16.2618 1.04753 15.952C0.737726 15.6422 0.582559 15.2693 0.582031 14.8334V3.75004H2.16536V14.8334H13.2487V16.4167H2.16536Z" fill="#A3AED0"/>
</svg>


