<svg width="24" height="24" viewBox="0 0 24 24" fill="none" xmlns="http://www.w3.org/2000/svg">
<path d="M4.01 6.00999H20.01V8.00999H4.01V6.00999ZM6.01 2.00999H18.01V4.00999H6.01V2.00999ZM20 9.99999H4C3.46957 9.99999 2.96086 10.2107 2.58579 10.5858C2.21071 10.9609 2 11.4696 2 12V20C2 20.5304 2.21071 21.0391 2.58579 21.4142C2.96086 21.7893 3.46957 22 4 22H20C20.5304 22 21.0391 21.7893 21.4142 21.4142C21.7893 21.0391 22 20.5304 22 20V12C22 11.4696 21.7893 10.9609 21.4142 10.5858C21.0391 10.2107 20.5304 9.99999 20 9.99999ZM10.3 20L7 16.76L8.4 15.36L10.3 17.26L15.6 11.96L17 13.36L10.3 20Z" fill="#A3AED0"/>
</svg>
