<svg xmlns="http://www.w3.org/2000/svg" width="11" height="11" viewBox="0 0 11 11" fill="none">
  <g clip-path="url(#clip0_471_1865)">
    <path d="M5.49697 5.24638C6.64618 5.24638 7.5778 4.31476 7.5778 3.16555C7.5778 2.01634 6.64618 1.08472 5.49697 1.08472C4.34776 1.08472 3.41614 2.01634 3.41614 3.16555C3.41614 4.31476 4.34776 5.24638 5.49697 5.24638Z" fill="#FF8F6B"/>
    <path d="M3.66668 8.14308C3.67303 7.97402 3.72936 7.81063 3.82855 7.67358C3.92774 7.53653 4.06534 7.43196 4.22395 7.3731C4.38256 7.31423 4.55506 7.30371 4.71965 7.34287C4.88423 7.38202 5.03352 7.4691 5.14863 7.59308L6.32807 8.86113L8.41807 6.52975C7.55473 5.95441 6.5374 5.65401 5.50002 5.66808C4.78039 5.64989 4.06552 5.78955 3.40566 6.07725C2.7458 6.36495 2.15697 6.7937 1.68057 7.33336C1.64027 7.38708 1.61879 7.45259 1.61946 7.51975V9.16669C1.61939 9.32564 1.68125 9.47836 1.79192 9.59246C1.90259 9.70655 2.05336 9.77303 2.21224 9.7778H4.83085L3.89279 8.76947C3.81529 8.68538 3.75536 8.58665 3.71654 8.47909C3.67771 8.37152 3.66076 8.25728 3.66668 8.14308Z" fill="#FF8F6B"/>
    <path d="M8.78777 9.77782C8.94665 9.77305 9.09742 9.70657 9.20809 9.59248C9.31876 9.47838 9.38062 9.32566 9.38055 9.16671V8.01782L7.81305 9.77782H8.78777Z" fill="#FF8F6B"/>
    <path d="M10.3186 5.68944C10.2886 5.66234 10.2536 5.64146 10.2154 5.62801C10.1773 5.61456 10.1369 5.60881 10.0966 5.61108C10.0562 5.61335 10.0167 5.62361 9.98034 5.64126C9.94398 5.65891 9.91148 5.68359 9.88472 5.71389L6.33416 9.68611L4.74528 7.97806C4.7192 7.94756 4.68736 7.9225 4.6516 7.9043C4.61583 7.88611 4.57683 7.87514 4.53682 7.87201C4.49681 7.86889 4.45658 7.87368 4.41843 7.88611C4.38027 7.89854 4.34494 7.91836 4.31444 7.94444C4.2858 7.97285 4.26307 8.00664 4.24756 8.04388C4.23205 8.08111 4.22406 8.12105 4.22406 8.16139C4.22406 8.20172 4.23205 8.24166 4.24756 8.2789C4.26307 8.31613 4.2858 8.34993 4.31444 8.37833L6.35555 10.5783L10.34 6.11111C10.3914 6.05158 10.4178 5.97453 10.4138 5.89599C10.4099 5.81745 10.3758 5.74347 10.3186 5.68944Z" fill="#FF8F6B"/>
  </g>
  <defs>
    <clipPath id="clip0_471_1865">
      <rect width="11" height="11" fill="white"/>
    </clipPath>
  </defs>
</svg>