<svg width="30" height="30" viewBox="0 0 30 30" fill="none" xmlns="http://www.w3.org/2000/svg">
<path d="M18.75 15C18.75 12.875 17.125 11.25 15 11.25C12.875 11.25 11.25 12.875 11.25 15C11.25 17.125 12.875 18.75 15 18.75C17.125 18.75 18.75 17.125 18.75 15ZM21.25 4.125C16.375 1.375 10.375 2.25 6.375 5.875V3.75C6.375 3 5.875 2.5 5.125 2.5C4.375 2.5 3.875 3 3.875 3.75V9.375C3.875 10.125 4.375 10.625 5.125 10.625H10.75C11.5 10.625 12 10.125 12 9.375C12 8.625 11.5 8.125 10.75 8.125H7.75C9.625 6.125 12.25 5 15 5C20.5 5 25 9.5 25 15C25 15.75 25.5 16.25 26.25 16.25C27 16.25 27.5 15.75 27.5 15C27.5 10.5 25.125 6.375 21.25 4.125ZM24.875 19.375H19.25C18.5 19.375 18 19.875 18 20.625C18 21.375 18.5 21.875 19.25 21.875H22.25C20.375 23.875 17.75 25 15 25C9.5 25 5 20.5 5 15C5 14.25 4.5 13.75 3.75 13.75C3 13.75 2.5 14.25 2.5 15C2.5 21.875 8.125 27.5 15 27.5C18.25 27.5 21.25 26.25 23.625 24V26.25C23.625 27 24.125 27.5 24.875 27.5C25.625 27.5 26.125 27 26.125 26.25V20.625C26.125 19.875 25.5 19.375 24.875 19.375Z" fill="#2583C3" fill-opacity="0.84"/>
</svg>
