<svg width="24" height="24" viewBox="0 0 24 24" fill="none" xmlns="http://www.w3.org/2000/svg">
<path opacity="0.5" d="M12 22C17.5228 22 22 17.5228 22 12C22 6.47715 17.5228 2 12 2C6.47715 2 2 6.47715 2 12C2 17.5228 6.47715 22 12 22Z" fill="#197BBD"/>
<path d="M7.37882 12.556L6.81682 13.053C6.88378 13.1285 6.96529 13.1897 7.05647 13.233C7.14765 13.2763 7.24662 13.3007 7.34746 13.3048C7.4483 13.3089 7.54893 13.2926 7.64333 13.2569C7.73773 13.2212 7.82394 13.1668 7.89682 13.097L7.37882 12.556ZM9.51982 11.541C9.65678 11.4019 9.7341 11.2149 9.73536 11.0197C9.73663 10.8245 9.66174 10.6365 9.5266 10.4956C9.39146 10.3547 9.20673 10.2721 9.01164 10.2653C8.81655 10.2584 8.62649 10.3279 8.48182 10.459L9.51982 11.541ZM6.56182 10.503C6.4978 10.4251 6.41873 10.3609 6.32934 10.3143C6.23994 10.2677 6.14206 10.2395 6.04155 10.2316C5.94104 10.2236 5.83995 10.236 5.74434 10.268C5.64873 10.3 5.56055 10.351 5.48508 10.4179C5.40961 10.4847 5.3484 10.5661 5.3051 10.6572C5.2618 10.7482 5.23731 10.8471 5.23308 10.9478C5.22886 11.0486 5.24499 11.1491 5.28051 11.2435C5.31603 11.3378 5.37022 11.4241 5.43982 11.497L6.56182 10.503ZM14.9318 9.00901C14.9987 9.08137 15.0791 9.13985 15.1686 9.18112C15.258 9.22239 15.3547 9.24564 15.4531 9.24954C15.5516 9.25344 15.6498 9.23792 15.7422 9.20385C15.8346 9.16979 15.9195 9.11785 15.9918 9.05101C16.0642 8.98417 16.1227 8.90373 16.1639 8.81428C16.2052 8.72484 16.2285 8.62814 16.2324 8.52971C16.2363 8.43128 16.2207 8.33304 16.1867 8.24061C16.1526 8.14818 16.1007 8.06337 16.0338 7.99101L14.9318 9.00901ZM12.0458 6.25001C9.05982 6.25001 6.62982 8.65301 6.62982 11.63H8.12982C8.12982 9.49301 9.87682 7.75001 12.0458 7.75001V6.25001ZM6.62982 11.63V12.556H8.12982V11.63H6.62982ZM7.89882 13.097L9.52082 11.541L8.48282 10.459L6.86082 12.014L7.89882 13.097ZM7.94082 12.058L6.56182 10.503L5.43982 11.497L6.81682 13.053L7.94082 12.058ZM16.0338 7.99101C15.5252 7.44078 14.9091 7.00198 14.2223 6.70232C13.5355 6.40265 12.7941 6.24864 12.0448 6.25001V7.75001C12.5873 7.74868 13.1242 7.85998 13.6215 8.07686C14.1188 8.29375 14.5657 8.6115 14.9338 9.01001L16.0338 7.99101ZM16.6198 11.444L17.1798 10.946C17.1128 10.8706 17.0312 10.8094 16.94 10.7662C16.8488 10.7231 16.7498 10.6987 16.649 10.6947C16.5481 10.6907 16.4475 10.7071 16.3532 10.7429C16.2588 10.7787 16.1726 10.8331 16.0998 10.903L16.6198 11.444ZM14.4808 12.458C14.3373 12.5959 14.2545 12.7852 14.2506 12.9842C14.2466 13.1831 14.3219 13.3755 14.4598 13.519C14.5977 13.6625 14.787 13.7453 14.986 13.7492C15.1849 13.7532 15.3773 13.6779 15.5208 13.54L14.4808 12.458ZM17.4408 13.498C17.5746 13.6405 17.7588 13.7251 17.954 13.7339C18.1493 13.7426 18.3402 13.6748 18.4862 13.5448C18.6322 13.4148 18.7217 13.233 18.7357 13.0381C18.7496 12.8431 18.6869 12.6504 18.5608 12.501L17.4408 13.498ZM9.04782 15.005C8.91096 14.8633 8.72384 14.7812 8.5269 14.7763C8.32996 14.7714 8.13902 14.8442 7.99532 14.979C7.85163 15.1138 7.76673 15.2997 7.75896 15.4965C7.7512 15.6933 7.82119 15.8853 7.95382 16.031L9.04782 15.005ZM11.9358 17.75C14.9288 17.75 17.3698 15.35 17.3698 12.37H15.8698C15.8698 14.505 14.1168 16.25 11.9358 16.25V17.75ZM17.3698 12.37V11.444H15.8698V12.37H17.3698ZM16.0998 10.903L14.4808 12.458L15.5208 13.54L17.1388 11.985L16.0998 10.903ZM16.0598 11.943L17.4398 13.497L18.5618 12.501L17.1798 10.946L16.0598 11.943ZM7.95282 16.03C8.46345 16.574 9.08037 17.0072 9.76535 17.3029C10.4503 17.5986 11.1887 17.7505 11.9348 17.749V16.249C10.7918 16.249 9.76482 15.769 9.04682 15.004L7.95282 16.03Z" fill="#197BBD"/>
</svg>
