<svg width="20" height="21" viewBox="0 0 20 21" fill="none" xmlns="http://www.w3.org/2000/svg">
<path d="M0.199219 4.89995C0.199219 3.78604 0.641718 2.71776 1.42937 1.9301C2.21702 1.14245 3.28531 0.699951 4.39922 0.699951H15.5992C16.7131 0.699951 17.7814 1.14245 18.5691 1.9301C19.3567 2.71776 19.7992 3.78604 19.7992 4.89995V16.1C19.7992 17.2139 19.3567 18.2821 18.5691 19.0698C17.7814 19.8575 16.7131 20.3 15.5992 20.3H4.39922C3.28531 20.3 2.21702 19.8575 1.42937 19.0698C0.641718 18.2821 0.199219 17.2139 0.199219 16.1V4.89995ZM9.09482 6.44555C9.22626 6.31411 9.3001 6.13584 9.3001 5.94995C9.3001 5.76407 9.22626 5.58579 9.09482 5.45435C8.96338 5.32291 8.7851 5.24907 8.59922 5.24907C8.41333 5.24907 8.23506 5.32291 8.10362 5.45435L6.12682 7.43115L5.57102 6.92435C5.43292 6.80631 5.25434 6.74659 5.07302 6.7578C4.8917 6.769 4.72184 6.85027 4.59933 6.98441C4.47682 7.11855 4.41125 7.29507 4.4165 7.47666C4.42174 7.65826 4.49737 7.8307 4.62742 7.95755L5.67742 8.91655C5.81046 9.03768 5.98503 9.10293 6.1649 9.09876C6.34478 9.09459 6.51614 9.02131 6.64342 8.89415L9.09482 6.44555ZM9.09482 12.4544C9.02979 12.3892 8.95255 12.3374 8.86751 12.3022C8.78246 12.2669 8.69129 12.2487 8.59922 12.2487C8.50714 12.2487 8.41598 12.2669 8.33093 12.3022C8.24589 12.3374 8.16864 12.3892 8.10362 12.4544L6.12682 14.4312L5.57102 13.9244C5.43292 13.8063 5.25434 13.7466 5.07302 13.7578C4.8917 13.769 4.72184 13.8503 4.59933 13.9844C4.47682 14.1186 4.41125 14.2951 4.4165 14.4767C4.42174 14.6583 4.49737 14.8307 4.62742 14.9576L5.67742 15.9166C5.81028 16.0379 5.98475 16.1034 6.16462 16.0994C6.34449 16.0955 6.51595 16.0225 6.64342 15.8956L9.09342 13.4456C9.22465 13.3143 9.29837 13.1363 9.29837 12.9507C9.29837 12.765 9.22465 12.587 9.09342 12.4558M11.3992 13.3C11.2136 13.3 11.0355 13.3737 10.9042 13.505C10.773 13.6363 10.6992 13.8143 10.6992 14C10.6992 14.1856 10.773 14.3637 10.9042 14.4949C11.0355 14.6262 11.2136 14.7 11.3992 14.7H14.8992C15.0849 14.7 15.2629 14.6262 15.3942 14.4949C15.5255 14.3637 15.5992 14.1856 15.5992 14C15.5992 13.8143 15.5255 13.6363 15.3942 13.505C15.2629 13.3737 15.0849 13.3 14.8992 13.3H11.3992ZM10.6992 6.99995C10.6992 7.1856 10.773 7.36365 10.9042 7.49493C11.0355 7.6262 11.2136 7.69995 11.3992 7.69995H14.8992C15.0849 7.69995 15.2629 7.6262 15.3942 7.49493C15.5255 7.36365 15.5992 7.1856 15.5992 6.99995C15.5992 6.8143 15.5255 6.63625 15.3942 6.50498C15.2629 6.3737 15.0849 6.29995 14.8992 6.29995H11.3992C11.2136 6.29995 11.0355 6.3737 10.9042 6.50498C10.773 6.63625 10.6992 6.8143 10.6992 6.99995Z" fill="#95C8EB"/>
</svg>
