<svg width="21" height="21" viewBox="0 0 21 21" fill="none" xmlns="http://www.w3.org/2000/svg">
<path d="M0.699219 4.89995C0.699219 3.78604 1.14172 2.71776 1.92937 1.9301C2.71702 1.14245 3.78531 0.699951 4.89922 0.699951H16.0992C17.2131 0.699951 18.2814 1.14245 19.0691 1.9301C19.8567 2.71776 20.2992 3.78604 20.2992 4.89995V16.1C20.2992 17.2139 19.8567 18.2821 19.0691 19.0698C18.2814 19.8575 17.2131 20.3 16.0992 20.3H4.89922C3.78531 20.3 2.71702 19.8575 1.92937 19.0698C1.14172 18.2821 0.699219 17.2139 0.699219 16.1V4.89995ZM9.59482 6.44555C9.72626 6.31411 9.8001 6.13584 9.8001 5.94995C9.8001 5.76407 9.72626 5.58579 9.59482 5.45435C9.46338 5.32291 9.2851 5.24907 9.09922 5.24907C8.91333 5.24907 8.73506 5.32291 8.60362 5.45435L6.62682 7.43115L6.07102 6.92435C5.93292 6.80631 5.75434 6.74659 5.57302 6.7578C5.3917 6.769 5.22184 6.85027 5.09933 6.98441C4.97682 7.11855 4.91125 7.29507 4.9165 7.47666C4.92174 7.65826 4.99737 7.8307 5.12742 7.95755L6.17742 8.91655C6.31046 9.03768 6.48503 9.10293 6.6649 9.09876C6.84478 9.09459 7.01614 9.02131 7.14342 8.89415L9.59482 6.44555ZM9.59482 12.4544C9.52979 12.3892 9.45255 12.3374 9.36751 12.3022C9.28246 12.2669 9.19129 12.2487 9.09922 12.2487C9.00714 12.2487 8.91598 12.2669 8.83093 12.3022C8.74589 12.3374 8.66864 12.3892 8.60362 12.4544L6.62682 14.4312L6.07102 13.9244C5.93292 13.8063 5.75434 13.7466 5.57302 13.7578C5.3917 13.769 5.22184 13.8503 5.09933 13.9844C4.97682 14.1186 4.91125 14.2951 4.9165 14.4767C4.92174 14.6583 4.99737 14.8307 5.12742 14.9576L6.17742 15.9166C6.31028 16.0379 6.48475 16.1034 6.66462 16.0994C6.84449 16.0955 7.01595 16.0225 7.14342 15.8956L9.59342 13.4456C9.72465 13.3143 9.79837 13.1363 9.79837 12.9507C9.79837 12.765 9.72465 12.587 9.59342 12.4558M11.8992 13.3C11.7136 13.3 11.5355 13.3737 11.4042 13.505C11.273 13.6363 11.1992 13.8143 11.1992 14C11.1992 14.1856 11.273 14.3637 11.4042 14.4949C11.5355 14.6262 11.7136 14.7 11.8992 14.7H15.3992C15.5849 14.7 15.7629 14.6262 15.8942 14.4949C16.0255 14.3637 16.0992 14.1856 16.0992 14C16.0992 13.8143 16.0255 13.6363 15.8942 13.505C15.7629 13.3737 15.5849 13.3 15.3992 13.3H11.8992ZM11.1992 6.99995C11.1992 7.1856 11.273 7.36365 11.4042 7.49493C11.5355 7.6262 11.7136 7.69995 11.8992 7.69995H15.3992C15.5849 7.69995 15.7629 7.6262 15.8942 7.49493C16.0255 7.36365 16.0992 7.1856 16.0992 6.99995C16.0992 6.8143 16.0255 6.63625 15.8942 6.50498C15.7629 6.3737 15.5849 6.29995 15.3992 6.29995H11.8992C11.7136 6.29995 11.5355 6.3737 11.4042 6.50498C11.273 6.63625 11.1992 6.8143 11.1992 6.99995Z" fill="#95C8EB"/>
</svg>
