<svg xmlns="http://www.w3.org/2000/svg" xmlns:xlink="http://www.w3.org/1999/xlink" width="28px" height="28px" viewBox="0 0 28 28" version="1.1">
<g id="surface1">
<path style=" stroke:none;fill-rule:nonzero;fill:rgb(7.45098%,46.666667%,72.54902%);fill-opacity:1;" d="M 14 1.296875 C 14.292969 1.292969 14.589844 1.289062 14.890625 1.289062 C 15.679688 1.398438 15.679688 1.398438 16.183594 1.726562 C 16.632812 2.414062 16.730469 3.023438 16.851562 3.832031 C 16.898438 4.109375 16.941406 4.390625 16.988281 4.675781 C 17.019531 4.886719 17.046875 5.101562 17.078125 5.320312 C 18.292969 5.472656 18.917969 5.273438 19.898438 4.601562 C 20.917969 3.929688 20.917969 3.929688 21.71875 3.851562 C 22.816406 4.414062 23.664062 5.132812 24.359375 6.160156 C 24.421875 7.375 24.261719 7.894531 23.503906 8.835938 C 22.824219 9.691406 22.914062 10.140625 22.960938 11.199219 C 23.21875 11.257812 23.480469 11.316406 23.746094 11.375 C 24.082031 11.449219 24.417969 11.523438 24.761719 11.601562 C 25.097656 11.675781 25.433594 11.75 25.777344 11.828125 C 26.601562 12.039062 26.601562 12.039062 26.878906 12.320312 C 26.898438 12.980469 26.902344 13.636719 26.898438 14.296875 C 26.894531 14.660156 26.890625 15.019531 26.890625 15.390625 C 26.886719 15.671875 26.882812 15.953125 26.878906 16.238281 C 25.679688 16.769531 24.492188 17.242188 23.238281 17.640625 C 22.96875 18.242188 22.96875 18.242188 22.960938 19.039062 C 23.261719 19.515625 23.261719 19.515625 23.660156 19.984375 C 24.335938 20.832031 24.363281 20.929688 24.308594 22.101562 C 24.234375 22.386719 24.15625 22.667969 24.078125 22.960938 C 23.664062 23.097656 23.664062 23.097656 23.238281 23.238281 C 23.136719 23.515625 23.136719 23.515625 23.03125 23.800781 C 22.679688 24.359375 22.679688 24.359375 21.789062 24.65625 C 20.515625 24.636719 20.164062 24.316406 19.21875 23.542969 C 18.738281 23.160156 18.738281 23.160156 17.9375 23.292969 C 17.652344 23.40625 17.652344 23.40625 17.359375 23.519531 C 17.277344 23.816406 17.199219 24.109375 17.113281 24.414062 C 16.449219 26.671875 16.449219 26.671875 15.960938 27.160156 C 15.367188 27.203125 14.769531 27.222656 14.175781 27.230469 C 13.6875 27.242188 13.6875 27.242188 13.1875 27.25 C 12.320312 27.160156 12.320312 27.160156 11.804688 26.835938 C 11.371094 26.144531 11.269531 25.53125 11.148438 24.726562 C 11.101562 24.449219 11.058594 24.171875 11.011719 23.882812 C 10.980469 23.671875 10.953125 23.460938 10.921875 23.238281 C 9.75 23.097656 9.152344 23.230469 8.242188 23.941406 C 8.015625 24.136719 8.015625 24.136719 7.785156 24.332031 C 7.089844 24.753906 6.679688 24.761719 5.878906 24.640625 C 5.253906 24.199219 5.253906 24.199219 4.671875 23.609375 C 4.476562 23.414062 4.28125 23.222656 4.082031 23.027344 C 3.546875 22.269531 3.496094 21.910156 3.640625 21 C 3.945312 20.492188 3.945312 20.492188 4.339844 20.039062 C 5.046875 19.128906 5.183594 18.53125 5.039062 17.359375 C 4.828125 17.328125 4.613281 17.296875 4.394531 17.265625 C 4.117188 17.222656 3.839844 17.179688 3.550781 17.132812 C 3.277344 17.089844 3 17.046875 2.714844 17.003906 C 1.894531 16.78125 1.582031 16.671875 1.121094 15.960938 C 1.007812 15.171875 1.007812 15.171875 1.015625 14.28125 C 1.011719 13.984375 1.011719 13.691406 1.007812 13.386719 C 1.121094 12.601562 1.121094 12.601562 1.457031 12.097656 C 2.101562 11.667969 2.652344 11.554688 3.414062 11.425781 C 3.664062 11.382812 3.917969 11.339844 4.175781 11.292969 C 4.371094 11.261719 4.5625 11.230469 4.761719 11.199219 C 5.027344 10.453125 5.027344 10.453125 5.039062 9.519531 C 4.742188 9.015625 4.742188 9.015625 4.339844 8.539062 C 3.800781 7.84375 3.648438 7.625 3.550781 6.71875 C 4.09375 5.484375 4.976562 4.574219 6.160156 3.921875 C 7.164062 3.988281 7.550781 4.195312 8.382812 4.796875 C 9.207031 5.414062 9.207031 5.414062 10.183594 5.25 C 10.425781 5.179688 10.671875 5.113281 10.921875 5.039062 C 10.949219 4.847656 10.980469 4.65625 11.011719 4.457031 C 11.058594 4.203125 11.101562 3.953125 11.148438 3.691406 C 11.191406 3.441406 11.230469 3.191406 11.277344 2.933594 C 11.726562 1.402344 12.484375 1.285156 14 1.296875 Z M 9.976562 11.042969 C 9.074219 12.460938 8.710938 13.710938 8.960938 15.398438 C 9.496094 17.054688 10.351562 18.050781 11.761719 19.039062 C 13.261719 19.539062 14.808594 19.511719 16.308594 19.023438 C 17.546875 18.152344 18.558594 17.128906 19.039062 15.679688 C 19.246094 13.753906 19.078125 12.488281 17.921875 10.921875 C 16.714844 9.777344 15.703125 9.296875 14.050781 9.136719 C 12.394531 9.183594 11.117188 9.871094 9.976562 11.042969 Z M 9.976562 11.042969 "/>
<path style=" stroke:none;fill-rule:nonzero;fill:rgb(7.45098%,46.666667%,72.54902%);fill-opacity:1;" d="M 14.578125 11.625 C 15.527344 11.863281 15.957031 12.390625 16.519531 13.160156 C 16.90625 14.097656 16.832031 14.46875 16.503906 15.433594 C 15.839844 16.417969 15.410156 16.730469 14.28125 17.078125 C 13.246094 16.921875 12.582031 16.738281 11.777344 16.066406 C 11.339844 15.089844 11.265625 14.195312 11.480469 13.160156 C 12.324219 11.894531 13.105469 11.527344 14.578125 11.625 Z M 14.578125 11.625 "/>
</g>
</svg>