<svg xmlns="http://www.w3.org/2000/svg" xmlns:xlink="http://www.w3.org/1999/xlink" width="26px" height="26px" viewBox="0 0 26 26" version="1.1">
<g id="surface1">
<path style=" stroke:none;fill-rule:nonzero;fill:rgb(7.45098%,46.666667%,72.54902%);fill-opacity:1;" d="M 5.460938 13.78125 C 7.605469 13.78125 9.75 13.78125 11.960938 13.78125 C 11.960938 15.925781 11.960938 18.070312 11.960938 20.28125 C 9.816406 20.28125 7.671875 20.28125 5.460938 20.28125 C 5.460938 18.136719 5.460938 15.988281 5.460938 13.78125 Z M 7.800781 16.121094 C 7.800781 16.71875 7.800781 17.320312 7.800781 17.941406 C 8.402344 17.941406 9 17.941406 9.621094 17.941406 C 9.621094 17.339844 9.621094 16.738281 9.621094 16.121094 C 9.019531 16.121094 8.417969 16.121094 7.800781 16.121094 Z M 7.800781 16.121094 "/>
<path style=" stroke:none;fill-rule:nonzero;fill:rgb(7.45098%,46.666667%,72.54902%);fill-opacity:1;" d="M 13.78125 5.460938 C 15.925781 5.460938 18.070312 5.460938 20.28125 5.460938 C 20.28125 7.605469 20.28125 9.75 20.28125 11.960938 C 18.136719 11.960938 15.988281 11.960938 13.78125 11.960938 C 13.78125 9.816406 13.78125 7.671875 13.78125 5.460938 Z M 16.121094 7.800781 C 16.121094 8.402344 16.121094 9 16.121094 9.621094 C 16.71875 9.621094 17.320312 9.621094 17.941406 9.621094 C 17.941406 9.019531 17.941406 8.417969 17.941406 7.800781 C 17.339844 7.800781 16.738281 7.800781 16.121094 7.800781 Z M 16.121094 7.800781 "/>
<path style=" stroke:none;fill-rule:nonzero;fill:rgb(7.45098%,46.666667%,72.54902%);fill-opacity:1;" d="M 5.460938 5.460938 C 7.605469 5.460938 9.75 5.460938 11.960938 5.460938 C 11.960938 7.605469 11.960938 9.75 11.960938 11.960938 C 9.816406 11.960938 7.671875 11.960938 5.460938 11.960938 C 5.460938 9.816406 5.460938 7.671875 5.460938 5.460938 Z M 7.800781 7.800781 C 7.800781 8.402344 7.800781 9 7.800781 9.621094 C 8.402344 9.621094 9 9.621094 9.621094 9.621094 C 9.621094 9.019531 9.621094 8.417969 9.621094 7.800781 C 9.019531 7.800781 8.417969 7.800781 7.800781 7.800781 Z M 7.800781 7.800781 "/>
<path style=" stroke:none;fill-rule:nonzero;fill:rgb(7.45098%,46.666667%,72.54902%);fill-opacity:1;" d="M 13.78125 13.78125 C 14.550781 13.78125 15.324219 13.78125 16.121094 13.78125 C 16.121094 14.464844 16.121094 15.152344 16.121094 15.859375 C 17.492188 15.859375 18.867188 15.859375 20.28125 15.859375 C 20.28125 17.320312 20.28125 18.777344 20.28125 20.28125 C 19.507812 20.28125 18.734375 20.28125 17.941406 20.28125 C 17.941406 19.59375 17.941406 18.90625 17.941406 18.199219 C 17.339844 18.199219 16.738281 18.199219 16.121094 18.199219 C 16.121094 18.886719 16.121094 19.574219 16.121094 20.28125 C 15.347656 20.28125 14.574219 20.28125 13.78125 20.28125 C 13.78125 19.507812 13.78125 18.734375 13.78125 17.941406 C 14.464844 17.941406 15.152344 17.941406 15.859375 17.941406 C 15.859375 17.339844 15.859375 16.738281 15.859375 16.121094 C 15.171875 16.121094 14.488281 16.121094 13.78125 16.121094 C 13.78125 15.347656 13.78125 14.574219 13.78125 13.78125 Z M 13.78125 13.78125 "/>
<path style=" stroke:none;fill-rule:nonzero;fill:rgb(7.45098%,46.666667%,72.54902%);fill-opacity:1;" d="M 21.839844 17.941406 C 22.613281 17.941406 23.382812 17.941406 24.179688 17.941406 C 24.179688 20 24.179688 22.058594 24.179688 24.179688 C 22.121094 24.179688 20.0625 24.179688 17.941406 24.179688 C 17.941406 23.40625 17.941406 22.636719 17.941406 21.839844 C 19.226562 21.839844 20.515625 21.839844 21.839844 21.839844 C 21.839844 20.554688 21.839844 19.265625 21.839844 17.941406 Z M 21.839844 17.941406 "/>
<path style=" stroke:none;fill-rule:nonzero;fill:rgb(7.45098%,46.666667%,72.54902%);fill-opacity:1;" d="M 1.558594 17.941406 C 2.332031 17.941406 3.105469 17.941406 3.898438 17.941406 C 3.898438 19.226562 3.898438 20.515625 3.898438 21.839844 C 5.1875 21.839844 6.472656 21.839844 7.800781 21.839844 C 7.800781 22.613281 7.800781 23.382812 7.800781 24.179688 C 5.742188 24.179688 3.679688 24.179688 1.558594 24.179688 C 1.558594 22.121094 1.558594 20.0625 1.558594 17.941406 Z M 1.558594 17.941406 "/>
<path style=" stroke:none;fill-rule:nonzero;fill:rgb(7.45098%,46.666667%,72.54902%);fill-opacity:1;" d="M 17.941406 1.558594 C 20 1.558594 22.058594 1.558594 24.179688 1.558594 C 24.179688 3.621094 24.179688 5.679688 24.179688 7.800781 C 23.40625 7.800781 22.636719 7.800781 21.839844 7.800781 C 21.839844 6.511719 21.839844 5.226562 21.839844 3.898438 C 20.554688 3.898438 19.265625 3.898438 17.941406 3.898438 C 17.941406 3.128906 17.941406 2.355469 17.941406 1.558594 Z M 17.941406 1.558594 "/>
<path style=" stroke:none;fill-rule:nonzero;fill:rgb(7.45098%,46.666667%,72.54902%);fill-opacity:1;" d="M 1.558594 1.558594 C 3.621094 1.558594 5.679688 1.558594 7.800781 1.558594 C 7.800781 2.332031 7.800781 3.105469 7.800781 3.898438 C 6.511719 3.898438 5.226562 3.898438 3.898438 3.898438 C 3.898438 5.1875 3.898438 6.472656 3.898438 7.800781 C 3.128906 7.800781 2.355469 7.800781 1.558594 7.800781 C 1.558594 5.742188 1.558594 3.679688 1.558594 1.558594 Z M 1.558594 1.558594 "/>
</g>
</svg>