<svg width="34" height="34" viewBox="0 0 34 34" fill="none" xmlns="http://www.w3.org/2000/svg">
<circle cx="17" cy="17" r="15.5" fill="#FFD66B" stroke="#FFC93D" stroke-width="3"/>
<path d="M23.5625 13.0628C23.6785 13.0628 23.7898 13.1089 23.8719 13.1909C23.9539 13.273 24 13.3843 24 13.5003V20.5003C24 20.6163 23.9539 20.7276 23.8719 20.8097C23.7898 20.8917 23.6785 20.9378 23.5625 20.9378C23.4465 20.9378 23.3352 20.8917 23.2531 20.8097C23.1711 20.7276 23.125 20.6163 23.125 20.5003V17.6592L17.6414 20.8407C17.1689 21.1146 16.5625 20.7829 16.5625 20.2308V17.6583L11.0789 20.8398C10.6064 21.1154 10 20.7838 10 20.2317V13.7698C10 13.2186 10.6064 12.8861 11.0789 13.1608L16.5625 16.3423V13.7698C16.5625 13.2186 17.1689 12.8861 17.6414 13.1608L23.125 16.3423V13.5003C23.125 13.3843 23.1711 13.273 23.2531 13.1909C23.3352 13.1089 23.4465 13.0628 23.5625 13.0628Z" fill="white"/>
</svg>
