<svg width="24" height="24" viewBox="0 0 24 24" fill="none" xmlns="http://www.w3.org/2000/svg">
<g id="basil:add-solid">
<path id="Vector" fill-rule="evenodd" clip-rule="evenodd" d="M7.34501 4.01697C10.4389 3.67403 13.5612 3.67403 16.655 4.01697C18.368 4.20897 19.75 5.55797 19.951 7.27697C20.318 10.4149 20.318 13.585 19.951 16.723C19.75 18.442 18.368 19.791 16.655 19.983C13.5612 20.326 10.4389 20.326 7.34501 19.983C5.63201 19.791 4.25001 18.442 4.04901 16.723C3.68203 13.5853 3.68203 10.4156 4.04901 7.27797C4.15068 6.44284 4.53139 5.66651 5.12944 5.07481C5.7275 4.48311 6.50784 4.11071 7.34401 4.01797M12 7.00697C12.1989 7.00697 12.3897 7.08599 12.5303 7.22664C12.671 7.36729 12.75 7.55806 12.75 7.75697V11.25H16.243C16.4419 11.25 16.6327 11.329 16.7733 11.4696C16.914 11.6103 16.993 11.8011 16.993 12C16.993 12.1989 16.914 12.3896 16.7733 12.5303C16.6327 12.671 16.4419 12.75 16.243 12.75H12.75V16.243C12.75 16.4419 12.671 16.6326 12.5303 16.7733C12.3897 16.914 12.1989 16.993 12 16.993C11.8011 16.993 11.6103 16.914 11.4697 16.7733C11.329 16.6326 11.25 16.4419 11.25 16.243V12.75H7.75701C7.5581 12.75 7.36733 12.671 7.22668 12.5303C7.08603 12.3896 7.00701 12.1989 7.00701 12C7.00701 11.8011 7.08603 11.6103 7.22668 11.4696C7.36733 11.329 7.5581 11.25 7.75701 11.25H11.25V7.75697C11.25 7.55806 11.329 7.36729 11.4697 7.22664C11.6103 7.08599 11.8011 7.00697 12 7.00697Z" fill="#197BBD"/>
</g>
</svg>
