<svg width="17" height="20" viewBox="0 0 17 20" fill="none" xmlns="http://www.w3.org/2000/svg">
<path d="M5.875 2.625V0.875H11.125V2.625H5.875ZM7.625 12.25H9.375V7H7.625V12.25ZM8.5 19.25C7.42083 19.25 6.4035 19.0423 5.448 18.627C4.4925 18.2117 3.65775 17.6464 2.94375 16.9312C2.22917 16.2167 1.66421 15.3816 1.24888 14.4261C0.833542 13.4706 0.625583 12.4536 0.625 11.375C0.625 10.2958 0.832958 9.2785 1.24888 8.323C1.66479 7.3675 2.22975 6.53275 2.94375 5.81875C3.65833 5.10417 4.49337 4.53921 5.44887 4.12387C6.40437 3.70854 7.42142 3.50058 8.5 3.5C9.40417 3.5 10.2719 3.64583 11.1031 3.9375C11.9344 4.22917 12.7146 4.65208 13.4437 5.20625L14.6687 3.98125L15.8938 5.20625L14.6687 6.43125C15.2229 7.16042 15.6458 7.94062 15.9375 8.77187C16.2292 9.60312 16.375 10.4708 16.375 11.375C16.375 12.4542 16.167 13.4715 15.7511 14.427C15.3352 15.3825 14.7703 16.2173 14.0563 16.9312C13.3417 17.6458 12.5066 18.2111 11.5511 18.627C10.5956 19.0429 9.57858 19.2506 8.5 19.25Z" fill="#2B3674"/>
</svg>
