<svg width="34" height="34" viewBox="0 0 34 34" fill="none" xmlns="http://www.w3.org/2000/svg">
<g id="Icon" clip-path="url(#clip0_1_15)">
<path id="Vector" d="M12.875 5.07812C12.875 2.82581 14.7218 1 17 1C19.2782 1 21.125 2.82581 21.125 5.07812C21.125 7.33038 19.2782 9.15625 17 9.15625C14.7218 9.15625 12.875 7.33038 12.875 5.07812ZM27.463 5.15589C26.7471 4.44805 25.5863 4.44805 24.8703 5.15589L19.9073 10.0625H14.0927L9.12966 5.15589C8.41374 4.44805 7.2529 4.44805 6.53698 5.15589C5.82101 5.86373 5.82101 7.01133 6.53698 7.71916L11.9583 13.0788V28.1875C11.9583 29.1885 12.7791 30 13.7917 30H14.7083C15.7208 30 16.5417 29.1885 16.5417 28.1875V21.8438H17.4583V28.1875C17.4583 29.1885 18.2792 30 19.2917 30H20.2083C21.2209 30 22.0417 29.1885 22.0417 28.1875V13.0788L27.463 7.71911C28.179 7.01127 28.179 5.86373 27.463 5.15589Z" fill="#1376B9"/>
</g>
<defs>
<clipPath id="clip0_1_15">
<rect width="32.8417" height="32.8417" fill="white" transform="translate(0.526367 0.724243)"/>
</clipPath>
</defs>
</svg>
