<svg width="18" height="14" viewBox="0 0 18 14" fill="none" xmlns="http://www.w3.org/2000/svg">
<path d="M9 3.875C9 4.7038 8.67076 5.49866 8.08471 6.08471C7.49866 6.67076 6.7038 7 5.875 7C5.0462 7 4.25134 6.67076 3.66529 6.08471C3.07924 5.49866 2.75 4.7038 2.75 3.875C2.75 3.0462 3.07924 2.25134 3.66529 1.66529C4.25134 1.07924 5.0462 0.75 5.875 0.75C6.7038 0.75 7.49866 1.07924 8.08471 1.66529C8.67076 2.25134 9 3.0462 9 3.875ZM13.375 7C14.038 7 14.6739 6.73661 15.1428 6.26777C15.6116 5.79893 15.875 5.16304 15.875 4.5C15.875 3.83696 15.6116 3.20107 15.1428 2.73223C14.6739 2.26339 14.038 2 13.375 2C12.712 2 12.0761 2.26339 11.6072 2.73223C11.1384 3.20107 10.875 3.83696 10.875 4.5C10.875 5.16304 11.1384 5.79893 11.6072 6.26777C12.0761 6.73661 12.712 7 13.375 7ZM12.125 10.2425V10.125C12.1259 9.4487 11.9065 8.7905 11.5 8.25H15.5912C16.4362 8.25 17.1225 8.935 17.1225 9.78125C17.1225 9.78125 17.1225 12.625 13.3725 12.625C12.625 12.625 12.0262 12.5125 11.5475 12.3313C11.8461 11.7841 12.0358 11.1843 12.1062 10.565C12.1137 10.4875 12.1187 10.4212 12.1213 10.3663L12.125 10.2425ZM10.875 10.125C10.875 9.62772 10.6775 9.15081 10.3258 8.79917C9.97419 8.44754 9.49728 8.25 9 8.25H2.75C2.25272 8.25 1.77581 8.44754 1.42417 8.79917C1.07254 9.15081 0.875 9.62772 0.875 10.125V10.2188C0.875 10.2188 0.875 13.875 5.875 13.875C10.64 13.875 10.8638 10.555 10.875 10.2425V10.2188V10.125Z" fill="#1376B9"/>
</svg>
