<svg width="18" height="20" viewBox="0 0 18 20" fill="none" xmlns="http://www.w3.org/2000/svg">
<path fill-rule="evenodd" clip-rule="evenodd" d="M3.5 14H13C14.886 14 15.828 14 16.414 13.414C17 12.828 17 11.886 17 10V5C17 3.114 17 2.172 16.414 1.586C15.828 1 14.886 1 13 1H5C3.114 1 2.172 1 1.586 1.586C1 2.172 1 3.114 1 5V16.5C1 15.837 1.26339 15.2011 1.73223 14.7322C2.20107 14.2634 2.83696 14 3.5 14ZM6 4C5.46957 4 4.96086 4.21071 4.58578 4.58578C4.21071 4.96086 4 5.46957 4 6C4 6.53043 4.21071 7.03914 4.58578 7.41421C4.96086 7.78928 5.46957 8 6 8H12C12.5304 8 13.0391 7.78928 13.4142 7.41421C13.7893 7.03914 14 6.53043 14 6C14 5.46957 13.7893 4.96086 13.4142 4.58578C13.0391 4.21071 12.5304 4 12 4H6Z" stroke="#333333" stroke-width="2"/>
<path d="M13 13H3.5V15H13V13ZM15.707 12.707C15.631 12.783 15.495 12.877 15.061 12.936C14.599 12.998 13.971 13 13 13V15C13.915 15 14.701 15.002 15.328 14.918C15.983 14.83 16.612 14.631 17.121 14.121L15.707 12.707ZM16 10C16 10.971 15.998 11.599 15.936 12.061C15.877 12.495 15.783 12.631 15.707 12.707L17.121 14.121C17.631 13.611 17.83 12.983 17.918 12.328C18.002 11.7 18 10.915 18 10H16ZM16 5V10H18V5H16ZM15.707 2.293C15.783 2.369 15.877 2.505 15.936 2.939C15.998 3.4 16 4.029 16 5H18C18 4.085 18.002 3.299 17.918 2.672C17.83 2.017 17.631 1.388 17.121 0.879004L15.707 2.293ZM13 2C13.971 2 14.599 2.002 15.061 2.064C15.495 2.123 15.631 2.217 15.707 2.293L17.121 0.879004C16.611 0.369004 15.983 0.170004 15.328 0.0820041C14.7 -0.00199585 13.915 4.13212e-06 13 4.13212e-06V2ZM5 2H13V4.13212e-06H5V2ZM2.293 2.293C2.369 2.217 2.505 2.123 2.939 2.064C3.4 2.002 4.029 2 5 2V4.13212e-06C4.085 4.13212e-06 3.299 -0.00199585 2.672 0.0820041C2.017 0.170004 1.388 0.369004 0.879004 0.879004L2.293 2.293ZM2 5C2 4.029 2.002 3.401 2.064 2.939C2.123 2.505 2.217 2.369 2.293 2.293L0.879004 0.879004C0.369004 1.389 0.170004 2.017 0.0820041 2.672C-0.00199585 3.3 4.13212e-06 4.085 4.13212e-06 5H2ZM2 16.5V5H4.13212e-06V16.5H2ZM3.5 13C2.57175 13 1.68151 13.3687 1.02513 14.0251C0.368753 14.6815 4.13212e-06 15.5717 4.13212e-06 16.5H2C2 16.1022 2.15804 15.7206 2.43934 15.4393C2.72065 15.158 3.10218 15 3.5 15V13ZM5 6C5 5.73479 5.10536 5.48043 5.2929 5.2929C5.48043 5.10536 5.73479 5 6 5V3C5.20435 3 4.44129 3.31607 3.87868 3.87868C3.31607 4.44129 3 5.20435 3 6H5ZM6 7C5.73479 7 5.48043 6.89464 5.2929 6.70711C5.10536 6.51957 5 6.26522 5 6H3C3 6.79565 3.31607 7.55871 3.87868 8.12132C4.44129 8.68393 5.20435 9 6 9V7ZM12 7H6V9H12V7ZM13 6C13 6.26522 12.8946 6.51957 12.7071 6.70711C12.5196 6.89464 12.2652 7 12 7V9C12.7956 9 13.5587 8.68393 14.1213 8.12132C14.6839 7.55871 15 6.79565 15 6H13ZM12 5C12.2652 5 12.5196 5.10536 12.7071 5.2929C12.8946 5.48043 13 5.73479 13 6H15C15 5.20435 14.6839 4.44129 14.1213 3.87868C13.5587 3.31607 12.7956 3 12 3V5ZM6 5H12V3H6V5ZM8 18H3.5V20H8V18ZM4.13212e-06 16.5C4.13212e-06 17.4283 0.368753 18.3185 1.02513 18.9749C1.68151 19.6312 2.57175 20 3.5 20V18C3.10218 18 2.72065 17.842 2.43934 17.5607C2.15804 17.2794 2 16.8978 2 16.5H4.13212e-06Z" fill="#333333"/>
<path d="M17 19H7" stroke="#333333" stroke-width="2" stroke-linecap="round"/>
</svg>
