<svg width="34" height="34" viewBox="0 0 34 34" fill="none" xmlns="http://www.w3.org/2000/svg">
<g id="Icon" clip-path="url(#clip0_1_24)">
<g id="&#240;&#159;&#166;&#134; icon &#34;book 1&#34;">
<g id="Group">
<path id="Vector" d="M29 9.49404V23.1595C29 24.2744 28.092 25.2973 26.9772 25.4352L26.6209 25.4812C24.736 25.734 22.081 26.5156 19.9433 27.412C19.1962 27.7224 18.3687 27.1592 18.3687 26.3432V10.356C18.3687 9.93078 18.6101 9.54001 18.9893 9.33313C21.0926 8.1953 24.2763 7.18389 26.437 7H26.5059C27.8851 7 29 8.11485 29 9.49404Z" fill="#1376B9"/>
<path id="Vector_2" d="M16.0221 9.33313C13.9189 8.1953 10.7352 7.18389 8.57449 7H8.49404C7.11485 7 6 8.11485 6 9.49404V23.1595C6 24.2744 6.90797 25.2973 8.02281 25.4352L8.37911 25.4812C10.264 25.734 12.9189 26.5156 15.0567 27.412C15.8038 27.7224 16.6313 27.1592 16.6313 26.3432V10.356C16.6313 9.91929 16.4014 9.54001 16.0221 9.33313ZM9.45947 12.8156H12.0455C12.5167 12.8156 12.9075 13.2064 12.9075 13.6776C12.9075 14.1603 12.5167 14.5396 12.0455 14.5396H9.45947C8.98825 14.5396 8.59748 14.1603 8.59748 13.6776C8.59748 13.2064 8.98825 12.8156 9.45947 12.8156ZM12.9075 17.9876H9.45947C8.98825 17.9876 8.59748 17.6083 8.59748 17.1256C8.59748 16.6544 8.98825 16.2636 9.45947 16.2636H12.9075C13.3787 16.2636 13.7694 16.6544 13.7694 17.1256C13.7694 17.6083 13.3787 17.9876 12.9075 17.9876Z" fill="#1376B9"/>
</g>
</g>
</g>
<defs>
<clipPath id="clip0_1_24">
<rect width="32.8417" height="32.8417" fill="white" transform="translate(0.526367 0.724243)"/>
</clipPath>
</defs>
</svg>
