<svg width="28" height="29" viewBox="0 0 28 29" fill="none" xmlns="http://www.w3.org/2000/svg">
<path d="M4.19922 8.89995C4.19922 7.78604 4.64172 6.71776 5.42937 5.9301C6.21702 5.14245 7.28531 4.69995 8.39922 4.69995H19.5992C20.7131 4.69995 21.7814 5.14245 22.5691 5.9301C23.3567 6.71776 23.7992 7.78604 23.7992 8.89995V20.1C23.7992 21.2139 23.3567 22.2821 22.5691 23.0698C21.7814 23.8575 20.7131 24.3 19.5992 24.3H8.39922C7.28531 24.3 6.21702 23.8575 5.42937 23.0698C4.64172 22.2821 4.19922 21.2139 4.19922 20.1V8.89995ZM13.0948 10.4456C13.2263 10.3141 13.3001 10.1358 13.3001 9.94995C13.3001 9.76407 13.2263 9.58579 13.0948 9.45435C12.9634 9.32291 12.7851 9.24907 12.5992 9.24907C12.4133 9.24907 12.2351 9.32291 12.1036 9.45435L10.1268 11.4312L9.57102 10.9244C9.43292 10.8063 9.25434 10.7466 9.07302 10.7578C8.8917 10.769 8.72184 10.8503 8.59933 10.9844C8.47682 11.1186 8.41125 11.2951 8.4165 11.4767C8.42174 11.6583 8.49737 11.8307 8.62742 11.9576L9.67742 12.9166C9.81046 13.0377 9.98503 13.1029 10.1649 13.0988C10.3448 13.0946 10.5161 13.0213 10.6434 12.8942L13.0948 10.4456ZM13.0948 16.4544C13.0298 16.3892 12.9525 16.3374 12.8675 16.3022C12.7825 16.2669 12.6913 16.2487 12.5992 16.2487C12.5071 16.2487 12.416 16.2669 12.3309 16.3022C12.2459 16.3374 12.1686 16.3892 12.1036 16.4544L10.1268 18.4312L9.57102 17.9244C9.43292 17.8063 9.25434 17.7466 9.07302 17.7578C8.8917 17.769 8.72184 17.8503 8.59933 17.9844C8.47682 18.1186 8.41125 18.2951 8.4165 18.4767C8.42174 18.6583 8.49737 18.8307 8.62742 18.9576L9.67742 19.9166C9.81028 20.0379 9.98475 20.1034 10.1646 20.0994C10.3445 20.0955 10.516 20.0225 10.6434 19.8956L13.0934 17.4456C13.2246 17.3143 13.2984 17.1363 13.2984 16.9507C13.2984 16.765 13.2246 16.587 13.0934 16.4558M15.3992 17.3C15.2136 17.3 15.0355 17.3737 14.9042 17.505C14.773 17.6363 14.6992 17.8143 14.6992 18C14.6992 18.1856 14.773 18.3637 14.9042 18.4949C15.0355 18.6262 15.2136 18.7 15.3992 18.7H18.8992C19.0849 18.7 19.2629 18.6262 19.3942 18.4949C19.5255 18.3637 19.5992 18.1856 19.5992 18C19.5992 17.8143 19.5255 17.6363 19.3942 17.505C19.2629 17.3737 19.0849 17.3 18.8992 17.3H15.3992ZM14.6992 11C14.6992 11.1856 14.773 11.3637 14.9042 11.4949C15.0355 11.6262 15.2136 11.7 15.3992 11.7H18.8992C19.0849 11.7 19.2629 11.6262 19.3942 11.4949C19.5255 11.3637 19.5992 11.1856 19.5992 11C19.5992 10.8143 19.5255 10.6363 19.3942 10.505C19.2629 10.3737 19.0849 10.3 18.8992 10.3H15.3992C15.2136 10.3 15.0355 10.3737 14.9042 10.505C14.773 10.6363 14.6992 10.8143 14.6992 11Z" fill="#95C8EB"/>
</svg>
