<svg width="26" height="27" viewBox="0 0 26 27" fill="none" xmlns="http://www.w3.org/2000/svg">
<path d="M3.25 7.27083C3.25 6.33705 3.62094 5.44151 4.28123 4.78123C4.94151 4.12094 5.83705 3.75 6.77083 3.75H19.2292C20.1629 3.75 21.0585 4.12094 21.7188 4.78123C22.3791 5.44151 22.75 6.33705 22.75 7.27083V13.5238C21.398 12.6591 19.7911 12.2822 18.1956 12.4555C16.6001 12.6288 15.1116 13.342 13.9768 14.4768C12.842 15.6116 12.1288 17.1001 11.9555 18.6956C11.7822 20.2911 12.1591 21.898 13.0238 23.25H6.77083C5.83705 23.25 4.94151 22.8791 4.28123 22.2188C3.62094 21.5585 3.25 20.6629 3.25 19.7292V7.27083ZM13.5417 10.5208C13.5417 10.9693 13.9057 11.3333 14.3542 11.3333H18.1458C18.3613 11.3333 18.568 11.2477 18.7204 11.0954C18.8727 10.943 18.9583 10.7363 18.9583 10.5208C18.9583 10.3053 18.8727 10.0987 18.7204 9.94631C18.568 9.79394 18.3613 9.70833 18.1458 9.70833H14.3542C14.1387 9.70833 13.932 9.79394 13.7796 9.94631C13.6273 10.0987 13.5417 10.3053 13.5417 10.5208ZM11.6783 10.0117C11.7582 9.93728 11.8222 9.84758 11.8666 9.74792C11.911 9.64825 11.9349 9.54066 11.9368 9.43157C11.9387 9.32247 11.9187 9.21411 11.8778 9.11294C11.8369 9.01177 11.7761 8.91986 11.699 8.84271C11.6218 8.76555 11.5299 8.70473 11.4287 8.66387C11.3276 8.623 11.2192 8.60293 11.1101 8.60486C11.001 8.60678 10.8934 8.63066 10.7937 8.67507C10.6941 8.71948 10.6044 8.78351 10.53 8.86333L8.9375 10.4558L8.42833 9.94667C8.27431 9.80315 8.07059 9.72501 7.8601 9.72873C7.64961 9.73244 7.44877 9.81771 7.29991 9.96658C7.15105 10.1154 7.06577 10.3163 7.06206 10.5268C7.05835 10.7373 7.13648 10.941 7.28 11.095L8.36333 12.1783C8.51568 12.3305 8.72219 12.416 8.9375 12.416C9.15281 12.416 9.35932 12.3305 9.51167 12.1783L11.6783 10.0117ZM11.6783 14.8217C11.526 14.6695 11.3195 14.584 11.1042 14.584C10.8889 14.584 10.6823 14.6695 10.53 14.8217L8.9375 16.4142L8.42833 15.905C8.27431 15.7615 8.07059 15.6833 7.8601 15.6871C7.64961 15.6908 7.44877 15.776 7.29991 15.9249C7.15105 16.0738 7.06577 16.2746 7.06206 16.4851C7.05835 16.6956 7.13648 16.8993 7.28 17.0533L8.36333 18.1367C8.51568 18.2888 8.72219 18.3743 8.9375 18.3743C9.15281 18.3743 9.35932 18.2888 9.51167 18.1367L11.6783 15.97C11.8305 15.8177 11.916 15.6111 11.916 15.3958C11.916 15.1805 11.8305 14.974 11.6783 14.8217ZM24.9167 19.4583C24.9167 17.8781 24.2889 16.3626 23.1715 15.2452C22.0541 14.1278 20.5386 13.5 18.9583 13.5C17.3781 13.5 15.8626 14.1278 14.7452 15.2452C13.6278 16.3626 13 17.8781 13 19.4583C13 21.0386 13.6278 22.5541 14.7452 23.6715C15.8626 24.7889 17.3781 25.4167 18.9583 25.4167C20.5386 25.4167 22.0541 24.7889 23.1715 23.6715C24.2889 22.5541 24.9167 21.0386 24.9167 19.4583ZM19.5 20L19.5011 22.7116C19.5011 22.8552 19.444 22.993 19.3424 23.0946C19.2408 23.1962 19.1031 23.2532 18.9594 23.2532C18.8158 23.2532 18.678 23.1962 18.5764 23.0946C18.4748 22.993 18.4177 22.8552 18.4177 22.7116V20H15.704C15.5603 20 15.4226 19.9429 15.321 19.8413C15.2194 19.7398 15.1623 19.602 15.1623 19.4583C15.1623 19.3147 15.2194 19.1769 15.321 19.0753C15.4226 18.9737 15.5603 18.9167 15.704 18.9167H18.4167V16.2083C18.4167 16.0647 18.4737 15.9269 18.5753 15.8253C18.6769 15.7237 18.8147 15.6667 18.9583 15.6667C19.102 15.6667 19.2398 15.7237 19.3413 15.8253C19.4429 15.9269 19.5 16.0647 19.5 16.2083V18.9167H22.2051C22.3487 18.9167 22.4865 18.9737 22.5881 19.0753C22.6897 19.1769 22.7467 19.3147 22.7467 19.4583C22.7467 19.602 22.6897 19.7398 22.5881 19.8413C22.4865 19.9429 22.3487 20 22.2051 20H19.5Z" fill="#A3AED0"/>
</svg>
