<svg width="34" height="34" viewBox="0 0 34 34" fill="none" xmlns="http://www.w3.org/2000/svg">
<g id="Icon">
<g id="&#240;&#159;&#166;&#134; icon &#34;teacher&#34;">
<path id="Vector" d="M28 28.6179C27.972 28.003 27.8882 27.388 27.8323 26.7731C27.6366 25.1798 27.3571 23.6145 26.9658 22.0492C26.7981 21.4622 26.6024 20.9032 26.4067 20.3162C26.0434 19.1702 25.2048 18.5273 24.1426 18.108C23.2761 17.7726 22.3817 17.5769 21.5152 17.2695C21.3195 17.1856 21.2636 17.2415 21.2357 17.4092C21.0679 18.0801 20.9002 18.7509 20.7046 19.3938C20.2014 21.2666 19.6704 23.1114 18.8597 24.8444C18.8318 24.9562 18.8038 25.068 18.692 25.096L18.6641 25.068C18.4684 24.0618 18.2448 23.0555 18.0771 22.0772C17.9373 21.2107 17.574 20.3442 17.9094 19.4497C18.0212 19.1422 17.8535 19.0025 17.6019 18.8348C17.1547 18.5273 16.8193 18.5273 16.4 18.8348C16.0366 19.0863 16.0366 19.0584 16.1205 19.5056C16.1764 19.841 16.2882 20.1765 16.2043 20.5398C15.9807 21.6859 15.785 22.8319 15.5614 23.9779C15.4776 24.3692 15.3937 24.7326 15.3099 25.1798C15.0303 24.6767 14.8626 24.2295 14.6949 23.7822C13.9402 21.8536 13.4091 19.869 12.8781 17.8844C12.8221 17.6608 12.8501 17.3254 12.6824 17.2415C12.5147 17.1856 12.2352 17.3533 12.0115 17.4372C11.1171 17.7167 10.2226 17.9124 9.35612 18.3316C8.54552 18.723 7.98648 19.3099 7.65106 20.1485C7.25973 21.1827 6.98021 22.2169 6.7566 23.2791C6.36527 25.1798 6.0578 27.0806 6.0019 29.0092C5.97395 29.6521 6.25346 29.9596 6.92431 29.9596H26.9658C27.3851 29.9596 27.7205 29.8757 27.9161 29.5403C28 29.2888 28 28.8974 28 28.6459V28.6179ZM11.9277 11.7909C12.2072 11.8748 12.2911 12.0145 12.3749 12.2381C12.906 13.5239 13.5768 14.7258 14.667 15.6203C15.5055 16.2911 16.4279 16.6545 17.5181 16.4868C18.3007 16.375 18.9436 15.9837 19.5306 15.4526C20.5369 14.5302 21.2077 13.3842 21.6829 12.0984C21.7388 12.0145 21.7388 11.8468 21.8506 11.8468C22.2978 11.8468 22.4655 11.4834 22.7451 11.2598C23.2202 10.8964 23.2482 10.3933 23.1364 9.86222C23.1084 9.61066 22.9687 9.4709 22.7171 9.49885C22.4935 9.5268 22.4655 9.44295 22.5214 9.27523C22.6612 8.57644 22.7451 7.87764 22.773 7.09499C22.7451 6.89933 22.7451 6.64776 22.7171 6.39619C22.6332 5.83716 22.4935 5.33402 21.9345 5.02655C21.8226 4.97065 21.7947 4.8868 21.7388 4.77499C21.2077 3.76872 20.481 2.98607 19.4467 2.51089C18.7479 2.20342 18.0491 2.06366 17.3224 2.00776C15.3937 1.9239 13.8005 2.51089 12.7383 4.21595C12.6824 4.35571 12.5706 4.38366 12.4588 4.43957C12.0395 4.60728 11.7041 4.91475 11.5084 5.30607C11.2568 5.83716 11.1171 6.42415 11.0891 6.98318C11.0612 7.76583 11.173 8.52053 11.3407 9.30319C11.3687 9.41499 11.3687 9.49885 11.2009 9.49885C11.0332 9.49885 10.9214 9.61066 10.8935 9.75042C10.614 10.5331 11.145 11.5952 11.9277 11.7909ZM13.1296 10.1138C13.1017 9.89018 13.1576 9.66656 13.4091 9.55475C13.5209 9.49885 13.6328 9.4709 13.7446 9.61066C13.8284 9.75042 13.9682 9.75042 14.08 9.72246C14.2477 9.72246 14.3315 9.75042 14.3036 9.94608C14.2756 10.2815 14.4993 10.5051 14.7788 10.5051C15.0862 10.4772 15.2819 10.2256 15.226 9.89018C15.1981 9.75042 15.254 9.72246 15.3658 9.72246C15.5055 9.72246 15.6732 9.75042 15.813 9.66656C15.8969 9.61066 15.9248 9.66656 15.9528 9.72246C16.2323 10.0579 16.2323 10.5051 15.9528 10.8126C15.4217 11.3716 14.7229 11.5952 13.9682 11.4555C13.5209 11.3716 13.2135 10.8964 13.1296 10.3095V10.1138ZM20.3132 12.9369C19.866 13.7475 19.3629 14.5022 18.6082 15.0613C17.4901 15.8719 16.3161 15.8439 15.1981 14.8936C14.3036 14.1109 13.7166 13.1046 13.2414 12.0145V11.9027C14.0241 12.2661 14.8067 12.1822 15.5335 11.8468C16.2323 11.5114 16.7354 11.0642 16.7354 10.2256C16.7634 10.0299 16.8752 10.0579 16.987 10.0579C17.0988 10.0858 17.2385 10.0299 17.2665 10.2256C17.4622 11.3716 18.3566 12.0984 19.5585 12.1263C19.7822 12.1263 19.9778 12.1263 20.2014 12.0984C20.3971 12.0425 20.5648 11.9586 20.7884 11.9027C20.6766 12.294 20.481 12.6015 20.3132 12.9369ZM19.6704 11.4834C19.1672 11.4834 18.692 11.3437 18.2728 11.0362C18.0212 10.8405 17.8535 10.589 17.8255 10.2535C17.8255 10.0579 17.9373 9.89018 18.0212 9.72246C18.0771 9.66656 18.133 9.63861 18.2448 9.66656C18.5802 9.69451 18.8318 9.75042 18.8318 10.1976C18.8038 10.4213 19.1393 10.5331 19.3629 10.4772C19.6144 10.3933 19.7542 10.1976 19.6983 9.97403C19.6424 9.72246 19.7542 9.72246 19.9219 9.72246C20.0337 9.72246 20.1455 9.72246 20.2573 9.63861C20.481 9.44295 20.7605 9.5268 20.8443 9.83427C21.0959 10.5331 20.425 11.5114 19.6704 11.4834ZM13.3532 6.00487C13.4371 5.92101 13.493 5.92101 13.5489 6.00487C14.5831 7.31861 16.0366 7.65403 17.6019 7.73788C18.2448 7.76583 18.8597 7.70993 19.4747 7.51427C19.8101 7.43041 19.9219 7.2627 19.8381 7.03909C19.7263 6.78752 19.5306 6.81547 19.307 6.87138C18.133 7.2068 16.987 7.15089 15.8409 6.78752C15.785 6.75957 15.7571 6.73162 15.7012 6.73162C16.3161 6.81547 16.9031 6.87138 17.5181 6.84342C18.5523 6.81547 19.5026 6.508 20.3132 5.86511C20.5369 5.6974 20.6207 5.7533 20.7325 5.94897C21.0679 6.508 21.2077 7.09499 21.2916 7.70993C21.3475 8.26897 21.3754 8.82801 21.3475 9.4709C20.9841 8.88391 20.453 8.96776 19.9219 8.96776H18.3287C17.9932 8.96776 17.7696 9.10752 17.6019 9.38704C17.4901 9.5268 17.4062 9.58271 17.2385 9.55475C17.1547 9.5268 17.0708 9.5268 16.987 9.55475C16.6795 9.58271 16.4559 9.5268 16.2882 9.24728C16.1764 9.05162 15.9528 8.96776 15.7012 8.96776H13.7166C13.1576 8.96776 13.0737 9.02367 12.6824 9.38704C12.2631 8.38078 12.5985 6.73162 13.3532 6.00487Z" fill="#1376B9"/>
</g>
</g>
</svg>
