<svg width="43" height="43" viewBox="0 0 43 43" fill="none" xmlns="http://www.w3.org/2000/svg">
<path opacity="0.2" d="M15.2746 8.98863L21.7799 2.48325C22.2113 2.05191 22.7963 1.80959 23.4063 1.80959C24.0163 1.80959 24.6013 2.05191 25.0326 2.48325L31.538 8.98863C31.9693 9.41996 32.2117 10.005 32.2117 10.615C32.2117 11.225 31.9693 11.81 31.538 12.2413L25.0326 18.7467C24.6013 19.178 24.0163 19.4204 23.4063 19.4204C22.7963 19.4204 22.2113 19.178 21.7799 18.7467L15.2746 12.2413C14.8432 11.81 14.6009 11.225 14.6009 10.615C14.6009 10.005 14.8432 9.41996 15.2746 8.98863ZM15.2746 28.5048L21.7799 21.9994C22.2113 21.5681 22.7963 21.3257 23.4063 21.3257C24.0163 21.3257 24.6013 21.5681 25.0326 21.9994L31.538 28.5048C31.9693 28.9361 32.2117 29.5211 32.2117 30.1311C32.2117 30.7411 31.9693 31.3261 31.538 31.7575L25.0326 38.2628C24.6013 38.6942 24.0163 38.9365 23.4063 38.9365C22.7963 38.9365 22.2113 38.6942 21.7799 38.2628L15.2746 31.7575C14.8432 31.3261 14.6009 30.7411 14.6009 30.1311C14.6009 29.5211 14.8432 28.9361 15.2746 28.5048Z" fill="white"/>
<path d="M19.6786 18.7473C19.6786 19.0527 19.5573 19.3456 19.3413 19.5615C19.1254 19.7774 18.8325 19.8988 18.5271 19.8988C18.2217 19.8988 17.9289 19.7774 17.7129 19.5615C17.497 19.3456 17.3757 19.0527 17.3757 18.7473L17.3757 5.73654C17.3757 5.58533 17.4054 5.4356 17.4633 5.2959C17.5212 5.1562 17.606 5.02927 17.7129 4.92234C17.8198 4.81542 17.9468 4.7306 18.0865 4.67274C18.2262 4.61487 18.3759 4.58509 18.5271 4.58509C18.6783 4.58509 18.8281 4.61487 18.9678 4.67274C19.1075 4.7306 19.2344 4.81542 19.3413 4.92234C19.4482 5.02927 19.5331 5.1562 19.5909 5.2959C19.6488 5.4356 19.6786 5.58533 19.6786 5.73654L19.6786 18.7473ZM19.6786 38.2635C19.6786 38.4147 19.6488 38.5644 19.5909 38.7041C19.5331 38.8438 19.4482 38.9707 19.3413 39.0777C19.2344 39.1846 19.1075 39.2694 18.9678 39.3273C18.8281 39.3851 18.6783 39.4149 18.5271 39.4149C18.3759 39.4149 18.2262 39.3851 18.0865 39.3273C17.9468 39.2694 17.8198 39.1846 17.7129 39.0777C17.606 38.9707 17.5212 38.8438 17.4633 38.7041C17.4054 38.5644 17.3757 38.4147 17.3757 38.2635L17.3757 25.2527C17.3757 24.9473 17.497 24.6544 17.7129 24.4385C17.9289 24.2226 18.2217 24.1012 18.5271 24.1012C18.8325 24.1012 19.1254 24.2226 19.3413 24.4385C19.5573 24.6544 19.6786 24.9473 19.6786 25.2527L19.6786 38.2635Z" fill="white"/>
<path d="M19.3404 39.0768C19.1247 39.2925 18.8322 39.4137 18.5272 39.4137C18.2222 39.4137 17.9297 39.2925 17.7141 39.0768C17.4984 38.8612 17.3772 38.5687 17.3772 38.2637C17.3772 37.9587 17.4984 37.6662 17.7141 37.4505L24.2194 30.9451C24.4351 30.7295 24.7276 30.6083 25.0326 30.6083C25.3376 30.6083 25.6301 30.7295 25.8458 30.9451C26.0614 31.1608 26.1826 31.4533 26.1826 31.7583C26.1826 32.0633 26.0614 32.3558 25.8458 32.5715L19.3404 39.0768Z" fill="white"/>
<path d="M19.3397 37.4503C19.5554 37.6659 19.6765 37.9585 19.6765 38.2635C19.6765 38.5685 19.5554 38.861 19.3397 39.0766C19.124 39.2923 18.8315 39.4135 18.5265 39.4135C18.2215 39.4135 17.929 39.2923 17.7133 39.0766L11.208 32.5712C10.9923 32.3556 10.8711 32.0631 10.8711 31.7581C10.8711 31.4531 10.9923 31.1606 11.208 30.9449C11.4236 30.7292 11.7161 30.6081 12.0211 30.6081C12.3261 30.6081 12.6186 30.7292 12.8343 30.9449L19.3397 37.4503ZM25.8451 11.4288C26.0607 11.6444 26.1819 11.9369 26.1819 12.2419C26.1819 12.5469 26.0607 12.8394 25.8451 13.0551C25.6294 13.2708 25.3369 13.3919 25.0319 13.3919C24.7269 13.3919 24.4344 13.2708 24.2187 13.0551L17.7133 6.54972C17.4977 6.33405 17.3765 6.04154 17.3765 5.73655C17.3765 5.43155 17.4977 5.13904 17.7133 4.92337C17.929 4.70771 18.2215 4.58654 18.5265 4.58654C18.8315 4.58654 19.124 4.70771 19.3397 4.92337L25.8451 11.4288Z" fill="white"/>
<path d="M12.835 13.0554C12.6194 13.271 12.3269 13.3922 12.0219 13.3922C11.7169 13.3922 11.4243 13.271 11.2087 13.0554C10.993 12.8397 10.8719 12.5472 10.8719 12.2422C10.8719 11.9372 10.993 11.6447 11.2087 11.429L17.7141 4.92363C17.9297 4.70797 18.2222 4.5868 18.5272 4.5868C18.8322 4.5868 19.1247 4.70797 19.3404 4.92363C19.5561 5.1393 19.6772 5.43181 19.6772 5.7368C19.6772 6.0418 19.5561 6.33431 19.3404 6.54998L12.835 13.0554Z" fill="white"/>
</svg>
