<svg width="17" height="18" viewBox="0 0 17 18" fill="none" xmlns="http://www.w3.org/2000/svg">
<g id="bxs:up-arrow">
<path id="Vector" d="M2.125 13.9583H14.875C15.0041 13.9579 15.1306 13.9223 15.241 13.8554C15.3513 13.7884 15.4413 13.6926 15.5013 13.5783C15.5613 13.464 15.5889 13.3355 15.5813 13.2066C15.5736 13.0777 15.531 12.9534 15.458 12.847L9.08296 3.63864C8.81875 3.25685 8.18267 3.25685 7.91775 3.63864L1.54275 12.847C1.46896 12.9532 1.42569 13.0776 1.41763 13.2067C1.40958 13.3357 1.43705 13.4646 1.49707 13.5791C1.55709 13.6937 1.64735 13.7896 1.75806 13.8564C1.86876 13.9233 1.99567 13.9586 2.125 13.9583Z" fill="#4D9ED5"/>
</g>
</svg>
