<svg width="25" height="25" viewBox="0 0 25 25" fill="none" xmlns="http://www.w3.org/2000/svg">
<path d="M3.5 11.5C3.5 13.95 5.26 15.97 7.58 16.41L6.09 14.92L7.5 13.5L11.5 17.51L7.5 21.5L6.09 20.09L7.67 18.51V18.45C5.97001 18.2455 4.40375 17.4256 3.26699 16.1451C2.13023 14.8646 1.50167 13.2122 1.5 11.5C1.5 7.63 4.63 4.5 8.5 4.5H11.5V6.5H8.5C5.74 6.5 3.5 8.74 3.5 11.5ZM22.5 11.5V4.5H13.5V11.5H22.5ZM20.5 9.5H15.5V6.5H20.5V9.5ZM13.5 13.5H22.5V20.5H13.5V13.5Z" fill="#A3AED0" fill-opacity="0.7"/>
</svg>
