<svg width="194" height="131" viewBox="0 0 194 131" fill="none" xmlns="http://www.w3.org/2000/svg">
<path d="M6.40923 74.9606C5.48523 74.9606 4.65123 74.7806 3.90723 74.4206C3.16323 74.0486 2.56923 73.4906 2.12523 72.7466C1.69323 72.0026 1.47723 71.0606 1.47723 69.9206V62.1446H3.78123V69.9386C3.78123 70.9226 4.01523 71.6546 4.48323 72.1346C4.96323 72.6146 5.62323 72.8546 6.46323 72.8546C7.29123 72.8546 7.94523 72.6146 8.42523 72.1346C8.90523 71.6546 9.14523 70.9226 9.14523 69.9386V62.1446H11.4492V69.9206C11.4492 71.0606 11.2212 72.0026 10.7652 72.7466C10.3092 73.4906 9.69723 74.0486 8.92923 74.4206C8.17323 74.7806 7.33323 74.9606 6.40923 74.9606ZM13.3872 78.7046V65.8166H15.4392L15.6912 67.0946C15.9792 66.6986 16.3572 66.3506 16.8252 66.0506C17.3052 65.7506 17.9232 65.6006 18.6792 65.6006C19.5192 65.6006 20.2692 65.8046 20.9292 66.2126C21.5892 66.6206 22.1112 67.1786 22.4952 67.8866C22.8792 68.5946 23.0712 69.3986 23.0712 70.2986C23.0712 71.1986 22.8792 72.0026 22.4952 72.7106C22.1112 73.4066 21.5892 73.9586 20.9292 74.3666C20.2692 74.7626 19.5192 74.9606 18.6792 74.9606C18.0072 74.9606 17.4192 74.8346 16.9152 74.5826C16.4112 74.3306 16.0032 73.9766 15.6912 73.5206V78.7046H13.3872ZM18.1932 72.9446C18.9252 72.9446 19.5312 72.6986 20.0112 72.2066C20.4912 71.7146 20.7312 71.0786 20.7312 70.2986C20.7312 69.5186 20.4912 68.8766 20.0112 68.3726C19.5312 67.8686 18.9252 67.6166 18.1932 67.6166C17.4492 67.6166 16.8372 67.8686 16.3572 68.3726C15.8892 68.8646 15.6552 69.5006 15.6552 70.2806C15.6552 71.0606 15.8892 71.7026 16.3572 72.2066C16.8372 72.6986 17.4492 72.9446 18.1932 72.9446ZM24.7694 74.7446V61.7846H27.0734V74.7446H24.7694ZM33.3516 74.9606C32.4876 74.9606 31.7076 74.7626 31.0116 74.3666C30.3276 73.9706 29.7816 73.4246 29.3736 72.7286C28.9776 72.0206 28.7796 71.2046 28.7796 70.2806C28.7796 69.3566 28.9836 68.5466 29.3916 67.8506C29.7996 67.1426 30.3456 66.5906 31.0296 66.1946C31.7256 65.7986 32.5056 65.6006 33.3696 65.6006C34.2216 65.6006 34.9896 65.7986 35.6736 66.1946C36.3696 66.5906 36.9156 67.1426 37.3116 67.8506C37.7196 68.5466 37.9236 69.3566 37.9236 70.2806C37.9236 71.2046 37.7196 72.0206 37.3116 72.7286C36.9156 73.4246 36.3696 73.9706 35.6736 74.3666C34.9776 74.7626 34.2036 74.9606 33.3516 74.9606ZM33.3516 72.9626C33.9516 72.9626 34.4736 72.7406 34.9176 72.2966C35.3616 71.8406 35.5836 71.1686 35.5836 70.2806C35.5836 69.3926 35.3616 68.7266 34.9176 68.2826C34.4736 67.8266 33.9576 67.5986 33.3696 67.5986C32.7576 67.5986 32.2296 67.8266 31.7856 68.2826C31.3536 68.7266 31.1376 69.3926 31.1376 70.2806C31.1376 71.1686 31.3536 71.8406 31.7856 72.2966C32.2296 72.7406 32.7516 72.9626 33.3516 72.9626ZM42.7016 74.9606C41.9336 74.9606 41.3036 74.8406 40.8116 74.6006C40.3196 74.3486 39.9536 74.0186 39.7136 73.6106C39.4736 73.2026 39.3536 72.7526 39.3536 72.2606C39.3536 71.4326 39.6776 70.7606 40.3256 70.2446C40.9736 69.7286 41.9456 69.4706 43.2416 69.4706H45.5096V69.2546C45.5096 68.6426 45.3356 68.1926 44.9876 67.9046C44.6396 67.6166 44.2076 67.4726 43.6916 67.4726C43.2236 67.4726 42.8156 67.5866 42.4676 67.8146C42.1196 68.0306 41.9036 68.3546 41.8196 68.7866H39.5696C39.6296 68.1386 39.8456 67.5746 40.2176 67.0946C40.6016 66.6146 41.0936 66.2486 41.6936 65.9966C42.2936 65.7326 42.9656 65.6006 43.7096 65.6006C44.9816 65.6006 45.9836 65.9186 46.7156 66.5546C47.4476 67.1906 47.8136 68.0906 47.8136 69.2546V74.7446H45.8516L45.6356 73.3046C45.3716 73.7846 44.9996 74.1806 44.5196 74.4926C44.0516 74.8046 43.4456 74.9606 42.7016 74.9606ZM43.2236 73.1606C43.8836 73.1606 44.3936 72.9446 44.7536 72.5126C45.1256 72.0806 45.3596 71.5466 45.4556 70.9106H43.4936C42.8816 70.9106 42.4436 71.0246 42.1796 71.2526C41.9156 71.4686 41.7836 71.7386 41.7836 72.0626C41.7836 72.4106 41.9156 72.6806 42.1796 72.8726C42.4436 73.0646 42.7916 73.1606 43.2236 73.1606ZM53.7563 74.9606C52.9163 74.9606 52.1663 74.7566 51.5063 74.3486C50.8463 73.9406 50.3243 73.3826 49.9403 72.6746C49.5563 71.9666 49.3643 71.1626 49.3643 70.2626C49.3643 69.3626 49.5563 68.5646 49.9403 67.8686C50.3243 67.1606 50.8463 66.6086 51.5063 66.2126C52.1663 65.8046 52.9163 65.6006 53.7563 65.6006C54.4283 65.6006 55.0163 65.7266 55.5203 65.9786C56.0243 66.2306 56.4323 66.5846 56.7443 67.0406V61.7846H59.0483V74.7446H56.9963L56.7443 73.4666C56.4563 73.8626 56.0723 74.2106 55.5923 74.5106C55.1243 74.8106 54.5123 74.9606 53.7563 74.9606ZM54.2423 72.9446C54.9863 72.9446 55.5923 72.6986 56.0603 72.2066C56.5403 71.7026 56.7803 71.0606 56.7803 70.2806C56.7803 69.5006 56.5403 68.8646 56.0603 68.3726C55.5923 67.8686 54.9863 67.6166 54.2423 67.6166C53.5103 67.6166 52.9043 67.8626 52.4243 68.3546C51.9443 68.8466 51.7043 69.4826 51.7043 70.2626C51.7043 71.0426 51.9443 71.6846 52.4243 72.1886C52.9043 72.6926 53.5103 72.9446 54.2423 72.9446ZM65.0175 74.7446V62.1446H67.3215L73.2435 71.0186V62.1446H75.5475V74.7446H73.2435L67.3215 65.8886V74.7446H65.0175ZM78.8182 64.4306C78.3982 64.4306 78.0502 64.3046 77.7742 64.0526C77.5102 63.8006 77.3782 63.4826 77.3782 63.0986C77.3782 62.7146 77.5102 62.4026 77.7742 62.1626C78.0502 61.9106 78.3982 61.7846 78.8182 61.7846C79.2382 61.7846 79.5802 61.9106 79.8442 62.1626C80.1202 62.4026 80.2582 62.7146 80.2582 63.0986C80.2582 63.4826 80.1202 63.8006 79.8442 64.0526C79.5802 64.3046 79.2382 64.4306 78.8182 64.4306ZM77.6662 74.7446V65.8166H79.9702V74.7446H77.6662ZM86.389 74.9606C85.477 74.9606 84.673 74.7626 83.977 74.3666C83.281 73.9706 82.729 73.4186 82.321 72.7106C81.925 72.0026 81.727 71.1926 81.727 70.2806C81.727 69.3686 81.925 68.5586 82.321 67.8506C82.729 67.1426 83.281 66.5906 83.977 66.1946C84.673 65.7986 85.477 65.6006 86.389 65.6006C87.529 65.6006 88.489 65.9006 89.269 66.5006C90.049 67.0886 90.547 67.9046 90.763 68.9486H88.333C88.213 68.5166 87.973 68.1806 87.613 67.9406C87.265 67.6886 86.851 67.5626 86.371 67.5626C85.735 67.5626 85.195 67.8026 84.751 68.2826C84.307 68.7626 84.085 69.4286 84.085 70.2806C84.085 71.1326 84.307 71.7986 84.751 72.2786C85.195 72.7586 85.735 72.9986 86.371 72.9986C86.851 72.9986 87.265 72.8786 87.613 72.6386C87.973 72.3986 88.213 72.0566 88.333 71.6126H90.763C90.547 72.6206 90.049 73.4306 89.269 74.0426C88.489 74.6546 87.529 74.9606 86.389 74.9606ZM96.786 74.9606C95.886 74.9606 95.088 74.7686 94.392 74.3846C93.696 74.0006 93.15 73.4606 92.754 72.7646C92.358 72.0686 92.16 71.2646 92.16 70.3526C92.16 69.4286 92.352 68.6066 92.736 67.8866C93.132 67.1666 93.672 66.6086 94.356 66.2126C95.052 65.8046 95.868 65.6006 96.804 65.6006C97.68 65.6006 98.454 65.7926 99.126 66.1766C99.798 66.5606 100.32 67.0886 100.692 67.7606C101.076 68.4206 101.268 69.1586 101.268 69.9746C101.268 70.1066 101.262 70.2446 101.25 70.3886C101.25 70.5326 101.244 70.6826 101.232 70.8386H94.446C94.494 71.5346 94.734 72.0806 95.166 72.4766C95.61 72.8726 96.144 73.0706 96.768 73.0706C97.236 73.0706 97.626 72.9686 97.938 72.7646C98.262 72.5486 98.502 72.2726 98.658 71.9366H100.998C100.83 72.5006 100.548 73.0166 100.152 73.4846C99.768 73.9406 99.288 74.3006 98.712 74.5646C98.148 74.8286 97.506 74.9606 96.786 74.9606ZM96.804 67.4726C96.24 67.4726 95.742 67.6346 95.31 67.9586C94.878 68.2706 94.602 68.7506 94.482 69.3986H98.928C98.892 68.8106 98.676 68.3426 98.28 67.9946C97.884 67.6466 97.392 67.4726 96.804 67.4726ZM106.829 74.7446V62.1446H114.965V63.9986H109.133V67.5266H113.849V69.3446H109.133V74.7446H106.829ZM116.329 74.7446V65.8166H118.381L118.597 67.4906C118.921 66.9146 119.359 66.4586 119.911 66.1226C120.475 65.7746 121.135 65.6006 121.891 65.6006V68.0306H121.243C120.739 68.0306 120.289 68.1086 119.893 68.2646C119.497 68.4206 119.185 68.6906 118.957 69.0746C118.741 69.4586 118.633 69.9926 118.633 70.6766V74.7446H116.329ZM127.231 74.9606C126.367 74.9606 125.587 74.7626 124.891 74.3666C124.207 73.9706 123.661 73.4246 123.253 72.7286C122.857 72.0206 122.659 71.2046 122.659 70.2806C122.659 69.3566 122.863 68.5466 123.271 67.8506C123.679 67.1426 124.225 66.5906 124.909 66.1946C125.605 65.7986 126.385 65.6006 127.249 65.6006C128.101 65.6006 128.869 65.7986 129.553 66.1946C130.249 66.5906 130.795 67.1426 131.191 67.8506C131.599 68.5466 131.803 69.3566 131.803 70.2806C131.803 71.2046 131.599 72.0206 131.191 72.7286C130.795 73.4246 130.249 73.9706 129.553 74.3666C128.857 74.7626 128.083 74.9606 127.231 74.9606ZM127.231 72.9626C127.831 72.9626 128.353 72.7406 128.797 72.2966C129.241 71.8406 129.463 71.1686 129.463 70.2806C129.463 69.3926 129.241 68.7266 128.797 68.2826C128.353 67.8266 127.837 67.5986 127.249 67.5986C126.637 67.5986 126.109 67.8266 125.665 68.2826C125.233 68.7266 125.017 69.3926 125.017 70.2806C125.017 71.1686 125.233 71.8406 125.665 72.2966C126.109 72.7406 126.631 72.9626 127.231 72.9626ZM133.503 74.7446V65.8166H135.537L135.717 67.3286C135.993 66.8006 136.389 66.3806 136.905 66.0686C137.433 65.7566 138.051 65.6006 138.759 65.6006C139.863 65.6006 140.721 65.9486 141.333 66.6446C141.945 67.3406 142.251 68.3606 142.251 69.7046V74.7446H139.947V69.9206C139.947 69.1526 139.791 68.5646 139.479 68.1566C139.167 67.7486 138.681 67.5446 138.021 67.5446C137.373 67.5446 136.839 67.7726 136.419 68.2286C136.011 68.6846 135.807 69.3206 135.807 70.1366V74.7446H133.503ZM148.073 74.7446C147.137 74.7446 146.387 74.5166 145.823 74.0606C145.259 73.6046 144.977 72.7946 144.977 71.6306V67.7426H143.447V65.8166H144.977L145.247 63.4226H147.281V65.8166H149.693V67.7426H147.281V71.6486C147.281 72.0806 147.371 72.3806 147.551 72.5486C147.743 72.7046 148.067 72.7826 148.523 72.7826H149.639V74.7446H148.073ZM158.93 74.9606C158.138 74.9606 157.442 74.8346 156.842 74.5826C156.242 74.3186 155.762 73.9586 155.402 73.5026C155.042 73.0466 154.826 72.5186 154.754 71.9186H157.076C157.148 72.2666 157.34 72.5666 157.652 72.8186C157.976 73.0586 158.39 73.1786 158.894 73.1786C159.398 73.1786 159.764 73.0766 159.992 72.8726C160.232 72.6686 160.352 72.4346 160.352 72.1706C160.352 71.7866 160.184 71.5286 159.848 71.3966C159.512 71.2526 159.044 71.1146 158.444 70.9826C158.06 70.8986 157.67 70.7966 157.274 70.6766C156.878 70.5566 156.512 70.4066 156.176 70.2266C155.852 70.0346 155.588 69.7946 155.384 69.5066C155.18 69.2066 155.078 68.8406 155.078 68.4086C155.078 67.6166 155.39 66.9506 156.014 66.4106C156.65 65.8706 157.538 65.6006 158.678 65.6006C159.734 65.6006 160.574 65.8466 161.198 66.3386C161.834 66.8306 162.212 67.5086 162.332 68.3726H160.154C160.022 67.7126 159.524 67.3826 158.66 67.3826C158.228 67.3826 157.892 67.4666 157.652 67.6346C157.424 67.8026 157.31 68.0126 157.31 68.2646C157.31 68.5286 157.484 68.7386 157.832 68.8946C158.18 69.0506 158.642 69.1946 159.218 69.3266C159.842 69.4706 160.412 69.6326 160.928 69.8126C161.456 69.9806 161.876 70.2386 162.188 70.5866C162.5 70.9226 162.656 71.4086 162.656 72.0446C162.668 72.5966 162.524 73.0946 162.224 73.5386C161.924 73.9826 161.492 74.3306 160.928 74.5826C160.364 74.8346 159.698 74.9606 158.93 74.9606ZM165.579 64.4306C165.159 64.4306 164.811 64.3046 164.535 64.0526C164.271 63.8006 164.139 63.4826 164.139 63.0986C164.139 62.7146 164.271 62.4026 164.535 62.1626C164.811 61.9106 165.159 61.7846 165.579 61.7846C165.999 61.7846 166.341 61.9106 166.605 62.1626C166.881 62.4026 167.019 62.7146 167.019 63.0986C167.019 63.4826 166.881 63.8006 166.605 64.0526C166.341 64.3046 165.999 64.4306 165.579 64.4306ZM164.427 74.7446V65.8166H166.731V74.7446H164.427ZM172.88 74.9606C172.04 74.9606 171.29 74.7566 170.63 74.3486C169.97 73.9406 169.448 73.3826 169.064 72.6746C168.68 71.9666 168.488 71.1626 168.488 70.2626C168.488 69.3626 168.68 68.5646 169.064 67.8686C169.448 67.1606 169.97 66.6086 170.63 66.2126C171.29 65.8046 172.04 65.6006 172.88 65.6006C173.552 65.6006 174.14 65.7266 174.644 65.9786C175.148 66.2306 175.556 66.5846 175.868 67.0406V61.7846H178.172V74.7446H176.12L175.868 73.4666C175.58 73.8626 175.196 74.2106 174.716 74.5106C174.248 74.8106 173.636 74.9606 172.88 74.9606ZM173.366 72.9446C174.11 72.9446 174.716 72.6986 175.184 72.2066C175.664 71.7026 175.904 71.0606 175.904 70.2806C175.904 69.5006 175.664 68.8646 175.184 68.3726C174.716 67.8686 174.11 67.6166 173.366 67.6166C172.634 67.6166 172.028 67.8626 171.548 68.3546C171.068 68.8466 170.828 69.4826 170.828 70.2626C170.828 71.0426 171.068 71.6846 171.548 72.1886C172.028 72.6926 172.634 72.9446 173.366 72.9446ZM184.496 74.9606C183.596 74.9606 182.798 74.7686 182.102 74.3846C181.406 74.0006 180.86 73.4606 180.464 72.7646C180.068 72.0686 179.87 71.2646 179.87 70.3526C179.87 69.4286 180.062 68.6066 180.446 67.8866C180.842 67.1666 181.382 66.6086 182.066 66.2126C182.762 65.8046 183.578 65.6006 184.514 65.6006C185.39 65.6006 186.164 65.7926 186.836 66.1766C187.508 66.5606 188.03 67.0886 188.402 67.7606C188.786 68.4206 188.978 69.1586 188.978 69.9746C188.978 70.1066 188.972 70.2446 188.96 70.3886C188.96 70.5326 188.954 70.6826 188.942 70.8386H182.156C182.204 71.5346 182.444 72.0806 182.876 72.4766C183.32 72.8726 183.854 73.0706 184.478 73.0706C184.946 73.0706 185.336 72.9686 185.648 72.7646C185.972 72.5486 186.212 72.2726 186.368 71.9366H188.708C188.54 72.5006 188.258 73.0166 187.862 73.4846C187.478 73.9406 186.998 74.3006 186.422 74.5646C185.858 74.8286 185.216 74.9606 184.496 74.9606ZM184.514 67.4726C183.95 67.4726 183.452 67.6346 183.02 67.9586C182.588 68.2706 182.312 68.7506 182.192 69.3986H186.638C186.602 68.8106 186.386 68.3426 185.99 67.9946C185.594 67.6466 185.102 67.4726 184.514 67.4726ZM35.9268 106.961C35.0628 106.961 34.2828 106.763 33.5868 106.367C32.9028 105.971 32.3568 105.425 31.9488 104.729C31.5528 104.021 31.3548 103.205 31.3548 102.281C31.3548 101.357 31.5588 100.547 31.9668 99.8506C32.3748 99.1426 32.9208 98.5906 33.6048 98.1946C34.3008 97.7986 35.0808 97.6006 35.9448 97.6006C36.7968 97.6006 37.5648 97.7986 38.2488 98.1946C38.9448 98.5906 39.4908 99.1426 39.8868 99.8506C40.2948 100.547 40.4988 101.357 40.4988 102.281C40.4988 103.205 40.2948 104.021 39.8868 104.729C39.4908 105.425 38.9448 105.971 38.2488 106.367C37.5528 106.763 36.7788 106.961 35.9268 106.961ZM35.9268 104.963C36.5268 104.963 37.0488 104.741 37.4928 104.297C37.9368 103.841 38.1588 103.169 38.1588 102.281C38.1588 101.393 37.9368 100.727 37.4928 100.283C37.0488 99.8266 36.5328 99.5986 35.9448 99.5986C35.3328 99.5986 34.8048 99.8266 34.3608 100.283C33.9288 100.727 33.7128 101.393 33.7128 102.281C33.7128 103.169 33.9288 103.841 34.3608 104.297C34.8048 104.741 35.3268 104.963 35.9268 104.963ZM42.6128 106.745V99.7426H41.3888V97.8166H42.6128V96.7726C42.6128 95.6926 42.8828 94.9246 43.4228 94.4686C43.9748 94.0126 44.7188 93.7846 45.6548 93.7846H46.6448V95.7466H46.0148C45.6188 95.7466 45.3368 95.8246 45.1688 95.9806C45.0008 96.1366 44.9168 96.4006 44.9168 96.7726V97.8166H46.8428V99.7426H44.9168V106.745H42.6128ZM53.3526 110.705L55.4226 106.151H54.8826L51.4086 97.8166H53.9106L56.4126 104.099L59.0226 97.8166H61.4706L55.8006 110.705H53.3526ZM66.1274 106.961C65.2634 106.961 64.4834 106.763 63.7874 106.367C63.1034 105.971 62.5574 105.425 62.1494 104.729C61.7534 104.021 61.5554 103.205 61.5554 102.281C61.5554 101.357 61.7594 100.547 62.1674 99.8506C62.5754 99.1426 63.1214 98.5906 63.8054 98.1946C64.5014 97.7986 65.2814 97.6006 66.1454 97.6006C66.9974 97.6006 67.7654 97.7986 68.4494 98.1946C69.1454 98.5906 69.6914 99.1426 70.0874 99.8506C70.4954 100.547 70.6994 101.357 70.6994 102.281C70.6994 103.205 70.4954 104.021 70.0874 104.729C69.6914 105.425 69.1454 105.971 68.4494 106.367C67.7534 106.763 66.9794 106.961 66.1274 106.961ZM66.1274 104.963C66.7274 104.963 67.2494 104.741 67.6934 104.297C68.1374 103.841 68.3594 103.169 68.3594 102.281C68.3594 101.393 68.1374 100.727 67.6934 100.283C67.2494 99.8266 66.7334 99.5986 66.1454 99.5986C65.5334 99.5986 65.0054 99.8266 64.5614 100.283C64.1294 100.727 63.9134 101.393 63.9134 102.281C63.9134 103.169 64.1294 103.841 64.5614 104.297C65.0054 104.741 65.5274 104.963 66.1274 104.963ZM75.7474 106.961C74.6314 106.961 73.7674 106.613 73.1554 105.917C72.5554 105.221 72.2554 104.201 72.2554 102.857V97.8166H74.5414V102.641C74.5414 103.409 74.6974 103.997 75.0094 104.405C75.3214 104.813 75.8134 105.017 76.4854 105.017C77.1214 105.017 77.6434 104.789 78.0514 104.333C78.4714 103.877 78.6814 103.241 78.6814 102.425V97.8166H80.9854V106.745H78.9514L78.7714 105.233C78.4954 105.761 78.0934 106.181 77.5654 106.493C77.0494 106.805 76.4434 106.961 75.7474 106.961ZM82.9906 106.745V97.8166H85.0426L85.2586 99.4906C85.5826 98.9146 86.0206 98.4586 86.5726 98.1226C87.1366 97.7746 87.7966 97.6006 88.5526 97.6006V100.031H87.9046C87.4006 100.031 86.9506 100.109 86.5546 100.265C86.1586 100.421 85.8466 100.691 85.6186 101.075C85.4026 101.459 85.2946 101.993 85.2946 102.677V106.745H82.9906ZM93.7504 106.745V94.1446H96.0544V106.745H93.7504ZM98.0825 106.745V97.8166H100.116L100.296 99.3286C100.572 98.8006 100.968 98.3806 101.484 98.0686C102.012 97.7566 102.63 97.6006 103.338 97.6006C104.442 97.6006 105.3 97.9486 105.912 98.6446C106.524 99.3406 106.83 100.361 106.83 101.705V106.745H104.526V101.921C104.526 101.153 104.37 100.565 104.058 100.157C103.746 99.7486 103.26 99.5446 102.6 99.5446C101.952 99.5446 101.418 99.7726 100.998 100.229C100.59 100.685 100.386 101.321 100.386 102.137V106.745H98.0825ZM112.364 106.961C111.572 106.961 110.876 106.835 110.276 106.583C109.676 106.319 109.196 105.959 108.836 105.503C108.476 105.047 108.26 104.519 108.188 103.919H110.51C110.582 104.267 110.774 104.567 111.086 104.819C111.41 105.059 111.824 105.179 112.328 105.179C112.832 105.179 113.198 105.077 113.426 104.873C113.666 104.669 113.786 104.435 113.786 104.171C113.786 103.787 113.618 103.529 113.282 103.397C112.946 103.253 112.478 103.115 111.878 102.983C111.494 102.899 111.104 102.797 110.708 102.677C110.312 102.557 109.946 102.407 109.61 102.227C109.286 102.035 109.022 101.795 108.818 101.507C108.614 101.207 108.512 100.841 108.512 100.409C108.512 99.6166 108.824 98.9506 109.448 98.4106C110.084 97.8706 110.972 97.6006 112.112 97.6006C113.168 97.6006 114.008 97.8466 114.632 98.3386C115.268 98.8306 115.646 99.5086 115.766 100.373H113.588C113.456 99.7126 112.958 99.3826 112.094 99.3826C111.662 99.3826 111.326 99.4666 111.086 99.6346C110.858 99.8026 110.744 100.013 110.744 100.265C110.744 100.529 110.918 100.739 111.266 100.895C111.614 101.051 112.076 101.195 112.652 101.327C113.276 101.471 113.846 101.633 114.362 101.813C114.89 101.981 115.31 102.239 115.622 102.587C115.934 102.923 116.09 103.409 116.09 104.045C116.102 104.597 115.958 105.095 115.658 105.539C115.358 105.983 114.926 106.331 114.362 106.583C113.798 106.835 113.132 106.961 112.364 106.961ZM121.467 106.745C120.531 106.745 119.781 106.517 119.217 106.061C118.653 105.605 118.371 104.795 118.371 103.631V99.7426H116.841V97.8166H118.371L118.641 95.4226H120.675V97.8166H123.087V99.7426H120.675V103.649C120.675 104.081 120.765 104.381 120.945 104.549C121.137 104.705 121.461 104.783 121.917 104.783H123.033V106.745H121.467ZM125.948 96.4306C125.528 96.4306 125.18 96.3046 124.904 96.0526C124.64 95.8006 124.508 95.4826 124.508 95.0986C124.508 94.7146 124.64 94.4026 124.904 94.1626C125.18 93.9106 125.528 93.7846 125.948 93.7846C126.368 93.7846 126.71 93.9106 126.974 94.1626C127.25 94.4026 127.388 94.7146 127.388 95.0986C127.388 95.4826 127.25 95.8006 126.974 96.0526C126.71 96.3046 126.368 96.4306 125.948 96.4306ZM124.796 106.745V97.8166H127.1V106.745H124.796ZM133.122 106.745C132.186 106.745 131.436 106.517 130.872 106.061C130.308 105.605 130.026 104.795 130.026 103.631V99.7426H128.496V97.8166H130.026L130.296 95.4226H132.33V97.8166H134.742V99.7426H132.33V103.649C132.33 104.081 132.42 104.381 132.6 104.549C132.792 104.705 133.116 104.783 133.572 104.783H134.688V106.745H133.122ZM139.709 106.961C138.593 106.961 137.729 106.613 137.117 105.917C136.517 105.221 136.217 104.201 136.217 102.857V97.8166H138.503V102.641C138.503 103.409 138.659 103.997 138.971 104.405C139.283 104.813 139.775 105.017 140.447 105.017C141.083 105.017 141.605 104.789 142.013 104.333C142.433 103.877 142.643 103.241 142.643 102.425V97.8166H144.947V106.745H142.913L142.733 105.233C142.457 105.761 142.055 106.181 141.527 106.493C141.011 106.805 140.405 106.961 139.709 106.961ZM150.93 106.745C149.994 106.745 149.244 106.517 148.68 106.061C148.116 105.605 147.834 104.795 147.834 103.631V99.7426H146.304V97.8166H147.834L148.104 95.4226H150.138V97.8166H152.55V99.7426H150.138V103.649C150.138 104.081 150.228 104.381 150.408 104.549C150.6 104.705 150.924 104.783 151.38 104.783H152.496V106.745H150.93ZM158.277 106.961C157.377 106.961 156.579 106.769 155.883 106.385C155.187 106.001 154.641 105.461 154.245 104.765C153.849 104.069 153.651 103.265 153.651 102.353C153.651 101.429 153.843 100.607 154.227 99.8866C154.623 99.1666 155.163 98.6086 155.847 98.2126C156.543 97.8046 157.359 97.6006 158.295 97.6006C159.171 97.6006 159.945 97.7926 160.617 98.1766C161.289 98.5606 161.811 99.0886 162.183 99.7606C162.567 100.421 162.759 101.159 162.759 101.975C162.759 102.107 162.753 102.245 162.741 102.389C162.741 102.533 162.735 102.683 162.723 102.839H155.937C155.985 103.535 156.225 104.081 156.657 104.477C157.101 104.873 157.635 105.071 158.259 105.071C158.727 105.071 159.117 104.969 159.429 104.765C159.753 104.549 159.993 104.273 160.149 103.937H162.489C162.321 104.501 162.039 105.017 161.643 105.485C161.259 105.941 160.779 106.301 160.203 106.565C159.639 106.829 158.997 106.961 158.277 106.961ZM158.295 99.4726C157.731 99.4726 157.233 99.6346 156.801 99.9586C156.369 100.271 156.093 100.751 155.973 101.399H160.419C160.383 100.811 160.167 100.343 159.771 99.9946C159.375 99.6466 158.883 99.4726 158.295 99.4726Z" fill="#2B3674"/>
<g clip-path="url(#clip0_358_1039)">
<path d="M92 40H102C103.375 40 104.5 38.875 104.5 37.5V25H108.475C110.7 25 111.825 22.3 110.25 20.725L98.775 9.25005C97.8 8.27505 96.225 8.27505 95.25 9.25005L83.775 20.725C82.2 22.3 83.3 25 85.525 25H89.5V37.5C89.5 38.875 90.625 40 92 40ZM82 45H112C113.375 45 114.5 46.125 114.5 47.5C114.5 48.875 113.375 50 112 50H82C80.625 50 79.5 48.875 79.5 47.5C79.5 46.125 80.625 45 82 45Z" fill="#2B3674"/>
</g>
<defs>
<clipPath id="clip0_358_1039">
<rect width="60" height="60" fill="white" transform="translate(67)"/>
</clipPath>
</defs>
</svg>
