<svg xmlns="http://www.w3.org/2000/svg" width="60" height="60" viewBox="0 0 60 60" fill="none">
  <g clip-path="url(#clip0_358_1041)">
    <path d="M25 39.9998H35C36.375 39.9998 37.5 38.8748 37.5 37.4998V24.9998H41.475C43.7 24.9998 44.825 22.2998 43.25 20.7248L31.775 9.2498C30.8 8.2748 29.225 8.2748 28.25 9.2498L16.775 20.7248C15.2 22.2998 16.3 24.9998 18.525 24.9998H22.5V37.4998C22.5 38.8748 23.625 39.9998 25 39.9998ZM15 44.9998H45C46.375 44.9998 47.5 46.1248 47.5 47.4998C47.5 48.8748 46.375 49.9998 45 49.9998H15C13.625 49.9998 12.5 48.8748 12.5 47.4998C12.5 46.1248 13.625 44.9998 15 44.9998Z" fill="#2B3674"/>
  </g>
  <defs>
    <clipPath id="clip0_358_1041">
      <rect width="60" height="60" fill="white"/>
    </clipPath>
  </defs>
</svg>