<svg width="25" height="25" viewBox="0 0 25 25" fill="none" xmlns="http://www.w3.org/2000/svg">
<path d="M0 5.85938C0 4.35 1.225 3.125 2.73438 3.125H22.2656C23.775 3.125 25 4.35 25 5.85938V19.1406C25 19.8658 24.7119 20.5613 24.1991 21.0741C23.6863 21.5869 22.9908 21.875 22.2656 21.875H2.73438C2.00917 21.875 1.31367 21.5869 0.80088 21.0741C0.288085 20.5613 0 19.8658 0 19.1406L0 5.85938ZM2.73438 5.46875C2.63077 5.46875 2.53142 5.50991 2.45816 5.58316C2.38491 5.65642 2.34375 5.75577 2.34375 5.85938V19.1406C2.34375 19.3563 2.51875 19.5312 2.73438 19.5312H22.2656C22.3692 19.5312 22.4686 19.4901 22.5418 19.4168C22.6151 19.3436 22.6562 19.2442 22.6562 19.1406V5.85938C22.6562 5.75577 22.6151 5.65642 22.5418 5.58316C22.4686 5.50991 22.3692 5.46875 22.2656 5.46875H2.73438Z" fill="#D93D3D"/>
<path d="M9.375 16.4985V8.50316C9.37477 8.43387 9.39297 8.36575 9.42774 8.30581C9.46252 8.24587 9.51261 8.19626 9.57288 8.16207C9.63316 8.12788 9.70144 8.11033 9.77074 8.11124C9.84003 8.11215 9.90783 8.13147 9.96719 8.16723L16.6297 12.1657C16.6873 12.2004 16.7349 12.2495 16.7679 12.3081C16.801 12.3667 16.8184 12.4328 16.8184 12.5C16.8184 12.5673 16.801 12.6334 16.7679 12.692C16.7349 12.7506 16.6873 12.7996 16.6297 12.8344L9.96719 16.8329C9.90794 16.8685 9.84028 16.8879 9.77113 16.8888C9.70197 16.8898 9.63379 16.8724 9.57357 16.8384C9.51334 16.8044 9.46322 16.755 9.42833 16.6953C9.39345 16.6356 9.37504 16.5676 9.375 16.4985Z" fill="#D93D3D"/>
</svg>
