<svg width="18" height="12" viewBox="0 0 18 12" fill="none" xmlns="http://www.w3.org/2000/svg">
<path d="M16.831 2.15979C16.7164 2.08873 16.5855 2.04823 16.4508 2.04213C16.3161 2.03603 16.182 2.06454 16.0615 2.12495L14.0404 3.13591V2.8335C14.0404 1.52408 12.9748 0.458496 11.6654 0.458496H2.95703C1.64761 0.458496 0.582031 1.52408 0.582031 2.8335V9.16683C0.582031 10.4762 1.64761 11.5418 2.95703 11.5418H11.6654C12.9748 11.5418 14.0404 10.4762 14.0404 9.16683V8.86441L16.0615 9.87458C16.1819 9.93548 16.3159 9.96434 16.4507 9.95838C16.5855 9.95241 16.7165 9.91183 16.831 9.84054C17.0645 9.69566 17.207 9.44154 17.207 9.16683V2.8335C17.207 2.55879 17.0645 2.30466 16.831 2.15979ZM4.54036 7.18766C4.38189 7.19181 4.2242 7.16418 4.07657 7.10641C3.92895 7.04864 3.79439 6.9619 3.68082 6.8513C3.56725 6.7407 3.47697 6.60848 3.41532 6.46244C3.35366 6.3164 3.32187 6.15949 3.32181 6.00096C3.32176 5.84244 3.35345 5.68551 3.41501 5.53942C3.47657 5.39334 3.56675 5.26106 3.68025 5.15039C3.79374 5.03971 3.92825 4.95288 4.07584 4.89501C4.22342 4.83715 4.3811 4.80941 4.53957 4.81345C4.84911 4.82134 5.14332 4.94982 5.3595 5.1715C5.57567 5.39319 5.69671 5.69054 5.69681 6.00017C5.69692 6.30981 5.57607 6.60724 5.36005 6.82906C5.14402 7.05089 4.84989 7.17957 4.54036 7.18766Z" fill="#D7394B"/>
</svg>
