<svg width="22" height="22" viewBox="0 0 22 22" fill="none" xmlns="http://www.w3.org/2000/svg">
<path d="M21.0064 2.04653H12.9897V0H11.4953L0 2.05164V19.9535L11.4278 22H12.9897V19.9611H20.4916C20.9165 19.9407 21.3888 19.9739 21.7536 19.7079C22.046 19.25 21.971 18.677 21.996 18.1602V3.03908C22.0485 2.45582 21.5762 1.98768 21.0064 2.04653ZM8.33658 14.4765C7.91927 14.6991 7.29451 14.4663 6.79972 14.5021C6.46736 12.8086 6.07999 11.1254 5.78265 9.4242C5.49025 11.0768 5.1104 12.7139 4.77555 14.3563C4.29576 14.3307 3.81348 14.3 3.33115 14.2667C2.91629 12.0155 2.42902 9.77974 2.04166 7.52348C2.46899 7.50303 2.8988 7.48513 3.32613 7.46978C3.58351 9.09933 3.87591 10.7212 4.10085 12.3533C4.4532 10.6802 4.81302 9.00722 5.16291 7.33421C5.63772 7.30606 6.11252 7.28561 6.58733 7.26001C6.91969 8.98676 7.25953 10.7109 7.61939 12.43C7.90178 10.6547 8.21412 8.88441 8.51654 7.11164C9.01631 7.09374 9.51612 7.06559 10.0134 7.03489C9.44866 9.51372 8.95383 12.013 8.33658 14.4765ZM20.8066 18.7462H12.9897V17.1395H19.487V16.1163H12.9897V14.8372H19.487V13.814H12.9897V12.5348H19.487V11.5116H12.9897V10.2325H19.487V9.20933H12.9897V7.93022H19.487V6.90698H12.9897V5.62791H19.487V4.60467H12.9897V3.25386H20.8066V18.7462Z" fill="#197BBD"/>
</svg>
