<svg height="45" viewBox="0 0 19 24" fill="none" xmlns="http://www.w3.org/2000/svg">
<path d="M7.20093 6.25999C8.44974 4.31243 9.18912 2.51355 9.57424 1.24118C9.72212 0.753679 10.3461 0.554616 10.7166 0.903991C16.3009 6.1698 18.1266 10.1909 18.4898 14.8367C18.7563 19.3307 16.5479 23.3298 10.6191 23.3298C5.05349 23.3298 0.944679 19.4452 1.50287 13.2873C1.83762 9.6083 3.26843 6.80437 4.41162 5.13549C4.76749 4.6163 5.5093 4.60899 5.91962 5.08674L6.94255 6.27787C7.01324 6.35993 7.14243 6.35099 7.20093 6.25999Z" fill="url(#paint0_radial_1023_4334)"/>
<path d="M7.20093 6.25999C8.44974 4.31243 9.18912 2.51355 9.57424 1.24118C9.72212 0.753679 10.3461 0.554616 10.7166 0.903991C16.3009 6.1698 18.1266 10.1909 18.4898 14.8367C18.7563 19.3307 16.5479 23.3298 10.6191 23.3298C5.05349 23.3298 0.944679 19.4452 1.50287 13.2873C1.83762 9.6083 3.26843 6.80437 4.41162 5.13549C4.76749 4.6163 5.5093 4.60899 5.91962 5.08674L6.94255 6.27787C7.01324 6.35993 7.14243 6.35099 7.20093 6.25999Z" fill="url(#paint1_radial_1023_4334)"/>
<path d="M7.20093 6.25999C8.44974 4.31243 9.18912 2.51355 9.57424 1.24118C9.72212 0.753679 10.3461 0.554616 10.7166 0.903991C16.3009 6.1698 18.1266 10.1909 18.4898 14.8367C18.7563 19.3307 16.5479 23.3298 10.6191 23.3298C5.05349 23.3298 0.944679 19.4452 1.50287 13.2873C1.83762 9.6083 3.26843 6.80437 4.41162 5.13549C4.76749 4.6163 5.5093 4.60899 5.91962 5.08674L6.94255 6.27787C7.01324 6.35993 7.14243 6.35099 7.20093 6.25999Z" fill="url(#paint2_linear_1023_4334)"/>
<path d="M7.20093 6.25999C8.44974 4.31243 9.18912 2.51355 9.57424 1.24118C9.72212 0.753679 10.3461 0.554616 10.7166 0.903991C16.3009 6.1698 18.1266 10.1909 18.4898 14.8367C18.7563 19.3307 16.5479 23.3298 10.6191 23.3298C5.05349 23.3298 0.944679 19.4452 1.50287 13.2873C1.83762 9.6083 3.26843 6.80437 4.41162 5.13549C4.76749 4.6163 5.5093 4.60899 5.91962 5.08674L6.94255 6.27787C7.01324 6.35993 7.14243 6.35099 7.20093 6.25999Z" fill="url(#paint3_radial_1023_4334)"/>
<path d="M7.20093 6.25999C8.44974 4.31243 9.18912 2.51355 9.57424 1.24118C9.72212 0.753679 10.3461 0.554616 10.7166 0.903991C16.3009 6.1698 18.1266 10.1909 18.4898 14.8367C18.7563 19.3307 16.5479 23.3298 10.6191 23.3298C5.05349 23.3298 0.944679 19.4452 1.50287 13.2873C1.83762 9.6083 3.26843 6.80437 4.41162 5.13549C4.76749 4.6163 5.5093 4.60899 5.91962 5.08674L6.94255 6.27787C7.01324 6.35993 7.14243 6.35099 7.20093 6.25999Z" fill="url(#paint4_radial_1023_4334)"/>
<path d="M7.20093 6.25999C8.44974 4.31243 9.18912 2.51355 9.57424 1.24118C9.72212 0.753679 10.3461 0.554616 10.7166 0.903991C16.3009 6.1698 18.1266 10.1909 18.4898 14.8367C18.7563 19.3307 16.5479 23.3298 10.6191 23.3298C5.05349 23.3298 0.944679 19.4452 1.50287 13.2873C1.83762 9.6083 3.26843 6.80437 4.41162 5.13549C4.76749 4.6163 5.5093 4.60899 5.91962 5.08674L6.94255 6.27787C7.01324 6.35993 7.14243 6.35099 7.20093 6.25999Z" fill="url(#paint5_radial_1023_4334)"/>
<path d="M7.20093 6.25999C8.44974 4.31243 9.18912 2.51355 9.57424 1.24118C9.72212 0.753679 10.3461 0.554616 10.7166 0.903991C16.3009 6.1698 18.1266 10.1909 18.4898 14.8367C18.7563 19.3307 16.5479 23.3298 10.6191 23.3298C5.05349 23.3298 0.944679 19.4452 1.50287 13.2873C1.83762 9.6083 3.26843 6.80437 4.41162 5.13549C4.76749 4.6163 5.5093 4.60899 5.91962 5.08674L6.94255 6.27787C7.01324 6.35993 7.14243 6.35099 7.20093 6.25999Z" fill="url(#paint6_radial_1023_4334)"/>
<path d="M7.20093 6.25999C8.44974 4.31243 9.18912 2.51355 9.57424 1.24118C9.72212 0.753679 10.3461 0.554616 10.7166 0.903991C16.3009 6.1698 18.1266 10.1909 18.4898 14.8367C18.7563 19.3307 16.5479 23.3298 10.6191 23.3298C5.05349 23.3298 0.944679 19.4452 1.50287 13.2873C1.83762 9.6083 3.26843 6.80437 4.41162 5.13549C4.76749 4.6163 5.5093 4.60899 5.91962 5.08674L6.94255 6.27787C7.01324 6.35993 7.14243 6.35099 7.20093 6.25999Z" fill="url(#paint7_radial_1023_4334)"/>
<g filter="url(#filter0_i_1023_4334)">
<path d="M5.26961 15.1504C6.32749 12.6316 8.4993 9.84559 9.96586 8.33352C10.1648 8.13007 10.4356 8.01283 10.72 8.00706C11.0045 8.00129 11.2799 8.10743 11.4869 8.30265C14.2989 10.8937 15.1455 13.2361 15.8638 15.9629C16.6113 18.8001 15.8638 23.3713 10.2405 23.3713C5.39799 23.3713 3.71936 18.8391 5.26961 15.1504Z" fill="url(#paint8_radial_1023_4334)"/>
<path d="M5.26961 15.1504C6.32749 12.6316 8.4993 9.84559 9.96586 8.33352C10.1648 8.13007 10.4356 8.01283 10.72 8.00706C11.0045 8.00129 11.2799 8.10743 11.4869 8.30265C14.2989 10.8937 15.1455 13.2361 15.8638 15.9629C16.6113 18.8001 15.8638 23.3713 10.2405 23.3713C5.39799 23.3713 3.71936 18.8391 5.26961 15.1504Z" fill="url(#paint9_radial_1023_4334)"/>
<path d="M5.26961 15.1504C6.32749 12.6316 8.4993 9.84559 9.96586 8.33352C10.1648 8.13007 10.4356 8.01283 10.72 8.00706C11.0045 8.00129 11.2799 8.10743 11.4869 8.30265C14.2989 10.8937 15.1455 13.2361 15.8638 15.9629C16.6113 18.8001 15.8638 23.3713 10.2405 23.3713C5.39799 23.3713 3.71936 18.8391 5.26961 15.1504Z" fill="url(#paint10_radial_1023_4334)"/>
</g>
<path d="M5.26961 15.1504C6.32749 12.6316 8.4993 9.84559 9.96586 8.33352C10.1648 8.13007 10.4356 8.01283 10.72 8.00706C11.0045 8.00129 11.2799 8.10743 11.4869 8.30265C14.2989 10.8937 15.1455 13.2361 15.8638 15.9629C16.6113 18.8001 15.8638 23.3713 10.2405 23.3713C5.39799 23.3713 3.71936 18.8391 5.26961 15.1504Z" fill="url(#paint11_linear_1023_4334)"/>
<path d="M5.26961 15.1504C6.32749 12.6316 8.4993 9.84559 9.96586 8.33352C10.1648 8.13007 10.4356 8.01283 10.72 8.00706C11.0045 8.00129 11.2799 8.10743 11.4869 8.30265C14.2989 10.8937 15.1455 13.2361 15.8638 15.9629C16.6113 18.8001 15.8638 23.3713 10.2405 23.3713C5.39799 23.3713 3.71936 18.8391 5.26961 15.1504Z" fill="url(#paint12_radial_1023_4334)"/>
<g filter="url(#filter1_f_1023_4334)">
<path d="M6.59887 8.37537C8.47981 5.621 9.58074 2.64075 9.91631 1.90625C9.42637 5.67137 7.99881 8.429 5.31106 11.9796C3.16118 14.8201 2.77281 17.2511 2.79149 17.8434C2.11956 13.3243 4.24668 11.8179 6.59887 8.37537Z" fill="url(#paint13_linear_1023_4334)"/>
</g>
<g filter="url(#filter2_f_1023_4334)">
<path d="M4.97387 5.39746C3.91762 6.70884 1.81812 10.3456 1.87012 14.4032C2.91012 10.2416 5.34356 8.93021 4.97387 5.39746Z" fill="url(#paint14_linear_1023_4334)"/>
</g>
<defs>
<filter id="filter0_i_1023_4334" x="4.71048" y="8.00684" width="11.8954" height="15.3643" filterUnits="userSpaceOnUse" color-interpolation-filters="sRGB">
<feFlood flood-opacity="0" result="BackgroundImageFix"/>
<feBlend mode="normal" in="SourceGraphic" in2="BackgroundImageFix" result="shape"/>
<feColorMatrix in="SourceAlpha" type="matrix" values="0 0 0 0 0 0 0 0 0 0 0 0 0 0 0 0 0 0 127 0" result="hardAlpha"/>
<feOffset dx="0.5"/>
<feGaussianBlur stdDeviation="0.25"/>
<feComposite in2="hardAlpha" operator="arithmetic" k2="-1" k3="1"/>
<feColorMatrix type="matrix" values="0 0 0 0 0.952941 0 0 0 0 0.615686 0 0 0 0 0.364706 0 0 0 1 0"/>
<feBlend mode="normal" in2="shape" result="effect1_innerShadow_1023_4334"/>
</filter>
<filter id="filter1_f_1023_4334" x="1.41565" y="0.65625" width="9.75067" height="18.4375" filterUnits="userSpaceOnUse" color-interpolation-filters="sRGB">
<feFlood flood-opacity="0" result="BackgroundImageFix"/>
<feBlend mode="normal" in="SourceGraphic" in2="BackgroundImageFix" result="shape"/>
<feGaussianBlur stdDeviation="0.625" result="effect1_foregroundBlur_1023_4334"/>
</filter>
<filter id="filter2_f_1023_4334" x="0.369171" y="3.89746" width="6.14258" height="12.0059" filterUnits="userSpaceOnUse" color-interpolation-filters="sRGB">
<feFlood flood-opacity="0" result="BackgroundImageFix"/>
<feBlend mode="normal" in="SourceGraphic" in2="BackgroundImageFix" result="shape"/>
<feGaussianBlur stdDeviation="0.75" result="effect1_foregroundBlur_1023_4334"/>
</filter>
<radialGradient id="paint0_radial_1023_4334" cx="0" cy="0" r="1" gradientUnits="userSpaceOnUse" gradientTransform="translate(16.5012 15.0229) rotate(-179.474) scale(13.8928 20.9512)">
<stop stop-color="#FF953D"/>
<stop offset="1" stop-color="#FF5141"/>
</radialGradient>
<radialGradient id="paint1_radial_1023_4334" cx="0" cy="0" r="1" gradientUnits="userSpaceOnUse" gradientTransform="translate(5.42742 11.7192) rotate(-157.937) scale(8.40458 14.5027)">
<stop stop-color="#CE5327"/>
<stop offset="1" stop-color="#CE5327" stop-opacity="0"/>
</radialGradient>
<linearGradient id="paint2_linear_1023_4334" x1="11.898" y1="23.3298" x2="11.898" y2="19.1877" gradientUnits="userSpaceOnUse">
<stop stop-color="#FF7583"/>
<stop offset="1" stop-color="#FF7583" stop-opacity="0"/>
</linearGradient>
<radialGradient id="paint3_radial_1023_4334" cx="0" cy="0" r="1" gradientUnits="userSpaceOnUse" gradientTransform="translate(1.028 10.6935) rotate(24.015) scale(2.52253 20.8805)">
<stop stop-color="#FFAA7B"/>
<stop offset="1" stop-color="#FFAA7B" stop-opacity="0"/>
</radialGradient>
<radialGradient id="paint4_radial_1023_4334" cx="0" cy="0" r="1" gradientUnits="userSpaceOnUse" gradientTransform="translate(4.56437 4.07843) rotate(77.3197) scale(3.12028 3.8934)">
<stop stop-color="#FF5E47"/>
<stop offset="1" stop-color="#FF5E47" stop-opacity="0"/>
</radialGradient>
<radialGradient id="paint5_radial_1023_4334" cx="0" cy="0" r="1" gradientUnits="userSpaceOnUse" gradientTransform="translate(10.3486 0.110178) rotate(87.8819) scale(8.23663 7.62386)">
<stop stop-color="#FF2F3C"/>
<stop offset="1" stop-color="#FF2F3C" stop-opacity="0"/>
</radialGradient>
<radialGradient id="paint6_radial_1023_4334" cx="0" cy="0" r="1" gradientUnits="userSpaceOnUse" gradientTransform="translate(8.29374 2.9003) rotate(25.3283) scale(1.86789 3.74848)">
<stop stop-color="#FF846C"/>
<stop offset="1" stop-color="#FF846C" stop-opacity="0"/>
</radialGradient>
<radialGradient id="paint7_radial_1023_4334" cx="0" cy="0" r="1" gradientUnits="userSpaceOnUse" gradientTransform="translate(7.12212 5.67093) rotate(113.224) scale(1.85117 0.424211)">
<stop stop-color="#FFA682"/>
<stop offset="1" stop-color="#FFA682" stop-opacity="0"/>
</radialGradient>
<radialGradient id="paint8_radial_1023_4334" cx="0" cy="0" r="1" gradientUnits="userSpaceOnUse" gradientTransform="translate(14.2282 18.8061) rotate(-168.558) scale(8.14864 10.1474)">
<stop stop-color="#FFDA2F"/>
<stop offset="1" stop-color="#FF8E41"/>
</radialGradient>
<radialGradient id="paint9_radial_1023_4334" cx="0" cy="0" r="1" gradientUnits="userSpaceOnUse" gradientTransform="translate(7.07499 5.98134) rotate(69.044) scale(11.4908 9.98392)">
<stop stop-color="#FD5639"/>
<stop offset="1" stop-color="#FE5533" stop-opacity="0"/>
</radialGradient>
<radialGradient id="paint10_radial_1023_4334" cx="0" cy="0" r="1" gradientUnits="userSpaceOnUse" gradientTransform="translate(12.6317 15.7614) rotate(174.239) scale(7.96141 19.493)">
<stop offset="0.628" stop-color="#D7812D" stop-opacity="0"/>
<stop offset="1" stop-color="#D7812D"/>
</radialGradient>
<linearGradient id="paint11_linear_1023_4334" x1="10.4087" y1="7.62259" x2="10.4087" y2="10.5858" gradientUnits="userSpaceOnUse">
<stop stop-color="#F95131"/>
<stop offset="1" stop-color="#F95131" stop-opacity="0"/>
</linearGradient>
<radialGradient id="paint12_radial_1023_4334" cx="0" cy="0" r="1" gradientUnits="userSpaceOnUse" gradientTransform="translate(15.6761 14.2778) rotate(143.063) scale(13.0444 9.43914)">
<stop offset="0.772" stop-color="#F18A52" stop-opacity="0"/>
<stop offset="1" stop-color="#F18A52"/>
</radialGradient>
<linearGradient id="paint13_linear_1023_4334" x1="9.18424" y1="2.45712" x2="3.21968" y2="17.4697" gradientUnits="userSpaceOnUse">
<stop stop-color="#FF7558"/>
<stop offset="1" stop-color="#F38758"/>
</linearGradient>
<linearGradient id="paint14_linear_1023_4334" x1="4.75206" y1="5.61684" x2="1.53537" y2="14.8265" gradientUnits="userSpaceOnUse">
<stop stop-color="#FF815B"/>
<stop offset="1" stop-color="#FF9C6D"/>
</linearGradient>
</defs>
</svg>
